<svg xmlns="http://www.w3.org/2000/svg" width="140.6" height="46.8" viewBox="0 0 140.6 46.8"><style type="text/css">.st0{fill:#FFFFFF;}</style><path id="XMLID_611_" class="st0" d="M7.7 23v5.9s0 .1.1.1h4.7c.4 0 .8.3.8.8v4.1c0 .4-.4.8-.8.8H7.8s-.1 0-.1.1V46s0 .1-.1.1H.1L0 46V18.1c0-.4.3-.7.7-.7h13.8c.4 0 .7.3.7.7V23s0 .1-.1.1L7.7 23z"/><path id="XMLID_614_" class="st0" d="M17.1 45.4V18c0-.4.3-.7.7-.7h6.4c.4 0 .7.3.7.7v27.4c0 .4-.3.7-.7.7h-6.4c-.4-.1-.7-.4-.7-.7z"/><path id="XMLID_618_" class="st0" d="M40.1 46c-.3 0-.6-.2-.7-.5-.5-1.2-.8-2.6-.8-3.9v-5.1c0-.6-.5-1.5-1.6-1.5h-1c-.4 0-.8.4-.8.8v9.5c0 .4-.4.8-.8.8h-6.1c-.4 0-.8-.4-.8-.8V18.8c0-.8.7-1.5 1.5-1.5h9.5c3.7 0 7.2 2.3 7.2 6v5.2c0 1-.6 2.2-1.7 3-.4.3-.5 1 0 1.3 1.2.8 1.9 2 1.9 3.1v5.3c0 1.4.3 2.6.6 3.8.2.5-.2 1-.8 1h-5.6zm-1.6-21.7c0-.8-.5-1.1-1.3-1.1h-1.1c-.4 0-.8.4-.8.8v4.8c0 .4.4.8.8.8h1.1c.9 0 1.3-.3 1.3-1.1v-4.2z"/><path id="XMLID_622_" class="st0" d="M57 46.8c-5.9 0-9.4-2.7-9.4-7.1V37c0-.3.3-.6.6-.6h5.5c.3 0 .6.3.6.6v1.9c0 1.1.9 1.9 2.3 1.9 1.5 0 2.2-.6 2.2-1.9 0-2.4-1.8-3.3-5.8-5.8-3.6-2.3-5.2-5.5-5.2-8.8 0-3.9 3.2-7.7 9.4-7.7 5.1 0 8.6 3.2 8.6 7.1V26c0 .4-.3.7-.7.7h-5.4c-.4 0-.7-.3-.7-.7v-1.7c0-1-.8-1.6-1.8-1.6s-2 .6-2 1.7c0 2.9 1 3.3 5.1 5.6 3.8 2 5.9 5.6 5.9 9.2 0 3.8-3.3 7.6-9.2 7.6z"/><path id="XMLID_625_" class="st0" d="M80.3 23.8v21.5c0 .4-.3.7-.7.7h-6.4c-.4 0-.7-.3-.7-.7V23.8c0-.4-.3-.7-.7-.7h-4.1c-.4 0-.7-.3-.7-.7V18c0-.4.3-.7.7-.7h17.1c.4 0 .7.3.7.7v4.5c0 .4-.3.7-.7.7h-3.9c-.3 0-.6.3-.6.6z"/><path id="XMLID_685_" class="st0" d="M94 45.6l-3-14.9v14.7c0 .2-.2.4-.4.4h-2.8c-.2 0-.4-.2-.4-.4V17.8c0-.2.2-.4.4-.4h4.3c.2 0 .4.1.4.3l2.4 15v-15c0-.2.2-.4.4-.4h2.9c.2 0 .4.2.4.4v27.7c0 .2-.2.4-.4.4h-3.7c-.3.1-.4 0-.5-.2z"/><path id="XMLID_687_" class="st0" d="M100.6 45.4V17.8c0-.3.2-.5.5-.5h3.4c.3 0 .5.2.5.5v27.6c0 .3-.2.5-.5.5H101c-.2 0-.4-.2-.4-.5z"/><path id="XMLID_689_" class="st0" d="M114.6 46.2l-.3-.6c-.7.6-1.7.9-2.8.9-2.8 0-4.6-2-4.6-5.2V22.6c0-2.9 2.3-5.3 5.2-5.3 2.8.1 4.9 2.4 4.9 5.2v5.8c0 .2-.2.4-.4.4h-3.3c-.2 0-.4-.2-.4-.4v-5.6c0-.3-.2-.7-.5-.8-.6-.3-1.2.2-1.2.8v18.9c0 .3.1.6.4.7.6.4 1.3-.1 1.3-.7v-5.2c0-.2-.1-.3-.3-.3h-.2c-.2 0-.3-.1-.3-.3v-3.1c0-.2.1-.3.3-.3h4.6c.2 0 .3.1.3.3v13.2c0 .2-.2.4-.4.4l-2.3-.1z"/><path id="XMLID_691_" class="st0" d="M124.9 45.5V34.3c0-.2-.2-.4-.4-.4h-1c-.2 0-.4.2-.4.4v11.2c0 .2-.2.4-.4.4H119c-.2 0-.4-.2-.4-.4V17.7c0-.2.2-.4.4-.4h3.7c.2 0 .4.2.4.4v11.6c0 .2.2.4.4.4h1c.2 0 .4-.2.4-.4V17.7c0-.2.2-.4.4-.4h3.7c.2 0 .4.2.4.4v27.8c0 .2-.2.4-.4.4h-3.7c-.2 0-.4-.2-.4-.4z"/><path id="XMLID_693_" class="st0" d="M137.8 22.1v23.4c0 .2-.2.4-.4.4h-3.6c-.2 0-.4-.2-.4-.4V22.1c0-.2-.2-.4-.4-.4h-2.1c-.2 0-.4-.2-.4-.4v-3.6c0-.2.2-.4.4-.4h9.3c.2 0 .4.2.4.4v3.6c0 .2-.2.4-.4.4h-2c-.2 0-.4.2-.4.4z"/><path class="st0" d="M47.5 7.4c0-1.1 0-2.1-.1-3.2.2 0 .4.1.6.1.2 0 .4 0 .6-.1 0 1.1-.1 2.1-.1 3.2v2.1c0 1.1 0 2.1.1 3.2-.2 0-.4-.1-.6-.1-.2 0-.4 0-.6.1 0-1.1.1-2.1.1-3.2V7.4zM57.3 5.7c-.5-.6-1.5-1.2-2.7-1.2-2 0-3.6 1.2-3.6 3.9 0 2.4 1.4 3.9 3.7 3.9.7 0 1.5-.1 2-.4v-1.8c0-.6 0-1.2-.1-1.7.2 0 .4.1.6.1.2 0 .4 0 .5-.1v3.8c-.7.2-2.2.6-3.1.6-2.9 0-4.7-1.5-4.7-4.4 0-2.8 1.9-4.4 4.8-4.4 1.7 0 2.6.4 3.1.7-.1.2-.2.6-.3.9h-.2v.1zM65.1 7.4c0-1.1 0-2.1-.1-3.2.2 0 .4.1.6.1.2 0 .4 0 .6-.1-.1 1.1-.1 2.1-.1 3.2v2.1c0 1.1 0 2.1.1 3.2-.2 0-.4-.1-.6-.1-.2 0-.4 0-.6.1 0-1.1.1-2.1.1-3.2V8.4h-5.2v1.1c0 1.1 0 2.1.1 3.2-.2 0-.4-.1-.6-.1-.2 0-.4 0-.6.1.1-1.1.1-2.1.1-3.2V7.4c0-1.1 0-2.1-.1-3.2.2 0 .4.1.6.1.2 0 .4 0 .6-.1v3.6h5.2v-.4h-.1zM68.6 4c1.1 2.3 2.3 4.5 3.5 6.8.5-1 2.4-4.5 3.7-6.8h.2c.4 3.1.6 5.8 1 8.6-.2 0-.4-.1-.6-.1-.2 0-.4 0-.6.1-.2-2.2-.3-4.2-.6-6.3-1.1 2.1-2.3 4.1-3.2 6.3h-.1c-1-2-2.1-4.2-3.2-6.3-.2 2-.6 5-.6 6.3-.1 0-.3-.1-.4-.1-.1 0-.3 0-.4.1.4-2.7.9-6 1.2-8.6h.1zM91.3 9.5V7.4c0-1.1 0-2.1-.1-3.2.2 0 .4.1.6.1.2 0 .4 0 .6-.1 0 1.1-.1 2.1-.1 3.2v.7c0 .1 0 .1.1.1 0 0 .1 0 .2-.1 1.1-1 2.5-2.5 3.7-3.8.2 0 .3.1.5.1s.4 0 .6-.1c-1.1 1-3 2.8-3.9 3.8 1.3 1.5 3.3 4 4.7 5.5-.2 0-.5-.1-.7-.1-.2 0-.5 0-.7.1-1.2-1.4-3.7-4.6-4.2-5.1l-.1-.1s-.1 0-.1.1v1.1c0 1.1 0 2.1.1 3.2-.2 0-.4-.1-.6-.1-.2 0-.4 0-.6.1V9.5zM87.5 8.5c.9-.1 2.5-.8 2.5-2.3 0-1.5-1.2-1.9-2.6-1.9-.5 0-.9.1-1.4.1-.5 0-.9 0-1.4-.1 0 1.1.1 2.1.1 3.2v2.1c0 1.1 0 2.1-.1 3.2C84 11.4 82.2 6.9 81 4h-.2c-1.3 2.9-2.5 5.8-3.8 8.6.2 0 .3-.1.5-.1.1 0 .3 0 .5.1.2-.8 2.8-7 2.8-7s2.6 6.1 2.8 7c.2 0 .4-.1.7-.1.2 0 .4 0 .6.1.2 0 .4-.1.6-.1.2 0 .4 0 .6.1 0-1.1-.1-2.1-.1-3.2v-2c0-.9 0-1.8.1-2.7.3 0 .6-.1 1.2-.1.6.1 1.7.4 1.7 1.7 0 1.5-1.3 1.9-2.3 1.9h-.4v.5c1.1 1.1 2.6 3.3 3.1 4.1.2 0 .5-.1.7-.1.2 0 .5 0 .7.1-.7-.9-2.7-3.6-3.3-4.3zM49.5.1C44 .4 39.2.8 35.8 1.5c-2.4.5-5.2 1.2-5.5 2.3-.1.5.3 1 1.3 1.4 2.2 1.1 6.9 1.9 13.4 2.5V7.4c-5.2-.4-8.8-1.1-10.7-2-.9-.4-1.3-.9-1.2-1.3.4-1.7 8-3.2 19.1-3.6C57.3.3 62.8.3 67.9.6V.5C62 0 55.5-.1 49.5.1zM45.8 7.1c0-1.2.1-3.1.1-4.3-.2 0-.4.1-.6.1-.2 0-.4 0-.6-.1.1 1.2.1 3.1.1 4.3v2.2c0 1.2-.1 2.1-.1 3.4.2 0 .4-.1.6-.1.2 0 .4 0 .6.1-.1-1.2-.1-2.1-.1-3.4V7.1zM40.1 7.6c-.4-.1-.7-.1-1-.2v1.8c0 1.2-.1 2.1-.1 3.4.2 0 .4-.1.6-.1.2 0 .4 0 .6.1-.1-1.2-.1-2.1-.1-3.4V7.6zM38.3 2.8c0 1.1.1 2.2.1 3.4.3.1.7.1 1 .2 0-1.2.1-2.4.1-3.6-.2 0-.4.1-.6.1-.2 0-.4-.1-.6-.1zM100.3 11.3c.5 0 .8.4.8.8 0 .5-.3.9-.8.9s-.8-.4-.8-.9c0-.4.4-.8.8-.8zm0 1.9c.5 0 1-.4 1-1 0-.5-.4-1-1-1-.5 0-1 .4-1 1 0 .5.5 1 1 1zm-.3-.5h.2v-.5h.1l.3.5h.2l-.1-.1c-.1-.2-.2-.3-.3-.5.2 0 .3-.1.3-.3 0-.2-.1-.3-.3-.3h-.4v1.2zm.2-1c.2 0 .3 0 .3.2s-.1.2-.3.2v-.4z"/></svg>