<svg xmlns="http://www.w3.org/2000/svg" viewBox="0 0 94 94"><style type="text/css">.st0{fill:#87D0E7;} .st1{fill:#FFD770;}</style><path class="st0" d="M20.6 11.8h5.9c1.6 0 2.9-1.3 2.9-2.9v-6c0-1.6-1.3-2.9-2.9-2.9h-5.9c-1.6 0-2.9 1.3-2.9 2.9v5.9c-.1 1.6 1.2 3 2.9 3zM67.6 11.8h5.9c1.6 0 2.9-1.3 2.9-2.9v-6c0-1.6-1.3-2.9-2.9-2.9h-5.9c-1.6 0-2.9 1.3-2.9 2.9v5.9c-.1 1.6 1.2 3 2.9 3zM88.1 0h-2.9c-1.6 0-2.9 1.3-2.9 2.9v11.8c0 1.6-1.3 2.9-2.9 2.9H61.7c-1.6 0-2.9-1.3-2.9-2.9V2.9c0-1.6-1.3-2.9-2.9-2.9H38.2c-1.6 0-2.9 1.3-2.9 2.9v11.8c0 1.6-1.3 2.9-2.9 2.9H14.7c-1.6 0-2.9-1.3-2.9-2.9V2.9c0-1.6-1.3-2.9-2.9-2.9h-3C2.6 0 0 2.6 0 5.9v82.2C0 91.4 2.6 94 5.9 94h82.2c3.2 0 5.9-2.6 5.9-5.9V5.9C94 2.6 91.4 0 88.1 0zm-5.9 82.2H11.8V29.4h70.5v52.8z"/><path class="st1" d="M39.9 69.7c1 1 2.7 1 3.7 0l26.1-26.3c1-1 1-2.7 0-3.7L66 36c-1-1-2.7-1-3.7 0L41.8 56.7l-10.1-9.4c-1-1-2.7-1-3.7 0L24.3 51c-1 1-1 2.7 0 3.7l15.6 15z"/></svg>
