<svg xmlns="http://www.w3.org/2000/svg" viewBox="0 0 230.9 273.4"><style type="text/css">.st0{fill:#103A5C;} .st1{opacity:0.48;fill:#5A5A5A;} .st2{fill:#FFFFFF;}</style><circle id="XMLID_4998_" class="st0" cx="115.4" cy="115.4" r="115.4"/><ellipse id="XMLID_4448_" class="st1" cx="118.1" cy="270.7" rx="86" ry="2.7"/><g id="XMLID_4270_"><path id="XMLID_4324_" class="st2" d="M67.3 68.9v8.7s0 .1.1.1h7c.6 0 1.2.5 1.2 1.2V85c0 .7-.5 1.2-1.2 1.2h-7s-.1 0-.1.1V103s0 .1-.1.1H55.9s-.1 0-.1-.1V61.5c0-.6.5-1 1-1h20.4c.6 0 1.1.5 1.1 1.1v7.2s0 .1-.1.1H67.3c0-.1 0 0 0 0z"/><path id="XMLID_4320_" class="st2" d="M81.2 102.1V61.5c0-.5.4-1 1-1h9.5c.5 0 1 .4 1 1v40.6c0 .5-.4 1-1 1h-9.5c-.5 0-1-.5-1-1z"/><path id="XMLID_4315_" class="st2" d="M115.4 103.1c-.5 0-.9-.3-1.1-.8-.7-1.8-1.1-3.9-1.1-5.8v-7.6c0-1-.8-2.2-2.4-2.2h-1.4c-.6 0-1.2.5-1.2 1.2v14c0 .6-.5 1.2-1.2 1.2h-9.1c-.6 0-1.2-.5-1.2-1.2V62.7c0-1.2 1-2.2 2.2-2.2h14c5.5 0 10.7 3.5 10.7 8.8V77c0 1.5-.9 3.3-2.6 4.5-.7.5-.7 1.5 0 1.9 1.8 1.2 2.8 3 2.8 4.6v7.9c0 2.1.4 3.9 1 5.6.2.8-.3 1.5-1.1 1.5h-8.3zm-2.5-32.3c0-1.2-.7-1.7-2-1.7h-1.6c-.6 0-1.2.5-1.2 1.2v7.1c0 .6.5 1.2 1.2 1.2h1.6c1.3 0 2-.5 2-1.7v-6.1z"/><path id="XMLID_4313_" class="st2" d="M140.4 104.1c-8.7 0-14-3.9-14-10.5v-3.9c0-.5.4-.9.9-.9h8.2c.5 0 .9.4.9.9v2.8c0 1.7 1.3 2.8 3.5 2.8s3.2-1 3.2-2.8c0-3.5-2.7-4.8-8.7-8.6-5.4-3.4-7.7-8.1-7.7-13 0-5.8 4.7-11.4 14-11.4 7.5 0 12.7 4.7 12.7 10.5v3.3c0 .6-.4 1-1 1h-8c-.6 0-1-.4-1-1v-2.5c0-1.5-1.2-2.4-2.7-2.4-1.5 0-3 .9-3 2.5 0 4.3 1.5 5 7.6 8.3 5.6 3 8.8 8.4 8.8 13.6-.1 5.8-4.9 11.3-13.7 11.3z"/><path id="XMLID_4311_" class="st2" d="M175 70.1v32c0 .6-.4 1-1 1h-9.4c-.6 0-1-.4-1-1v-32c0-.6-.4-1-1-1h-6c-.6 0-1-.4-1-1v-6.6c0-.6.4-1 1-1h25.3c.6 0 1 .4 1 1v6.6c0 .6-.4 1-1 1H176c-.6 0-1 .5-1 1z"/><path id="XMLID_4309_" class="st2" d="M71.8 173.3L64.7 139v34.1c0 .5-.4.9-.9.9h-6.6c-.6 0-1-.5-1-1v-64c0-.5.4-1 1-1h10c.5 0 .8.3.9.8l5.5 34.8v-34.7c0-.5.4-.9.9-.9h6.7c.5 0 .9.4.9.9v64.2c0 .6-.5 1-1 1h-8.5c-.3 0-.7-.3-.8-.8z"/><path id="XMLID_4307_" class="st2" d="M86.9 173v-63.9c0-.6.5-1.1 1.1-1.1h8c.6 0 1.1.5 1.1 1.1V173c0 .6-.5 1.1-1.1 1.1h-8c-.6 0-1.1-.5-1.1-1.1z"/><path id="XMLID_4275_" class="st2" d="M119.3 174.1l-.8-1.3c-1.7 1.4-4 2.1-6.5 2.1-6.4 0-10.6-4.7-10.6-12.1v-43.4c0-6.7 5.4-12.3 12.1-12.2 6.5.2 11.4 5.6 11.4 12.1v13.4c0 .6-.4 1-1 1h-7.7c-.6 0-1-.4-1-1v-13c0-.8-.4-1.6-1.1-1.9-1.4-.6-2.8.4-2.8 1.8v43.7c0 .7.3 1.3.8 1.7 1.5 1 3.1-.2 3.1-1.6v-12.1c0-.4-.3-.7-.7-.7h-.5c-.4 0-.7-.3-.7-.7v-7.3c0-.4.3-.7.7-.7h10.7c.4 0 .7.3.7.7v30.6c0 .5-.4 1-1 1l-5.1-.1c.1 0 0 0 0 0z"/><path id="XMLID_4273_" class="st2" d="M143.3 173.2v-25.9c0-.5-.4-.8-.8-.8h-2.3c-.5 0-.8.4-.8.8v25.9c0 .5-.4.8-.8.8H130c-.5 0-.8-.4-.8-.8v-64.4c0-.5.4-.8.8-.8h8.5c.5 0 .8.4.8.8v26.8c0 .5.4.8.8.8h2.3c.5 0 .8-.4.8-.8v-26.8c0-.5.4-.8.8-.8h8.5c.5 0 .8.4.8.8v64.4c0 .5-.4.8-.8.8H144c-.3.1-.7-.3-.7-.8z"/><path id="XMLID_4271_" class="st2" d="M173.2 119v54.2c0 .5-.4.9-.9.9h-8.4c-.5 0-.9-.4-.9-.9V119c0-.5-.4-.9-.9-.9h-5c-.5 0-.9-.4-.9-.9v-8.3c0-.5.4-.9.9-.9h21.5c.5 0 .9.4.9.9v8.3c0 .5-.4.9-.9.9H174c-.4 0-.8.4-.8.9z"/></g></svg>
