<svg xmlns="http://www.w3.org/2000/svg" viewBox="0 0 94 94" enable-background="new 0 0 94 94"><style type="text/css">.st0{fill:#EAEAEA;}</style><path class="st0" d="M73.9 16c-4.5 0-8.1-3.6-8.1-8.1 0-3.7 2.5-6.9 6.1-7.9.3-.1.7 0 1 .3.3.3.4.6.3 1-.1.5-.2 1-.2 1.5 0 3.4 2.7 6.1 6.1 6.1.5 0 1-.1 1.5-.2.4-.1.7 0 1 .3.3.3.4.6.3 1-1 3.5-4.3 6-8 6zM70.9 2.6c-1.8 1.1-3 3.1-3 5.3 0 3.4 2.7 6.1 6.1 6.1 2.2 0 4.2-1.2 5.3-3h-.2C74.6 11 71 7.4 71 2.9c-.1-.2-.1-.2-.1-.3zM83.7 30H59.1v-9.8c0-2.7-2.2-4.9-4.9-4.9H9.9c-2.7 0-4.9 2.2-4.9 4.9v68.9C5 91.8 7.2 94 9.9 94h73.8c2.7 0 4.9-2.2 4.9-4.9V34.9c.1-2.7-2.1-4.9-4.9-4.9zm-34.4 4.9v49.2H14.8v-59h34.5v9.8zm29.5 49.2H59.1V39.8h19.7v44.3zM19.8 30h9.8v9.8h-9.8zM34.5 30h9.8v9.8h-9.8zM19.8 44.8h9.8v9.8h-9.8zM34.5 44.8h9.8v9.8h-9.8zM19.8 59.5h9.8v9.8h-9.8zM34.5 59.5h9.8v9.8h-9.8zM64.1 44.8h9.8v9.8h-9.8zM64.1 59.5h9.8v9.8h-9.8z"/></svg>
