<?xml version="1.0" encoding="utf-8"?>
<!-- Generator: Adobe Illustrator 19.1.0, SVG Export Plug-In . SVG Version: 6.00 Build 0)  -->
<svg version="1.1" xmlns="http://www.w3.org/2000/svg" xmlns:xlink="http://www.w3.org/1999/xlink" x="0px" y="0px"
	 viewBox="0 0 80 80" style="enable-background:new 0 0 80 80;" xml:space="preserve">
<style type="text/css">
	.st0{display:none;}
	.st1{display:inline;fill:#0C2F4D;}
	.st2{display:inline;fill:none;stroke:#FFFFFF;stroke-width:4;stroke-miterlimit:10;}
	.st3{display:inline;}
	.st4{fill:#EAEAEA;}
	.st5{display:inline;fill:#EAEAEA;}
	.st6{display:inline;fill:none;stroke:#EAEAEA;stroke-width:4;stroke-miterlimit:10;}
	.st7{fill:#FFFFFF;}
	.st8{display:inline;fill:none;stroke:#EAEAEA;stroke-width:2;stroke-miterlimit:10;}
	.st9{display:inline;fill:#EAEAEA;stroke:#EAEAEA;stroke-width:2;stroke-miterlimit:10;}
	.st10{fill:none;stroke:#EAEAEA;stroke-width:2;stroke-miterlimit:10;}
</style>
<g id="BG" class="st0">
	<rect class="st1" width="80" height="80"/>
</g>
<g id="Plan_Your_Visit_1_1_" class="st0">
	<rect x="7.6" y="11.6" class="st2" width="14.5" height="14.5"/>
	<rect x="7.6" y="34.8" class="st2" width="14.5" height="14.5"/>
	<rect x="7.6" y="57.9" class="st2" width="14.5" height="14.5"/>
	<line class="st2" x1="29" y1="19" x2="74" y2="19"/>
	<line class="st2" x1="29" y1="42" x2="74" y2="42"/>
	<line class="st2" x1="29" y1="65" x2="74" y2="65"/>
	<polyline class="st2" points="4.7,9.4 14.8,19.5 32.6,1.7 	"/>
</g>
<g id="Plan_Your_Visit_1-outlined" class="st0">
	<g class="st3">
		<g>
			<g>
				<path class="st4" d="M24.1,30.1c0,0.5-0.5,1-1,1H6.6c-0.6,0-1-0.5-1-1V13.6c0-0.6,0.4-1,1-1h16.5c0.5,0,1,0.4,1,1V30.1z
					 M9.6,26.1c0,0.5,0.4,1,1,1h8.5c0.5,0,1-0.5,1-1v-8.5c0-0.5-0.5-1-1-1h-8.5c-0.6,0-1,0.5-1,1V26.1z"/>
			</g>
		</g>
	</g>
	<g class="st3">
		<g>
			<g>
				<path class="st4" d="M24.1,53.3c0,0.5-0.5,1-1,1H6.6c-0.6,0-1-0.5-1-1V36.8c0-0.5,0.4-1,1-1h16.5c0.5,0,1,0.5,1,1V53.3z
					 M9.6,49.3c0,0.5,0.4,1,1,1h8.5c0.5,0,1-0.5,1-1v-8.5c0-0.5-0.5-1-1-1h-8.5c-0.6,0-1,0.5-1,1V49.3z"/>
			</g>
		</g>
	</g>
	<g class="st3">
		<g>
			<g>
				<path class="st4" d="M24.1,76.4c0,0.6-0.5,1-1,1H6.6c-0.6,0-1-0.4-1-1V59.9c0-0.5,0.4-1,1-1h16.5c0.5,0,1,0.5,1,1V76.4z
					 M9.6,72.4c0,0.6,0.4,1,1,1h8.5c0.5,0,1-0.4,1-1v-8.5c0-0.5-0.5-1-1-1h-8.5c-0.6,0-1,0.5-1,1V72.4z"/>
			</g>
		</g>
	</g>
	<g class="st3">
		<g>
			<g>
				<path class="st4" d="M75,23c0,0.5-0.4,1-1,1H30c-0.5,0-1-0.5-1-1v-2c0-0.5,0.5-1,1-1h44c0.6,0,1,0.5,1,1V23z"/>
			</g>
		</g>
	</g>
	<g class="st3">
		<g>
			<g>
				<path class="st4" d="M75,46c0,0.5-0.4,1-1,1H30c-0.5,0-1-0.5-1-1v-2c0-0.5,0.5-1,1-1h44c0.6,0,1,0.5,1,1V46z"/>
			</g>
		</g>
	</g>
	<g class="st3">
		<g>
			<g>
				<path class="st4" d="M75,69c0,0.6-0.4,1-1,1H30c-0.5,0-1-0.4-1-1v-2c0-0.6,0.5-1,1-1h44c0.6,0,1,0.4,1,1V69z"/>
			</g>
		</g>
	</g>
	<g class="st3">
		<g>
			<g>
				<path class="st4" d="M15.5,24.6c-0.4,0.4-1,0.4-1.4,0L3,13.5c-0.4-0.4-0.4-1,0-1.4l1.4-1.4c0.4-0.4,1-0.4,1.4,0l8.2,8.2
					c0.4,0.4,1,0.4,1.4,0L33,1.5c0.4-0.4,1-0.4,1.4,0l1.4,1.4c0.4,0.4,0.4,1,0,1.4L15.5,24.6z"/>
			</g>
		</g>
	</g>
</g>
<g id="Lineup_1" class="st0">
	<path class="st5" d="M77.9,35.1V27H78v-2.2H1.4v11.7H78V35L77.9,35.1z M3.2,27h6.8l-6.8,8.1V27z M11.5,35.1H4.7l6.8-8.1V35.1z
		 M12.4,35.1V27l6.8,8.1H12.4z M20.8,35.1L14.1,27h6.8V35.1z M21.8,27h6.8l-6.8,8.1V27z M30.1,35.1h-6.8l6.8-8.1V35.1z M31.1,35.1
		V27l6.8,8.1H31.1z M39.5,35.1L32.7,27h6.8V35.1z M40.5,27h6.8l-6.8,8.1V27z M48.8,35.1H42l6.8-8.1V35.1z M49.8,35.1V27l6.8,8.1
		H49.8z M58.2,35.1L51.4,27h6.8V35.1z M59.2,27H66l-6.8,8.1V27z M67.5,35.1h-6.8l6.8-8.1V35.1z M68.5,35.1V27l6.8,8.1H68.5z
		 M76.9,35.1L70.1,27h6.8V35.1z"/>
	<path class="st5" d="M19.8,39.9l-1.4-4.7c-0.1-0.4-0.3-0.8-0.5-1.1c-0.2-0.3-0.4-0.5-0.7-0.7c-0.6-0.4-1.3-0.4-2-0.2
		c-0.7,0.2-1.2,0.6-1.5,1.3c-0.3,0.6-0.3,1.3,0,2.1l1.4,4.7L19.8,39.9z"/>
	<path class="st5" d="M64.3,41.3l2.1-4.4c0.2-0.4,0.3-0.8,0.4-1.1c0-0.3,0-0.6-0.1-1c-0.2-0.7-0.6-1.2-1.3-1.5
		c-0.7-0.3-1.4-0.4-2-0.1c-0.6,0.2-1.1,0.7-1.4,1.6l-2.1,4.4L64.3,41.3z"/>
	<path class="st5" d="M47.2,41.1l1.3-4.7c0.1-0.5,0.2-0.8,0.2-1.2c0-0.3-0.1-0.6-0.3-0.9c-0.3-0.6-0.8-1-1.6-1.2
		c-0.7-0.2-1.4-0.1-2,0.2c-0.5,0.3-0.9,0.9-1.1,1.8l-1.3,4.7L47.2,41.1z"/>
	<path class="st5" d="M66.7,16.5C60,9.1,51.2,5.4,40.4,5.4c-10.9,0-19.8,3.7-26.5,11c-0.9,1-1.8,2.1-2.6,3.2h58
		C68.5,18.6,67.6,17.5,66.7,16.5z"/>
	<g class="st3">
		<path class="st4" d="M1,16c-0.6,0-1,0.5-1,1v6.9c0,0.5,0,1.4,0,1.9s0,1.3,0,1.9v32.1c0,0.5,0,1.5,0,2V66c0,0.6,0,1.4,0,2v7
			c0,0.6,0.4,1,1,1h78c0.6,0,1-0.4,1-1v-7c0-0.6,0-1.4,0-2v-4.3c0-0.5,0-1.5,0-2V27.6c0-0.5,0-1.4,0-1.9s0-1.3,0-1.9V17
			c0-0.5-0.4-1-1-1H1z M77,60c0,0.5-0.4,1-1,1H4c-0.5,0-1-0.5-1-1V28c0-0.5,0.5-1,1-1h72c0.6,0,1,0.5,1,1V60z"/>
	</g>
</g>
<g id="FNF_1" class="st0">
	<g class="st3">
		<path class="st4" d="M39.7,4c19.9,0,36,16.1,36,36s-16.1,36-36,36s-36-16.1-36-36S19.8,4,39.7,4 M39.7,0c-22.1,0-40,17.9-40,40
			s17.9,40,40,40s40-17.9,40-40S61.8,0,39.7,0L39.7,0z"/>
	</g>
	<g class="st3">
		<g>
			<g>
				<path class="st4" d="M40.7,67.5c-0.5,0-1.4,0-2,0c0,0-2.6-0.1-4.3-0.4c-1.7-0.3-3.4-0.7-5-1.2c-1.6-0.5-3.1-1.2-4.5-2
					c-1.4-0.8-2.8-1.7-4-2.6c-1.2-1-2.3-2.1-3.3-3.2c-1-1.2-1.8-2.4-2.5-3.8c-0.7-1.3-1.3-3.2-1.3-3.2c-0.2-0.5,0.1-1.1,0.7-1.2
					l1.9-0.5c0.5-0.1,1.1,0.2,1.3,0.7c0,0,0.4,1.3,1,2.4c0.6,1.1,1.2,2.1,2,3c0.8,1,1.7,1.9,2.8,2.7c1,0.8,2.2,1.6,3.4,2.2
					c1.2,0.7,2.5,1.2,3.9,1.7c1.4,0.5,2.9,0.8,4.3,1.1c3.1,0.5,6.3,0.5,9.4,0c1.5-0.2,2.9-0.6,4.3-1.1c1.4-0.5,2.7-1,3.9-1.7
					c1.2-0.7,2.3-1.4,3.4-2.2c1-0.8,1.9-1.7,2.8-2.7c0.8-1,1.5-2,2-3c0.6-1.1,1-2.4,1-2.4c0.2-0.5,0.7-0.8,1.3-0.7l1.9,0.5
					c0.5,0.1,0.8,0.7,0.7,1.2c0,0-0.6,1.9-1.3,3.2c-0.7,1.3-1.5,2.6-2.5,3.8c-1,1.2-2.1,2.2-3.3,3.2c-1.2,1-2.5,1.9-4,2.6
					c-1.4,0.8-2.9,1.4-4.5,2c-1.6,0.5-3.3,1-5,1.2C43.3,67.4,40.7,67.5,40.7,67.5z"/>
			</g>
		</g>
	</g>
	<path class="st6" d="M151,49.5c-0.3,1.3-0.8,2.6-1.4,3.8s-1.4,2.3-2.3,3.4c-0.9,1.1-1.9,2.1-3,3c-1.1,0.9-2.4,1.7-3.7,2.4
		c-1.3,0.7-2.7,1.3-4.2,1.8c-1.5,0.5-3,0.9-4.7,1.2c-1.6,0.3-3.3,0.4-5,0.4c-1.7,0-3.4-0.1-5-0.4c-1.6-0.3-3.2-0.7-4.7-1.2
		c-1.5-0.5-2.9-1.1-4.2-1.8c-1.3-0.7-2.6-1.5-3.7-2.4c-1.1-0.9-2.1-1.9-3-3c-0.9-1.1-1.7-2.2-2.3-3.4c-0.6-1.2-1.1-2.5-1.4-3.8"/>
	<g class="st3">
		<ellipse class="st4" cx="25" cy="26.9" rx="4.5" ry="6.1"/>
		<ellipse class="st4" cx="54.3" cy="26.9" rx="4.5" ry="6.1"/>
	</g>
</g>
<g id="FNF_2" class="st0">
	<g class="st3">
		<path class="st4" d="M40,4c19.9,0,36,16.1,36,36S59.9,76,40,76S4,59.9,4,40S20.1,4,40,4 M40,0C17.9,0,0,17.9,0,40s17.9,40,40,40
			s40-17.9,40-40S62.1,0,40,0L40,0z"/>
	</g>
	<g class="st3">
		<path class="st4" d="M39.7,16.2c13.1,0,23.8,10.7,23.8,23.8S52.8,63.8,39.7,63.8S15.9,53.1,15.9,40S26.6,16.2,39.7,16.2
			 M39.7,12.2c-15.4,0-27.8,12.5-27.8,27.8s12.5,27.8,27.8,27.8S67.5,55.4,67.5,40S55.1,12.2,39.7,12.2L39.7,12.2z"/>
	</g>
	<line class="st6" x1="28.4" y1="3.8" x2="32" y2="15.3"/>
	<line class="st6" x1="48" y1="64.7" x2="51.6" y2="76.2"/>
	<path class="st5" d="M68.4,34.9c-2.1-11.5-8.5-15.4-8.5-15.4C46.7,29.1,40.6,29.7,33,29.7c-11.6-0.9-18.2-4.1-18.2-4.1
		C8.6,34,11.2,44,11.2,44C21.9,48.8,53.4,59,53.6,64.7c0,0.3,0.5,0.6,1.1,0.3c0,0,5.9-2.4,10.9-12.2c1.4-3.2-9.6-10.9-9.6-10.9
		S66.8,38.8,68.4,34.9z"/>
	<g class="st3">
		<g>
			<path class="st4" d="M54.1,50c1.9,0,1.9-3,0-3C52.2,47,52.1,50,54.1,50L54.1,50z"/>
		</g>
	</g>
</g>
<g id="FNF_3" class="st0">
	<g class="st3">
		<path class="st7" d="M40,4c19.9,0,36,16.1,36,36S59.9,76,40,76S4,59.9,4,40S20.1,4,40,4 M40,0C17.9,0,0,17.9,0,40s17.9,40,40,40
			s40-17.9,40-40S62.1,0,40,0L40,0z"/>
	</g>
	<g class="st3">
		<g>
			<polygon class="st7" points="46.2,9.1 45.4,7 44.2,8.8 41.9,8.9 43.3,10.7 42.6,12.8 44.7,12.1 46.6,13.4 46.5,11.1 48.3,9.8 			
				"/>
		</g>
		<g>
			<polygon class="st7" points="38,8.6 36.7,6.7 36,8.8 33.8,9.4 35.6,10.8 35.5,13.1 37.3,11.8 39.5,12.6 38.8,10.4 40.2,8.6 			
				"/>
		</g>
		<g>
			<polygon class="st7" points="29.9,10.2 28.2,8.7 28,10.9 26.1,12.1 28.2,12.9 28.7,15.2 30.1,13.4 32.4,13.7 31.2,11.7 32.1,9.6 
							"/>
		</g>
		<g>
			<polygon class="st7" points="22.5,13.8 20.5,12.8 20.9,15 19.3,16.6 21.6,16.9 22.6,19 23.6,16.9 25.8,16.5 24.2,15 24.5,12.7 
							"/>
		</g>
		<g>
			<polygon class="st7" points="16.3,19.2 14.1,18.8 15.1,20.8 14,22.8 16.2,22.5 17.8,24.2 18.2,21.9 20.2,21 18.2,19.9 18,17.7 
							"/>
		</g>
		<g>
			<polygon class="st7" points="11.8,26.1 9.5,26.2 11,27.9 10.4,30.1 12.5,29.2 14.4,30.5 14.2,28.2 16,26.8 13.8,26.2 12.9,24.1 
							"/>
		</g>
		<g>
			<polygon class="st7" points="9.1,33.8 7,34.6 8.8,35.8 8.9,38.1 10.7,36.7 12.8,37.4 12.1,35.3 13.4,33.4 11.1,33.5 9.8,31.7 			
				"/>
		</g>
		<g>
			<polygon class="st7" points="8.6,42 6.7,43.3 8.8,44 9.4,46.2 10.8,44.4 13.1,44.5 11.8,42.7 12.6,40.5 10.4,41.2 8.6,39.8 			
				"/>
		</g>
		<g>
			<polygon class="st7" points="10.2,50.1 8.7,51.8 10.9,52 12.1,53.9 12.9,51.8 15.2,51.3 13.4,49.9 13.7,47.6 11.7,48.8 9.6,47.9 
							"/>
		</g>
		<g>
			<polygon class="st7" points="13.8,57.5 12.8,59.5 15,59.1 16.6,60.7 16.9,58.4 19,57.4 16.9,56.4 16.5,54.2 15,55.8 12.7,55.5 
							"/>
		</g>
		<g>
			<polygon class="st7" points="19.2,63.7 18.8,65.9 20.8,64.9 22.8,66 22.5,63.8 24.2,62.2 21.9,61.8 21,59.8 19.9,61.8 17.7,62 
							"/>
		</g>
		<g>
			<polygon class="st7" points="26.1,68.2 26.2,70.5 27.9,69 30.1,69.6 29.2,67.5 30.5,65.6 28.2,65.8 26.8,64 26.2,66.2 24.1,67.1 
							"/>
		</g>
		<g>
			<polygon class="st7" points="33.8,70.9 34.6,73 35.8,71.2 38.1,71.1 36.7,69.3 37.4,67.2 35.3,67.9 33.4,66.6 33.5,68.9 
				31.7,70.2 			"/>
		</g>
		<g>
			<polygon class="st7" points="42,71.4 43.3,73.3 44,71.2 46.2,70.6 44.4,69.2 44.5,66.9 42.7,68.2 40.5,67.4 41.2,69.6 39.8,71.4 
							"/>
		</g>
		<g>
			<polygon class="st7" points="50.1,69.8 51.8,71.3 52,69.1 53.9,67.9 51.8,67.1 51.3,64.8 49.9,66.6 47.6,66.3 48.8,68.3 
				47.9,70.4 			"/>
		</g>
		<g>
			<polygon class="st7" points="57.5,66.2 59.5,67.2 59.1,65 60.7,63.4 58.4,63.1 57.4,61 56.4,63.1 54.2,63.5 55.8,65 55.5,67.3 
							"/>
		</g>
		<g>
			<polygon class="st7" points="63.7,60.8 65.9,61.2 64.9,59.2 66,57.2 63.8,57.5 62.2,55.8 61.8,58.1 59.8,59 61.8,60.1 62,62.3 
							"/>
		</g>
		<g>
			<polygon class="st7" points="68.2,53.9 70.5,53.8 69,52.1 69.6,49.9 67.5,50.8 65.6,49.5 65.8,51.8 64,53.2 66.2,53.8 67.1,55.9 
							"/>
		</g>
		<g>
			<polygon class="st7" points="70.9,46.2 73,45.4 71.2,44.2 71.1,41.9 69.3,43.3 67.2,42.6 67.9,44.7 66.6,46.6 68.9,46.5 
				70.2,48.3 			"/>
		</g>
		<g>
			<polygon class="st7" points="71.4,38 73.3,36.7 71.2,36 70.6,33.8 69.2,35.6 66.9,35.5 68.2,37.3 67.4,39.5 69.6,38.8 71.4,40.2 
							"/>
		</g>
		<g>
			<polygon class="st7" points="69.8,29.9 71.3,28.2 69.1,28 67.9,26.1 67.1,28.2 64.8,28.7 66.6,30.1 66.3,32.4 68.3,31.2 
				70.4,32.1 			"/>
		</g>
		<g>
			<polygon class="st7" points="66.2,22.5 67.2,20.5 65,20.9 63.4,19.3 63.1,21.6 61,22.6 63.1,23.6 63.5,25.8 65,24.2 67.3,24.5 
							"/>
		</g>
		<g>
			<polygon class="st7" points="60.8,16.3 61.2,14.1 59.2,15.1 57.2,14 57.5,16.2 55.8,17.8 58.1,18.2 59,20.2 60.1,18.2 62.3,18 
							"/>
		</g>
		<g>
			<polygon class="st7" points="53.9,11.8 53.8,9.5 52.1,11 49.9,10.4 50.8,12.5 49.5,14.4 51.8,14.2 53.2,16 53.8,13.8 55.9,12.9 
							"/>
		</g>
	</g>
	<g class="st3">
		<g>
			<path class="st4" d="M44.2,17.7c0.1-0.6-0.3-1.2-0.9-1.3c-0.6-0.1-1.2,0.3-1.3,0.9C41.9,18,40.2,38,40.2,38S44.1,18.3,44.2,17.7z
				"/>
		</g>
		<g>
			<path class="st4" d="M38.3,17.3c-0.1-0.6-0.6-1-1.2-1c-0.6,0.1-1,0.6-1,1.2c0.1,0.6,3.6,20.4,3.6,20.4S38.4,17.9,38.3,17.3z"/>
		</g>
		<g>
			<path class="st4" d="M32.5,18.6c-0.2-0.6-0.9-0.8-1.5-0.6c-0.6,0.2-0.8,0.9-0.6,1.5c0.2,0.6,8.8,18.7,8.8,18.7
				S32.7,19.1,32.5,18.6z"/>
		</g>
		<g>
			<path class="st4" d="M27.2,21.2c-0.4-0.5-1.1-0.6-1.6-0.2c-0.5,0.4-0.6,1.1-0.2,1.6c0.4,0.5,13.3,15.8,13.3,15.8
				S27.6,21.7,27.2,21.2z"/>
		</g>
		<g>
			<path class="st4" d="M22.8,25.2c-0.5-0.4-1.2-0.3-1.6,0.2c-0.4,0.5-0.3,1.2,0.2,1.6c0.5,0.4,17,11.9,17,11.9S23.2,25.6,22.8,25.2
				z"/>
		</g>
		<g>
			<path class="st4" d="M19.5,30.1c-0.6-0.2-1.2,0-1.5,0.6c-0.2,0.6,0,1.2,0.6,1.5c0.6,0.2,19.5,7.1,19.5,7.1S20.1,30.4,19.5,30.1z"
				/>
		</g>
		<g>
			<path class="st4" d="M17.7,35.8c-0.6-0.1-1.2,0.3-1.3,0.9c-0.1,0.6,0.3,1.2,0.9,1.3C18,38.1,38,39.8,38,39.8S18.3,35.9,17.7,35.8
				z"/>
		</g>
		<g>
			<path class="st4" d="M17.3,41.7c-0.6,0.1-1,0.6-1,1.2c0.1,0.6,0.6,1,1.2,1c0.6-0.1,20.4-3.6,20.4-3.6S17.9,41.6,17.3,41.7z"/>
		</g>
		<g>
			<path class="st4" d="M18.6,47.5c-0.6,0.2-0.8,0.9-0.6,1.5c0.2,0.6,0.9,0.8,1.5,0.6c0.6-0.2,18.7-8.8,18.7-8.8
				S19.1,47.3,18.6,47.5z"/>
		</g>
		<g>
			<path class="st4" d="M21.2,52.8c-0.5,0.4-0.6,1.1-0.2,1.6c0.4,0.5,1.1,0.6,1.6,0.2c0.5-0.4,15.8-13.3,15.8-13.3
				S21.7,52.4,21.2,52.8z"/>
		</g>
		<g>
			<path class="st4" d="M25.2,57.2c-0.4,0.5-0.3,1.2,0.2,1.6c0.5,0.4,1.2,0.3,1.6-0.2c0.4-0.5,11.9-17,11.9-17S25.6,56.8,25.2,57.2z
				"/>
		</g>
		<g>
			<path class="st4" d="M30.2,60.5c-0.2,0.6,0,1.2,0.6,1.5c0.6,0.2,1.2,0,1.5-0.6c0.2-0.6,7.1-19.4,7.1-19.4S30.4,59.9,30.2,60.5z"
				/>
		</g>
		<g>
			<path class="st4" d="M35.8,62.3c-0.1,0.6,0.3,1.2,0.9,1.3c0.6,0.1,1.2-0.3,1.3-0.9C38.1,62,39.8,42,39.8,42S35.9,61.7,35.8,62.3z
				"/>
		</g>
		<g>
			<path class="st4" d="M41.7,62.7c0.1,0.6,0.6,1,1.2,1c0.6-0.1,1-0.6,1-1.2C43.9,61.8,40.3,42,40.3,42S41.6,62.1,41.7,62.7z"/>
		</g>
		<g>
			<path class="st4" d="M47.5,61.4c0.2,0.6,0.9,0.8,1.5,0.6c0.6-0.2,0.8-0.9,0.6-1.5c-0.2-0.6-8.8-18.7-8.8-18.7
				S47.3,60.9,47.5,61.4z"/>
		</g>
		<g>
			<path class="st4" d="M52.8,58.8c0.4,0.5,1.1,0.6,1.6,0.2c0.5-0.4,0.6-1.1,0.2-1.6c-0.4-0.5-13.3-15.8-13.3-15.8
				S52.4,58.3,52.8,58.8z"/>
		</g>
		<g>
			<path class="st4" d="M57.2,54.8c0.5,0.4,1.2,0.3,1.6-0.2c0.4-0.5,0.3-1.2-0.2-1.6c-0.5-0.4-17-11.8-17-11.8S56.8,54.4,57.2,54.8z
				"/>
		</g>
		<g>
			<path class="st4" d="M60.5,49.9c0.6,0.2,1.2,0,1.5-0.6c0.2-0.6,0-1.2-0.6-1.5c-0.6-0.2-19.5-7.1-19.5-7.1S59.9,49.6,60.5,49.9z"
				/>
		</g>
		<g>
			<path class="st4" d="M62.3,44.2c0.6,0.1,1.2-0.3,1.3-0.9c0.1-0.6-0.3-1.2-0.9-1.3C62,41.9,42,40.2,42,40.2S61.7,44.1,62.3,44.2z"
				/>
		</g>
		<g>
			<path class="st4" d="M62.7,38.3c0.6-0.1,1-0.6,1-1.2c-0.1-0.6-0.6-1-1.2-1C61.8,36.1,42,39.7,42,39.7S62.1,38.4,62.7,38.3z"/>
		</g>
		<g>
			<path class="st4" d="M61.4,32.5c0.6-0.2,0.8-0.9,0.6-1.5c-0.2-0.6-0.9-0.8-1.5-0.6c-0.6,0.2-18.7,8.8-18.7,8.8
				S60.9,32.7,61.4,32.5z"/>
		</g>
		<g>
			<path class="st4" d="M58.8,27.2c0.5-0.4,0.6-1.1,0.2-1.6c-0.4-0.5-1.1-0.6-1.6-0.2c-0.5,0.4-15.8,13.3-15.8,13.3
				S58.3,27.6,58.8,27.2z"/>
		</g>
		<g>
			<path class="st4" d="M54.8,22.8c0.4-0.5,0.3-1.2-0.2-1.6c-0.5-0.4-1.2-0.3-1.6,0.2c-0.4,0.5-11.9,17-11.9,17S54.4,23.2,54.8,22.8
				z"/>
		</g>
		<g>
			<path class="st4" d="M49.9,19.5c0.2-0.6,0-1.2-0.6-1.5c-0.6-0.2-1.2,0-1.5,0.6c-0.2,0.6-7.1,19.4-7.1,19.4S49.6,20.1,49.9,19.5z"
				/>
		</g>
	</g>
</g>
<g id="FNF_4" class="st0">
	<g class="st3">
		<path class="st4" d="M40,4c19.9,0,36,16.1,36,36S59.9,76,40,76S4,59.9,4,40S20.1,4,40,4 M40,0C17.9,0,0,17.9,0,40s17.9,40,40,40
			s40-17.9,40-40S62.1,0,40,0L40,0z"/>
	</g>
	<path class="st8" d="M46.6,59.8C43,40.4,25.8,51.4,16.3,40.4c-9.5-11,2.6-28.2,16.8-31.2S62,14.3,58.3,28.4
		c-4.2,16.1-17,10.4-11.9,30.5"/>
	<path class="st8" d="M103.5,60.1"/>
	
		<rect x="42" y="51.4" transform="matrix(0.9455 -0.3255 0.3255 0.9455 -17.1831 18.8411)" class="st9" width="11.4" height="18.7"/>
</g>
<g id="FNF_5">
	<g>
		<path class="st4" d="M40,4c19.9,0,36,16.1,36,36S59.9,76,40,76S4,59.9,4,40S20.1,4,40,4 M40,0C17.9,0,0,17.9,0,40s17.9,40,40,40
			s40-17.9,40-40S62.1,0,40,0L40,0z"/>
	</g>
	<path class="st10" d="M103.5,60.1"/>
	<g>
		<path class="st4" d="M26.3,16.6v2.9h2.1v2.4h-2.1v5.3h-2.9V14.3h5.8v2.3H26.3z"/>
		<path class="st4" d="M30.1,27.1V14.3h3v12.8H30.1z"/>
		<path class="st4" d="M38.9,27.1c-0.2-0.6-0.4-1.3-0.4-2v-2.6c0-0.3-0.2-0.5-0.6-0.5h-0.7v5.1h-2.9V14.3h4.1c1.4,0,2.9,0.7,2.9,2.3
			v2.8c0,0.6-0.4,1.2-1.1,1.5c0.8,0.3,1.2,0.9,1.2,1.5V25c0,0.8,0.2,1.5,0.4,2.1H38.9z M38.5,17.3c0-0.4-0.2-0.5-0.5-0.5h-0.8v3H38
			c0.3,0,0.5-0.1,0.5-0.5V17.3z"/>
		<path class="st4" d="M45.8,27.4c-2.2,0-3.6-1.3-3.6-2.8V23h2.6v1c0,0.5,0.3,0.8,0.9,0.8c0.5,0,0.8-0.3,0.8-0.8
			c0-1.1-0.9-1.6-2.2-2.8c-1.3-1.2-2-2.4-2-3.8c0-1.7,1.2-3.3,3.6-3.3c2,0,3.3,1.5,3.3,2.8v1.6h-2.6v-1.1c0-0.4-0.3-0.7-0.7-0.7
			c-0.4,0-0.8,0.3-0.8,0.7c0,1,0.4,1.4,2,2.8c1.4,1.2,2.3,2.5,2.3,3.9C49.3,25.8,48,27.4,45.8,27.4z"/>
		<path class="st4" d="M54.9,16.6v10.5H52V16.6h-2v-2.3h6.9v2.3H54.9z"/>
		<path class="st4" d="M26.9,44.1l-2.3-6.2v6.2H22V31.3h2.7l2.2,6.3v-6.3h2.6v12.8H26.9z"/>
		<path class="st4" d="M30.8,44.1V31.3h3v12.8H30.8z"/>
		<path class="st4" d="M40.5,44.1l-0.4-0.5c-0.4,0.4-1.1,0.8-2,0.8c-2.1,0-3.2-1.2-3.2-2.7v-7.9c0-1.3,1.5-2.7,3.6-2.7
			c2.2,0,3.6,1.4,3.6,2.7v2.5h-2.9v-2.2c0-0.3-0.3-0.5-0.6-0.5s-0.6,0.2-0.6,0.5v7.3c0,0.4,0.3,0.5,0.6,0.5s0.6-0.2,0.6-0.5v-1.7
			h-0.6v-1.9h3.8v6.3H40.5z"/>
		<path class="st4" d="M47.5,44.1v-4.9H46v4.9h-2.9V31.3H46v5.4h1.5v-5.4h3v12.8H47.5z"/>
		<path class="st4" d="M56.3,33.6v10.5h-2.9V33.6h-2v-2.3h6.9v2.3H56.3z"/>
		<path class="st4" d="M18.5,50.6v2.9h2.1v2.4h-2.1v5.3h-2.9V48.3h5.8v2.3H18.5z"/>
		<path class="st4" d="M26.8,61.1c-0.2-0.6-0.4-1.3-0.4-2v-2.6c0-0.3-0.2-0.5-0.6-0.5h-0.7v5.1h-2.9V48.3h4.1c1.4,0,2.9,0.7,2.9,2.3
			v2.8c0,0.6-0.4,1.2-1.1,1.5c0.8,0.3,1.2,0.9,1.2,1.5V59c0,0.8,0.2,1.5,0.4,2.1H26.8z M26.4,51.3c0-0.4-0.2-0.5-0.5-0.5h-0.8v3h0.8
			c0.3,0,0.5-0.1,0.5-0.5V51.3z"/>
		<path class="st4" d="M30.3,61.1V48.3h3v12.8H30.3z"/>
		<path class="st4" d="M34.5,61.1V48.3h5.8v2.3h-2.8v2.8h1.9v2.4h-1.9v2.9h2.8v2.4H34.5z"/>
		<path class="st4" d="M46.2,61.1l-2.3-6.2v6.2h-2.6V48.3H44l2.2,6.3v-6.3h2.6v12.8H46.2z"/>
		<path class="st4" d="M53.9,61.1H50V48.3h3.9c1.4,0,2.9,0.7,2.9,2.5v7.8C56.8,60.5,55.3,61.1,53.9,61.1z M54,51.3
			c0-0.4-0.2-0.5-0.5-0.5h-0.6v8h0.6c0.3,0,0.5-0.1,0.5-0.5V51.3z"/>
		<path class="st4" d="M61.2,61.4c-2.2,0-3.6-1.3-3.6-2.8V57h2.6v1c0,0.5,0.3,0.8,0.9,0.8c0.5,0,0.8-0.3,0.8-0.8
			c0-1.1-0.9-1.6-2.2-2.8c-1.3-1.2-2-2.4-2-3.8c0-1.7,1.2-3.3,3.6-3.3c2,0,3.3,1.5,3.3,2.8v1.6H62v-1.1c0-0.4-0.3-0.7-0.7-0.7
			c-0.4,0-0.8,0.3-0.8,0.7c0,1,0.4,1.4,2,2.8c1.4,1.2,2.3,2.5,2.3,3.9C64.7,59.8,63.5,61.4,61.2,61.4z"/>
	</g>
	<g>
	</g>
	<g>
	</g>
	<g>
	</g>
	<g>
	</g>
	<g>
	</g>
	<g>
	</g>
	<g>
	</g>
	<g>
	</g>
	<g>
	</g>
	<g>
	</g>
	<g>
	</g>
	<g>
	</g>
	<g>
	</g>
	<g>
	</g>
	<g>
	</g>
</g>
</svg>
