<svg xmlns="http://www.w3.org/2000/svg" width="135.5" height="168.8" viewBox="-425.2 508.4 135.5 168.8" enable-background="new -425.2 508.4 135.5 168.8"><style type="text/css">.st0{fill:#FFFFFF;} .st1{fill:#4E367E;} .st2{fill:none;stroke:#FFFFFF;stroke-width:1.12;stroke-miterlimit:10;} .st3{fill:#00A781;} .st4{fill:#00A2B4;} .st5{fill:#C5168C;}</style><path class="st0" d="M-417.7 540.7v5.8h17.8v7.9h-17.8v10.9h-7.3v-32.6l26.2.1v7.9zM-395.7 532.8h7.3v32.5h-7.3zM-353.9 543.4c0 5.4-1 8.1-4 9 2.5.8 3.8 2.9 3.8 6.2v6.7h-7.3v-5c0-2.8-.9-3.4-3.3-3.4h-10.9v8.3h-7.4v-32.5h19.3c7.2.1 9.8 2.3 9.8 10.7m-21.8-2.5v8h11.7c2 0 2.6-1.2 2.6-4.3 0-2.5-.8-3.7-2.6-3.7h-11.7zM-342.3 554.5v.6c0 2.7.9 3.1 3.4 3.1h9.2c1.7 0 2.5-.7 2.5-2.7 0-2.4-1.2-2.7-3.5-2.8l-11.5-.5c-5.6-.2-7.4-2.2-7.4-9.7 0-3.5.5-6 1.7-7.6 1.7-2.3 4.4-2.5 8.2-2.5h11.2c5.5 0 7.8 2.5 7.8 8.7 0 .5 0 1.2-.1 1.8h-7.1v-.1c0-2.1-.8-3.2-2.4-3.2h-8.4c-2.3 0-3.5.3-3.5 2.5 0 2 .9 2.6 2.9 2.7l12 .4c5.5.2 7.5 3 7.5 10.6 0 4.1-.6 6.5-2.7 8.4-1.5 1.3-3.9 1.6-7.4 1.6h-9.8c-7.4 0-10.1-1.5-10.1-8.6 0-.4 0-1.3.1-2.6l7.4-.1zM-317.1 540.7l10 .1v24.5h7.3v-24.5h10.1v-8h-27.4zM-296.8 604.8v-20.6h-.8v-5.3h-1.1v-1.6h-.9v-1h-1.1v-.5h-1v.5h-.9v-3.1h-1.4v-2.7h-2.6V568h-5.7v22.1h-2.4v-4.9h-3.9v-1.4h-5.2v1.4h-3.3l-.8-.8v-20.1l-1.7-3.1h-5.4l-1.5 2.4v24h-2.1v-21l-.8-1.6-.8 1.6v2.5h-.8v-1.3l-.5-.6-.5.6v1.3h-1.1v-2.7l-.7-1.4-.7 1.4v3h-.7v-1l-.5-.7-.5.7v.8h-.7V567l-.7-1.4-.7 1.4v2.4h-1.1v-1.1l-.4-.6-.4.6v1.2h-.9v-2.8l-.6-1.3-.6 1.3v15.7h-2.4v2h-1.4v-22.5h-10v16.9h-7v10h-3.2v-8.1h-3.6v-4.9h-2.9v-3.5l-4.1-7.9h-.5v-7.9h-.6v7.9h-.5l-4 7.9v3.5h-3.7v13.1l-4.4.1v3.1h-2.6v-9.8l-1.9-1.2h-3.3l-1.9 1.2.1 22.2h-1.8v-11.7h-3.9v-2.4h-1v-1.2h-3.5v1.2h-1.1v2.4h-3.6v57.3h9.9v-20.7l6.1 20.7h10.4v-40.9h4.8v40.9h11.8v-40.9h6.1c-.5.8-.8 1.5-1 2.4-.5 2-.7 5.1-.7 9.5v13.5c0 3.1.1 5.5.3 7 .2 1.6.8 3.1 1.7 4.5.9 1.4 2.2 2.6 3.9 3.6 1.7 1 3.6 1.5 5.5 1.5 1.7 0 3.1-.4 4.3-1.1 1.2-.7 2.2-1.8 3-3.2l1.1 3.3h7.5v-24.4h-13.8v6.9h2.3v5.4c0 2.1-.1 3.5-.5 4.3-.3.7-.9 1.1-1.7 1.1-.8 0-1.3-.3-1.5-1-.3-.6-.4-2-.4-4v-21.8c0-2.3.1-3.8.4-4.3.3-.6.7-.8 1.5-.8s1.4.3 1.6 1c.2.7.3 2.3.3 4.9v4.1h11.8v-2c0-3.7-.3-6.6-1-8.5-.2-.6-.5-1.1-.8-1.7h6.5v40.9h11.8v-19.1h3.5v19.1h11.8v-40.9h2.7v4.4h7v36.4h11.8v-36.4h7v-9.1l-6.7.1zm-111.6 20.5l-5.1-15.9h5.1v15.9zm78.2-4.2h-3.5v-11.6h3.5v11.6zM-394.8 520.3c0-1.7-.1-3.4-.2-5.1.3.1.7.1 1 .1.3 0 .6 0 1-.1-.1 1.7-.2 3.4-.2 5.1v3.4c0 1.7.1 3.4.2 5.1-.3-.1-.7-.1-1-.1-.3 0-.6 0-1 .1.1-1.7.2-3.4.2-5.1v-3.4zM-379 517.6c-.8-1-2.4-1.9-4.3-1.9-3.3 0-5.8 2-5.8 6.3 0 3.9 2.2 6.2 5.9 6.2 1.1 0 2.5-.2 3.2-.6v-2.9c0-.9-.1-1.9-.1-2.7.3.1.6.1.9.1.3 0 .6 0 .9-.1 0 .6-.1 2.4-.1 4.5v1.6c-1.1.4-3.5.9-5 .9-4.7 0-7.6-2.5-7.6-7.1 0-4.5 3-7.1 7.7-7.1 2.7 0 4.1.7 5 1.1-.2.4-.4 1-.5 1.5l-.2.2zM-366.4 520.3c0-1.7-.1-3.4-.2-5.1.3.1.7.1 1 .1.3 0 .6 0 1-.1-.1 1.7-.2 3.4-.2 5.1v3.4c0 1.7.1 3.4.2 5.1-.3-.1-.6-.1-1-.1-.3 0-.6 0-1 .1.1-1.7.2-3.4.2-5.1v-1.8h-8.2v1.8c0 1.7.1 3.4.2 5.1-.3-.1-.7-.1-1-.1-.3 0-.6 0-1 .1.1-1.7.2-3.4.2-5.1v-3.4c0-1.7-.1-3.4-.2-5.1.3.1.7.1 1 .1.3 0 .6 0 1-.1-.1 1.7-.2 3.4-.2 5.1v.7c1.4 0 2.7.1 4.1.1 1.4 0 2.7 0 4.1-.1v-.7zM-360.9 514.9c1.8 3.7 3.7 7.2 5.7 10.9.8-1.5 3.9-7.2 5.9-10.9h.3c.6 5.1 1 9.4 1.6 13.9-.3-.1-.6-.1-.9-.1-.3 0-.6 0-.9.1-.3-3.5-.5-6.8-1-10.2-1.8 3.3-3.6 6.5-5.2 10.1h-.2c-1.5-3.3-3.4-6.7-5.1-10.1-.4 3.3-.9 8-1 10.2-.2-.1-.5-.1-.7-.1-.2 0-.5 0-.7.1.7-4.4 1.5-9.7 1.9-13.9h.3zM-324.3 523.7v-3.4c0-1.7-.1-3.4-.2-5.1.3.1.7.1 1 .1.3 0 .6 0 1-.1-.1 1.7-.2 3.4-.2 5.1v1.1c0 .1 0 .2.1.2s.1 0 .3-.2c1.8-1.6 4.1-4.1 6-6.2.3.1.5.1.8.1.3 0 .6 0 .9-.1-1.8 1.6-4.9 4.5-6.3 6.2 2.1 2.4 5.3 6.3 7.6 8.9-.4-.1-.8-.1-1.2-.1-.4 0-.7 0-1.1.1-1.9-2.3-5.9-7.4-6.7-8.2l-.2-.2-.1.1v1.7c0 1.7.1 3.4.2 5.1-.3-.1-.7-.1-1-.1-.3 0-.6 0-1 .1 0-1.7.1-3.4.1-5.1M-330.5 522.1c1.5-.2 4.1-1.2 4.1-3.8 0-2.3-1.9-3.1-4.1-3.1-.8 0-1.5.1-2.3.1-.8 0-1.5 0-2.3-.1.1 1.7.2 3.4.2 5.1v3.4c0 1.7-.1 3.4-.2 5.1-1.1-2.1-4-9.3-5.9-13.9h-.4c-2 4.7-4.1 9.3-6.2 13.9.3-.1.5-.1.7-.1.2 0 .5 0 .7.1.3-1.2 4.5-11.2 4.5-11.2s4.1 9.9 4.5 11.2c.4-.1.7-.1 1-.1.4 0 .7 0 1 .1.3-.1.6-.1 1-.1.3 0 .6 0 1 .1-.1-1.7-.2-3.4-.2-5.1v-3.4c0-1.4.1-2.8.1-4.3.4 0 1-.1 1.9-.1 1.3 0 3.1.5 3.1 2.6 0 2.4-2.2 3-3.8 3h-.6v.7c1.7 1.7 4.2 5.4 5 6.6.4-.1.8-.1 1.1-.1.4 0 .8 0 1.2.1-.9-1.3-4.1-5.5-5.1-6.7M-391.6 508.6c-8.9.4-16.5 1.1-22 2.2-3.8.7-8.4 2-8.8 3.8-.2.8.5 1.6 2 2.3 3.5 1.7 11.1 3.1 21.5 4v-.4c-8.2-.9-14.1-2.1-17.1-3.6-1.4-.7-2.1-1.4-1.9-2.1.6-2.8 12.9-5.1 30.6-5.8 8.3-.3 17-.3 25.3.1v-.2c-9.4-.5-19.9-.7-29.6-.3"/><path class="st0" d="M-397.5 519.8c0-2 .1-4.9.2-6.9-.3.1-.7.1-1 .1-.3 0-.7 0-1-.1.1 2 .2 4.9.2 6.9v3.6c0 2-.1 3.4-.2 5.4.3-.1.7-.1 1-.1.3 0 .7 0 1 .1-.1-2-.2-3.4-.2-5.4v-3.6zM-407.7 520.7c-.6-.1-1.1-.2-1.7-.3v3c0 2-.1 3.4-.2 5.4.3-.1.7-.1 1-.1.3 0 .7 0 1 .1-.1-2-.2-3.4-.2-5.4l.1-2.7zM-409.5 512.9c.1 1.8.1 3.5.2 5.4.5.1 1.1.2 1.7.3 0-2 .1-3.9.2-5.8-.3.1-.7.1-1 .1-.5.1-.8 0-1.1 0"/><path class="st0" d="M-311 526.6c.7 0 1.3.6 1.3 1.4 0 .8-.6 1.4-1.3 1.4-.7 0-1.3-.6-1.3-1.4 0-.8.6-1.4 1.3-1.4m0 2.9c.9 0 1.6-.7 1.6-1.6 0-.9-.7-1.6-1.6-1.6-.9 0-1.6.7-1.6 1.6.1.9.8 1.6 1.6 1.6m-.5-.7h.4v-.8h.1l.5.8h.4l-.1-.2c-.2-.2-.3-.5-.4-.7.2-.1.4-.2.4-.5s-.2-.4-.5-.4h-.7l-.1 1.8zm.3-1.6h.1c.1 0 .3 0 .3.3s-.1.4-.4.4v-.7zM-402.9 655.6c0 .1-.3.1-.4.2 0 .1 0 .3-.1.4l-.1.1c-.1 0-.1 0-.1-.1v-.4c0-.2 0-.3.2-.4h.4l.1.2zm-1.2.5h-.2v-.1c.2 0 .3 0 .2.1m-1.1-.1h-.2c-.1 0-.2-.2-.2-.3l.1-.1c.2 0 .2.1.3.1.1.2 0 .2 0 .3m-.2-1.1h.2-.2zm-.5 1.7c-.2.1-.3.1-.4-.1 0-.1.1-.1.2-.2.1 0 .1.1.2.1v.2zm-1.4-.6h-.2c-.1 0-.2-.2-.1-.3l.1-.1h.3c.1.1 0 .4-.1.4m-.2 1.1l-.1.1c-.1.1-.1.2-.3.2l-.1-.1c0-.1.1-.3.2-.3s.3 0 .3.1zm-1.6-.6h-.1c0-.1 0-.1.1-.1v.1zm-.2-.7l-.1.1h-.3l-.1-.1c0-.1.1-.4.1-.5l.1-.1h.1c0 .1.1.2 0 .2l-.1.2.3.2zm-1.6 0c-.2.2-.4.3-.7.1v-.3c0-.1.1-.1.2-.1h.3l.2.1v.2zm-1.1 0c-.1 0-.1 0-.2-.1 0-.1 0-.2.1-.3h.2c-.1.2-.1.2-.1.4zm-.9-.2c-.2.3-.1.3-.4.4h-.2l-.1-.1v-.1l.1-.1.2-.1.1-.2.1-.1c.2 0 .3.1.2.3m-.8 0c-.1-.1-.1-.3-.1-.4l.1-.1h.1c.1 0 .1.2.1.4 0 0-.1.1-.2.1m-.4 5.5c0 .1 0 .3-.1.3l-.1-.1c-.1-.1-.1-.2-.1-.3-.1-.1-.3-.2-.4-.2-.2 0-.2.2-.4.3l-.2.1c-.1.1-.1.2-.2.2h-.1c0-.2-.1-.4-.2-.6l-.2-.1-.1-.2-.1-.1c-.1 0-.1 0-.2.1l.1.2v.1c-.2 0-.1-.1-.2-.2h-.2l-.1.1v.3c-.1.1-.2.1-.4.1h-.2c-.1 0-.1-.2-.2-.3l-.3-.3c-.2 0-.4.2-.5.2-.1.1-.1.2-.2.2-.1.1-.2.1-.3.2-.1.1-.1.2-.2.3-.1.1-.2.1-.2.2-.1.1 0 .5 0 .6.2.3.7 0 .8-.2 0 0 .1-.1.2-.1.2 0 .4.1.4.2.2 0 .2-.1.3-.1h.2c.1 0 .2-.1.2-.1l.2-.1.1-.1c.1-.1.3-.1.4 0 .1.1 0 .3.1.4 0 .1.1.3.2.4.1.1.4.1.6.1.1 0 .3-.1.4 0l.1.1c0 .3-.4.3-.6.4-.2.1-.2.4-.4.4h-.4c-.2 0-.4.1-.5.1h-.1c-.1.1-.2.3-.3.4 0 0-.1.1-.2 0h-.3l-.1-.1-.2-.2v-.2c-.1-.1-.2 0-.4-.1l-.2-.2c-.1-.1-.3-.2-.4-.2-.2-.1-.5.2-.6.1-.1-.1-.1-.3-.2-.4-.1-.1-.5-.1-.6 0l-.2.3h-.2s-.1-.2-.1-.3c0-.1.1-.1.2-.2l.2-.2.2-.1c.1-.1.1-.3.2-.4l.2-.1c.1-.1.1-.2.2-.3.1-.1.2 0 .3-.1.1-.1.1-.3.2-.3l.2-.1c.1 0 .1-.2.1-.3l.1-.1c.2 0 .3.1.5 0 .1 0 .2-.2.3-.2l.2-.1.2-.1h.1c0 .2 0 .4.2.5.1.1.6.1.8 0v-.1c0-.1-.2-.2-.1-.3.2-.2.5.1.7 0 .1 0 .2-.1.2-.2l.2-.1c.2 0 .2.1.4.2.1.1.2.1.3.2v.1c.1.1.3.1.3.2.1.1 0 .2.1.3.1.1.1.2.2.2.1.1.2.3.3.4.1-.6.1-.5.1-.4m-1.7 8.1c-.3 0 0-.5.1-.6H-415.4v.1c-.1.2-.3.4-.4.5m-1-5.9c-.2 0-.2 0-.3-.1v-.2c.1 0 .1 0 .2.1.2 0 .2.1.1.2m-2.9 10.8v-.1l.1-.1c.2 0 .3.1.2.3-.2.1-.2 0-.3-.1m.1 1.8h-.4c-.2 0-.2-.1-.2-.2-.1 0-.1.1-.2.1-.2 0-.2-.1-.4-.2h-.3c-.1 0-.2 0-.3-.1v-.1c0-.1.1 0 .2-.1.2-.1.5 0 .7 0h1.3l.1.1c0 .2-.4.4-.5.5m-1.6.8c-.3.1-.4 0-.6-.1 0-.1-.1-.3 0-.4l.1-.1c.3 0 .5.2.5.5v.1zm.3-4.1c.2-.1.6.2.5.3l-.1.1c-.2 0-.3-.1-.3-.2l-.1-.2zm-1 2.6c-.2 0-.1-.1-.2-.2 0-.2.2-.2.3-.3l.1-.1c.1-.1.2-.1.3-.2l.1-.1c.1-.1.2-.1.3-.2.1 0 .1 0 .2.1l.1-.1v-.3l.1-.1c.1 0 .2 0 .3-.1.1-.1.1-.2.2-.2.1-.1.2-.2.2-.3h.1v.7c0 .1-.1.1-.2.1l-.2.2-.2.1-.2.1-.2.1-.1.2c-.1 0-.2 0-.3.1l-.2.1c-.1.1-.3.1-.4.2l-.1.2zm-.2-.8l-.1.2c-.1 0-.1 0-.1-.1v-.3l.1-.1v-.2c0-.1.1-.2.1-.3v-.1c.1-.3.3-.5.4-.8v-.2l.1-.2.1-.3c.2.1.2.6.2.8l-.2.2c-.1.1-.1.3-.2.5 0 .1-.1.1-.2.2 0 .1 0 .2-.1.3l-.2.2.1.2zm-.1 2.2c-.1.2-.4.2-.5.1v-.1l.2-.2v-.1c-.2 0-.3.2-.4.2-.2.1-.8.1-1 0 0-.1.1-.1.1-.2.1-.1.3-.3.4-.3h.2c.2 0 .4 0 .5-.1 0-.1-.1-.1-.1-.2v-.2c0-.1 0-.2.1-.3l.2-.1c.2 0 .4 0 .4.2.1.1-.1.4-.1.4l.1.1c0 .3 0 .8-.1.8m-2-1.3l.1-.5.1-.1v-.2l.1-.1c.2 0 .2 0 .2.2v.1l.1.2c0 .2-.2.4-.4.5-.1.1-.2 0-.2-.1m-.1-3.1c0-.4.1-.3.3-.4.2 0 .3 0 .4.2 0 .1 0 .2-.1.2 0 0-.3.2-.4.1h-.1l-.1-.1zm-.1 3l-.2-.1v-.2h.1c.1 0 .2.1.1.3zm0-19.9l.2.1c0 .2-.2.1-.3 0 0-.1 0-.1.1-.1m.2 4.6c.2 0 .2.1.2.1h.2c.1.1.2.1.3.3.1.2 0 .3-.1.4-.1.1-.2-.1-.3-.1l-.2.1c-.2 0-.2-.1-.3-.2 0-.2 0-.3.1-.4l.1-.1v-.1zm.1-1.5v-.3l.1-.1c.1 0 .1 0 .2.1 0 .1 0 .2.1.2.1.1.2.1.2.2.1.2 0 .6-.1.7h-.4l-.1-.1V658.8c-.1-.1-.1-.3 0-.4m.2-1.6c.1-.1 0-.2.2-.2h.4l.1-.1V655.9l.3-.4.2-.1h.1c.1.1.2.1.1.3 0 .1-.1.2-.2.2v.2c0 .2 0 .4-.2.5h.1c.1 0 .1.1.1.3v.1c-.1 0-.4.1-.5.1h-.4c-.2.1-.5 0-.7 0 .1-.2.3-.2.4-.3m0-1.2c.2 0 .3 0 .4.1 0 .1-.2.4-.3.4-.1 0-.2 0-.2-.1s.1-.3.1-.4m1.1-.6h.2v.1c0 .1 0 .1-.1.1s-.1 0-.2-.1c.1 0 .1 0 .1-.1m-.5 19.9c0-.2.2-.2.4-.3.2 0 .3 0 .4.2.1.2-.1.4-.3.4-.3-.1-.4-.2-.5-.3m-.1.3h.4c0 .2-.2.2-.3.3l-.1.1-.1.1c-.1 0-.1-.1-.1-.2v-.2l.2-.1zm-.2-1.7v.2c-.1.1-.2.1-.4.1-.1-.1-.2-.2-.1-.3l.2-.1c.3-.1.2 0 .3.1m0-3.7l.1-.1c.2.1.2.3.2.5v.1h-.1c-.2 0-.4-.3-.2-.5m-.8-.4l.1-.1.1.1c0 .1.1.2 0 .3v.1c-.1 0-.1 0-.2-.1v-.3zm.5-2.6c-.2 0-.3-.1-.4-.2v-.2c0-.2.2-.2.3-.3.1 0 .1 0 .2.1.1.2.1.4-.1.6m-.3-2.5c.5 0 .6.4.3.7l-.1.1c-.2 0-.3-.2-.4-.5v-.2l.2-.1zm.4-.5h-.1c-.1 0-.1-.2-.1-.3l.1-.1h.2c0 .1-.1.3-.1.4m.3.7c-.1 0-.1 0-.2-.1v-.1h.1l.1.2zm0 .5h-.1v-.2l.1-.1h.1l.1.1c-.2.1-.2.1-.2.2m.1 3.3c-.1 0-.2-.2-.1-.3.1.1.2.3.1.3m.1 4.1c-.1 0-.2 0-.2-.1-.1-.1 0-.2.1-.3h.1c.2.1.1.2 0 .4m0-14.8c0-.1 0-.1.1-.2h.1c.1.1 0 .2 0 .3-.2 0-.1 0-.2-.1m.1 13.7h.1l.1.1c0 .2 0 .3-.1.4-.1 0-.1 0-.2-.1s0-.3.1-.4m-.9-9.8c.2-.1.3 0 .2.1l-.1.1c-.1 0-.2-.1-.1-.2m0 .9c.3 0 .4.1.5.2v.2c-.1.3-.3.3-.6.2 0-.1 0-.5.1-.6m-.4 3.3l.1-.1h.1v.1c.1.1-.1.3-.2.4 0-.1-.1-.3 0-.4m0-9.8zm.1 2.9h.1v.2l-.1.1h-.2l.2-.3zm.6 9.9c-.3 0-.5-.3-.4-.6v-.2c.1-.1.2-.1.3-.1.1 0 .1 0 .2.1v.3c0 .1.1.2 0 .3 0 .1-.1.2-.1.2m-.4 1.1l.1-.1h.2c.2.1.1.4.1.6l-.1.1-.1.1h-.2c-.1-.1-.1-.2-.1-.4l.1-.3zm1.7-11.8l-.1-.1v-.2l.1.1c.1.1.1.1 0 .2m.2 0l.1.3.1.1c.1.1.1.2.2.4l.2.2c.1.1.2.4.1.7 0 .1 0 .2-.1.2 0 .1.1.2 0 .3 0 .1-.1.1-.1.2-.2 0-.2-.4-.3-.6-.1-.3-.2-.6-.3-1-.1-.2-.2-.4-.2-.8h.3zm.2-.8c.2 0 .3.1.4.2h.1c.1.1.3.2.4.3h.1c.1 0 .2.1.2.2.2.1.3.2.5.1h.2c0 .1 0 .2-.1.3h-.2c-.1 0-.1.2 0 .3 0 .1.1.2.1.3v.7c-.3 0-.3-.6-.5-.8-.1 0-.2-.1-.2-.1h-.3c-.1-.1 0-.2 0-.3l-.1-.1h-.3c-.1 0-.2-.2-.2-.2-.1-.1-.6-.4-.6-.6.3-.2.5-.3.5-.3m2.4.7c0-.1.1-.1.1-.2h.1l.1.1v.1c0 .1 0 .1-.1.1s-.2-.1-.2-.1m.2 1.7h.2v.1l-.2.2h-.1c-.1 0-.1 0-.1-.1l.2-.2m-2.5-3.1c.1-.1.5-.1.7-.2h.5c.2 0 .6 0 .7.1.1 0 .1-.1.3-.1.1 0 .4.2.5.2V656.8h.2c0 .1-.1.1-.2.1-.3.1-.6 0-1 0-.2 0-.2.1-.4.1l-.2-.2-.2.1-.2-.2c-.1 0-.2.1-.3.1h-.2c-.2 0-.5 0-.3-.2l.1-.1zm1-.5c-.1.1-.3.1-.2 0v-.1l.2.1zm-.7-.8l.2-.1c.2 0 .2.1.2.2h.1l.1-.2c.2 0 .2.2.1.4s-.3.2-.5.2c0 .1.1.2 0 .3 0 .1-.2.1-.2.1l-.1-.1-.1-.1c-.1-.1.1-.6.2-.7m2.2 1.1c0 .1-.1 0-.2 0v-.1l.2.1zm-.3-1.2h.3c.3.1.2.6 0 .8h-.4l-.1-.1c-.1-.2 0-.6.2-.7m.8-.4l.1-.1.2.1h.2c.2.1.1.3 0 .4h-.1c-.1-.1-.1-.1-.1-.2-.1 0-.2.1-.3-.2zm.9 0l.1.1h-.1v-.1zm.3.9c0-.1.1-.1.2-.2l.1-.1h.1c.2 0 .3.2.4.4v.3c0 .1-.2.1-.3.1-.2.1-.3.3-.5.2-.1-.3-.1-.6 0-.7m2.1-.1h.2l.2-.1c.1 0 .1.1.2.1.1.4-.3.5-.7.5h-.1v-.2l.2-.3zm.7-.8l.1-.1h.1v.1c-.2.1-.3.1-.2 0m-.2 20.2c.2 0 .2.1.2.3h-.2v-.3zm13.2-19.5c-.1 0-.1 0-.2.1 0-.1 0-.2.1-.3l.1-.2-.1-.1h-.8c-.1 0-.1-.1-.1-.2-.1-.1-.2 0-.4-.1h-.6c-.1 0-.2.1-.4 0-.1 0-.3-.1-.4-.1-.2 0-.5.1-.6.1h-.3c-.2 0-.4 0-.5.1-.2 0-.4 0-.5-.1-.2 0-.3 0-.5-.1h-.8c-.2.1-.6.1-.8 0H-409.7c-.1 0-.2.1-.4 0-.1 0-.2.2-.3.2h-.1c-.1-.1-.2-.3-.3-.4h-.5l-.1.1-.3.1h-2.4c0 .1.1.2 0 .2 0 .1-.4.2-.5.2l-.1-.1c-.1-.1.1-.2 0-.3-.1-.2-.2 0-.4-.1-.1 0-.2-.1-.3 0h-1c-.1 0-.2.1-.2.2h-.2l-.1-.2h-1.2c-.1 0-.4.1-.5 0-.1 0-.2-.1-.4 0h-.3l-.2-.1h-1.1c-.2 0-.3 0-.4.1H-424.5c-.2 0-.6 0-.7.1-.1.1 0 .2-.1.3v.4c0 .1.1.3 0 .4V659.3c0 .2-.1.4 0 .6v1.6c0 .1.1.4 0 .5 0 .2-.1.5 0 .7v1c0 .2-.1.5 0 .7v.4c.1.2.2.1.2.4l-.2.2v.2c-.1.3 0 .5 0 .8 0 .1-.1.4 0 .5 0 .1.1.2.1.3 0 .2 0 .3-.1.4v.2l-.1.2v2.3c-.1.2 0 .4.1.6v.4c0 .1-.1.2-.1.4v3.4c0 .1.5.1.7.1h.1l.1.1v.1c0 .1-.1.1-.2.2v.7c0 .1 0 .3-.1.4 0 .1.1.1.3.1h1.2c.1 0 .3.1.4 0 .1 0 .2-.1.3-.1l.2.1c.1 0 .6.1.7 0 .1 0 .1-.2.2-.2s.4.1.4.2v.1c.1.1.6 0 .7 0 0-.1.1-.3 0-.3v-.1c-.2 0-.4 0-.6-.1l-.1-.1c0-.2.3-.3.6-.3h.1c.2.1.2.2.3.4 0 .1 0 .2.1.3l.2.1c.2.1.3 0 .5 0h.2c.1 0 .1-.1.2-.1h.2c.1.1.2.2.4.2h.7l.1-.1c.1 0 .2 0 .2.1h.5c0-.1 0-.1-.1-.2-.2-.2-.3 0-.6-.1-.2-.1-.2-.2-.3-.4v-.1l-.4-.3c-.1 0-.1.1-.2.1l-.2-.1c-.1 0-.2.1-.3.1l-.1-.1c0-.2.2-.4.3-.5 0-.2-.1-.2-.2-.3l-.1-.1v-.5c0-.1-.2-.2-.2-.4v-.1l.2-.1c.1 0 .3-.2.4-.1.1 0 .1.2.1.3v.2c.1.1.3 0 .4.1.1 0 .1.1.2.2s.2.3.4.3l.1-.1.1-.1v-.1c0-.1-.1-.1-.2-.1l-.1-.3c0-.1 0-.1.1-.1h.1c.1 0 .1.2.1.2.1.1.2.1.3.2v.2h.2c.1.1.1.2.1.2.1.1.1.2.2.3.2 0 .5 0 .6.1.1 0 .1-.1.1-.1h.1c.1 0 .3.1.3.2l.1.1c0 .1 0 .1-.1.1-.2 0-.2-.1-.3-.1 0 .1.1.4.1.5h.2l-.1-.1c0-.2.2-.1.2-.1l.1-.2.4-.4c.1-.1.3 0 .4 0 0 0 .2-.3.3-.2.2 0 .2-.1.3-.2.3-.2.6-.7.3-1.1-.1-.1-.2-.1-.4-.1l-.3-.3-.2-.1-.1-.2-.1-.2V672.4c.2 0 .2.2.5.2.1 0 .2 0 .3-.1l.1-.1h.2c.1 0 .3-.1.5-.1.1 0 .2.1.3.2h.7c.5 0 .7-.3.9-.6.1 0 .3 0 .4-.1.1 0 .1-.1.2-.1h.5l.1.1h.1v-.1c0-.1-.1-.1 0-.2l.1-.1v-.1c.1-.2.3 0 .4.1.1 0 .3-.3.3-.4 0-.1-.2-.1-.3-.2-.1 0-.1.1-.2.1l-.1-.2v-.1l-.1-.1c-.1 0-.2.1-.2.2h-.3l-.1-.1c-.1 0-.4.2-.5.3l-.1.2c-.1 0-.1-.2-.2-.3-.1-.1-.2-.1-.3-.1-.2 0-.6.1-.8.2-.1.1-.2.2-.3.2h-.8c-.1 0-.1-.1-.2-.1s-.2 0-.3-.1l-.1-.1-.2-.1c-.1 0-.1.1-.2.1h-.2c-.1 0-.2.1-.4 0-.1 0-.2-.1-.3-.1-.2 0-.3.1-.3.2H-416.4c-.1 0-.2.1-.3.2-.1 0-.4-.1-.4-.1v-.1l.1-.1.2-.1.1-.2c.1-.1.2-.1.2-.2.1-.2-.1-.4 0-.5 0-.1.3-.3.4-.2.1 0 0 .2.1.3 0 .1.1.2.1.2.1.1.2.3.4.3h.7c.1 0 .1-.1.2-.1h.2l.1-.1v-.2c0-.1.2 0 .2 0l.1-.2h.1c.1 0 .2-.1.2-.2l-.2-.2c0-.1.1-.1.2-.2 0-.2-.1-.3-.1-.4v-.3c-.1 0-.1.1-.2.1h-.5l-.2-.1c-.1 0-.3.1-.4.1-.1 0-.1 0-.2-.1-.1-.3 0-.3.1-.5.1 0 .2 0 .3-.1h.4c.1-.1.2-.3.2-.4.1-.1.1-.3.3-.3.1 0 .2.1.3.2l.1.2c.1.1.3.1.4.2.1.1.1.3.3.4.2.1.7.1.9 0 .2-.1.2-.4.3-.6.1-.2.2-.3.3-.5 0-.2-.1-.3-.2-.5-.1-.3-.1-.8-.2-1.1v-.7c0-.1.1-.2.1-.3 0-.1-.1-.3-.2-.3-.1-.1-.2 0-.3-.1 0-.1 0-.3.1-.4.1-.3.5-.4.4-.9l-.1-.1H-412.4v-.1l.4-.5.2-.1c.1-.1.1-.3.2-.4.2-.1.2.2.4.1.1-.1.1-.3.2-.4.1-.1.2-.1.3-.2l.1-.1.2-.2v-.3l-.1-.2-.1-.1v-.2c0-.1-.1-.3-.1-.4 0-.2.2-.3.4-.4h.2c.1-.1.2-.2.2-.3.2 0 .1.3.1.4v.1c.2 0 .2 0 .3-.2 0-.1-.1-.3-.1-.3v-.1c.2 0 .2.1.4.1s.3-.1.3-.1c.1-.1.2-.1.3-.2v-.3l.1-.2c.1 0 .1.1.2.2h.2l.2.1v.3c0 .1.4.3.5.3l.1-.1.1-.2v-.1c-.2-.1-.3-.2-.5-.4l-.1-.1c-.1 0-.2-.1-.2-.1-.1 0-.4-.1-.3-.2.1-.1.2 0 .3-.1.1 0 .1-.1.2-.1h.4c.1 0 .2.1.3 0v-.2c.1 0 .2.1.3.1.1 0 .1-.2.2-.3.2-.1.2.2.4.1.1 0 .2-.1.3-.1h.2c.1 0 .3-.1.4-.1h.3c0 .2-.2.2-.3.3-.1.1-.2.1-.3.2-.1.1-.2.2-.4.2-.1.1-.2.1-.4.1l-.3.3-.1.2c0 .2.3.3.5.5h.1l.1-.1c0-.1-.1-.2-.1-.3 0-.2.1-.3.3-.3.1 0 .3.1.4 0 .1-.1.1-.2.2-.2l.2-.1c.1-.1.2-.3.4-.3h.1l.1.1c0 .2-.1.2-.2.3l-.1.2c0 .1-.1.2 0 .2 0 .2-.2.2-.3.3-.1.1-.1.2-.1.4 0 .1-.2.2-.2.3l-.1.1v.1c.2.1.4-.3.5-.5h.2c0-.1-.1-.2-.1-.4l.1-.1v-.2c.1-.1.3-.1.4-.2.1 0 .2-.2.2-.2.1-.2 0-.4.2-.5h.3c.1 0 .2-.1.3-.1.2 0 .3 0 .4-.1 0-.1-.1-.1-.2-.1-.3.1-.6 0-.9 0-.1 0-.4 0-.3-.2.1-.3.5 0 .7-.1l.1-.1c.1-.1.1-.1.2-.1s.3.1.4 0c0-.1-.1-.2-.1-.4.1-.2.2-.3.4-.5h.1c0 .1.1.3 0 .3v.1c.1 0 .1-.1.1-.2l.1-.1c.6-.2.5-.5.4-.5"/><path class="st0" d="M-408.2 659c.1 0 .1-.1.1-.1h.2l.1-.1c-.1-.1-.1-.2-.4-.2l-.2.1v.1c0 .1 0 .2.2.2zM-408.5 659l-.1-.2h-.1l-.1.1v.1c.2.1.3 0 .3 0M-409.7 659.1h-.1l-.1.1c0 .1 0 .1.1.1h.2l.1-.1v-.1c-.2.1-.2.1-.2 0M-415.5 659.9h-.1l-.1.1v.2c0 .1.2.4.3.4.1 0 .3 0 .3-.1v-.2c-.1-.2-.2-.3-.4-.4"/><path class="st0" d="M-405.8 660.2v-.1h-.2v.4h.1v-.1l.1-.2zM-409.4 661l-.1.1v.2c0 .1-.1.1-.2.1-.1-.1 0-.3-.2-.3-.1.1-.1.2-.1.4l.2.2c.3.1.6 0 .7-.1.1-.1.1-.3.3-.4h.2c0 .1 0 .3.1.4.1 0 .2.1.2 0 .1 0 .2-.1.2-.1.2-.1.4 0 .5-.1 0-.1-.1-.2-.1-.3l.1-.3-.2-.1c0-.2.1-.2 0-.3h-.2l-.1-.1c-.1 0-.2-.1-.3-.1l-.1.1c0 .1 0 .2.1.2s.1-.1.2 0c.1 0 .1.1.1.2.1.2.3.2.3.5l-.1.1c-.2.1-.5-.1-.6-.2 0-.1 0-.2-.1-.2-.2-.1-.5.1-.6.2 0-.1 0-.2-.2-.1M-406.4 660.4l-.2-.1-.1.1c0 .2.2 0 .3 0"/><path class="st0" d="M-409.4 660.6l-.3.1v.2c.1 0 .2-.1.3-.2v-.1zM-406.9 661.1l-.1.1v.2c0 .1.3.1.3 0 0-.2-.1-.3-.2-.3"/><path class="st0" d="M-410.4 661.3l-.1.1v.1l.1.1.2-.2-.1-.1h-.1zM-420 661.4l-.1.2.1.1h.2v-.2c-.1-.1-.2-.1-.2-.1"/><path class="st0" d="M-405.6 661.4h-.2v.1c.1 0 .2 0 .2-.1zM-404.7 661.5v.1c.1 0 .1-.1 0-.1"/><path class="st0" d="M-405.1 661.9l-.1-.2h-.1l-.2.1c-.2.1-.3.4-.3.7l.2.1v.4l.1.1c.2 0 .3-.2.4-.3 0-.1 0-.1-.1-.2 0-.1.1-.2.2-.2 0-.2 0-.1-.1-.2v-.3zM-406.2 662l.1-.1v-.1h-.1zM-404.8 662.1c.2.1.3 0 .4 0v-.1c0-.1-.2-.1-.3-.1 0 .1-.1.1-.1.2"/><path class="st0" d="M-406.8 662.1c-.1.1-.1.1-.1.2.2.1.3 0 .1-.2zM-409.5 664.1c.1 0 .2.1.2.1v.1l-.1.1h-.2s0-.1.1-.3zm-1.1-1.5v-.1h-.1c-.1 0-.1 0-.1.1 0 .2.1.4.1.5h.1c.4 0 .1.2.2.4l.2-.2c.2 0 .2.1.4.2 0 .2-.2.2-.4.2v.1c0 .1.2.1.4.2l.1.1-.1.2c0 .1.1.4.1.4l.1.1c.1 0 .1-.1.2-.1.1-.1.3 0 .4.1 0 .1 0 .4.1.5l.2-.1.1.1h.1c.1-.1 0-.4.1-.5.1 0 .3 0 .3-.1.1-.1.2-.2.3-.2.2-.1.3.2.5.1h.1c.1-.3.2-.4.5-.4h.2c.2 0 .2-.1.1-.2h-.4c0-.1.1-.2.2-.2.1-.1.2 0 .3 0 .1 0 .1-.1.1-.2.1 0 .2.1.4 0v-.1l-.2-.1.2-.1c0-.1.1-.3-.1-.4h-.2c-.1 0-.1-.2-.2-.1-.1 0-.1.2-.2.2-.1.1-.1 0-.3.1-.1 0-.2.1-.4.1l-.2-.1c-.5 0-.3.4-.7.5h-.5l-.1-.1-.2-.1V663.1c0-.2-.2-.1-.3-.1-.2-.1-.2-.4-.5-.4v.2l-.1.2c-.1 0-.2 0-.2-.1-.1 0-.1 0-.2.1l-.1.2-.2-.1c0-.3-.1-.4-.1-.5"/><path class="st0" d="M-405 662.7l.1.1c.1 0 .1-.1.1-.2l-.1-.1-.1.2zM-403.6 663.7v.2l.1.1h.2v-.1c-.1-.2-.2-.2-.3-.2M-406.1 664.4c.1.1.3-.2.4-.2.1-.1 0-.2-.1-.3-.1 0-.2-.1-.3-.1v.6"/><path class="st0" d="M-404.3 664h-.2c-.1 0-.1-.1-.2-.2h-.1c-.1.1-.3.2-.4.3-.1.1.1.2 0 .3l-.1.2v.1l-.1.2c-.1 0-.2 0-.3.1v.2l.4-.1.2-.1c0-.1 0-.2.1-.2.2-.1.4-.1.5-.3.1-.1 0-.2.1-.3l.1-.2zM-406.5 664.8v-.2l.1-.2v-.1h-.1c-.1.1-.2.1-.3.2-.1.1-.1.2-.2.2v.1l.2.1c.2 0 .3 0 .3-.1"/><path class="st0" d="M-405.5 664.6H-405.8c0 .1 0 .1.1.1.2.1.2.1.2-.1zM-407.5 664.9v-.2c0-.1-.1-.1-.3-.1l-.1.1v.2c.2 0 .3.1.4 0"/><path class="st0" d="M-403.6 664.9c-.1.1-.3 0-.4.1 0 .3.4.1.5 0l-.1-.1zM-405.8 665.6l-.1-.2v-.3c0-.2-.1-.2-.3-.2-.1.1-.2.2-.2.4v.6c.2 0 .2-.1.4 0 0 .1-.1.1-.2.2v.2c0 .1 0 .1.1.2h.3c.2 0 .3-.1.4 0 .1 0 .2 0 .2-.1.1-.3.1-.4.3-.6v-.1c-.3-.1-.3 0-.5.2h-.1v-.2l-.3-.1zM-404.5 665.2l-.1-.2h-.1l-.1.1v.1c-.1.1-.2 0-.2.2v.1h.5l.1-.1v-.1l-.1-.1zM-407 666.1c.1 0 .2-.2.1-.3 0-.1-.1-.1-.1-.2l.1-.2c0-.1 0-.2-.1-.3-.1 0-.1-.1-.2-.1-.1.1-.3.3-.3.5 0 .1.1.2 0 .3l-.2.1c0 .2 0 .3.1.4v-.2c.3 0 .5.1.6 0"/><path class="st0" d="M-408.1 665.6c.1 0 .3-.1.2-.2h-.1l-.2.1.1.1zM-409.6 665.9l-.1-.2h-.1l-.1.1v.1c.2.1.3 0 .3 0M-407.6 667.4l.2-.1c.1-.2.3-.4.1-.7-.2 0-.1.1-.2.2 0 .1-.2.2-.3.1h-.1c0-.3.2-.7-.2-.7l-.1.1-.1.2c0 .2.2.2.2.3v.3c0 .1.1.4.2.4 0 0 .2-.1.3-.1"/><path class="st0" d="M-404.8 666.5c.1 0 .2-.2.1-.2 0 0-.1.1-.1.2zM-404 666.7c.1-.1.2-.1.2-.2v-.1h-.1c-.1.1-.2.1-.2.2l-.1.3v.1c.1-.1.2-.3.2-.3"/><path class="st0" d="M-409.2 666.5l-.2.1-.1.1v.2c.1 0 .2 0 .3.1.1 0 .2-.2.1-.3l-.1-.2zM-406.7 666.8s.1-.1.1-.2c-.1.2-.3.2-.3.6v.1c.2-.2.1-.4.2-.5M-406.3 667.2l.2-.2v-.2h-.2l-.1.1-.1.1c-.1.1-.2.3-.2.5.3 0 .3-.2.4-.3"/><path class="st0" d="M-404.5 666.7c-.2.2-.2.3-.3.5 0 .1-.1.1-.1.2l.1.1.1.1c.1 0 .1 0 .1-.1 0-.3 0-.6.2-.8h-.1zM-405.9 666.9v.1h.1l.1-.2-.1-.1zM-408.7 666.9c-.1.1-.1.2 0 .2h.1c0-.1-.1-.2-.1-.2M-411 667.5v.2c.1.1.2-.1.3 0 .1 0 .2.1.2.2.1 0 .2 0 .3-.1v-.1c0-.1-.1-.3-.2-.3h-.2c0-.1 0-.3-.1-.3h-.1c-.1.1-.2.1-.2.4"/><path class="st0" d="M-405.2 667.6c.1-.1.3-.4.2-.5l-.1-.1h-.1c-.1.1-.3.3-.2.5l.1.1h.1zM-403.6 667.1l-.2.1c-.1.1-.2.1-.3.2v.3c.1 0 .2-.1.2-.2l.2-.2.1-.2zM-409.2 667.7h.1c.1-.1.1-.1.1-.3-.1-.1-.1-.1-.2-.1v.4zM-405.9 667.8l-.2-.2h-.1c-.1 0-.1.2-.1.3-.1.1-.2.1-.3.2h-.1v-.2h-.1c0 .1 0 .3-.1.3 0 .1-.1.1-.2.2h-.1v-.3c-.1 0-.3.2-.4.3 0 .1 0 .2.1.2 0 .3-.2.1-.2.3 0 .1 0 .2-.1.3v.2c0 .1-.1.2-.1.3v.1c.1 0 .2-.2.2-.3.1-.1.2-.1.3-.2l.3-.6c.1 0 .1 0 .1.1s-.1.2 0 .4c.2 0 .2-.1.3-.3l.1-.2v-.3c0-.1.2-.1.3-.2.2 0 .4-.3.4-.4M-408.4 667.6l-.2.1c0 .1-.1.3 0 .5v.1l.1-.1c0-.1 0-.1-.1-.2l.2-.2c.1-.1.1-.2 0-.2"/><path class="st0" d="M-404.6 668.2v-.1c0-.1-.1-.1-.3-.1-.1.1-.2 0-.3.1l-.3.3-.2.2V668.9c.1 0 .1-.1.2-.1s.2 0 .2-.1c.2-.1.5-.3.7-.5zM-403.8 668.2c.1-.1-.1-.2-.2-.2v.1c0 .2.1.2.2.1"/><path class="st0" d="M-408.3 669l.2.1c.1-.2-.1-.3-.1-.5v-.4.2c-.1.1-.2.4-.2.6h.1zM-409.2 668.6H-408.9v-.4h-.1l-.1.1-.1.1v.2zM-409.9 668.3l-.1.2v.1c.2-.1.2-.2.1-.3zM-410.2 669.4c.2-.1.2 0 .3 0v.1l-.2.1c-.1 0-.2-.1-.1-.2m-1.1.7l.2-.1.1.2.1.1h.1l.1-.2h.1l.1.2c.3.1.2-.1.4-.1.1 0 .2.1.3.1.2 0 .3-.1.5 0 .1 0 .1.1.2.1h.2l.2.1c.2-.2.5-.3.5-.7l-.1-.1-.2-.1v-.2l-.1-.1h-.1c0 .1-.1.4 0 .5v.2c0 .1-.2.1-.3.2-.1 0-.3-.1-.4-.1 0-.1.1-.1.1-.1l.1-.2c0-.1.2-.1.2-.2v-.2h-.1c-.1 0-.1.1-.2.1h-.1l-.1.2c-.1 0-.1-.1-.2-.2l-.1-.1-.2-.2v-.1c.2 0 .2.1.4.1l.1-.1v-.2c0-.1-.1 0-.2 0s-.1-.1-.2-.1l-.3-.1-.1.2-.1.1c-.1 0-.2 0-.3-.1 0-.1 0-.2-.1-.3-.1 0-.2.1-.2.2-.2 0-.2-.1-.4-.2h-.2c-.1 0-.2.3-.1.4 0 .1.2.2.2.3 0 .1-.1.1-.1.2l.1.2c.2.2.1.3.2.4M-405.2 669.3l.1-.2v-.1c-.2.2-.4.3-.6.5v.1c.1-.1.5-.3.5-.3M-412.8 670.4h.2c.1 0 .3.1.5 0l.1-.1V669.4c0-.2 0-.3-.1-.3h-.1l-.1.1c0 .2 0 .3-.1.4h-.3v.1c0 .2.1.2.1.4-.1 0-.3.1-.2.3"/><path class="st0" d="M-406.3 669.6c.1 0 .1-.1.2-.2l.1-.1c0-.1 0-.1-.1-.1l-.2.1-.1.2.1.1zM-404.7 669.3c-.1.1-.2 0-.2.1.1.1.2.4.5.2 0-.1-.2-.3-.3-.3M-407 669.8l.3-.3v-.1h-.1c-.1.1-.2.1-.3.2l-.2.2v.1c.3 0 .3 0 .3-.1M-403.9 669.7s-.2.1-.1.2l.1.1c.1.1.3-.1.4-.2v-.1h-.4M-405.2 670.1c0 .1.1.3.1.3h.1c0-.1-.1-.3-.2-.3"/><path class="st0" d="M-407 670.1l-.3.3c.2 0 .3-.1.4-.2l-.1-.1zM-407.9 670.7c0-.1-.1-.1-.2-.1-.1.1-.3.2-.3.3 0 .1.3.2.4.2.2-.1.2-.3.1-.4"/><path class="st0" d="M-406 670.8h-.1l-.2.1-.1.1c-.1.1 0 .2 0 .3.2 0 .3-.2.4-.3v-.2zM-407.5 671.6c0-.1-.1-.2-.2-.2l-.1.1v.1h.3M-405.8 672.2h-.1l-.1.1v.1H-405.7c.1-.1 0-.1-.1-.2M-410 672.3l-.1.1v.1c0 .1.2.1.3.1h.1v-.1c-.1-.1-.2-.2-.3-.2"/><path class="st0" d="M-407.2 672.8c-.2.1-.3.2-.1.4.1 0 .2 0 .2-.1l-.1-.3zM-410.9 673.4c0-.1-.1-.1-.2-.1 0 .1 0 .1.1.1h.1zM-411.8 674v-.2h-.1c-.1.1-.2.1-.3.2h.4"/><path class="st0" d="M-410.5 673.8h-.1l-.1.1.1.3c.1 0 .2-.1.2-.2l-.1-.2zM-408.7 674.1v.1h.1c0-.1-.1-.1-.1-.1"/><path class="st0" d="M-411.3 674.2c-.1 0-.2 0-.3.1l-.1.1c-.1 0-.2-.1-.3-.1h-.3c-.1 0-.2-.1-.3-.1 0 .2.3.1.4.2l.1.1v.2c0 .1-.1.3-.1.5.1.3.4.6.8.4V675.3l-.1-.1.2-.1v-.1c0-.1-.2-.1-.2-.1-.1-.3.1-.3.2-.4v-.3zM-406.8 674.2v.2h.1l.1-.1-.1-.1h-.1zM-407.5 674.4h-.2c0 .1 0 .2.1.3.2 0 .3-.1.4-.2-.1-.1-.2-.1-.3-.1"/><path class="st0" d="M-410.1 674.4c-.2.1-.2.3-.1.4.1 0 .2 0 .3-.1v-.3h-.2zM-410.9 675.5c-.1 0-.1-.1-.2-.1l-.1.1c0 .1.3.1.4.1l-.1-.1zM-418.1 675.5l-.1.1v.1l.3.1c.1 0 0-.2 0-.2l-.2-.1zM-393.3 662.3c-.5 0-1.9.1-1.9.1v2.4c0 .1 0 .1-.2.1h-3.3c-.2 0-.2 0-.2-.1v-10.3c0-.2.1-.1.2-.1h5.2c2.5 0 4.1 1.7 4.1 4.1 0 2.4-1.5 3.6-3.9 3.8m-1.2-5.3h-.7v2.6h.8c1 0 1.4-.6 1.4-1.3-.1-.7-.5-1.3-1.5-1.3M-384.4 664.9h-3.5c-.2 0-.2 0-.2-.1v-10.3c0-.2 0-.1.2-.1h3.5c.1 0 .2 0 .2.1v10.3c0 .1 0 .1-.2.1M-373.8 657.2l-2.8-.2v7.7c0 .1 0 .1-.2.1h-3.4c-.2 0-.2 0-.2-.1V657l-2.8.2c-.1 0-.1 0-.1-.1v-2.7c0-.1 0-.2.1-.2h9.3c.1 0 .1 0 .1.2v2.7c.1.1.1.1 0 .1M-364.1 657.2l-2.8-.2v7.7c0 .1 0 .1-.2.1h-3.4c-.2 0-.2 0-.2-.1V657l-2.8.2c-.1 0-.1 0-.1-.1v-2.7c0-.1 0-.2.1-.2h9.3c.1 0 .1 0 .1.2v2.7c.2.1.1.1 0 .1M-359.5 665.3c-2.1 0-3.6-.9-4.2-2.4-.1-.3-.1-.3.1-.3l2.3-.9c.1-.1.2 0 .2.1.2.6.8 1 1.5 1s1.1-.3 1.1-.8-.4-.7-1.4-.8c-.1 0-.3 0-.4-.1-1.2-.1-3.3-.6-3.3-3.2 0-2.4 1.6-4 4.6-4 2.2 0 3.5.9 3.8 2.3 0 .2.1.2-.1.3l-2.2.8c-.1.1-.1.1-.2-.1-.2-.6-.7-.9-1.4-.9s-1 .3-1 .7c0 .5.4.6 1.6.8.2 0 .3.1.6.1 1.8.3 3.2 1 3.2 3.2-.1 2.7-2.2 4.2-4.8 4.2M-346.7 664.9h-6.5c-.2 0-.2 0-.2-.2v-10.2c0-.1 0-.2.2-.2h6.1c2.2 0 3.5 1.1 3.5 2.8 0 1.1-.7 2.1-2 2.4 1.4.1 2.4 1.4 2.4 2.6-.1 1.8-1.5 2.8-3.5 2.8m-1.9-8.3h-1.2v1.7h1.2c.7 0 1-.3 1-.8s-.3-.9-1-.9m.3 4.3h-1.5v1.7h1.5c.7 0 1-.4 1-.9s-.3-.8-1-.8M-337.3 665.3c-3.1 0-4.9-1.9-4.9-4.3v-6.6c0-.1 0-.1.1-.1h3.7c.1 0 .1 0 .1.1v6.1c0 1.1.5 1.5 1.3 1.5s1.3-.4 1.3-1.5v-6.1c0-.1 0-.1.1-.1h3.4c.1 0 .1 0 .1.1v6.8c-.1 2.5-1.8 4.1-5.2 4.1M-319.7 664.9h-4c-.1 0-.2 0-.4-.3-.6-1-1.6-2.7-1.6-2.7l-1.1.1v2.8c0 .1 0 .1-.2.1h-3.3c-.2 0-.2 0-.2-.1v-10.3c0-.2.1-.1.2-.1h5.6c2.7 0 3.9 1.7 3.9 3.6 0 1.4-.5 2.4-1.5 2.8.4.6 1.6 2.3 2.6 3.8.1.2.2.3.2.3h-.2m-6.4-8h-.7v2.5h.7c.9 0 1.4-.3 1.4-1.2 0-.9-.4-1.3-1.4-1.3M-308.5 665.2l-.2-.1-1.8-1c-.7.5-1.6 1.2-3.2 1.2-3.1 0-5.7-2.1-5.7-5.7 0-3.3 2.4-5.6 5.8-5.6 2.7 0 4.3 1.3 5.1 3.2.1.2.1.2 0 .3l-2.9 1.3c-.1.1-.2 0-.2-.2-.4-.7-1.1-1-1.9-1-1.3 0-2.1.9-2.1 2.1 0 1.3.8 2.1 2.1 2.1.9 0 1.5-.4 1.8-1.2 0-.1.1-.2.1-.2h3.1c.1 0 .1 0 .1.1v4.6s0 .1-.1.1M-297.1 664.9h-3.3c-.1 0-.2 0-.2-.1v-3.6h-2.9v3.6c0 .1 0 .1-.2.1h-3.3c-.2 0-.2 0-.2-.1v-10.3c0-.2 0-.1.2-.1h3.3c.1 0 .2 0 .2.1v3.4h2.9v-3.4c0-.1 0-.1.2-.1h3.3c.2 0 .2 0 .2.1v10.3c-.1.1-.1.1-.2.1M-395.5 675.6c-2.5 0-4.3-1.7-4.3-4.2 0-2.4 1.7-4.3 4.3-4.3 2 0 3.3 1.2 3.8 2.5 0 .1 0 .2-.1.2l-2.3.8-.1-.1c-.2-.5-.6-.8-1.4-.8-1 0-1.6.6-1.6 1.6 0 .9.6 1.6 1.6 1.6.7 0 1.1-.3 1.3-.8 0-.1 0-.1.1-.1l2.3.7c.1 0 .1.1.1.2-.3 1.4-1.7 2.7-3.7 2.7M-387.2 675.6c-2.3 0-3.7-1.4-3.7-3.2v-5c0-.1 0-.1.1-.1h2.7c.1 0 .1 0 .1.1v4.5c0 .8.4 1.1 1 1.1s1-.3 1-1.1v-4.5c0-.1 0-.1.1-.1h2.5c.1 0 .1 0 .1.1v5.1c0 1.9-1.4 3.1-3.9 3.1M-376.4 675.3h-5.5c-.1 0-.1 0-.1-.1v-7.7c0-.1 0-.1.1-.1h2.5c.1 0 .1 0 .1.1v5.7h2.9c.1 0 .1 0 .1.1v2h-.1"/><path class="st0" d="M-370.2 669.6l-2.1-.1v5.8c0 .1 0 .1-.1.1h-2.5c-.1 0-.1 0-.1-.1v-5.8l-2.1.1c-.1 0-.1 0-.1-.1v-2c0-.1 0-.1.1-.1h7c.1 0 .1 0 .1.1l-.2 2.1zM-365.7 675.6c-2.3 0-3.7-1.4-3.7-3.2v-5c0-.1 0-.1.1-.1h2.7c.1 0 .1 0 .1.1v4.5c0 .8.4 1.1 1 1.1s1-.3 1-1.1v-4.5c0-.1 0-.1.1-.1h2.5c.1 0 .1 0 .1.1v5.1c0 1.9-1.4 3.1-3.9 3.1M-352.5 675.3h-3c-.1 0-.2 0-.3-.2-.4-.8-1.2-2-1.2-2h-.8v2.1c0 .1 0 .1-.1.1h-2.5c-.1 0-.1 0-.1-.1v-7.7c0-.1.1-.1.1-.1h4.2c2 0 2.9 1.2 2.9 2.7 0 1.1-.4 1.8-1.2 2.1.3.5 1.2 1.7 1.9 2.8.1.1.1.2.1.3.2 0 .1 0 0 0m-4.8-6h-.5v1.9h.5c.7 0 1.1-.2 1.1-.9s-.4-1-1.1-1M-343.5 675.3h-2.8c-.1 0-.1 0-.2-.1-.1-.3-.3-.6-.4-.9h-2.7c-.2.3-.2.6-.4.9-.1.1-.1.1-.2.1h-2.4c-.1 0-.1 0-.1-.2 1.4-2.6 3-5.6 4.2-7.9 0-.1.2-.1.3-.1h.3c1.4 2.5 2.9 5.3 4.3 7.9.2.3.2.3.1.3m-4.5-3.9c-.1-.2-.2-.5-.2-.5s-.1.2-.2.5c-.2.5-.5 1.2-.5 1.2h1.4s-.3-.7-.5-1.2M-337.5 675.3h-5.5c-.1 0-.1 0-.1-.1v-7.7c0-.1 0-.1.1-.1h2.5c.1 0 .1 0 .1.1v5.7h2.9c.1 0 .1 0 .1.1v2h-.1"/><path class="st0" d="M-327.8 669.6l-2.1-.1v5.8c0 .1 0 .1-.1.1h-2.5c-.1 0-.1 0-.1-.1v-5.8l-2.1.1c-.1 0-.1 0-.1-.1v-2c0-.1 0-.1.1-.1h7c.1 0 .1 0 .1.1l-.2 2.1zM-318.9 675.3h-3c-.1 0-.2 0-.3-.2-.4-.8-1.2-2-1.2-2h-.8v2.1c0 .1 0 .1-.1.1h-2.5c-.1 0-.1 0-.1-.1v-7.7c0-.1.1-.1.1-.1h4.2c2 0 2.9 1.2 2.9 2.7 0 1.1-.4 1.8-1.1 2.1.3.5 1.2 1.7 1.9 2.8.1.1.1.2.1.3h-.1m-4.8-6h-.5v1.9h.5c.7 0 1.1-.2 1.1-.9s-.4-1-1.1-1M-314.6 675.6c-2.3 0-3.7-1.4-3.7-3.2v-5c0-.1 0-.1.1-.1h2.7c.1 0 .1 0 .1.1v4.5c0 .8.3 1.1 1 1.1.6 0 1-.3 1-1.1v-4.5c0-.1 0-.1.1-.1h2.5c.1 0 .1 0 .1.1v5.1c-.1 1.9-1.4 3.1-3.9 3.1M-306.7 675.6c-1.6 0-2.7-.7-3.1-1.8-.1-.2-.1-.2 0-.2l1.7-.7h.1c.1.4.6.8 1.1.8.5 0 .8-.2.8-.6 0-.4-.3-.5-1-.6h-.3c-.9-.1-2.4-.5-2.4-2.4 0-1.8 1.2-3 3.4-3 1.6 0 2.6.7 2.8 1.7 0 .1 0 .1-.1.2l-1.7.6h-.1c-.2-.4-.5-.7-1.1-.7-.6 0-.8.2-.8.5 0 .4.3.5 1.2.6.1 0 .3 0 .4.1 1.3.2 2.4.8 2.4 2.4.2 2.1-1.3 3.1-3.3 3.1"/><path class="st0" d="M-295.9 669.6l-2.1-.1v5.8c0 .1 0 .1-.1.1h-2.5c-.1 0-.1 0-.1-.1v-5.8l-2.1.1c-.1 0-.1 0-.1-.1v-2c0-.1 0-.1.1-.1h7c.1 0 .1 0 .1.1l-.2 2.1z"/><path class="st1" d="M-351.9 598.5v-13.6h-5.4v-5.1c4.1 0 7.1-1.9 7.7-3.9h7.2v22.5l-9.5.1z"/><path class="st2" d="M-351.9 598.5v-13.6h-5.4v-5.1c4.1 0 7.1-1.9 7.7-3.9h7.2v22.5l-9.5.1z"/><path class="st3" d="M-329.6 592.7c1.6.2 2.7 1.4 2.6 2.7-.2 1.3-1.5 2.1-3.1 1.9-1.5-.2-2.9-1.5-2.6-2.7.2-1.3 1.6-2.1 3.1-1.9m.9-6.3c1.3.2 2 .7 2.3 1.4l9.9 1.4c.1-4.1-4-8.3-11.7-9.4-8.4-1.2-14.5 3.6-15.3 9.9-.9 7.2 4.5 12.7 12.5 13.8 7.4 1 13.6-1.4 14.1-5.9.5-4.2-2.9-7.4-8.7-8.2-3.8-.5-5.8.3-6.8 1.4.3-2.8 1.4-4.7 3.7-4.4"/><path class="st2" d="M-329.6 592.7c1.6.2 2.7 1.4 2.6 2.7-.2 1.3-1.5 2.1-3.1 1.9-1.5-.2-2.9-1.5-2.6-2.7.2-1.3 1.6-2.1 3.1-1.9zm.9-6.3c1.3.2 2 .7 2.3 1.4l9.9 1.4c.1-4.1-4-8.3-11.7-9.4-8.4-1.2-14.5 3.6-15.3 9.9-.9 7.2 4.5 12.7 12.5 13.8 7.4 1 13.6-1.4 14.1-5.9.5-4.2-2.9-7.4-8.7-8.2-3.8-.5-5.8.3-6.8 1.4.3-2.8 1.4-4.7 3.7-4.4z"/><path class="st4" d="M-361.7 593.3c-.5 3.9-1.9 5-3.5 4.8s-2.7-1.7-2.3-5.7c.5-3.9 1.9-5 3.5-4.8 1.6.2 2.7 1.7 2.3 5.7m-1.5-12.3c-6.9-1.1-13.1 3.3-13.9 9.9-.8 6.5 4.2 12.7 11.1 13.8 6.9 1.1 13.1-3.3 13.9-9.9.8-6.6-4.2-12.8-11.1-13.8"/><path class="st2" d="M-361.7 593.3c-.5 3.9-1.9 5-3.5 4.8s-2.7-1.7-2.3-5.7c.5-3.9 1.9-5 3.5-4.8 1.6.2 2.7 1.7 2.3 5.7zm-1.5-12.3c-6.9-1.1-13.1 3.3-13.9 9.9-.8 6.5 4.2 12.7 11.1 13.8 6.9 1.1 13.1-3.3 13.9-9.9.8-6.6-4.2-12.8-11.1-13.8z"/><path class="st5" d="M-383.6 594.4l10.5-1.6.8 6.8-23.9 3.7c-.9-7.3 6.8-12.3 11.5-15.1 1.5-.9 1.6-1.6 1.6-2.3-.1-.8-1-1.3-2.5-1.1-1.3.2-2.2 1-2.1 2.1l.1.5-9.7 1.5-.1-.5c-.5-4.1 3.3-9 11-10.2 6.8-1.1 12.3 1.3 12.8 6 .7 6.2-10.2 8.9-10 10.2"/><path class="st2" d="M-383.6 594.4l10.5-1.6.8 6.8-23.9 3.7c-.9-7.3 6.8-12.3 11.5-15.1 1.5-.9 1.6-1.6 1.6-2.3-.1-.8-1-1.3-2.5-1.1-1.3.2-2.2 1-2.1 2.1l.1.5-9.7 1.5-.1-.5c-.5-4.1 3.3-9 11-10.2 6.8-1.1 12.3 1.3 12.8 6 .7 6.2-10.2 8.9-10 10.2z"/></svg>