<svg xmlns="http://www.w3.org/2000/svg" viewBox="-452 554 94 94" enable-background="new -452 554 94 94"><style type="text/css">.st0{fill:#EAEAEA;}</style><path class="st0" d="M-428.1 576.1h5.2c1.4 0 2.5-1.1 2.5-2.5v-5.2c0-1.4-1.1-2.5-2.5-2.5h-5.2c-1.4 0-2.5 1.1-2.5 2.5v5.2c-.1 1.3 1 2.5 2.5 2.5zM-387 576.1h5.2c1.4 0 2.5-1.1 2.5-2.5v-5.2c0-1.4-1.1-2.5-2.5-2.5h-5.2c-1.4 0-2.5 1.1-2.5 2.5v5.2c-.1 1.3 1 2.5 2.5 2.5zM-369.1 565.8h-2.5c-1.4 0-2.5 1.1-2.5 2.5v10.3c0 1.4-1.1 2.5-2.5 2.5h-15.5c-1.4 0-2.5-1.1-2.5-2.5v-10.3c0-1.4-1.1-2.5-2.5-2.5h-15.5c-1.4 0-2.5 1.1-2.5 2.5v10.3c0 1.4-1.1 2.5-2.5 2.5h-15.5c-1.4 0-2.5-1.1-2.5-2.5v-10.3c0-1.4-1.1-2.5-2.5-2.5h-2.6c-2.9 0-5.2 2.3-5.2 5.2v71.9c0 2.9 2.3 5.2 5.2 5.2h71.9c2.8 0 5.2-2.3 5.2-5.2V571c-.3-2.9-2.6-5.2-5.5-5.2zm-5.1 71.9h-61.6v-46.2h61.6v46.2zM-411.2 626.8c.9.9 2.4.9 3.2 0l22.8-23c.9-.9.9-2.4 0-3.2l-3.2-3.2c-.9-.9-2.4-.9-3.2 0l-17.9 18.1-8.8-8.2c-.9-.9-2.4-.9-3.2 0l-3.2 3.2c-.9.9-.9 2.4 0 3.2l13.5 13.1z"/></svg>
