<svg xmlns="http://www.w3.org/2000/svg" viewBox="-452 554 94 94" enable-background="new -452 554 94 94"><style type="text/css">.st0{fill:#EAEAEA;}</style><path class="st0" d="M-415 600.4c-4 0-7.3 3.3-7.3 7.3s3.3 7.3 7.3 7.3 7.3-3.3 7.3-7.3-3.3-7.3-7.3-7.3zM-394 600.4c-4 0-7.3 3.3-7.3 7.3s3.3 7.3 7.3 7.3 7.3-3.3 7.3-7.3-3.2-7.3-7.3-7.3zM-394 580.4c-4 0-7.3 3.3-7.3 7.3s3.3 7.3 7.3 7.3 7.3-3.3 7.3-7.3-3.2-7.3-7.3-7.3zM-400.8 648v-7c0-2.3-1.9-4.2-4.2-4.2s-4.2 1.9-4.2 4.2v7h8.4zM-400.8 565.2v-7c0-2.3-1.9-4.2-4.2-4.2s-4.2 1.9-4.2 4.2v7h8.4zM-405 559c-23 0-41.7 18.7-41.7 41.7s18.7 41.7 41.7 41.7 41.7-18.7 41.7-41.7S-382 559-405 559zm0 73c-17.2 0-31.3-14-31.3-31.3s14-31.3 31.3-31.3c17.2 0 31.3 14 31.3 31.3S-387.8 632-405 632z"/></svg>
