<svg xmlns="http://www.w3.org/2000/svg" width="923.99" height="282.147" viewBox="0 0 923.99 282.147"><path fill="none" stroke="#70BCC8" d="M21.007.067L.497 151.065M41.518.067l-20.51 150.998M62.03.067L41.517 151.065M82.54.067L62.03 151.065M103.05.067L82.54 151.065M123.562.067l-20.51 150.998M144.073.067l-20.51 150.998M164.584.067l-20.51 150.998M185.096.067l-20.512 150.998M205.607.067l-20.51 150.998M226.118.067l-20.51 150.998M246.63.067l-20.512 150.998M267.14.067l-20.51 150.998M287.65.067l-20.51 150.998M308.162.067l-20.51 150.998M328.673.067l-20.51 150.998M349.185.067l-20.512 150.998M369.696.067l-20.51 150.998M390.207.067l-20.51 150.998M410.718.067l-20.51 150.998M431.23.067l-20.512 150.998M451.74.067l-20.51 150.998M472.25.067l-20.51 150.998M492.762.067l-20.51 150.998M513.273.067l-20.51 150.998M533.785.067l-20.512 150.998M554.295.067l-20.51 150.998M574.807.067l-20.512 150.998M595.318.067l-20.51 150.998M615.828.067l-20.51 150.998M636.34.067l-20.512 150.998M656.852.067L636.34 151.065M677.36.067l-20.508 150.998M697.873.067L677.36 151.065M718.385.067l-20.512 150.998M738.896.067l-20.51 150.998M759.406.067l-20.51 150.998M779.918.067l-20.512 150.998M800.43.067l-20.512 150.998M820.94.067l-20.51 150.998M841.45.067l-20.51 150.998M861.963.067L841.45 151.065M882.473.067l-20.51 150.998M902.984.067l-20.51 150.998M923.496.067l-20.512 150.998M21.006 151.073L.496 302.07M41.518 151.073L21.006 302.07M62.028 151.073L41.518 302.07M82.54 151.073L62.028 302.07M103.05 151.073L82.54 302.07M123.562 151.073L103.05 302.07M144.073 151.073l-20.51 150.998M164.583 151.073l-20.51 150.998M185.096 151.073L164.583 302.07M205.606 151.073l-20.51 150.998M226.118 151.073L205.606 302.07M246.628 151.073l-20.51 150.998M267.14 151.073L246.628 302.07M287.65 151.073L267.14 302.07M308.162 151.073L287.65 302.07M328.672 151.073l-20.51 150.998M349.185 151.073L328.672 302.07M369.695 151.073l-20.51 150.998M390.207 151.073L369.695 302.07M410.717 151.073l-20.51 150.998M431.228 151.073l-20.51 150.998M451.74 151.073L431.228 302.07M472.25 151.073L451.74 302.07M492.76 151.073L472.25 302.07M513.272 151.073l-20.51 150.998M533.784 151.073L513.272 302.07M554.294 151.073l-20.51 150.998M574.806 151.073L554.294 302.07M595.317 151.073l-20.51 150.998M615.827 151.073l-20.51 150.998M636.34 151.073L615.826 302.07M656.85 151.073L636.34 302.07M677.36 151.073L656.85 302.07M697.872 151.073L677.36 302.07M718.384 151.073L697.872 302.07M738.896 151.073L718.384 302.07M759.405 151.073l-20.51 150.998M779.917 151.073L759.405 302.07M800.43 151.073L779.916 302.07M820.938 151.073l-20.51 150.998M841.45 151.073L820.938 302.07M861.962 151.073L841.45 302.07M882.472 151.073l-20.51 150.998M902.983 151.073l-20.51 150.998M923.495 151.073L902.983 302.07"/></svg>