<svg xmlns="http://www.w3.org/2000/svg" width="429.979" height="131.51" viewBox="0 0 429.979 131.51"><g fill="#fff"><g fill-rule="evenodd" clip-rule="evenodd"><path d="M130.368 34.686c-.17-.502 0-1-.003-1.52-.02-.244-.045-.487-.067-.73.146-.737.49-1.27.657-1.987l-.005-2.978c.274-1.247.254-2.926-.007-4.105-.022-1.104-.047-2.206-.07-3.31l-.207-3.904c.084-.396.19-.844.198-1.324.008-.87-.095-1.648-.138-2.383-.03-.496.09-1.157-.135-1.455-.204-.542-2.862-.803-3.84-.59-.127.028-.497.132-.728.068-.235-.066-.42-.258-.664-.33-.07-.238-.292-.478-.132-.73.06-.682.79-.797 1.257-1.06.088-.49-.037-1.008-.136-1.456-.083-.376.135-.82.13-1.126-.004-.41-.134-.87-.135-1.39-.002-.776-.048-1.764.327-2.184-.102-.867-1.014-.345-1.79-.527-.658-.154-1.623.1-2.515-.062-.243-.044-1.438-.093-2.448-.062-.39.278-1.652.43-2.382.27-.39-.087-.982-.33-1.523-.197-.695.17-1.448.838-2.315.534-.814-.285-3.43-.98-4.37-.257-.47.198-.314.906-.857 1.06-.643.184-1.99-.61-2.318-.856-.098-.072-.112-.254-.2-.33-.528-.46-3.323.05-3.705.27-.095.395-.285 1.482.004 1.92.063.247.12.18.2.397 1.228.13 2.343-.22 3.24.392.176.116.255.378.4.528-.166 1.27-1.79 1.815-3.373 1.463h-.463c-.948-.31-1.396-1.322-1.66-2.313-.157-.6-.102-1.088-.398-1.523-.188-.273-.552-.428-.862-.593-1.28-.678-1.837-.198-2.978.27l-.992.2c-.385.196-.528.646-.992.797-.195.118-.71.09-.927 0-.82-.334-1.372-1.062-2.318-1.318-.7-.19-1.436-.053-2.053-.13-.33-.04-1.09-.244-1.457-.128-.155.046-.372.282-.528.33-.513.16-1.016-.238-1.39-.327-.718-.168-2.15.125-2.782.204-.02.02-.044.043-.064.067.018.542.2.655.463.925 1.203 1.233 1.734.156 3.31.657.903.287 1.394 1.292 1.924 1.982l.002.728c.09.21 2.046 1.44 2.385 1.717.43-.068.7-.504 1.257-.334.292.09.583.396.928.463.614.114.936-.552 1.72-.336.317.088.484.363.728.528-.017.953-1.23 2.27-1.782 2.783.044.855.812 1.13 1.326 1.52.235.18.325.52.532.728-.007.41-.13.54-.198.793 0 .53 0 1.06.002 1.59-.05.214-.275.472-.197.795.15.616.767.876.996 1.39.15.338.205.77.132 1.124v.794c-.212.776-.83 1.156-1.318 1.657-1.017-.067-2.026-.74-2.585-1.318-.252-.263-.56-.76-.267-1.19.016-1.844-1.054-1.118-2.12-1.72-.274-.153-.58-.64-.73-.924-.274-.018-.193-.015-.465 0-.197.398-.65.74-.793 1.127-.185.518.027 1.21-.195 1.654-.22.445-.577.6-.99.864-.396.25-.715.69-1.19.862-.908.332-2.26-.175-2.714-.592-.468 0-.57.102-.86.2-.09.9.442 1.112.467 1.984-.306.335-.86 1.072-1.455.865-.368-.007-.39-.07-.596-.198-.114-.625.138-.922.262-1.39.128-.48-.114-.85-.2-1.126-.192-.002-.36-.003-.463.068-.688.25-.685 1.274-1.254 1.657-.577.386-1.284.04-1.985.266-.3.098-.434.376-.66.53-.218.15-.45.18-.66.333-.214.158-.292.458-.462.66.03 1.037.52 1.714.797 2.516l.202 1.19.53.53c.428.595.484 1.463.467 2.513-.328.337-.857.834-1.123 1.193-.196.264-.324.61-.594.794-.595.408-1.375.61-1.85 1.13-.254.275-.267.728-.462 1.06-.265.45-.604.666-.99.995-.705-.013-1.048-.48-1.393-.858-.254.006-.392.023-.53.133-.61.442-.495 1.55-.92 2.186-.238.354-.743.453-1.06.73l-1.387 1.458c-.175.18-.42.29-.595.467-.17.173-.205.438-.396.597 0 .316.038.418.135.595.486.107 1.21.416 1.853.26.227-.054.58-.304.927-.2.2.06.423.288.595.397.105.396.297.88.4 1.324.335 1.442-.507 2.012-.987 2.65-.863 1.146-1.723 1.6-1.714 3.71.182.182.275.49.53.594.426.17.944.007 1.26.262.207.167.598 1.178.73 1.454.38.803-.16 1.316-.328 1.854l-.06 3.51c.168.77.05 1.587.268 2.38.32 1.168.5 2.704.8 3.84v.462c.244.85 1.428 2.25 1.198 3.24-.232.994-.9 1.564-1.254 2.387-.66 1.533-.734 3.48-2.31 4.107-1.136.453-4.038.072-4.568-.652-.45-.612-.565-1.43-1.194-1.85-.713-.48-1.772-.353-2.253-1.06-.196-.286-.216-.632-.4-.924-.257-.41-.95-.783-1.457-.925-1.284-.355-1.495.74-1.785 1.46-.242.598-.987 1.917-1.518 2.186-.742.375-2.78-.055-3.44.535-.43.194-1.117 2.21-.59 2.847.1.29.256.295.464.463.845-.03 1.448-.846 2.446-.53.333.103.596.487.927.593.267-.002.53-.002.796-.002.715.003 1.252-.005 2.05-.003.222-.22.44-.443.662-.663.153.016.186.014.264.067.533.268.085 1.157.268 1.788.106.36.394.67.532.992.513 1.192.13 1.854-.592 2.514v.332c.375.35.766.688 1.13 1.057.007.752-.132.977-.397 1.39-.35-.015-.858-.176-1.124.003-.46.184-.313.744-.858.862-.415.165-.578-.396-1.325.067-.065.412.28.982.07 1.324-.062.178-.115.192-.198.33-.332.075-1.082.01-1.457.136-.373.127-.702.543-1.124.664-.525.148-1.46-.048-1.92-.13-.72-.13-1.348.43-2.184.202-.973-.267-2.51-2.11-2.785-3.105v-.73c-.086-.375-.2-.758-.334-1.058-.295-.064-.51-.192-.86-.064-.46.167-1.58 1.368-1.717 1.856-.255.908.416 1.71-.06 2.45-.282.433-.918.606-1.324.928-.306.242-.426.74-.66 1.058-.252.345-.65.537-.992.797-.205.156-.285.474-.462.662.02.245.046.486.068.73.523.253 1.804.75 2.58.457.47-.18.73-.7 1.257-.86.67-.208 1.447.14 2.12-.005.562-.12 1.937-.313 2.38-.005 1.263-.008 1.396-1.172 2.646-.866.595.145.96.638 1.525.79.8.22 1.38-.23 2.185-.198.352.01.688.27 1.126.127.38-.124.61-.794 1.19-.665.713.16.92 1.068 1.59 1.32.474.177.918.05 1.457.196.65.178 1.094.684 1.724.86 1 .277 2.378.085 3.376.324 1.257.3 1.94-.683 2.58-1.063.918-.555 4.555-1.443 5.823-.604.514.34.88 1.243 1.193 1.785.153-.015.188-.013.265-.065.35-.195.257-.918.46-1.26.206-.344 1.33-1.167 1.72-1.325.968-.402 2.35.874 3.177.257.387-.14.376-.43.593-.73.164-.222.45-.285.663-.464 1.086.167.697 1.598 1.592 1.918.362.272.886-.145 1.125-.397.7.062 1.516.547 2.054.855.245 1.246-.532 1.96-1.054 2.647-.75-.02-1.35-.48-1.788-.854-.222.022-.442.045-.662.064-.23.13-.84 1.827-.724 2.318.05.22.25.656.2.93-.056.307-.262.567-.396.796-.49-.066-.528-.404-.862-.594-.292-.166-.695-.03-1.058-.133-.38-.103-.92-.476-1.524-.325-.726.175-1.11.787-1.917.994-.566.144-1.307-.026-1.72.266-.65.233-.81 1.276-1.19 1.792-.674.914-1.81 1.57-3.108 1.857l-.728-.065c-.975-.018-1.61.063-2.45-.128-.567-.13-1.4.186-1.852-.062-.11-.13-.222-.267-.333-.396-.318-.233-.687-.422-1.126-.53-1.145-.27-2.035.29-2.713.472-.354-.02-.706-.045-1.06-.066-.282.084-.45.333-.66.465-.414.257-1.283.472-1.787.533-.773.093-1.48-.37-1.854-.726-.22-.206-.596-.65-1.06-.395-.13.072-.206.3-.33.396-.026 1.43.495 1.654 1.063 2.58.196.323.244.77.53.992.323.255.772.29 1.126.528.332.354.664.705.994 1.054.186.144.395.22.53.398.104.136.13.305.267.396.443.3 1.22.14 1.722.394.64.332 1.542 1.995 1.196 3.31-.2.747-.563 1.536-.923 2.187-.502.907-1.627 1.333-2.247 2.122-.42-.02-.838-.043-1.26-.065-.536.178-.72.868-1.252 1.063-.514.32-1.16-.18-1.523-.264-.242.02-.485.047-.728.07-.315.322-.803.474-1.124.793-.622.624-1.396 1.542-1.783 2.388-.477.12-1.15.193-1.522.4.018.415.182.645.4.857-.03.297-.086.283-.2.465-1.253-.08-.965-1.61-1.525-2.38-.008-.26-.037-.644.064-.798.128-.062 1.095.377 1.39.596.514-.002.528-.13.795-.332-.002-1.426-1.123-1.503-1.923-2.114-.592.035-.766.345-.992.73-.668-.044-1.092-.605-1.787-.593-.4.007-1.255.27-1.588.066-.903-.06-1.42-1.25-1.658-1.982l-.136-.73c-.178-.31-.834-.44-1.19-.194-.316 0-.42-.035-.596-.132-.063-.274-.12-.598.064-.793-.06-.766-.728-.594-1.193-.924-.637-.454-.963-1.328-1.33-2.05-.327-.073-.38-.08-.727-.065-.144.153-.355.345-.528.466-.03.71.038 1.283.334 1.786.4.166.884.296 1.258.46.04.15.05.175.13.266-.053.497-.348.945-.79 1.06-.427.282-.876-.122-1.192-.327-.512-.336-.976-.773-1.326-1.257-.23-.317-.34-.775-.664-.99-.554-.375-1.673-.223-2.383-.263-.132-.11-.265-.22-.397-.327-.315-.568.012-2.022-.4-2.582-.13-.37-.387-.326-.665-.528-.916.053-1.15.59-1.784.86-.47.204-.946.245-1.325.467.053.71.634.62 1.063.927 1.17.84 2.186 1.905 3.645 2.442.574.21 2.267.517 1.656 1.387-.316.396-.97.157-1.52.333-.432.14-.787.522-1.258.666-.562.17-1.568.15-2.117.268-.605.126-1.31-.345-1.787.004-.155.048-.148.067-.266.13-.067.442.27.975.002 1.324-.022.045-.044.09-.067.133-.748-.023-1.326-.774-1.722-.592-.812.104-.527 1.22-1.187 1.458-1.002.36-1.33-1.006-2.517-.722-.48.11-1 .284-1.457.398-.418.02-.838.042-1.258.065-.627.157-1.648.406-2.315.335-.435-.046-1.16-.038-1.456-.263h-.13c-.045-.113-.014-.065-.068-.13.048-1.137 1.854-1.565 2.644-2.057.98-.61 2-1.383 3.042-1.858.68-.312 1.402-.37 2.05-.73.2-.204.398-.4.595-.602.772-.687.89-.973 1.454-1.854.548.03.983.424 1.39.128.166-.073.19-.166.332-.263.07-1.898-.593-6.15.382-7.55.026-1.124.036-1.128-.533-1.65-.43 0-.542.07-.794.2-.146.725-.103 1.975-.46 2.58-.21.362-.686.535-.924.862-.23.318-.492.948-.593 1.325-.263.98.62.956 1.06 1.256.4.273.534.835.533 1.522 0 .327 0 .55-.13.73-.05.15-.07.145-.132.26-.65-.042-.665-.57-1.06-.854-.593-.426-1.19-.573-1.59-1.19-.207 0-.418-.007-.53.067-.21.103-.2.235-.332.398.08.608.386 1.34.732 1.72 0 .98-.673 1.97-1.783 1.726-.55-.12-1.454-.362-1.987.004-.43.296-.56.95-.857 1.392-.232.343-.654.482-.993.73-.722.527-1.1 1.548-2.047 1.855-.14.1-.59.103-.73 0-.253-.09-.24-.227-.397-.395.03-1.006.638-1.26 1.057-1.856.214-.306.317-.605.528-.927.24-.364.59-.834.197-1.323.036-1.122 1.07-.864 1.52-1.53.392-.576.423-1.3.724-1.983.278-.623.87-1.204 1.19-1.79.15-.277.153-.61.33-.86-.034-.206-.068-.25-.134-.395-1.246-.497-2.287 1.887-2.776 2.716-.378.08-.915.172-1.256.268-.142.83.715 1.12.467 2.05-.05.186-.275.39-.328.53-.155.407.083.84-.13 1.125-.407.567-1.84.486-2.448.93-.364.266-.894.883-1.06 1.328-.413 1.127.076 2.158-1.12 2.583-.525.187-1.126-.145-1.785.005-.693.15-1.12.503-1.722.663-.867.232-1.872.082-2.514.467.046.516.515.73 1.127.596 1.524-.334 3.564-.237 5.23-.274.76-.018 2.476.158 1.722 1.055-.572 1.587-2.667-.106-4.17.343-.3.09-.39.36-.595.53-.392.325-.81.585-1.388.73-.765.188-1.753-.454-2.186-.195H3.76c-.15.84.573 1.308.337 2.184-.313 1.162-1.394 1.767-1.982 2.65-.28-.013-.352-.054-.53-.132-.13-.533-.323-1.434.063-1.918.02-.396.044-.65-.2-.794-.04-.052-.002-.018-.067 0-.456.12-.382.557-.59.927-.15.266-.533.438-.662.73-.395.894.22 2.642.535 3.11.54.006.806-.205.925-.6h.065c.09.107.04.08.2.135-.013.703-.082 1.18-.328 1.654-.145.277-.6.78-.462 1.125.064.308.18.27.33.462l3.247-.006c.52 0 1.11-.047 1.39.195.523.185.432.792.73 1.192.296.73 1.395.26 2.25.46 1.1.257 2.495.218 3.64-.073.474-.118 1.327-.368 1.984-.204.796.197 1.643.52 2.52.725.935.224 2.563-.345 3.308-.534.528-.023 1.057-.045 1.587-.066.932-.22 1.98-.145 2.912-.338.965-.2 1.99.213 2.713.393.987.244 1.714.13 2.58.326.63.142 1.622-.02 2.12-.134l1.985-.004c1.294-.314 3.364-.288 4.7-.143.926.103 2.67-.116 3.64-.138.558-.01 1.448.23 1.853.127.738-.183 1.308-.723 2.118-.07.772-.005 1.248-.874 1.654-1.327h.396c.6.627 1.12 1.436 1.593 2.184 1.777.387 3.548-.408 5.028-.805.85-.23 1.987.102 2.782.13 1.905.058 4.192-.34 5.956.054.442.02.884.043 1.325.062.285.06 2.767.228 3.243-.135.065-.023.132-.045.198-.07-.05-.49-.512-.85-.2-1.256.152-.445 2.33-1.354 2.842-1.328.208.194.423.214.53.528.443.656-.565 1.112-.26 1.654.315.875 1.34.22 2.317.46.46.112 1.26.34 1.92.194.317-.068 1.035-.16 1.455-.068 1.02.223 3.166.123 4.04-.137.63-.192.907-.804 1.387-1.13.145-.098.333-.096.463-.2.226.015.338.032.464.134.36.125.628.752.73 1.12.228.063.398.21.595.266l1.92-.002c1.135-.002 2.43.212 3.507-.006.31.02.62.042.928.065.638-.146 2.19-.396 2.977-.205.58.14 1.32.312 2.117.127.45-.103 1.153-.228 1.722-.07.267.077.623.26.925.33.577.134 1.646.036 2.118-.07.64-.14 1.493.056 2.052-.07.52-.112 1.168.05 1.522.132.906.205 1.79-.186 2.383-.336.896-.227 2.088.11 2.91-.07.73.02 1.46.043 2.187.062 1.273-.002 2.947.21 4.236-.074.24-.053.59.035.728.064.462.1 1.146-.02 1.39-.066.456-.084 1.987.156 2.45.258.552.122 1.536.03 1.986-.066.274-.064.7.086.86.062.817-.123 1.74-.092 2.58-.137 1-.056 3.127.142 3.774-.34.714-.49.147-1.132.327-1.92.154-.67.146-1.653.128-2.515-.016-.72-.336-1.654-.137-2.514.086-.364.136-1.216.064-1.522-.25-1.07-.148-2.89.06-3.904l-.203-2.252c.156-.7-.113-1.37.06-2.117.092-.395.002-.793 0-1.26l-.008-3.308c0-.73-.003-1.458-.004-2.184.122-.514.21-1.7.063-2.317-.09-.383-.26-1.072-.134-1.587.23-.97.33-2.256.258-3.51l-.134-1.26c.162-.726.093-2.49-.073-3.24l-.003-1.392c0-1.1-.138-2.465.062-3.444.12-.593-.288-2.08-.27-2.71.033-1.152.288-2.676.06-3.706.02-.352.044-.708.064-1.06-.27-1.22-.283-3.135-.207-4.568.062-1.145.362-2.64.127-3.707 0-.396-.003-.794-.004-1.19-.055-.235-.08-.66-.2-.86-.535-.9-1.232-.792-1.128-2.31.227-.223 1.066-1.102 1.188-1.33.21-.383.017-.872.13-1.39.32-1.453.038-2.993.125-4.633.04-.713.327-2.11.127-2.847-.17-.632-.564-1.247-.73-1.852-.245-.9.236-1.59.394-2.12l.064-1.06c.086-.346.243-.81.33-1.19.166-.74.027-2.96-.074-3.64l.065-.793c.01-1.27-.008-2.668.128-3.576.04-.283-.077-1.047-.137-1.32-.213-.99.007-2.83.128-3.642.06-.43-.102-.874-.003-1.324.297-1.352-.27-2.47-.532-3.248zM67.38 86.024c-.206.22-.345.563-.595.73-.752.507-1.926.112-2.713-.062-.864-.19-.95.33-1.588-.262.03-1.072.673-1.127.924-1.854.276-.443-.465-1.85-.667-2.117.03-.24.073-.397.2-.53.463-.34 1.143.31 1.653-.07.835-.598.152-1.768.592-2.385.186-.547.686-.562 1.123-.86.373.138.466.26.73.46.01 1.498.147 2.64.402 3.904-.02.24-.043.487-.064.728-.007.73.038 1.595.004 2.316zM9.528 122.2v.992c-.26.947-1.388 1.327-2.645 1.062-.42-.088-.73.016-.994-.195-.254-.09-.297-.235-.464-.397.006-.254.02-.395.132-.528.162-.41 1.768-.606 2.248-.864.125-.558.162-1.546.46-1.987.118-.174.38-.254.53-.398.443.02.53.16.795.33.14.616.07 1.327-.062 1.985zm3.043-1.196c-.153-.384-.063-.464.198-.73.414.04.425.212.663.396.014.72-.49.536-.86.334zm7.225 5.944c-.068.152-.113.143-.198.264-.36.006-.496-.025-.663-.2-.136-.173-.122-.24 0-.395.077-.144.096-.098.197-.197.228.012.34.033.465.13.215.078.308.203.2.398zm.985-4.37c-.124.272-.29.292-.593.397-.887.3-1.397-.324-1.855-.66-.015-.15-.013-.184-.067-.264.05-.593.388-.712.66-1.06.183-.02.47-.047.596-.133.18.002.303.004.397.064.586.042 1.37 1.05.863 1.657zm2.84-3.778c-.277-.098-.56-.366-.793-.53-.044-.112-.013-.063-.068-.132 0-.36.06-.495.13-.727.264-.09.53-.18.794-.267.863 0 1.106.273 1.59.594.042.116.012.066.067.134-.058.656-1.017 1.17-1.72.93zm9.076 4.22c-.243.442-1.202.593-1.72.27-.335.05-.67.202-.928 0-.106-.09-.076-.042-.132-.196-.435-.582.39-1.924.923-2.055.055-.045.205-.09.263-.136 1.124.37 1.273.238 1.59 1.456.045.164.11.46.003.66zm-.874-7.677l.064-.66c.182-.297 1.734-1.163 2.115-1.46.724.005.735.295 1.194.46.042.113.013.065.067.133-.28 1.857-1.727 2.605-3.438 1.527zm9.338 3.558c-.39-.028-.466-.188-.53-.526.077-.08.122-.19.198-.268.102-.084.292-.117.397-.197l.33.194c-.003.523-.152.548-.395.797zm2.855 4.298c-.02.264-.045.53-.067.795-.286.785-.94 1.38-1.916 1.127-.09-.338-.337-.88-.202-1.388.067-.255.43-.622.33-.995-.08-.297-.585-.62-.4-.988.038-.373.18-.433.33-.667.142-.03.24-.057.332-.13.55-.01 1.02.02 1.324.26.356.124.39.4.598.66-.004.587-.22.907-.33 1.325zm11.05.114c-.41 1.12-3.238.432-3.97-.06-.078-.37-.06-.757.065-1.058.394-.328.974-.727 1.455-.93.254-.11.63-.06.86-.2.665.05 1.036.324 1.457.593.11.412.485 1.223.134 1.655zm3.048.59c-.115.042-.065.013-.132.067-.49 0-.583-.1-.86-.265-.08-.34-.142-.703-.134-1.19.102-.103.195-.274.265-.4.653-.007.836.1 1.193.33.002.7-.118 1.03-.33 1.456zm9.104-18.02c.235-.16.572-.163.792-.332h.53c.074.076.166.142.264.198.2.48.073.81-.13 1.19-.273.12-.586.225-.73.132-.536.022-1.217.108-1.39-.26-.052-.07-.023-.017-.065-.133.242-.266.484-.53.727-.794zM64.07 124.29l-.528.33c-2.582.062-1.522-2.723-.47-3.438.333-.228.83-.178 1.19-.4 1.228-.02 1.588.157 2.12.79 0 .198 0 .397.002.6-.11.15-.22.305-.33.46-.414.288-.927.372-1.324.665-.335.246-.403.66-.66.993zm2.717 1.715c-.295.08-.673.242-.926 0-.603-.254-.788-1.296-.73-2.05.112-.11.153-.286.264-.395.11-.113.288-.154.397-.266.136-.03.126-.02.198-.068.317-.008.56-.004.728.135.957.627.587 1.893.07 2.645zm4.274-16.753c-.804 1.18-1.678.35-1.714 2.717.48.45.89.346 1.456.656.042.182.11.368 0 .532-.17.363-.913.42-1.254.598v.134c.194.18.334.336.596.462.082.46-.08 1.013.2 1.32-.02.737-1.085 1.24-1.984 1-.507-.14-1.433-.657-1.723-1.06-.388-.533-.986-2.27-.668-3.438.053-.197.262-.367.33-.532.22-.523.205-1.34.196-1.85-.1-.094-.194-.22-.265-.333-1.18-.268-1.702-.336-2.385-1.123.03-.207.067-.25.132-.396.87.036 1.184.472 1.855.66l.992-.003c.242.06.54.154.795.265.3.126.85.65 1.19.462.302-.075.458-.452.53-.73.333-.076 1.034-.142 1.323-.335.855.002.716.522.398.992zm1.248-5.96c.132-.002.264-.002.397-.002.14.14.365.295.53.398-.122.69-.77.275-1.06.067.007-.286.03-.314.133-.463zm-.573 13.04c-.042-.114-.013-.064-.066-.13.03-.447.19-.55.395-.795.617.012 1.487.402 1.92.656-.02.25-.06.3-.13.46-.74.31-1.5.115-2.12-.192zm1.41 11.714c.018-.338.076-.336.2-.53.217-.007.472-.017.594.065.644.237-.06 1.02-.794.466zm4.072-18.475c.198-.065.397-.13.595-.198.278-.002.45.012.596.13.41.143.715 1.336.4 1.723-.108.332-1.06.918-1.52.598h-.133c-.175-.77-.252-1.58.062-2.252zm-2.587-3.37c.074-.207.138-.197.264-.33.18.02.41.046.53.13.35.066.377.228.596.395.06.762-.134 1.036-.46 1.525-.307-.005-.41-.046-.597-.133-.137-.316-.578-1.22-.333-1.586zm3.34 17.467c-.42.047-.838.092-1.258.137-.436.166-.815 1.074-1.587.666-.177-.178-.354-.353-.532-.53-.36-1.487.62-2.247 1.718-2.65.457-.167 1.022-.036 1.39-.27.59-.003.783.09 1.126.263.102.37.21.645.2 1.19-.323.35-.61.993-1.056 1.194zm1.81-25.02c-.03.297-.085.28-.2.462-.72.168-2.298-.337-1.92-.992.125-.307.437-.27.66-.462.68.006.976.22 1.394.46.073.175.176.357.066.53zm46.542-69.183c.083.168.044.392.132.53.014 1.6-2.223 2.33-3.57 1.462-.2-.127-.305-.422-.464-.596-.044-2.007 1.104-1.475 2.18-2.187.837-.01 1.445.242 1.722.79zm.992 75.385c-.115.045-.065.013-.132.068-.335-.004-.44-.035-.598-.197-.192-.226-.276-.563-.266-.993.11-.153.22-.307.33-.464.14-.033.24-.06.332-.132.23.102.343.21.53.33.07.292.14.516.134.928-.11.153-.22.31-.33.46zm.095 16.35c-.013.273-.046.3-.133.46-.167-.003-.244-.005-.332-.06-.184-.105-.135-.175-.13-.265.035-.213.055-.195.13-.333.206.05.312.116.464.197zm-.36-54.67c-.122.115-.34.154-.464.263-.293.007-.454.002-.597-.132-.176-.078-.21-.133-.267-.33-.552-.81.733-1.852 1.12-2.25.154.015.188.013.267.065.844.302.353 1.976-.06 2.384zM125.29 84.27c-1.853.5-3.848-.61-2.785-2.71.166-.332.646-.842.992-.996.173-.078.386-.043.526-.133.89-.005 1.164.203 1.656.525.323 1.214.183 2.42-.39 3.314zm.142 5.36c-.085.18-.203.204-.33.33-.468-.002-.59-.1-.86-.26-.065-.222-.246-.605-.07-.862.1-.283.274-.287.464-.466.58-.002 1.327.706.796 1.26zm-12.916-4.942c-.09-.1-.214-.192-.332-.265-.064-.888.147-1.105.66-1.592.708-.004 1.208.054 1.655.267.057.247.1.418-.065.595-.196.613-1.384.914-1.917.995zm1.736 9.196c-.022.25-.05.247-.132.397-.22 0-.44 0-.663.004-.186-.2-.347-.385-.53-.598.026-.134.017-.126.066-.2.067-.175.094-.143.198-.264.452.188.715.405 1.06.66zm-2.15-19.456c-.043-.186-.118-.426-.002-.594l.066-.2c.14-.032.24-.06.33-.132.466.043.856.274 1.192.46.043.117.013.063.066.135-.03.297-.084.28-.197.464-.395.09-.653.147-1.06.13-.1-.1-.27-.193-.397-.264zm.92-3.707c-.17.13-.915 1.113-1.057 1.324-.168-.006-.245-.008-.332-.064-.406-.196-.33-1.283-.067-1.59.23-.67 2.352-1.486 2.974-1.99.087.045.175.09.264.133-.01 1.462-.958 1.56-1.783 2.187zm-14.948 6.182c.017.083.116.342.066.528-.14.543-.54.844-.792 1.258-.15.25-.157.57-.33.796-.115.157-.38.207-.53.334-.333.008-.616.01-.794-.13-.158-.113-.202-.263-.33-.4.015-.478.36-1.386.326-1.456-.047-.422-.278-.46-.464-.727-.713.05-1.122 1.457-1.453 1.99-.308.495-.83 1.267-1.32 1.592-.24.153-.495.167-.728.33-.604.415-1.07 1.487-1.453 2.123h-.265c-.15-.6-.338-1.503-.005-2.056.12-.2.383-.436.462-.66l.064-1.393c.12-.557.178-1.275.46-1.723.08-.122.95-.728 1.124-.86-.017-.912-.404-.98-.4-1.917.626-.597 1.382-1.04 2.05-1.592.167.007.245.005.33.065.067.022.132.044.2.063.086.488-.226 1.485.002 1.854.02.065.045.134.066.198.46-.016.536-.16.794-.33 1.25-.832.504-1.493 1.187-2.65.248.022.246.052.396.13-.017.44-.15.854.068 1.126.067.15.113.143.2.266.765-.03 1.538-.646 1.785-1.195.152-.345.005-.698.13-1.126l.263-.463c.14-.03.24-.06.33-.132.954.002 1.3.65 1.792 1.12 0 .97-.603 2.555-1.122 2.983-.36.294-.846.26-1.323.465-.27.114-.433.377-.66.528-.06.284-.215.645-.127 1.065zm-6.96 32.38c.404-.076 1.2 0 1.52-.2.2.062.513.08.664.196.088.086.177.175.265.264-.062.913-.944.99-1.453 1.46-.97.016-.66-.493-1.06-.992-.004-.27.004-.55.063-.727zm-.03-16.747c.14-.036.24-.062.333-.134.72.02 1.204.322 1.124.99-.354.19-1.02.63-1.52.268-.56-.22-.115-.873.062-1.124zm2.335 9.99c-.288-.098-.267-.21-.397-.465-.41-.81-.083-.91.395-1.52.135-.026.126-.02.198-.067.11 0 .22 0 .33-.002.075.078.17.144.266.2.127.523.246.948.2 1.523-.174.16-.34.3-.527.463-.227-.015-.34-.03-.464-.133zm.57-15.36c-.162-.084-.047.032-.133-.128-.054-.07-.026-.018-.067-.132.547-.5 1.2-.936 1.586-1.594.136-.027.126-.016.198-.065.18.06.194.11.332.198.34 1.267-.21 1.21-1.122 1.59-.193.08-.527.31-.794.13zm.854-2.977c-.152-.015-.187-.013-.264-.065-.067-.023-.132-.045-.2-.065.04-1.295 1.78-1.96 2.578-2.585.167.006.245.006.33.065.067.02.134.045.2.063l-.065.465c-.17.274-.602.404-.86.596-.592.444-1.18 1.018-1.72 1.527zm1.83 23.76c.582-.01.62.118.927.327.027.367.03.564.002.928-.56.546-.452.39-1.125.134-.073-.303-.14-.562-.134-.993.112-.11.243-.27.33-.397zm-9.657-34.138c-.078.458-.408.623-.595.994-.114.044-.064.014-.13.067-.333-.028-.393-.132-.466-.396-.257-.355.125-2.43.194-2.517.156-.482.632-.583.992-.863h.33c.166.176.303.343.465.53-.026.135-.016.125-.066.2-.046.568-.572.8-.99.992-.01.338.326.74.267.992zm-1.997-6.217c0-.395.062-.446.198-.663.167.006.245.01.33.067.387.132.328.42.53.725-.006.37-.067.39-.196.596-.655-.016-.585-.353-.862-.725zm3.83-4.442c.76.016.85.4 1.26.727.132 1.066-.05 1.992-.06 3.11.098.093.192.214.265.328.885.053 1.456-.22 2.05-.597.113-.454.198-1.097.395-1.456.418-.004.503.056.728.197.455 2.107-.3 3.237-1.25 4.505-.353-.02-.706-.042-1.06-.065-.373.098-1.125.65-1.587.53-.262-.064-1.2-1.86-1.128-2.313.062-.402.442-.87.262-1.52-.137-.5-.466-.63-.795-.926l-.334-.463c.046-.964.754-1.52 1.255-2.054zm-.072-3.64c-.005-.205-.01-.416.065-.527.162-.47.664-.503.99-.798.206.002.34.022.465.064.055.255.094.47-.065.662-.14.406-.493.488-.793.73-.192.002-.36.004-.464-.066-.065-.02-.13-.043-.198-.065zm19.49-20.618c.82 0 1.352.17 1.856.46.038.18.1.31 0 .464-.102.297-1.522.944-1.852.73-.225-.05-.228-.108-.396-.198-.175-.766-.057-.802.195-1.39.135-.027.127-.017.2-.067zm-.136-1.986c.014-.276.045-.305.132-.464.135-.026.127-.02.2-.067l.263.264c-.025.136-.015.126-.064.197-.023.068-.044.136-.068.2-.274-.013-.303-.045-.463-.13zm-.11 13.237c.335.337.728.583.996.99.322.01 1.146-.225 1.19-.2h.198c.054.26.095.91.07 1.06-.183 1.04-.095 1.71-.793 2.185-.765.523-2.262.504-2.776 1.262-.23.337-.165.92-.396 1.26-.366.536-2.573 1.437-3.24 1.064-.074-.37-.023-.73-.002-1.126l.462-.464c.348-.156.782-.063 1.058-.267.452-.352.275-.94.462-1.59.083-.295.374-.59.462-.86.203-.632-.246-.975-.27-1.588.395-.39.736-.866 1.19-1.193.294-.212.645-.308.925-.53l.466-.003zm-2.54 23.37c.426-.288 1.22-.17 1.654-.468.748-.01 1.097.08 1.522.33.07.276.14.468.134.858-.964 1.01-1.813 1.762-3.04 2.52-1.043.645-1.75.195-2.513 1.33-.168-.007-.245-.01-.332-.067-.24-.12-.19-.32-.332-.53-.004-1.282.792-1.41 1.32-2.118.46-.612.957-1.43 1.586-1.856zm-.01-5.56c.137-.028.13-.018.2-.067h.463c.21.216.514.385.598.727.172.71-1.03 2.438-1.452 2.583-.112.082-.272.107-.33.068-.376-.03-.515-.224-.597-.53-.586-.845.8-2.31 1.12-2.78zm1.86 2.314c-.353-.574.304-.96.46-1.26.11-.374.218-.75.33-1.124.33-.652.774-1.28 1.253-1.792.158.07.174-.006.33.136.167.078.153.147.266.265-.1.733-.484 1.254-.656 1.984-.17.72.076 1.567-.26 2.117-.02.38-.125.432-.265.663-.694-.004-1.3-.46-1.46-.99zm1.045-6.953c.1.036.11.047.264.065.137.666-.067 1.155-.326 1.59-.136-.025-.128-.016-.2-.065-.065-.023-.13-.044-.196-.065-.074-.81.037-1.08.46-1.525zm.654-4.568h-1.124c-.436.12-1.027.304-1.522.07l-.132-.397.33-.463c.256-.18.644-.185.858-.4.117-.118.105-.32.198-.464.18-.28.478-.507.66-.794.77.05.406.697.863.99.248.16.593.078.794.264.092.12.078.205.068.264-.047.496-.586.812-.99.93zm-6.293-3.697c.01-.372.082-.43.198-.66.175-.068.352-.135.528-.2.177.02.353.042.53.064.057.146.116.25.068.33-.092.49-.488.468-.793.73-.298-.046-.337-.14-.53-.264zm4.746-11.39c-.108.308-.322.335-.53.528-.196-.027-.223-.03-.332-.13-.446-.252-.025-.824.133-1.06.142-.033.24-.06.33-.132.222.112.3.237.464.396 0 .18-.002.304-.064.4zm-.36-16.48c-.11.158-.26.202-.396.33-.857 0-2.716-1.23-2.254-2.113.114-.22.466-.256.662-.4 1.238.318 1.357.867 2.12 1.785-.025.187-.045.284-.132.397zm-2.034 10.196c.228.016.277.02.396.13.625.288.592 1.504.93 2.116.13.133.266.264.398.397.133.25.07.69-.065.858-.14.405-.848.728-1.19.93.017.388.145.7.332.926-.002 1.32-1.04 1.425-1.718 2.056-.417.006-.568-.087-.662-.397-.358-.56.406-1.292.064-1.853-.18-.358-.642-.327-.796-.727-.258-.39.01-1.072.13-1.455.113-.36.06-.64.196-.993.36-.946 1.34-1.322 1.983-1.988zm-2.45-.528c-.3-.016-.32-.068-.53-.13.02-.45.175-.44.395-.663l.463-.002c.076.078.168.142.266.2-.046.476-.31.386-.595.594zm.025 14.694c-.66.64-.976 1.542-1.916 1.725-.078-.078-.17-.142-.267-.195-.215-.945-.136-2.492.06-3.443.488.004 1.077.105 1.39.33.797.055.813.83.732 1.584zm-1.713 4.7c.177.178.353.355.53.53.035 1.04.025 2.328.47 2.978.117.173 1.096.582 1.325.726 0 .43.028.85.068 1.19.12.057.296.12.397.2.652-.052.93-.753 1.19-1.194.72-.09 1.41-.05 1.92.195-.02.708-.403.758-.726 1.128-.213.24-.464.787-.594 1.06-.217.45-.025 1.113-.33 1.458-.184.206-.812.417-1.06.333-.464-.092-.622-.49-1.06-.596-.518-.126-1.006.313-1.39.4-.258.057-.604-.09-.793-.132-.257-.057-.556.043-.73-.065-.4-.074-.453-.338-.662-.594.06-.985.526-1.42 1.122-1.855-.07-.9-1.3-.695-1.655-.196-.375-.005-.448-.07-.662-.197-.134-.688.14-1.562.26-2.25.056-.334-.196-.674-.068-1.192.198-.805.457-1.798 1.187-2.053.06-.044.208-.09.266-.135.327.114.698.107.994.262zm1.146 11.386l-.33.13c-.085-.104-.14-.132-.266-.197-.04-.182-.07-.34-.068-.594.236-.242.435-.55.662-.796.134.025.125.018.197.067.413.224-.04 1.078-.195 1.392zm-4.367 1.463c.214-.883.284-1.176.727-1.79.132-.108.263-.218.396-.33.133-.19.157-.455.33-.598.15-.122.38-.144.53-.266h.396c.09.1.214.195.33.265.043.115.014.065.067.135-.002 1.227-.71 1.1-1.19 1.788-.348.506-.38 1.337-.79 1.788-.128.144-.34.173-.462.332-.255-.008-.336-.016-.463-.13-.253-.342.036-.81.13-1.193zm-.797-2.38c-.157.526-.113.945-.396 1.322-.145.194-.47.247-.662.398-.394-.002-.447-.062-.662-.196-.34-1.76 1.062-2.392 1.782-3.313.266.026.26.072.463.13.175.895-.343 1.045-.525 1.657zM98.366 54.2c-.146.296.077.78-.063 1.127-.243.24-.485.486-.727.728-.762-.012-1.1-.253-1.79-.326-.043-.085-.07-.14-.132-.2.06-1.62 1.63-1.838 2.512-2.65.497-.014.563.044.794.26-.077.55-.406.68-.594 1.06zm-2.308 4.44c-.092.298-.437.63-.528.928-.225.742.35 1.17.466 1.588.228.826-.64 1.457-.99 1.79-.61-.037-1.508-.63-2.052-.196-.066.044-.132.09-.198.133-.013.313-.015.583-.065.663-.102 1.403-1.87-.653-1.06-1.587.13-.39.71-.573 1.057-.732.168-.687-.188-1.31-.003-1.986.24-.872 1.194-1.995 1.783-2.583.96-.002 1.957.793 1.59 1.98zm-3.38-2.84c-.18.536-1.228.45-1.656.135-.31-.113-.233-.287-.396-.528.01-.487.148-.58.33-.86.134-.028.125-.018.196-.068.822-.01 1.006.17 1.458.462.124.282.237.624.067.857zm-5.524 21.587c.275-1.098.917-1.906 1.054-3.047.083-.045.14-.073.2-.133l.265.067c.14.722-.35 1.493-.128 2.446.173.752.94 2.008.335 2.646v.068c-.044-.02-.088-.043-.133-.068-.022.025-.043.047-.064.068l-.133-.13c-.18-.117-.328-.323-.53-.4-.325-.117-.634.02-.795-.26-.26-.233-.185-.8-.07-1.257zm2.138 10.72c.623-.008.892.078 1.258.26.306 1.107.174 1.21-.393 2.055-.61.127-1.655.12-2.052-.197-.173-.113-.204-.24-.333-.396.063-.85 1.03-1.262 1.52-1.723zm9.453-6.437c.098-1.025 1.03-1.156 1.652-1.657.31.065.213.075.464.26 0 .177 0 .355.002.533l-.726.597c-.402.46-.447 1.393-1.322.996-.082-.19-.22-.513-.07-.73zm.05 28.592c.02-.384.116-.372.264-.598.134-.025.127-.014.197-.062.79-.002.94.286 1.325.658-.04.54-.3.604-.527.928-.233.06-.61.238-.862.07-.193-.072-.26-.147-.33-.333-.093-.132-.084-.62-.068-.663zm1.226-18.866c-.206.108-.55.396-.86.2-.51-.198-.37-1.005-.332-1.59.097-.09.192-.213.264-.327.506-.14 1.014-.27 1.52-.403.44-.006.56.05.796.197 0 .95-.742 1.58-1.387 1.922zm2.394 5.754c.237.088.417.158.596.26.004.422-.057.508-.198.733-.423.1-.744.09-1.257.067-.076-.08-.17-.14-.267-.2-.043-.112-.013-.063-.065-.128.034-.82.66-.433 1.19-.732zm.502-15.488c-.275-.014-.303-.05-.464-.132.037-.77.58-.874 1.057-1.192.812-.547 1.647-1.163 2.247-1.923.247.023.245.05.398.13-.002 1.83-1.423 2.443-2.71 2.983-.178.076-.39.04-.53.134zm3.78 4.824c-.028.39-.19.467-.527.532-.32-.34-.657-1.012-.997-1.26 0-.384.056-.392.196-.595.896.06.878.83 1.327 1.323zm-2.888 13.442c.14-.082.467.115.73.132.48.03 1.825-.09 2.116-.27.666.003 1.135.185 1.457.528.047.05.088.147.134.198-.06.18-.112.192-.198.33-1.26.01-2.36-.042-3.376-.324-.358-.097-.628.042-.86-.134-.067-.062-.132-.13-.2-.197.055-.226.032-.165.198-.262zm3.476-18.672c-.054-.065-.025-.016-.066-.13.438-.44.803-.458 1.322-.798.7.357.807 1.18 1.262 1.785-.004.6-.846.932-1.258.6-.138-.055-1.215-1.3-1.26-1.457zm3.33 11.314c.272.11.383.148.463.462.13.194.086.487.067.664-.186 1.752-1.21 1.438-1.915 2.448-.276-.012-.305-.043-.464-.13.008-1.733 1-2.54 1.847-3.444zm.483-25.617c.025-1.266.93-2.73 1.914-3.046.147-.084.183-.023.397 0l.07.79c-.777.723-1.46 1.406-2.05 2.323-.172-.013-.223-.03-.33-.067zM124.04 48.86c1.032.333 1.607.62 1.987 1.586l.067 1.126c.404 1.97-1.502 3.374-3.105 2.32-.116-.47.036-1.32-.138-1.92-.04-.14-.213-.275-.265-.395-.288-.66-.054-1.585.26-2.053.288-.427.744-.382 1.192-.664zm-.678-8.668c.22-.214.48-.555.66-.796.135-.025.126-.016.198-.066.457 0 .688.073.993.198.224.264.488.548.597.925.15.522-.068 2.31-.258 2.516-.125.357-.417.37-.662.596-.445.012-.78.012-.993-.197-.92-.337-.6-2.18-.535-3.178zm2.82 22.3c-.267.856-1.045 1-1.718 1.46-.622 0-.775-.172-1.126-.396-.26-.622-.436-1.91-.138-2.715.114-.303.42-.536.595-.794.135-.025.128-.017.198-.066 1.304-.027 1.733.404 2.055 1.386.068.212.253.74.133 1.126zm-3.61-19.718c-.107.324-.367.403-.727.464-.91-.928-.904-1.307-.865-2.777.096-.09.19-.215.264-.33.18-.002.303-.003.396-.067.166.067.41.143.53.265.315.317.896 1.834.402 2.446zm-.566-20.848c-.034-.337-.125-.625.064-.86.274-.413.712-.39 1.126-.664.856-.027 1.483.138 1.655.79.124.16.22.713.067.928-.16.453-.67.505-.99.794-1.41.02-1.217-.422-1.92-.988zM120.73 12.2c-.438-.087-.927.103-1.19-.13-.067-.022-.132-.046-.2-.068.018-1.235.863-1.33 1.587-1.855.233-.168.29-.56.462-.795l.726-.663c.828.034.455.73.664 1.388.135.42.258.688.2 1.258-.534.523-1.177 1.07-2.25.863zm.07 2.05c-.095 1.676-3.726 2.077-4.167.604-.125-.158-.137-.363-.133-.663.017-1.09.77-1.097 1.452-1.524 1.507.006 2.17.742 2.85 1.584zm-2.36 51.166c-.616.004-1.05-.117-1.39-.393-.523.013-.84-.02-1.124-.195-.014-1.085.638-.83 1.322-1.195.152-.155.306-.31.46-.463.177-.126.42-.144.596-.266.547.037.73.242 1.062.46.226 1.112-.4 1.514-.925 2.052zm1.36 20.12c-.006.552-.175.63-.393.93-.2.065-.4.134-.598.2-.67-.005-.823-.26-1.192-.527-.034-.146-.06-.242-.133-.333.03-.78.46-.996.857-1.393.136-.025.128-.018.2-.066.336.002.51.043.728.133.31.376.287.68.53 1.057zm-2.875-54.996c-.06 1.187-.976 1.065-1.85 1.46-.294.13-1.324.816-1.523 1.06-.418-.015-.57-.2-.728-.46-.435.008-.485.106-.728.265-.085.338-.234.864.002 1.19-.004.3-.042.363-.13.532-.734-.064-.96-2.068-.536-2.58.258-.74 1.477-.81 2.116-1.196.11-.153.22-.31.332-.462.028-.015.378.107.528.064.285-.08.93-.225 1.19-.4.738 0 .91.25 1.327.528zm-4.388 26.614c-.188-.197-.35-.382-.53-.595.025-.304.087-.344.196-.53.582-.135 1.614-.2 2.052-.534.458.01.763.345.53.794-.273.526-1.406.91-2.248.864zm1.576-7.15c-.09-.37-.125-.697-.07-1.126.084-.036.2-.08.265-.13.628.107 2.076.54 1.46 1.386-.088.217-.186.193-.33.33-.775.01-.91-.18-1.325-.46zm1.995 43.48c.135-.026.126-.017.198-.065.207.048.313.117.463.197.004.45-.067.512-.265.73-.298-.017-.318-.072-.528-.135-.044-.11-.015-.063-.068-.13.006-.367.07-.393.198-.597zm.46-2.58c-.107-.084-.137-.14-.2-.264.18-.184.27-.5.463-.664.29-.246.69-.435.925-.73.18 0 .303-.005.396-.065.395.146.632.274.93.464.262 1.065-.055 1.164-.66 1.722-.733.01-.65-.16-1.192-.33-.257-.078-.477-.01-.66-.132zm1.99 3.504c.377.143 1.25.805.864 1.388-.043.396-.227.416-.397.665-1.1.092-.946-.208-1.588-.66 0-.83.65-1.025 1.122-1.392zm.69 17.277c.185-.19.355-.408.532-.598.68-.018 1.304.605.927 1.32-.102.192-.42.33-.594.467-.254-.006-.393-.023-.53-.132-.34-.235-.36-.618-.334-1.057zm1.127-77.378c-.745.156-.97-.103-1.392-.396-.24-1.008.104-1.74.657-2.317.205-.004.42-.01.53.066.33.063.37.24.597.395.214.915.005 1.63-.392 2.252zm-.007-3.707c-.87-.898-.518-1.39.127-2.185.218-.006.474-.017.597.065.34.052.51.227.596.527.6.83-.52 1.646-1.32 1.593zm.697 20.518c.068-.182.094-.148.198-.267.182.035.188.012.264.067.33.213.658 1.186.268 1.655-.043.114-.013.063-.066.13-.12.092-.206.078-.266.07-.21-.04-.192-.06-.33-.136-.178-.4-.45-1.127-.07-1.518zm.893 18.99c.14-.03.24-.056.33-.13.387.09.38.233.597.463-.01.382-.083.488-.197.73-.147.04-.174.05-.264.13-.475-.013-.496-.164-.73-.394.008-.433.113-.538.264-.797zm.138 2.848c.06-.142.057-.095.132-.198.438.01.632.187.728.53.103.15.077.538.068.795-.08.072-.143.167-.198.26-.204.01-.27.044-.332 0-.247-.042-.235-.095-.396-.193-.06-.376-.26-.875-.002-1.194zm1.595 3.904c.155-.016.188-.012.265-.067.142.038.237.01.398.13.553.19.694.864.663 1.655-.253.257-.326.54-.726.665-.18.122-.462.046-.596-.066-.845-.56-.416-1.728-.003-2.317zm-.47-4.3c-.07-.198-.226-.58-.135-.927.164-.61.617-1.284.924-1.788.142-.06.35-.112.463-.202 1.368.144 1.708 1.38 2.055 2.58.07.24.247.73.135 1.124-.085.3-.357.45-.528.663-1.488.083-2.49-.27-2.916-1.45zm3.857-27.41c-.178.508-.836.33-1.06 0-.404-.603-.115-1.478.195-1.92.605-.006.62.156.928.396.058.41.18 1.22-.063 1.523zm-1.383-33.357c.166.268-.237 2.33-.393 2.58-.115.19-.443.388-.528.6.023.328.045.66.07.99-.07.252-.33.397-.462.597-.137.026-.128.017-.2.068-.937.02-1.207-.285-1.39-.99l-.002-.663c-.078-.237-.37-.65-.53-.86.06-1.518 1.373-2.17 2.178-2.98.652-.018 1.114.17 1.258.658zm-11.596-7.328c.204-.596.778-.48 1.258-.795.724-.007 1.153.054 1.588.262l.068.464c-.353.352-.707.706-1.057 1.06.006.188.025.282.065.396 1.117-.052 1.672-.97 2.513-1.328 1.297-.556 4.622-.71 5.825-.01-.03.607-.352.75-.66 1.06-.664.665-1.42 1.666-2.447 1.924-.374 0-.75 0-1.124.002-1.222.002-2.135.036-2.846.468.11.503.527.69.664 1.19.127.458-.3 2.48-.457 2.716-.7 1.048-3.083.6-3.377-.523-.518-.714.33-2.1.79-2.385-.074-.39-.51-.56-.796-.726-.144-.605-.323-3.366-.006-3.775zm-.176 12.38c.237-.346.327-.924.528-1.26.152.014.185.01.263.066.23.085.232.2.398.33.02.664.097 1.227-.193 1.722-.07.12-.282.258-.33.397-.022.31-.045.616-.065.925-.184.667-.487 1.312-.726 1.855-.12.276-.08.517-.197.793-.633 1.503-1.538 3.097-2.177 4.64-.14.335-.062.63-.196.99-.118.315-.447.645-.595.93-.204.393-.54 1.27-.658 1.656-.136.024-.13.014-.2.064-.9-.316-.97-3.25-.934-4.697.363-.336.97-.662 1.257-1.06.54-.75.562-1.77.92-2.718.188-.495.697-.81.926-1.26.242-.48.183-1.087.393-1.59.157-.368.55-1.02.86-1.26.22-.165.57-.302.726-.525zm-.8-4.303c.075.284.222.87.397 1.125.004 1.25-.986 1.297-1.72 1.79-.233.158-.43.434-.66.596-.48.34-.99.577-1.453.93l-.53.662c-.49.375-1.123.585-1.585.996-.53-.007-.806-.248-1.06-.526-.154.014-.188.012-.265.066-.23.085-.23.2-.396.332-.002.558.005.932.004 1.587-.27.265-.41.564-.793.73-.565.242-1.308.256-1.786.6-.797.567-1.258 2.395-2.113 2.98-.082.064-.08-.015-.197.066-.066-.065-.132-.133-.2-.198-.007-1.23.026-2.487.26-3.51.022-.264.042-.528.065-.79.158-.44.663-.42.926-.73.188-.227.223-.557.395-.796.413-.576 1.05-.857 1.65-1.26.267-.178.515-.49.795-.663.354-.22.793-.236 1.123-.467.33-.23.398-.776.728-.995.376-.25.952-.138 1.39-.332.403-.18.732-.654 1.123-.862.234-.127.417-.088.66-.2.616-.284 1.253-.748 1.852-1.062.22-.116.517-.13.728-.266.198.07.478.148.66.196zM97.067 30.575c.008-.604.29-.585.594-.862.348-.002.52.036.73.132.035.082.08.2.132.264-.04.253-.11.34-.2.528-.623.18-.71.3-1.256-.063zm.216 10.06c0 .4-.065.5-.197.728-.39.085-.7.05-.927-.196-.11-.13-.182-.363-.068-.53.073-.2.062-.195.266-.264.056-.044.207-.09.265-.133.188.022.285.042.396.132.087.085.176.175.264.263zM98.9 17.928c.794-.006.85.305 1.19.726.008.22.018.475-.063.597-.087.218-.185.193-.332.33-1.24.042-1.665-.96-.796-1.652zm.83 20.65c.064-.066.13-.133.198-.197l.463.064c.043.115.014.065.068.134.005.447-.127.57-.464.66-.303.183-.545-.343-.265-.66zm.777-9.4c.025-.508.242-.517.462-.794.153-.016.185-.014.265-.067.135.025.126.017.198.066.367.036.34.146.528.33-.04.523-.26.492-.46.794-.18.274-.25.858-.33 1.192-.167-.008-.244-.01-.33-.066-.196-.076-.186-.153-.332-.264-.03-.307-.18-.922 0-1.19zm8.163-25.3c.22-.065.44-.13.662-.198.696 0 1.54.037 1.986.327.153.154.31.31.464.462.132.52.447 1.843.004 2.317-.208.585-1.293.745-1.984.466-.98-.394-1.704-1.253-1.66-2.71.176-.18.394-.46.528-.664zm-9.124 4.85c.82-.237 1.75.254 2.38-.204.933-.022 1.01.502 1.327 1.057.46-.032.745-.28.994-.528.977.032 1.28.672 2.052.922.46.15 1.013.003 1.455.064.706.096 1.234.254 1.723.525.04.18.102.308 0 .464-.267.54-2.795.678-3.705.535-.87-.134-1.948-.044-2.78.14-.207.043-.49-.046-.596-.066-.38-.08-1.007.04-1.19.002-.42-.086-1.05-.11-1.458-.195-.922-.197-2.002.137-2.714-.26l-.33-.397c.054-.59 2.257-1.89 2.84-2.06zm-4.72 26.153c.245-.252.474-.483.727-.728.778.053.9.59 1.26 1.056-.015.227-.032.338-.133.465-.213.31-.547.317-.86.53-.47-.02-.62-.175-.927-.33-.088-.363-.102-.57-.067-.992zM87.52 21.326c.164-.417.687-.457.992-.73 1.123-.042 2.38.472 1.79 1.453-.65.132-1.332.05-1.786.665-.33.02-.332.017-.66 0-.18-.19-.35-.405-.532-.593.002-.345.045-.606.196-.795zm-1.653.2c.14-.027.362-.062.462-.132.418.17.55.308.53.926-.234.225-.49.433-.727.662-.502-.003-.45-.132-.663-.396.038-.49.21-.74.397-1.06zm-2.362 12.118c.684-.254 2.27-1.795 3.44-.867.46.313.407.875.73 1.323.633.88 1.714.956 3.112.92l.397-.33c.053-.267.07-.64.063-.993-.41-.42-1.262-1.468-1.525-1.984-.117-.23-.064-.463-.2-.66-.118-.176-.38-.25-.53-.397-.47.026-.678.18-1.06.267-.18-.156-.405-.336-.595-.462-.006-.652.16-.765.395-1.125.14-.034.24-.06.33-.132l1.59.525c.182.12.354.393.596.463l.992-.134c.112.037.226.2.332.265.1.36.22.888-.063 1.192-.022.823.59.717 1.125.924.144.718-.456 1.098-.327 1.79.07.38.63.977.333 1.454-.16.41-.547.33-.99.464-.615.19-1.438.18-2.118.402-.428.14-.86.418-1.323.53-.385.096-.857-.12-1.06-.262-.778-.544-.303-1.435-.73-2.052-.063-.18-.115-.193-.2-.33-.277-.016-.264-.006-.596 0-.255.277-.598.464-.86.73-.285.293-.35.79-.593 1.128-.582.81-2.73 1.552-4.167 1.132-.526-.153-.83-.597-1.258-.858-.197-.743-.11-2.07.458-2.45.66-.438.645 1.11.93 1.52l.463.332c.363-.03.442-.128.662-.267-.063-1.4-.216-1.115.526-2.054.563-.073 1.207.187 1.72-.003zm-2.056-1.916c.18.002.303.002.396.065l.198.066c.044.113.013.064.067.132.014.73-.79 1.495-1.32 1.393-.353-.03-.302-.043-.398-.33-.22-.654.658-1.04 1.057-1.326zm-2.53-8.4c.14-.036.238-.062.33-.135.65.01.715.256 1.06.528.023.354.017.42.002.794-.11.133-.22.266-.332.398-.397.082-.553.077-.993.067-.155-.168-.302-.364-.464-.53.03-.572.262-.73.396-1.124zm-3.09 12.38c.155-.016.187-.013.265-.065.452-.005.597.064.86.197.024.153.045.307.07.462-.668.686-.607 1.18-1.523.268.008-.487.15-.583.33-.862zm-2.437 6.955c.09-.254.235-.298.397-.464h.33c.945.982 1.164 1.99 2.52 2.444.198-.33.104-.604.264-.993.176-.18.352-.355.527-.532.49 0 .855.105 1.128.33 1.568.03 1.18-.945 1.65-1.923 1.72.015 1.835 1.476 2.917 2.113.416.244 1.017.08 1.522.262l.465.33c.02.46-.208 1.174.002 1.455.176.455.688.406 1.06.66.272.186.447.688.597.992 1.458.324 3.078.368 3.84-.603.74-.943.52-1.653 1.915-2.055.167-.05.414-.12.53-.07.68.05.72.55 1.257.73.52.347 1.36-.228 1.787-.402l1.39-.2c.664-.234 1.107-.897 1.453-1.46.76-.054.792.605 1.39.793.4.125.75-.18 1.058-.134.807.12.923 1.282.403 1.852-.125.373-.65.586-1.057.666-.045.113-.013.065-.067.132.07.323.89.53 1.19.657.044.15.05.177.133.268-.017.3-.068.318-.13.53-.235.057-.61.245-.993.133-.313-.09-.58-.63-.994-.394-.38.2-.303.648-.792.795-.418.286-.85-.116-1.258-.197-.22.02-.44.045-.662.066-.287.28-.635.526-.925.797.013.173.03.226.067.33.638.25 1.75-.106 2.25.262.253.094.24.228.398.398 0 .524-.136.572-.33.86-1.41-.024-3.303-.182-3.97.734-.343.473-.317 1.16-.592 1.59-.078.207-.178.27-.396.332-.532.32-1.413-.953-2.65-.594-.683.2-1.146.933-1.783 1.196-.438.18-1.097.02-1.456.267-.568.235-.32 2.36-.723 2.914-.16.21-.412.272-.793.266-.2-.22-.497-.562-.796-.66-.258-.147-.858.242-1.258.398-.087-.115-.203-.19-.33-.265-.105-.51.022-1.897-.27-2.316-.176-.508-1.37-.85-1.986-.46l-.792.795c-.182 0-.304-.003-.397-.064-.44-.155-1.306-2.06-1.064-2.844.122-.4.516-.688.13-1.127-.165-.346-2.054-.915-2.518-1.188-.043-.187-.118-.425 0-.596.22-.443 1.095-.222 1.52-.465.236-.133.373-.497.595-.663-.013-.77-1.1-1.672-1.988-1.65-.344.333-.71.6-.993.995-.272.02-.19.014-.463 0l-.065-.067c-.11-.552-.01-1.13-.004-1.786-.112-.132-.22-.266-.332-.396-.264.006-.733.024-.795 0-.557-.045-1.5-2.25-1.067-2.776zm9.707 24.41c-.464-.054-.478-.36-.795-.464-.178-.06-.455.05-.53.066-.538.1-.58-.242-.794-.463-.01-.665.098-.834.332-1.19.347-.082 1.015-.14 1.32-.334.37.14.52.28.796.463.172.738.002 1.36-.328 1.92zm1.196 3.305c.052.25.074.587.07.926-.214.226-.262.48-.596.596-.178.128-.394.097-.53.134-.074-.08-.167-.143-.263-.198-.082-.412-.02-1.494.26-1.788.052-.047.147-.09.2-.133.405.146.563.268.86.462zm-1.644 5.43c.164-.346 1.156-.695 1.52-1.13.136.028.128.017.2.065.065.023.132.047.197.068.118.49.374 1.383.002 1.785-.076.2-.153.188-.265.334-.615-.007-1.376-.098-1.787-.33-.072-.33-.08-.586.132-.793zm-3.467-14.224c.025-.62.325-.655.594-.995.135-.027.127-.02.2-.067.443.102.475.264.728.53-.023.68-.413.693-.794.994-.23-.018-.278-.023-.396-.13-.184-.09-.203-.205-.333-.33zm-.173 14.825l-.33.135c-.084-.106-.14-.137-.266-.2-.007-.82.21-1.122.593-1.522.136.026.127.015.198.068.628.25-.012 1.232-.196 1.52zM74.43 67.81h.462c.156.155.312.31.465.467.176.387.104.818.333 1.123.21.39.84.156 1.192.393.45.304.5 1.122.864 1.523-.03.434-.167.646-.33.927-.424.12-.695.28-1.322.267-.334-.324-.938-.913-1.393-1.058-.968-.308-1.09.576-2.05.004-.517-2.183.624-2.737 1.78-3.646zm11.286 19.174c-.227.174-.285.424-.595.533-.195.176-.85-.932-1.655-.726-.802.205-1.573-.637-2.384-.855-.75-.2-1.907.367-2.447.27-.516-.097-.833-.415-1.325-.596-.358.353-.76.647-1.124.996-.318.006-.562.002-.728-.13-.602-.23-.348-.95-1.192-.992-.266.28-.535.573-.794.862-.563.002-.68-.13-.993-.33-.133-.77-.45-1.943-1.127-.794-1.13-.1-.364-1.62-.732-2.446-.108-.246-.408-.405-.465-.73-.082-.467.472-.755.33-1.32-.17-.675-.923-.977-1.128-1.587-.216-.647.316-2.026.526-2.32.12-.17.432-.203.596-.332h.594c.217.222.795.807 1.06.925.24.105.528.064.73.196.645-.045.916-.527 1.19-.93.34.014.394.08.595.198.06.334-.045 1.235.135 1.523.244.39.86.28 1.258.525.918-.018 1.224-.627 1.39-1.393.648-.13 1.535.02 1.985.328.258.177.332.526.66.662.724.294 1.498-.314 1.526.724-.292.282-.63.515-.927.798-.65-.04-1.573-.84-2.052-.527h-.13c-.043.116-.014.065-.067.13.07.962 1.102 1.125 1.525 1.722.254.356.38.624.665.923.56-.018.75-.56.858-.994.376-.11.75-.222 1.126-.33.32-.207.437-.436.925-.534.584.48.487.73.4 1.653-.324.305-.875.63-1.122.996-.574.85-.354 1.3-1.386 1.787.05.852 1.298.564 1.723 1.057.792-.012 1.458-.652 1.983-.996.028-.894-.26-3.87.125-4.37.02-.042.045-.087.066-.13.44-.004.628.137.728.46.09.124.092.405 0 .532-.01 1.107.67.988 1.26 1.452.157.223.31.438.465.664-.006 1.695-1.06 2.697-2.047 3.442zm-.293 20.787c.15-.015.186-.013.263-.064.332.112.554.18.795.328-.025.136-.016.126-.065.197-.02.07-.044.135-.065.202-.38.006-.398.012-.73.002-.09-.1-.212-.193-.33-.265.023-.25.05-.25.133-.4zm4.394 15.48c-.227.44-.66.796-.926 1.192-.31.468-.586.9-1.188 1.062-1.367.367-2.758-2.664-1.792-3.703.202-.575.904-.495 1.454-.73.528-.226.876-.702 1.322-.995.223-.143.56-.12.794-.265.255.006.393.022.53.132.066.043.133.088.2.13.074.964 0 2.415-.393 3.18zm.318-7.216c-.336.023-.5.098-.73-.062-.428-.195-.385-.613-.332-1.127.18-.172.395-.45.528-.662l.597-.002c.337.346.61.397.597 1.125-.21.205-.486.503-.66.73zm1.278 12.045c-.18 0-.302 0-.397-.065h-.13c-.044-.186-.12-.426-.002-.598.068-.176.095-.143.198-.264.335.035.323.13.528.264 0 .395-.06.45-.197.662zm.904-13.636c-.154-.016-.187-.014-.265-.068-.32-.127-.356-.46-.596-.66-.01-.33-.016-.318 0-.594.08-.045.135-.072.197-.134.605.02.64.282.927.595 0 .475-.096.594-.263.86zm3.995 13.627c-.153.456-.652.528-.992.6-.19-.183-.592-.462-.862-.53-.33.02-.66.047-.992.068-.556-.193-.707-1.29-.467-1.918.086-.23.306-.365.462-.53h.396c.31.313.467.612.664 1.056.93.137 1.5-.36 1.854.727.064.19.067.364-.064.528zm3.305-2.257c-1.88-.513-1.112-3.303-.34-4.43.595-.064 1.695.174 2.185-.14.353.146.585.286.86.464.394 1.642-.447 4.726-2.705 4.106zm-.01-6.486c.067-.178.093-.145.197-.266.168.01.246.01.33.067.21.076.198.14.332.266-.014.35-.335.637-.66.398-.213-.076-.342-.248-.2-.463zm12.32 5.87c-.226.335-.676.415-.992.667-.987-.07-.965-.713-1.39-1.324-.137-.19-.5-.438-.797-.264-.28.13-.51.823-.594 1.127-1.133.133-1.165-1.328-.797-2.184.416-.966 1.42-1.226 2.71-1.33l.068-.065c.095-.59-.307-1.246.062-1.72.062-.18.114-.194.198-.333.185-.02.348-.05.463-.13.222.04.44.085.663.128.07.038 1.12 1.14 1.194 1.256h.065c.65 1.248-.398 3.496-.853 4.17zm-3.912-4.227c.045-.277.128-.305.197-.53.137-.03.302-.063.397-.134.175.066.352.133.528.197.105.44-.244 1.19-.793.797-.217-.088-.192-.184-.33-.33zm5.29-3.254c-.11.134-.222.266-.332.398-.756.428-1.855.045-2.845.27-1.235.28-2.943.27-4.037.338-1.35.084-2.86.057-3.377-.723-.802-.065-.793.315-1.454.532-.803.262-2.46-1.027-2.917-1.32-.06-.22-.245-.602-.066-.86-.014-.273-.047-.302-.134-.463-.388-.072-1.035-.063-1.324-.264-.202-.07-.197-.06-.266-.264-.022-.02-.045-.042-.066-.067h.066c.237-.622 1.062-.497 1.785-.663 2.074-.474 4.98.955 6.552-.276l.53-.002c.2.22.707.868.994.923.394.146.91-.55 1.256-.33.282.057 1.05.717 1.26.924.616-.052.936-.413 1.52-.53.243-.048.783.086.994.13 1.034.213 2.96.1 1.525 1.39.053.394.246.475.334.856zm1.183-4.307c-.464 1.083-1.158.868-2.05.338-1.395-.833-2.91-1.677-4.31-2.444-.41-.225-.863-.28-1.257-.524-.56-.35-1.104-.88-1.72-1.188-.797-.4-2.247-.28-2.915.203-.363.006-.588-.024-.794-.135.03-.534.25-1.077.462-1.458h.993c.323-.16.297-1.02.195-1.455-.148-.636-.39-1.19-.534-1.72-.066-.86-.134-1.724-.202-2.58-.092-.32-.51-.92-.268-1.324.05-.154.07-.148.133-.267.225.014.337.03.463.132 1.218.81.93 3.242 2.125 4.102.36.26.91.49 1.392.592.602.13 1.176-.24 1.522.263.316.46.01 1.22.003 1.854l.33.394c.65.117 1.098-.278 1.72-.004.51.228.942.94 1.328 1.324.777.775 3.132 2.213 3.447 3.17.155.252.014.55-.062.725zm.654-4.235c-.72-.256-.285-1.1-.73-1.454-.212-.17-.5-.18-.664-.395-.445-.587-.523-1.397-.93-2.05-.23-.378-.627-.687-.86-1.058-.435-.688-1.09-2.52-.802-3.84.094-.43.235-.984.33-1.392.148-.65-.332-1.126-.138-1.85.12-.444.434-.85.66-1.194.95.052 1.173 2.262 1.46 3.11.607 1.78 1.122 3.562 1.732 5.358.44 1.298 1.12 2.36 1.066 4.23-.203.214-.647.85-1.124.537zm1.06.53c.155.013.186.01.265.063.336.083.292.3.464.527.03.66-.075.82-.528.994-.152-.212-.29-.508-.463-.728-.016-.515.035-.62.262-.858zm1.55 16.41c-.552.044-.688-.022-1.06-.26-.048-.208-.128-.333-.065-.468.037-.375.166-.38.33-.596.134-.024.125-.017.197-.067.61 0 .702.18.994.463-.01.54-.19.62-.395.928zm6.15-3.255c-.946.117-1.694-.012-2.316-.324.014-.922 1.15-1.925 1.65-2.453.63-.025.93.132 1.06.592.512.702-.13 1.8-.394 2.185zm.453-6.422c-.507.55-.27 1.05-1.19 1.393-.527.2-1.747-.058-2.184.205-.24.056-.265.106-.328.33-.06.134.048.16 0 .4-.09.42-.172 1.043-.26 1.388-.023.484-.045.97-.066 1.457-.212.743-.907 1.107-1.32 1.656-.26.346-1.303 1.385-1.984.797-.42-.146-.867-.857-.664-1.588.155-.562.708-.854.857-1.39.14-.507-.118-.97-.07-1.258.208-1.23.22-2.335.99-3.046-.027-.136-.018-.128-.07-.196-.148-.217-.473-.09-.725-.197-.53-.23-.736-.734-.732-1.523.1-.102.193-.273.265-.398.263-.088.53-.176.793-.268.43-.104 1.17.082 1.523-.133 1.77.272 5.174-.4 6.617.253.04.083.08.2.133.263-.13.993-1.043 1.274-1.585 1.858zm1.11-9.068v.994c-.13.568-.443 1.685-1.386 1.39l-.465-.33c-.11-.442-.22-.882-.333-1.32-.2-.306-.718-.354-.927-.664-.596-.873-.522-3.026.06-3.837.29-.402.743-.47 1.32-.6.275-.06.607.048.796-.065.177 0 .354 0 .53-.002l.398.33c.06.266.208.56.133.928-.016.085-.107.34-.064.53.235 1.005.16 1.705-.06 2.646zm-.015-8.805c-.75-.053-.737-.563-1.194-.856-.26-.17-.542-.138-.86-.265-.698-.277-1.236-.77-1.526-1.455-.373-.877-.062-1.96.66-2.186.72-.497 1.207.297 1.653.394.395.09 1.1-.538 1.322-.73.97.01 1.376.506 1.924.924.106.93-.076 1.695-.528 2.252-.146.182-.463.262-.595.465-.16.248-.075.56-.197.858-.118.294-.434.405-.66.597zm1.832 26.276c-.587-.01-.66-.235-.994-.462-.044-.113-.013-.062-.066-.133.02-.418.13-.393.33-.596.568.034.71.32 1.127.462.04.113.012.064.065.13-.022.5-.203.378-.463.6zm.204-110.602c-.182.042-.368.112-.53 0-.42-.138-.49-.534-.464-1.123l.33-.398c.168.006.245.01.332.066.33.115.327.37.53.594.004.45-.052.612-.198.86zM90.613 10.994c.627-.02.803-.296 1.19-.53 0-.183-.003-.305-.066-.397-.153-.433-.758-.582-1.26-.66-.05.045-.147.087-.197.132-.886.34.06 1.218.333 1.454zM16.27 41.107c.52-.38.56-1.25 1.122-1.59 1.068-.644 3.23-.12 3.708.655.255.41.3 1.162.533 1.585.95.366 2.42-.94 3.64-.6.523.145 1.756.866 2.053 1.253.35.458.7 1.02 1.194 1.32.474.29 1.305.01 1.723.264.202.07.238.16.396.265.038.28.097.563-.066.792.008.946.522.69 1.062 1.06.315.213.58.81.796 1.122 1.127-.002 2.334.21 2.98-.27.73-.544.894-1.98 1.78-2.32l.795-.136c.663-.218 1.545-.797 2.647-.532.545.13 1.367.52 2.052.262.945-.358 1.113-1.683 1.85-2.254.464-.36 1.036-.362 1.653-.6.77-.294 1.234-.93 1.717-1.524-.01-.443-.11-.596-.266-.86-.686-.26-1.42.042-2.05.203-.992.252-2.465.003-3.112-.392-.63-.385-1.133-1.306-1.328-2.116 0-.44 0-.88-.002-1.323-.105-.46-.27-.785-.464-1.123-.737-.29-1.91-.15-2.516.27-.414.285-.638.887-1.057 1.193l-1.784.994-.728.135c-.548.23-.867.767-1.52.93-1.38.34-1.602-1.745-3.18-1.056-.368.162-.652.588-.925.864-.84.84-3.44 2.42-4.5.867-.412-.606-.026-1.232-.2-2.05-.228-1.057.525-1.538 1.12-1.99.44-.553.882-1.104 1.32-1.656.745-.546 1.588-.842 2.117-1.594.544-.776 1.1-1.15 1.916-1.657.25-.158.648-.567 1.19-.4.44.133 1.688 1.393 1.922 1.783.17.282.13.602.267.927.104.245.33.445.465.66 1.07.29 3.1.662 3.77-.27.325-.45.17-1.133.396-1.722.09-.238.334-.392.463-.598.18-.04.447-.113.528-.067.768.076.59.7.93 1.19.135.2.424.29.595.462l.53-.066c.06-.12.11-.243.197-.333-.02-.59-.227-.877-.4-1.322.34-.332.46-.485 1.19-.466.243.224.616.31.797.593.208.325.176.767.4 1.06.16.21.512.3.728.462.405.298.96 1.224 1.13 1.72.192.56-.025 1.333.266 1.785.06.23.094.18.2.33.276.018.263.008.596 0 1.013-1.118 2.188-2.106 3.37-3.05.74.018.78.315 1.193.593.37.248.9.27 1.258.527.52.373.586 1.156.863 1.784.13.294.56.907.996.66.177-.06.193-.113.33-.198.152-.798.11-1.72.525-2.25-.136-.998-1.328-2.11-1.856-2.844-.247-.342-.633-.762-.797-1.125-.2-.445-.194-.95-.466-1.322-.308-.424-1.146-.36-1.588-.66-.29-.194-.39-.574-.597-.858-.292-.396-.83-.526-1.26-.792-.806-.5-1.134-1.206-2.45-1.254-.27.195-.664.21-.927.4-.476.344-.733.943-1.387 1.128-1.822.51-2.333-1.196-4.17-.126-.247.61.097 1.21.467 1.588-.015.346-.092.437-.197.663-1.374.37-3.892.84-4.7-.324-.228-.33-.36-.827-.468-1.257-.08-.326.073-.757-.066-.992-.037-.336-.13-.324-.265-.53-.788-.007-.853.336-1.39.666l-1.256.464c-.56.37-.97.988-1.652 1.263-.904.36-2.243-.36-2.78.005-.76.294-.45 1.713-1.12 2.12-.396.237-1.088.086-1.456.333-.62.413-.673 1.43-1.255 1.857-.49.357-1.287.37-1.784.73-.43.31-.512 1.01-.925 1.325-.64.49-1.482.7-1.915 1.393-.154.485-.31.973-.46 1.458-.306.47-.993.543-1.457.862-.24.266-.485.53-.725.795-.347.234-.843.227-1.19.467-.137.092-.196.293-.332.397-.073.924-.114 1.424.27 2.05.318.137.715.167.99-.067zm30.424-13.29c.17.046.685.005.993.13 1.116.45 2.126 1.447 2.056 2.908-.512.512-.817.76-1.917.73-.17-.158-.434-.23-.596-.395-.388-.39-1.105-2.255-1.065-2.91.168-.155.363-.303.53-.464zm-25.336 8.582l.2-.267c.135-.026.126-.018.197-.066.512.02.687.198.992.395.08.3.216.6 0 .86-.09.256-.226.24-.395.4h-.463c-.243-.234-.44-.403-.664-.66-.003-.3.007-.504.132-.663zM24.124 28.12c.837-.055 1.858-.627 2.05-1.328.058-.11.03-.205-.067-.33-.14-.395-.586-.358-1.125-.33-.077.056-.11.056-.265.068-.243.176-.484.354-.728.53-.14.183-.188.418-.33.597.003.56.167.555.464.793zM39.443 44.972c-.46.322-.683.294-.66 1.127.146.15.225.407.397.527.143.1.28.088.397.198.883.028 1.033-.463.99-1.328-.11-.13-.22-.264-.33-.395-.256-.068-.417-.136-.794-.13zM82.48 52.904c.053-.255.092-.47-.07-.662-.153-.467-.744-.742-1.39-.726-.088.106-.04.078-.197.135-.138.514-.15 1.078.068 1.522.66.173 1.095.032 1.59-.268zM47.838 77.12c-.33-.02-.663-.038-.992-.06-.086.057-.165.06-.332.064-.542.542-1.025 1.135-1.32 1.924-.125.334-.152 1.646.267 1.258.61-.045.656-.428.926-.797.35-.483.9-.642 1.388-.995l.462-.598c-.003-.182-.004-.304-.068-.396-.082-.228-.2-.228-.33-.4zM78.16 80.713l-.465.002c-.153.11-.307.216-.462.328-.042.205-.07.445-.064.73.166.16.207.31.462.396.274.148.61-.165.927-.335.04-.146.047-.174.13-.263 0-.653-.254-.54-.53-.86zM49.887 113.46c.84-.274.5-1.56-.532-1.523-.392.322-.613.36-.592 1.125l.33.4c.296.075.543.203.794-.002z"/></g><path d="M158.148 19.76c-1.184.11-4.55.148-4.55.148v5.624c0 .296-.038.333-.37.333h-7.883c-.37 0-.37.037-.37-.333V1.11c0-.37.185-.333.37-.333h12.322c5.883 0 9.694 3.923 9.694 9.62 0 6.07-3.514 8.77-9.212 9.363zm-2.85-12.47h-1.7v6.105h1.775c2.33 0 3.256-1.37 3.256-3.034 0-1.775-.926-3.07-3.33-3.07zM180.162 25.865h-8.178c-.37 0-.37.037-.37-.333V1.11c0-.37 0-.333.37-.333h8.178c.333 0 .37.037.37.333v24.422c0 .296-.037.333-.37.333zM207.58 7.697l-6.513-.407v18.242c0 .296-.037.333-.37.333h-8.03c-.37 0-.37.037-.37-.333V7.29l-6.734.407c-.258 0-.258-.037-.258-.26v-6.29c0-.296 0-.37.295-.37h21.943c.26 0 .296.074.296.37v6.29c0 .223-.038.26-.26.26zM233.628 7.697l-6.513-.407v18.242c0 .296-.037.333-.37.333h-8.03c-.37 0-.37.037-.37-.333V7.29l-6.733.407c-.26 0-.26-.037-.26-.26v-6.29c0-.296 0-.37.297-.37h21.94c.26 0 .297.074.297.37v6.29c0 .223-.037.26-.26.26zM246.873 26.753c-5.032 0-8.474-2.183-9.916-5.66-.223-.593-.186-.593.147-.704l5.513-2.073c.334-.147.37-.11.445.148.406 1.37 1.887 2.442 3.515 2.442 1.74 0 2.59-.777 2.59-1.888 0-1.222-1.036-1.666-3.22-1.925-.258-.037-.666-.074-.924-.11-2.812-.223-7.697-1.518-7.697-7.513 0-5.77 3.737-9.473 10.768-9.473 5.18 0 8.29 2.22 8.992 5.438.074.444.11.48-.26.63l-5.217 1.924c-.297.147-.334.147-.444-.148-.593-1.37-1.555-2.11-3.367-2.11-1.74 0-2.407.74-2.407 1.74 0 1.11.963 1.48 3.7 1.888.37.074.814.11 1.333.185 4.145.63 7.512 2.405 7.512 7.623 0 6.18-4.922 9.583-11.065 9.583zM278.62 25.865H263.15c-.37 0-.406-.037-.406-.518v-24.2c0-.296.11-.37.48-.37h14.32c5.105 0 8.214 2.59 8.214 6.734 0 2.702-1.554 4.923-4.773 5.736 3.257.186 5.625 3.22 5.625 6.105 0 4.073-3.145 6.515-7.993 6.515zm-4.404-19.61h-2.886v3.995h2.886c1.666 0 2.332-.813 2.332-1.96 0-1.186-.666-2.036-2.332-2.036zm.593 10.063h-3.48v4.107h3.48c1.738 0 2.367-.814 2.367-2.072s-.74-2.035-2.368-2.035zM302.447 26.79c-7.253 0-11.582-4.44-11.582-10.14V1c0-.223 0-.223.185-.223h8.622c.26 0 .26 0 .26.296v14.32c0 2.517 1.11 3.552 3.107 3.552 1.96 0 3.107-1 3.107-3.552V1.036c0-.222 0-.26.26-.26h8.028c.186 0 .186 0 .186.26V17.02c0 5.96-4.18 9.77-12.173 9.77zM345.738 25.865h-9.51c-.333 0-.48-.074-.89-.74-1.405-2.405-3.773-6.4-3.773-6.4l-2.59.147v6.66c0 .296-.037.333-.37.333h-7.808c-.37 0-.37.037-.37-.333V1.11c0-.37.186-.333.37-.333h13.284c6.328 0 9.215 3.923 9.215 8.474 0 3.405-1.295 5.773-3.627 6.735 1.036 1.518 3.774 5.44 6.143 8.88.297.408.445.667.445.815 0 .148-.184.185-.517.185zm-15.21-18.982h-1.553v5.884h1.59c2.147 0 3.405-.777 3.405-2.924 0-2.072-1.035-2.96-3.44-2.96zM373.71 26.494c-.15 0-.297-.074-.408-.11l-4.33-2.405c-1.738 1.294-3.773 2.736-7.622 2.736-7.438 0-13.432-5.032-13.432-13.432 0-7.733 5.735-13.247 13.654-13.247 6.29 0 10.176 3.146 11.95 7.512.15.406.187.518-.11.665l-6.92 3.07c-.295.112-.48-.073-.59-.37-.853-1.627-2.665-2.404-4.367-2.404-3.034 0-4.922 2.036-4.922 4.886 0 3.182 1.888 4.958 5.07 4.958 2.145 0 3.626-.962 4.33-2.886.11-.26.146-.37.295-.37h7.438c.296 0 .296.037.296.26v10.99s0 .146-.333.146zM403.826 25.865h-7.88c-.334 0-.37-.037-.37-.333v-8.548h-6.81v8.548c0 .296-.037.333-.37.333h-7.882c-.37 0-.37.037-.37-.333V1.11c0-.37 0-.333.37-.333h7.882c.333 0 .37.037.37.333v7.993h6.81V1.11c0-.296.036-.333.37-.333h7.88c.37 0 .37-.037.37.333v24.422c0 .37 0 .333-.37.333zM162.072 69.863c-11.34 0-19.165-7.613-19.165-18.902 0-10.605 7.666-19.058 19.322-19.058 9.135 0 14.753 5.198 17.116 11.184.21.63 0 .788-.263.893l-10.238 3.727c-.315.105-.368-.105-.473-.315-1.103-2.1-2.835-3.465-6.196-3.465-4.515 0-6.983 2.888-6.983 7.088s2.835 6.93 7.14 6.93c3.15 0 4.937-1.52 5.987-3.412.157-.368.21-.473.63-.368l10.238 3.15c.578.052.63.367.473.683-2.624 6.09-8.662 11.865-17.588 11.865zM200.134 69.916c-10.29 0-16.434-6.3-16.434-14.387V33.32c0-.316 0-.316.263-.316h12.233c.368 0 .368 0 .368.42v20.32c0 3.57 1.575 5.04 4.41 5.04 2.783 0 4.41-1.417 4.41-5.04V33.372c0-.315 0-.368.368-.368h11.394c.263 0 .263 0 .263.368v22.682c-.002 8.454-5.935 13.862-17.276 13.862zM248.436 68.604h-24.573c-.524 0-.524.053-.524-.473V33.478c0-.525 0-.473.523-.473h11.185c.472 0 .524.052.524.473v25.36h12.812c.473 0 .577.105.577.525v8.77c0 .42-.052.472-.524.472zM278.518 42.823l-9.24-.578V68.13c0 .42-.053.474-.525.474H257.36c-.526 0-.526.053-.526-.473V42.246l-9.556.578c-.367 0-.367-.052-.367-.368V33.53c0-.42 0-.526.42-.526h31.136c.368 0 .42.105.42.525v8.925c0 .316-.053.368-.368.368zM299.517 69.916c-10.29 0-16.435-6.3-16.435-14.387V33.32c0-.316 0-.316.264-.316h12.232c.368 0 .368 0 .368.42v20.32c0 3.57 1.575 5.04 4.41 5.04 2.783 0 4.41-1.417 4.41-5.04V33.372c0-.315 0-.368.368-.368h11.394c.263 0 .263 0 .263.368v22.682c0 8.454-5.933 13.862-17.273 13.862zM359.684 68.604H346.19c-.473 0-.682-.105-1.26-1.05-1.995-3.414-5.355-9.084-5.355-9.084l-3.676.21v9.45c0 .42-.054.474-.525.474h-11.08c-.524 0-.524.053-.524-.473V33.478c0-.525.265-.473.526-.473h18.85c8.98 0 13.074 5.565 13.074 12.023 0 4.83-1.838 8.19-5.146 9.556 1.47 2.153 5.356 7.718 8.717 12.602.42.577.63.945.63 1.154 0 .21-.264.264-.736.264zm-21.58-26.937H335.9v8.35h2.257c3.046 0 4.83-1.104 4.83-4.15 0-2.94-1.47-4.2-4.883-4.2zM401.158 68.604H388.82c-.264 0-.525-.053-.735-.42-.63-1.418-1.155-2.678-1.786-3.99h-12.233c-.684 1.47-1.05 2.572-1.68 3.832-.264.473-.316.578-1.05.578H360.57c-.42 0-.525-.21-.21-.735 6.353-11.447 13.44-25.1 18.954-35.337.105-.21.683-.263 1.26-.263.63 0 1.26 0 1.365.21 6.092 11.13 12.917 23.837 19.43 35.39.366.734.366.734-.212.734zm-20.056-17.538c-.473-1.103-.84-2.1-.84-2.1s-.367.997-.84 2.1c-.945 2.257-2.363 5.355-2.363 5.355h6.353c0 .002-1.313-3.15-2.31-5.354zM429.455 68.604h-24.573c-.524 0-.524.053-.524-.473V33.478c0-.525 0-.473.524-.473h11.184c.473 0 .525.052.525.473v25.36h12.813c.473 0 .577.105.577.525v8.77c0 .42-.053.472-.525.472zM192.746 90.23l-14.08-.88v39.44c0 .64-.08.72-.8.72h-17.36c-.8 0-.8.08-.8-.72V89.35l-14.562.88c-.56 0-.56-.08-.56-.56V76.067c0-.64 0-.8.64-.8h47.44c.56 0 .64.16.64.8v13.6c.002.48-.078.56-.558.56zM254.906 129.51h-20.56c-.72 0-1.04-.16-1.92-1.6-3.04-5.2-8.16-13.84-8.16-13.84l-5.602.32v14.398c0 .64-.08.72-.8.72h-16.88c-.8 0-.8.08-.8-.72v-52.8c0-.8.4-.72.8-.72h28.72c13.68 0 19.92 8.478 19.92 18.32 0 7.36-2.8 12.48-7.84 14.56 2.24 3.28 8.16 11.76 13.28 19.2.64.88.96 1.44.96 1.76s-.398.402-1.118.402zm-32.88-41.04h-3.36v12.72h3.44c4.64 0 7.36-1.68 7.36-6.32 0-4.48-2.24-6.4-7.44-6.4zM281.306 131.51c-15.68 0-25.04-9.6-25.04-21.92V75.748c0-.48 0-.48.4-.48h18.64c.56 0 .56 0 .56.64v30.962c0 5.44 2.4 7.68 6.72 7.68 4.24 0 6.72-2.16 6.72-7.68V75.828c0-.48 0-.56.56-.56h17.36c.4 0 .4 0 .4.56v34.56c0 12.882-9.04 21.122-26.32 21.122zM333.945 131.43c-10.88 0-18.32-4.72-21.44-12.24-.48-1.28-.4-1.28.32-1.52l11.92-4.48c.72-.32.8-.24.96.32.88 2.96 4.08 5.28 7.6 5.28 3.76 0 5.6-1.68 5.6-4.08 0-2.64-2.24-3.6-6.96-4.16-.56-.08-1.44-.16-2-.24-6.08-.48-16.64-3.28-16.64-16.24 0-12.48 8.08-20.48 23.28-20.48 11.2 0 17.92 4.8 19.44 11.76.16.96.24 1.04-.56 1.36l-11.28 4.16c-.64.32-.72.32-.96-.32-1.28-2.96-3.36-4.56-7.28-4.56-3.76 0-5.2 1.6-5.2 3.76 0 2.4 2.08 3.2 8 4.08.8.16 1.76.24 2.88.4 8.96 1.36 16.24 5.2 16.24 16.48 0 13.36-10.64 20.72-23.92 20.72zM408.985 90.23l-14.08-.88v39.44c0 .64-.08.72-.8.72h-17.36c-.8 0-.8.08-.8-.72V89.35l-14.562.88c-.56 0-.56-.08-.56-.56V76.067c0-.64 0-.8.64-.8h47.44c.56 0 .64.16.64.8v13.6c.002.48-.078.56-.558.56z"/></g></svg>