<svg xmlns="http://www.w3.org/2000/svg" viewBox="0 0 835.22 426.26"><defs><style>.cls-1{isolation:isolate;}.cls-2{fill:#4cb748;}.cls-2,.cls-3,.cls-4,.cls-5{mix-blend-mode:multiply;}.cls-3{fill:#c91684;}.cls-4,.cls-7{fill:#00aeef;}.cls-5{fill:#f47b20;}.cls-6{fill:#ffd300;}.cls-8{fill:#d1d3d4;}.cls-9{fill:#fed301;}.cls-10{fill:#a7a9ac;}.cls-11{fill:#231f20;}.cls-12{fill:#fff;}.cls-13{fill:none;}.cls-14{fill:#a6a6a6;}</style></defs><title>Buzzword_Logo_Buzzy</title><g class="cls-1"><g id="Layer_1" data-name="Layer 1"><path class="cls-2" d="M354.4,416.16l-3.74-26.31,18.73-2.66L354.75,284,336,286.71l-3.74-26.31,69.56-9.88q23.11-3.28,34.79-2.14T458,258.93a39.67,39.67,0,0,1,11.74,23.63q3.23,22.74-16.91,35.19,28.87,6.53,32.69,33.4,2.2,15.45-4.73,27.69A42.47,42.47,0,0,1,461,397q-12.85,5.88-37.07,9.32Zm45-102.58L410.57,312q11.61-1.65,16.52-6.46t3.46-15q-1.32-9.3-7.17-12.35T404.26,277l-9.86,1.4Zm9.66,68L420.23,380q15.22-2.16,20.62-7.5t3.78-16.65q-1.68-11.86-8.88-15.7t-21.44-1.81l-11.17,1.59Z" transform="translate(-149.32 -175.23)"/><path class="cls-3" d="M458.24,281.45l-3.74-26.34,74.43-10.57,3.74,26.34-15.35,2.18,10,70.5q2,14.13,4.07,20.18a16.94,16.94,0,0,0,7.68,9.37q5.62,3.32,13.35,2.22,8-1.13,12.68-5.69a17.1,17.1,0,0,0,5.43-10.49q0.7-5.93-1.8-23.53L559,267.14l-15.13,2.15-3.74-26.34,62.1-8.82L606,260.47l-19.05,2.71,11.08,78q2.26,15.92,1.61,23.39A34.75,34.75,0,0,1,593.92,380q-5,8-15.9,14a74,74,0,0,1-25.77,8.17q-17.26,2.45-30.12-.69t-19.94-10.38a42.16,42.16,0,0,1-9.9-14.95q-2.81-7.72-5.54-26.89l-10-70.5Z" transform="translate(-149.32 -175.23)"/><path class="cls-4" d="M589.71,367.68l-3.8-26.74L646,225.47l-44,6.25,4.09,28.79-26.85,3.82-7.89-55.53,122.22-17.36L697,215.21,635,334l52.14-7.41-4.32-30.38,26.74-3.8,8.12,57.13Z" transform="translate(-149.32 -175.23)"/><path class="cls-5" d="M701.12,375.19l-3.85-27.13,61-117.16-44.61,6.34,4.15,29.21-27.25,3.87-8-56.35,124-17.62L810,220.48,747.12,341l52.9-7.52-4.38-30.83,27.13-3.85,8.23,58Z" transform="translate(-149.32 -175.23)"/><path class="cls-5" d="M407,570L347.65,453.15l-15.5,2.2-3.52-24.78,66.11-9.39L398.26,446l-15.18,2.16,33.83,67,12.34-73.6L416,443.44l-3.52-24.78,52.72-7.49,3.52,24.78-13.6,1.93,34,67,13.09-73.71-14.66,2.08L484,408.49l58.73-8.34,3.52,24.78-15.92,2.26-23,128.58-27.42,3.89L447.32,496,435,566Z" transform="translate(-149.32 -175.23)"/><path class="cls-3" d="M785.67,463.69L788.84,486l-45.63,6.48L704.6,439l-15.4,2.19,5,35.47,16.84-2.39,3.17,22.28-70.35,10-3.17-22.28,18.48-2.63L646.8,394.31l-18.48,2.63-3.17-22.29,81.19-11.53q22.94-3.26,34.66,6.64T754.75,394q3.19,22.48-18.66,36.12l27.52,36.73Zm-99.46-43.53,12-1.71q22.26-3.16,20-18.71-1.09-7.68-6.71-10.75T697,387.18l-15.19,2.16Z" transform="translate(-149.32 -175.23)"/><path class="cls-2" d="M759.29,519.38l-3.15-22.17L778.84,494,766.5,407.11l-22.71,3.23-3.15-22.17,65-9.23q19.62-2.79,31.94-2.08a57,57,0,0,1,24.44,7.4,59.33,59.33,0,0,1,20.69,19.63,71.37,71.37,0,0,1,11,29.82,74.8,74.8,0,0,1-.92,26.74q-2.86,13.06-8.62,21.62a51.42,51.42,0,0,1-14.65,14.4,68.36,68.36,0,0,1-16.67,8.29q-7.78,2.45-24.48,4.83Zm53.61-30.23L821.1,488q14.91-2.12,23.08-7.23t12.07-15.62q3.9-10.51,1.66-26.27-2.13-15-8.95-24.71t-16.49-12.39q-9.66-2.66-23.72-.67l-8.21,1.16Z" transform="translate(-149.32 -175.23)"/><path class="cls-4" d="M668.65,491.38l-10.16-71.51c-1.64-11.56-13.17-19.48-25.75-17.69L528.78,416.95c-12.58,1.79-21.45,12.61-19.81,24.17l10.16,71.51c1.64,11.55,13.18,19.47,25.75,17.69l10.91-1.55L579,601.49l35.35-81.05,34.45-4.89C661.42,513.75,670.29,502.93,668.65,491.38Zm-73.6,16a41.55,41.55,0,1,1,35.3-47A41.55,41.55,0,0,1,595.05,507.34Z" transform="translate(-149.32 -175.23)"/><rect class="cls-6" x="633.9" y="533.69" width="109.65" height="54.45" transform="translate(-224.59 -67.4) rotate(-8.49)"/><path class="cls-7" d="M659.08,570l-1.8.27,1.38,9.38-7,1-4.18-28.26,9.09-1.34c6.88-1,11.55,1.43,12.46,7.57C670,565,665.92,569,659.08,570ZM657,556.41l-1.76.26,1.23,8.31,1.64-.24c3.11-.46,4.63-2.07,4.2-5C661.86,557.07,660.06,556,657,556.41Z" transform="translate(-149.32 -175.23)"/><path class="cls-7" d="M689.74,575.69c-9,1.33-14.8-3.84-16.09-12.56s3.19-15.5,11.91-16.78a17.69,17.69,0,0,1,9,.81l0,6.24a14.09,14.09,0,0,0-7.89-1.3c-4.88.72-6.72,4.68-5.94,10s3.79,8.69,8.67,8a7.58,7.58,0,0,0,3.68-1.46l-0.74-5-4.91.73-1.59-5.08,11.84-1.75,2,13.76A18.81,18.81,0,0,1,689.74,575.69Z" transform="translate(-149.32 -175.23)"/><path class="cls-7" d="M723.12,570.22l-1.71-11.55-9.79,1.45,1.71,11.55-7,1-4.18-28.26,7-1L710.72,554l9.79-1.45L718.95,542l7-1,4.18,28.26Z" transform="translate(-149.32 -175.23)"/><path class="cls-8" d="M948,289.82a59.34,59.34,0,0,0-13.62,5.27,55,55,0,0,0-18,15c-9.84-7.44-14.21-18.43-9.78-26.05,5-8.56,19.17-9.62,31.72-2.37a36,36,0,0,1,9.73,8.13" transform="translate(-149.32 -175.23)"/><path class="cls-9" d="M958.09,342c-20.29,10.83-42.25,9.3-49.05-3.4-4.05-7.57-1.8-17.4,5-26.4A59.27,59.27,0,0,1,933.47,296a64,64,0,0,1,14.69-5.68c15.29-3.76,29.21-.57,34.37,9.08,6.8,12.71-4.14,31.78-24.43,42.6" transform="translate(-149.32 -175.23)"/><path class="cls-10" d="M935.85,310.34c-9.29-1.67-15.22-11.86-13.26-22.77s11.09-18.4,20.38-16.73,15.23,11.86,13.26,22.77-11.09,18.4-20.39,16.73" transform="translate(-149.32 -175.23)"/><path class="cls-11" d="M972.16,297.47a4.07,4.07,0,0,1,.15,1.18,4.17,4.17,0,0,1-7.29,2.69,4.16,4.16,0,0,1-.87-4,4.17,4.17,0,0,1,7.6-.88,4.07,4.07,0,0,1,.41,1" transform="translate(-149.32 -175.23)"/><path class="cls-12" d="M967.26,296.89a1.07,1.07,0,1,1,1.31.75,1.06,1.06,0,0,1-1.31-.75" transform="translate(-149.32 -175.23)"/><path class="cls-11" d="M984.39,297.47a4.07,4.07,0,0,1,.15,1.18,4.17,4.17,0,0,1-7.29,2.69,4.16,4.16,0,0,1-.87-4,4.17,4.17,0,0,1,7.6-.88,4.07,4.07,0,0,1,.41,1" transform="translate(-149.32 -175.23)"/><path class="cls-12" d="M979.5,296.89a1.07,1.07,0,1,1,1.31.75,1.06,1.06,0,0,1-1.31-.75" transform="translate(-149.32 -175.23)"/><path class="cls-11" d="M982.15,312.42a1.21,1.21,0,0,0-1.53-.73,30.29,30.29,0,0,1-8.79,1.38h0c-4.4,0-7.93-1.14-10.52-3.4l1-1.92a1.2,1.2,0,0,0-.53-1.62,1.24,1.24,0,0,0-1.62.53l-2.78,5.45a1.2,1.2,0,0,0,.53,1.62,1.23,1.23,0,0,0,1.62-.53l0.68-1.33c3,2.41,6.89,3.63,11.61,3.63a32,32,0,0,0,9.62-1.56,1.2,1.2,0,0,0,.73-1.53" transform="translate(-149.32 -175.23)"/><polygon class="cls-11" points="799.2 173.84 771.91 126.54 776.01 123.33 804.6 172.55 799.2 173.84"/><polygon class="cls-11" points="763 133.96 788.03 176.57 793.53 175.67 767.19 130.2 763 133.96"/><polygon class="cls-11" points="756.63 143.77 776.17 177.24 781.29 176.57 760.43 139.69 756.63 143.77"/><path class="cls-11" d="M905.9,338s-5,3-7.73,2.79c0,0,6,3.09,11.59,2.13Z" transform="translate(-149.32 -175.23)"/></g><g id="Layer_2" data-name="Layer 2"><path class="cls-13" d="M697.87,352.31l-98.47,14A36.15,36.15,0,0,1,593.92,380q-5,8-15.9,14a73.94,73.94,0,0,1-25.77,8.17c-3.13.44-6.14,0.74-9,.91l1.64,11.53,87.9-12.49a25,25,0,0,1,4.36-.23c1-1.48,1.91-3,2.87-4.44l0.84,0.55c-0.86,1.32-1.71,2.65-2.57,4a23.74,23.74,0,0,1,10.1,3.13l-1.54-10.84-18.48,2.63-3.17-22.29,74.39-10.57Zm-36.51,16.11-0.8-.6c2.48-3.3,5-6.5,7.39-9.51l0.78,0.63C666.31,361.94,663.83,365.13,661.35,368.43Z" transform="translate(-149.32 -175.23)"/><path class="cls-13" d="M711.54,389q-5.62-3.07-14.52-1.81l-15.19,2.16,4.38,30.82,12-1.71q22.26-3.16,20-18.71Q717.17,392.05,711.54,389Z" transform="translate(-149.32 -175.23)"/><path class="cls-13" d="M435.75,340.11q-7.2-3.83-21.44-1.81l-11.17,1.59,5.92,41.66L420.23,380q15.22-2.16,20.62-7.5t3.78-16.65Q442.94,344,435.75,340.11Z" transform="translate(-149.32 -175.23)"/><path class="cls-13" d="M583.36,425.06A41.55,41.55,0,0,0,562.46,498c1.85-1.53,3.7-3.11,5.5-4.74l0.67,0.74c-1.77,1.59-3.57,3.13-5.38,4.63A41.55,41.55,0,1,0,583.36,425.06Zm-6,60.61-0.71-.7c2.73-2.77,5.48-5.72,8.19-8.77l0.75,0.66C582.87,479.93,580.1,482.89,577.36,485.67Zm16-18-0.78-.63c2.41-3,4.88-6.17,7.36-9.49l0.8,0.6C598.26,461.46,595.78,464.67,593.36,467.66Zm14.45-19.28L607,447.8c2.18-3.11,4.41-6.35,6.8-9.92l0.83,0.56C612.22,442,610,445.26,607.81,448.38Z" transform="translate(-149.32 -175.23)"/><path class="cls-13" d="M753.81,408.91q-3.7,12.41-17.72,21.18l27.52,36.73,11.14-1.58-8.26-58.13Z" transform="translate(-149.32 -175.23)"/><path class="cls-13" d="M427.09,305.53q4.9-4.81,3.46-15-1.32-9.3-7.17-12.35T404.26,277l-9.86,1.4,5,35.16L410.57,312Q422.18,310.34,427.09,305.53Z" transform="translate(-149.32 -175.23)"/><path class="cls-13" d="M849,414.16q-6.82-9.71-16.49-12.39t-23.72-.67l-8.21,1.16,12.34,86.88L821.1,488q14.91-2.12,23.08-7.23t12.07-15.62q3.9-10.51,1.66-26.27Q855.78,423.87,849,414.16Z" transform="translate(-149.32 -175.23)"/><polygon class="cls-13" points="446.06 147.51 496.73 50.24 452.76 56.48 456.85 85.27 437.61 88.01 446.06 147.51"/><path class="cls-13" d="M687.19,326.55l-4.32-30.39,26.74-3.8,2.46,17.33c1.8-1.18,3.64-2.28,5.51-3.28l0.47,0.88c-2,1.06-3.92,2.24-5.82,3.5l0.95,6.69,45.09-86.58-44.61,6.34,4.15,29.21-27.25,3.87-4.77-33.6L635,334Z" transform="translate(-149.32 -175.23)"/><path class="cls-14" d="M149.32,225.3L150,226c1.37-1.29,2.88-2.61,4.49-3.92l-0.63-.78C152.24,222.66,150.71,224,149.32,225.3Z" transform="translate(-149.32 -175.23)"/><path class="cls-14" d="M268.55,431.55l0.82,0.57a107.24,107.24,0,0,1,7.36-9.44L276,422A108.4,108.4,0,0,0,268.55,431.55Z" transform="translate(-149.32 -175.23)"/><path class="cls-14" d="M282.19,526.58a85.3,85.3,0,0,0,10.62,5.8l0.42-.91a84.35,84.35,0,0,1-10.49-5.73Z" transform="translate(-149.32 -175.23)"/><path class="cls-14" d="M284.81,413.75l0.61,0.79a86,86,0,0,1,10-6.58l-0.5-.87A86.9,86.9,0,0,0,284.81,413.75Z" transform="translate(-149.32 -175.23)"/><path class="cls-14" d="M282.55,327.5a11.11,11.11,0,0,0-.14,1.76c0,3.41,1.7,6.59,4.91,9.18l0.63-.78c-3-2.43-4.54-5.26-4.54-8.4a10.09,10.09,0,0,1,.13-1.6Z" transform="translate(-149.32 -175.23)"/><path class="cls-14" d="M289.13,175.31c-3.89.16-7.94,0.45-12,.87l0.1,1c4.07-.41,8.1-0.7,12-0.86Z" transform="translate(-149.32 -175.23)"/><path class="cls-14" d="M310.39,345l0-1a48.18,48.18,0,0,1-11.76-1.42l-0.25,1a49.19,49.19,0,0,0,12,1.45h0Z" transform="translate(-149.32 -175.23)"/><path class="cls-14" d="M345.63,375.53a59.45,59.45,0,0,0,6-10.54l-0.92-.4a58.49,58.49,0,0,1-5.9,10.36Z" transform="translate(-149.32 -175.23)"/><path class="cls-14" d="M327.65,541.91c3.71,0.53,7.62,1,12,1.41l0.09-1c-4.34-.41-8.24-0.87-11.93-1.4Z" transform="translate(-149.32 -175.23)"/><path class="cls-14" d="M304.1,536.7c3.66,1.16,7.59,2.2,11.67,3.09l0.21-1c-4.06-.88-8-1.91-11.58-3.07Z" transform="translate(-149.32 -175.23)"/><path class="cls-14" d="M375.68,545.63c4.11,0.16,8.16.29,12,.37l0-1c-3.87-.08-7.92-0.21-12-0.37Z" transform="translate(-149.32 -175.23)"/><path class="cls-14" d="M351.71,543.28l-0.07,1,1.5,0.1q5.24,0.36,10.51.66l0.06-1q-5.26-.3-10.5-0.66Z" transform="translate(-149.32 -175.23)"/><path class="cls-14" d="M343.19,329.45c-2-1.11-4.44-2.31-6.95-3.47l-0.42.91c2.39,1.1,9.75,5.06,10.58,5.6l0.55-.84c-0.79-.51-1.76-1.09-2.86-1.7a80.3,80.3,0,0,0,6.74-8l-0.8-.59A79.34,79.34,0,0,1,343.19,329.45Z" transform="translate(-149.32 -175.23)"/><path class="cls-14" d="M333.1,338.06a37.1,37.1,0,0,1-10.91,4.55l0.24,1a38.08,38.08,0,0,0,11.21-4.67Z" transform="translate(-149.32 -175.23)"/><path class="cls-14" d="M309.59,399.57l-4,1.94,0.44,0.9,4-1.94c2.28-1.1,4.56-2.21,6.83-3.34l-0.45-.89C314.14,397.36,311.86,398.46,309.59,399.57Z" transform="translate(-149.32 -175.23)"/><path class="cls-14" d="M336.69,383.6a81.32,81.32,0,0,1-9.77,6.89l0.52,0.85a82.18,82.18,0,0,0,9.88-7Z" transform="translate(-149.32 -175.23)"/><path class="cls-14" d="M184.74,202.52l0.43,0.9c3.51-1.69,7.19-3.36,10.95-5l-0.39-.92C192,199.15,188.26,200.82,184.74,202.52Z" transform="translate(-149.32 -175.23)"/><path class="cls-14" d="M355.46,196.63l0.76-.65a50.06,50.06,0,0,0-9-8.14l-0.58.82A49,49,0,0,1,355.46,196.63Z" transform="translate(-149.32 -175.23)"/><path class="cls-14" d="M367.42,217.3A62.47,62.47,0,0,0,363,206l-0.89.46a61.42,61.42,0,0,1,4.37,11.08Z" transform="translate(-149.32 -175.23)"/><path class="cls-14" d="M336.26,182.9l0.39-.92c-1.95-.83-4-1.58-6.12-2.25-1.73-.54-3.54-1-5.38-1.49l-0.24,1c1.82,0.44,3.61.94,5.32,1.48C332.31,181.34,334.34,182.09,336.26,182.9Z" transform="translate(-149.32 -175.23)"/><path class="cls-14" d="M325.08,321.36a115,115,0,0,0-11.55-3.6l-0.24,1a114,114,0,0,1,11.44,3.57Z" transform="translate(-149.32 -175.23)"/><path class="cls-14" d="M870.82,353.61a84.32,84.32,0,0,1-11.49-3.27l-0.34.94a85.37,85.37,0,0,0,11.62,3.31Z" transform="translate(-149.32 -175.23)"/><path class="cls-14" d="M370.77,241.21a109.18,109.18,0,0,0-.9-12.06l-1,.13a108.12,108.12,0,0,1,.89,11.95Z" transform="translate(-149.32 -175.23)"/><path class="cls-14" d="M299.43,316.75q1,0,2.09.06l0.05-1q-1.09-.06-2.14-0.06a22.11,22.11,0,0,0-9.87,1.95L290,318.6A21.14,21.14,0,0,1,299.43,316.75Z" transform="translate(-149.32 -175.23)"/><path class="cls-14" d="M848.37,345.56c-3.39-1.72-6.79-3.67-10.4-6l-0.54.84c3.64,2.3,7.06,4.27,10.48,6Z" transform="translate(-149.32 -175.23)"/><path class="cls-14" d="M254,464.55a64.38,64.38,0,0,0-1.24,12h1A63.37,63.37,0,0,1,255,464.75Z" transform="translate(-149.32 -175.23)"/><path class="cls-14" d="M255,488.44l-1,.21a52.09,52.09,0,0,0,3.92,11.47l0.9-.43A51.13,51.13,0,0,1,255,488.44Z" transform="translate(-149.32 -175.23)"/><path class="cls-14" d="M229.82,185.52l0.28,1c3.86-1.11,7.77-2.15,11.62-3.09l-0.24-1C237.61,183.37,233.69,184.41,229.82,185.52Z" transform="translate(-149.32 -175.23)"/><path class="cls-14" d="M265.07,509.82l-0.79.61a66.36,66.36,0,0,0,8.27,8.84l0.67-.75A65.35,65.35,0,0,1,265.07,509.82Z" transform="translate(-149.32 -175.23)"/><path class="cls-14" d="M257.3,452.91l0.94,0.35a89.45,89.45,0,0,1,4.9-10.91l-0.88-.47A90.65,90.65,0,0,0,257.3,452.91Z" transform="translate(-149.32 -175.23)"/><path class="cls-14" d="M265.28,178.69l-0.15-1c-3.89.59-7.88,1.3-11.88,2.1l0.2,1C257.43,180,261.41,179.28,265.28,178.69Z" transform="translate(-149.32 -175.23)"/><path class="cls-14" d="M206.93,193.08l0.35,0.94c3.71-1.39,7.52-2.73,11.34-4l-0.31-.95C214.48,190.33,210.65,191.68,206.93,193.08Z" transform="translate(-149.32 -175.23)"/><path class="cls-14" d="M163.66,214.26l0.55,0.84c3.17-2.07,6.63-4.14,10.29-6.17L174,208C170.34,210.09,166.85,212.17,163.66,214.26Z" transform="translate(-149.32 -175.23)"/><path class="cls-14" d="M447.75,542.51l0.12,1c4-.47,8-1,11.95-1.63l-0.15-1C455.78,541.5,451.77,542,447.75,542.51Z" transform="translate(-149.32 -175.23)"/><path class="cls-14" d="M313.25,176.12c-3.82-.46-7.87-0.76-12-0.89l0,1c4.14,0.13,8.16.42,12,.88Z" transform="translate(-149.32 -175.23)"/><path class="cls-14" d="M640,397.51c-1,1.48-1.92,3-2.87,4.44,0.38,0,.76,0,1.14.08,0.86-1.32,1.71-2.65,2.57-4Z" transform="translate(-149.32 -175.23)"/><path class="cls-14" d="M607,447.8l0.82,0.57c2.19-3.12,4.42-6.36,6.81-9.93l-0.83-.56C611.4,441.45,609.17,444.69,607,447.8Z" transform="translate(-149.32 -175.23)"/><path class="cls-14" d="M592.58,467l0.78,0.63c2.41-3,4.9-6.19,7.39-9.52l-0.8-.6C597.47,460.86,595,464,592.58,467Z" transform="translate(-149.32 -175.23)"/><path class="cls-14" d="M576.64,485l0.71,0.7c2.74-2.78,5.51-5.74,8.23-8.81l-0.75-.66C582.13,479.25,579.37,482.21,576.64,485Z" transform="translate(-149.32 -175.23)"/><path class="cls-14" d="M568,493.26c-1.81,1.62-3.65,3.2-5.5,4.74l0.79,0.64c1.81-1.5,3.61-3,5.38-4.63Z" transform="translate(-149.32 -175.23)"/><path class="cls-14" d="M717.59,306.42c-1.87,1-3.7,2.1-5.51,3.28l0.16,1.1c1.9-1.26,3.85-2.44,5.82-3.5Z" transform="translate(-149.32 -175.23)"/><path class="cls-14" d="M887.61,355.32h0c-1.65,0-3.31,0-4.94-.14l-0.06,1c1.64,0.1,3.33.15,5,.15h0c2.32,0,4.7-.09,7.07-0.28l-0.08-1C892.26,355.23,889.91,355.32,887.61,355.32Z" transform="translate(-149.32 -175.23)"/><path class="cls-14" d="M660.55,367.83l0.8,0.6c2.47-3.29,5-6.48,7.37-9.48l-0.78-.63C665.52,361.32,663,364.52,660.55,367.83Z" transform="translate(-149.32 -175.23)"/><path class="cls-14" d="M787.28,307.58l0.4-.92a111.25,111.25,0,0,0-11.34-4.18l-0.29,1A110.24,110.24,0,0,1,787.28,307.58Z" transform="translate(-149.32 -175.23)"/><path class="cls-14" d="M355.13,353.38a32,32,0,0,0,.38-4.79,23.14,23.14,0,0,0-1.12-7.34l-0.95.32a22.15,22.15,0,0,1,1.07,7,31.11,31.11,0,0,1-.37,4.64Z" transform="translate(-149.32 -175.23)"/><path class="cls-14" d="M356.41,311.27l0.88,0.47c0.37-.7.73-1.41,1.09-2.12l-0.25-1.76C357.58,309,357,310.15,356.41,311.27Z" transform="translate(-149.32 -175.23)"/><path class="cls-14" d="M370.51,253.28l-1-.06c0,0.63-.09,1.27-0.13,1.91l1-.14C370.43,254.41,370.47,253.84,370.51,253.28Z" transform="translate(-149.32 -175.23)"/><path class="cls-14" d="M517.41,525l0.39,0.92c2.11-.89,4.21-1.83,6.28-2.79q-0.35-.39-0.67-0.79C521.42,523.23,519.42,524.12,517.41,525Z" transform="translate(-149.32 -175.23)"/><path class="cls-14" d="M646.63,387.48l0.83,0.56c2.38-3.52,4.61-6.76,6.83-9.89l-0.82-.58C651.25,380.71,649,383.95,646.63,387.48Z" transform="translate(-149.32 -175.23)"/><path class="cls-14" d="M633.43,407.61l0.84,0.54c1.31-2,2.64-4.09,4-6.13-0.38,0-.76-0.07-1.14-0.08C635.87,403.84,634.64,405.72,633.43,407.61Z" transform="translate(-149.32 -175.23)"/><path class="cls-14" d="M626.93,417.74q-3.25,5.07-6.52,10.11l0.84,0.54q3.28-5,6.53-10.11Z" transform="translate(-149.32 -175.23)"/><path class="cls-14" d="M740.48,298.88a62.93,62.93,0,0,0-11.81,2.69l0.32,0.95a62,62,0,0,1,11.62-2.65Z" transform="translate(-149.32 -175.23)"/><path class="cls-14" d="M707.42,313l0.61,0.8c1.37-1,2.78-2,4.21-3l-0.16-1.1C710.5,310.73,708.94,311.82,707.42,313Z" transform="translate(-149.32 -175.23)"/><path class="cls-14" d="M752.54,299.34a85.53,85.53,0,0,1,11.88,1.28l0.18-1a86.49,86.49,0,0,0-12-1.3Z" transform="translate(-149.32 -175.23)"/><path class="cls-14" d="M471.49,538.8l0.19,1c4-.79,7.94-1.67,11.77-2.61l-0.24-1C479.4,537.14,475.46,538,471.49,538.8Z" transform="translate(-149.32 -175.23)"/><path class="cls-14" d="M494.81,533.05l0.29,1c3.87-1.16,7.73-2.42,11.46-3.75l-0.34-.94C502.51,530.65,498.67,531.9,494.81,533.05Z" transform="translate(-149.32 -175.23)"/><path class="cls-14" d="M675.61,349l0.78,0.62c2-2.54,4-5.19,6.11-8l1.19-1.59-0.8-.6-1.19,1.59C679.6,343.87,677.62,346.51,675.61,349Z" transform="translate(-149.32 -175.23)"/><path class="cls-14" d="M691.05,330.58c2.76-3.37,5.38-6.29,8-8.92l-0.71-.71c-2.64,2.65-5.28,5.59-8.07,9Z" transform="translate(-149.32 -175.23)"/><path class="cls-14" d="M912.49,352c-1.95.5-3.91,1-5.82,1.34l0.2,1c1.93-.39,3.91-0.85,5.87-1.35Z" transform="translate(-149.32 -175.23)"/></g></g></svg>