<?xml version="1.0" encoding="utf-8"?>
<!-- Generator: Adobe Illustrator 16.0.4, SVG Export Plug-In . SVG Version: 6.00 Build 0)  -->
<!DOCTYPE svg PUBLIC "-//W3C//DTD SVG 1.1//EN" "http://www.w3.org/Graphics/SVG/1.1/DTD/svg11.dtd">
<svg version="1.1" id="Layer_1" xmlns="http://www.w3.org/2000/svg" xmlns:xlink="http://www.w3.org/1999/xlink" x="0px" y="0px"
	 width="16px" height="16px" viewBox="0 0 16 16" enable-background="new 0 0 16 16" xml:space="preserve">
<path fill="#888888" d="M8,1.219c3.738,0,6.781,3.043,6.781,6.782c0,3.738-3.043,6.78-6.781,6.78c-3.739,0-6.781-3.042-6.781-6.78
	C1.219,4.262,4.261,1.219,8,1.219 M8,0C3.582,0,0,3.582,0,8.001C0,12.418,3.582,16,8,16s8-3.582,8-7.999C16,3.582,12.418,0,8,0L8,0z
	"/>
<polygon fill="#888888" points="11.907,5.814 10.185,4.091 8,6.276 5.815,4.091 4.092,5.814 6.277,7.999 4.092,10.185 5.815,11.907
	8,9.723 10.185,11.907 11.907,10.185 9.723,7.999 "/>
</svg>