<svg xmlns="http://www.w3.org/2000/svg" width="13.002" height="13.002" viewBox="-0.001 0.998 13.002 13.002" enable-background="new -0.001 0.998 13.002 13.002"><path fill="#00A3B4" d="M9 6.5c0-.963-.342-1.788-1.027-2.473C7.288 3.342 6.463 3 5.5 3s-1.788.343-2.473 1.027C2.342 4.71 2 5.535 2 6.5s.342 1.79 1.027 2.473C3.712 9.657 4.537 10 5.5 10s1.788-.342 2.473-1.027C8.658 8.287 9 7.463 9 6.5zm4 6.5c0 .27-.1.505-.297.703-.198.197-.432.297-.703.297-.28 0-.516-.1-.703-.297l-2.68-2.672c-.93.648-1.97.97-3.117.97-.745 0-1.457-.144-2.137-.433-.68-.29-1.266-.68-1.758-1.172-.492-.493-.883-1.08-1.172-1.76C.143 7.956 0 7.246 0 6.5s.143-1.46.432-2.14c.29-.68.68-1.266 1.172-1.758S2.682 1.72 3.362 1.43C4.042 1.14 4.755.996 5.5.996s1.456.145 2.136.434c.68.29 1.266.68 1.758 1.172s.883 1.078 1.172 1.758c.29.68.435 1.393.435 2.137 0 1.145-.322 2.184-.97 3.116l2.68 2.68c.193.192.29.427.29.704z"/></svg>