<svg xmlns="http://www.w3.org/2000/svg" xmlns:xlink="http://www.w3.org/1999/xlink" width="1055" height="176" viewBox="28 513 1055 176" enable-background="new 28 513 1055 176"><style type="text/css">.st0{fill:#92D5E1;} .st1{opacity:0.45;enable-background:new ;} .st2{clip-path:url(#SVGID_2_);fill:#FFFFFF;} .st3{opacity:0.5;enable-background:new ;} .st4{clip-path:url(#SVGID_4_);fill:#FFFFFF;}</style><path class="st0" d="M28.3 514h1056.2v173.9H28.3z"/><g class="st1"><defs><path id="SVGID_1_" d="M202.6 540.7h115.5V569H202.6z"/></defs><clipPath id="SVGID_2_"><use xlink:href="#SVGID_1_" overflow="visible"/></clipPath><path class="st2" d="M289.6 560.5c-.6 0-1 .1-1.5.2-1.6-3.4-5.1-5.8-9.1-5.8-2 0-3.9.6-5.4 1.6-1.5-2.5-4.3-4.2-7.5-4.2-2.2 0-4.2.8-5.8 2.2-2.1-1.8-4.8-2.9-7.8-2.9h-.8c-1.9-3.8-5.8-6.3-10.3-6.3-5.1 0-9.4 3.3-10.9 7.9-4.2.7-7.5 3.5-8.9 7.5-.4-.1-.8-.1-1.1-.1-4.2 0-7.6 3.4-7.6 7.6s3.4 7.6 7.6 7.6c2.2 0 4.1-.8 5.5-2.3.9.7 2 1.1 3 1.4.8 5.8 5.8 10.2 11.8 10.2 5.8 0 10.7-4.2 11.7-9.7h.2c2.1 0 4.1-.6 5.8-1.4 1.8 2.5 4.8 4.1 8.1 4.1s6.2-1.6 8.1-4.1c1.4.7 2.9 1.1 4.5 1.1 2.6 0 5.1-1 6.9-2.7 1 .8 2.4 1.2 3.8 1.2 3.6 0 6.5-2.9 6.5-6.5-.3-3.7-3.2-6.6-6.8-6.6z"/></g><g class="st3"><defs><path id="SVGID_3_" d="M340 606.6h177.5v43.5H340z"/></defs><clipPath id="SVGID_4_"><use xlink:href="#SVGID_3_" overflow="visible"/></clipPath><path class="st4" d="M373.3 647.4c0 5.4 4.5 10 10 10 2.2 0 4.2-.7 5.8-1.8 2.7 2.5 6.5 4.2 10.5 4.2 2.5 0 4.7-.7 6.9-1.8 2.9 3.8 7.4 6.2 12.5 6.2s9.8-2.5 12.5-6.2c2.5 1.3 5.6 2.2 8.9 2.2h.4c1.6 8.5 9.1 14.9 17.9 14.9 9.1 0 16.9-6.9 18.1-15.6 1.6-.4 3.3-1.1 4.7-2.2 2.2 2.2 5.1 3.4 8.3 3.4 6.5 0 11.8-5.3 11.8-11.8 0-6.5-5.3-11.8-11.8-11.8-.5 0-1.1 0-1.8.2-2-6.2-7.3-10.5-13.6-11.4-2.4-7.1-9.1-12.1-16.9-12.1-6.9 0-12.9 4-15.8 9.8h-1.3c-4.7 0-8.9 1.8-12 4.5-2.4-2-5.4-3.3-8.9-3.3-4.7 0-9.1 2.5-11.4 6.3-2.4-1.6-5.3-2.5-8.3-2.5-6.2 0-11.4 3.6-14 8.9-.7-.2-1.5-.4-2.4-.4-5-.1-9.5 4.5-10.1 10.3z"/></g></svg>