<svg xmlns="http://www.w3.org/2000/svg" viewBox="0 0 73.72 91.51"><title>traf-logo</title><rect x="8.27" y="16.04" width="56.73" height="53.05" style="fill:#e0e32a"/><polygon points="14.85 30.18 14.85 23.53 12.51 23.53 12.52 18.24 21.82 18.24 21.82 23.53 19.49 23.53 19.49 30.18 14.85 30.18" style="fill:#06545d"/><polygon points="25.32 27.42 22.65 27.42 22.65 20.52 25.32 20.52 25.32 23.05 26.69 23.05 26.69 20.52 29.37 20.52 29.36 27.42 26.69 27.42 26.69 24.86 25.32 24.86 25.32 27.42" style="fill:#06545d"/><path d="M242.77,223.25h4.63q1.6,0,2.35,0a6,6,0,0,1,1.11.12,4.08,4.08,0,0,1,.85.35,3,3,0,0,1,1.23,1.22,3.63,3.63,0,0,1,.48,1.79,3.23,3.23,0,0,1-1.2,2.7,9.07,9.07,0,0,1,1.35,2.56,13,13,0,0,1,.67,3.16h-4.81l0-.11a9.37,9.37,0,0,0-.58-3.26,1.5,1.5,0,0,0-1.38-1.06H247.4v4.42h-4.63V223.25Zm4.63,2.45V228h0.12a1.41,1.41,0,0,0,1-.27,1.09,1.09,0,0,0,.31-0.85,1.19,1.19,0,0,0-.3-0.91,1.46,1.46,0,0,0-1-.27H247.4Z" transform="translate(-212.61 -205.01)" style="fill:#06545d"/><polygon points="50.84 27.18 50.84 30.18 42.13 30.18 42.14 18.24 50.84 18.24 50.84 21.26 46.78 21.26 46.77 22.71 49.6 22.71 49.6 25.71 46.77 25.71 46.77 27.18 50.84 27.18" style="fill:#06545d"/><polygon points="60.36 27.18 60.36 30.19 51.66 30.18 51.66 18.24 60.36 18.25 60.36 21.27 56.29 21.27 56.29 22.71 59.12 22.71 59.12 25.72 56.29 25.72 56.29 27.18 60.36 27.18" style="fill:#06545d"/><path d="M225.48,235.91h3.79c0.87,0,1.52,0,1.93,0a4.6,4.6,0,0,1,.91.1,3.4,3.4,0,0,1,.7.28,2.47,2.47,0,0,1,1,1,2.93,2.93,0,0,1,.39,1.47,2.66,2.66,0,0,1-1,2.23,7.36,7.36,0,0,1,1.11,2.1,10.84,10.84,0,0,1,.55,2.59h-3.94v-0.09a7.66,7.66,0,0,0-.48-2.67,1.23,1.23,0,0,0-1.13-.87h-0.05v3.63h-3.8v-9.8Zm3.79,2v1.89h0.1a1.15,1.15,0,0,0,.79-0.22,0.88,0.88,0,0,0,.25-0.7,1,1,0,0,0-.25-0.75,1.19,1.19,0,0,0-.81-0.22h-0.07Z" transform="translate(-212.61 -205.01)" style="fill:#06545d"/><rect x="22.72" y="30.9" width="3.8" height="9.79" style="fill:#06545d"/><polygon points="33.66 40.69 29.97 40.69 27 30.9 30.8 30.9 31.77 34.16 31.79 34.16 32.74 30.9 36.52 30.9 33.66 40.69" style="fill:#06545d"/><polygon points="42.19 36.26 42.19 38.06 36.94 38.06 36.94 30.87 42.19 30.87 42.19 32.69 39.74 32.69 39.74 33.57 41.45 33.57 41.45 35.37 39.74 35.37 39.74 36.26 42.19 36.26" style="fill:#06545d"/><path d="M255.59,235.92h3.8c0.87,0,1.51,0,1.93,0a4.72,4.72,0,0,1,.91.1,3.09,3.09,0,0,1,.7.28,2.44,2.44,0,0,1,1,1,2.93,2.93,0,0,1,.39,1.47,2.65,2.65,0,0,1-1,2.22,7.33,7.33,0,0,1,1.11,2.1,10.87,10.87,0,0,1,.55,2.59h-3.94v-0.09a7.74,7.74,0,0,0-.48-2.67,1.24,1.24,0,0,0-1.13-.87h0v3.63h-3.79v-9.8Zm3.8,2v1.89h0.1a1.15,1.15,0,0,0,.79-0.22,0.9,0.9,0,0,0,.25-0.7,1,1,0,0,0-.25-0.75,1.18,1.18,0,0,0-.81-0.22h-0.07Z" transform="translate(-212.61 -205.01)" style="fill:#06545d"/><path d="M273.12,236.43l-0.95,3.09a3.45,3.45,0,0,0-1-1.07,2,2,0,0,0-1.14-.39,0.83,0.83,0,0,0-.49.14,0.42,0.42,0,0,0-.19.36,0.55,0.55,0,0,0,.22.46,8,8,0,0,0,1.14.59c0.31,0.14.59,0.27,0.81,0.38a5.19,5.19,0,0,1,.56.33,3.21,3.21,0,0,1,.42.35,2.31,2.31,0,0,1,.55.83,2.8,2.8,0,0,1,.2,1.05q0,3.32-4.15,3.32a10.17,10.17,0,0,1-3.82-.7l-0.09,0,0.93-3.27a3.85,3.85,0,0,0,.6.78,2.9,2.9,0,0,0,.76.57,1.7,1.7,0,0,0,.77.21,0.72,0.72,0,0,0,.47-0.15,0.49,0.49,0,0,0,.18-0.4,0.82,0.82,0,0,0-.57-0.71l-0.89-.44a3.55,3.55,0,0,1-1.47-1.12,2.88,2.88,0,0,1-.43-1.65,2.82,2.82,0,0,1,1.06-2.38,4.88,4.88,0,0,1,3.05-.82,10.16,10.16,0,0,1,2.43.32,6.43,6.43,0,0,1,1,.35" transform="translate(-212.61 -205.01)" style="fill:#06545d"/><path d="M230.37,260.94h-5.48l4.37-14.48H237l4.13,14.48H235.7l-0.7-2.46h-3.93Zm3.66-5.88-1-3.51h0l-1,3.51h2Z" transform="translate(-212.61 -205.01)" style="fill:#06545d"/><path d="M241.2,246.46h5.63q1.94,0,2.85,0a7.42,7.42,0,0,1,1.35.15,4.69,4.69,0,0,1,1,.42,3.57,3.57,0,0,1,1.49,1.48,4.36,4.36,0,0,1,.58,2.17,3.91,3.91,0,0,1-1.46,3.29,10.93,10.93,0,0,1,1.65,3.1,15.74,15.74,0,0,1,.81,3.83H249.3l0-.13a11.44,11.44,0,0,0-.71-3.94,1.83,1.83,0,0,0-1.67-1.29h-0.08v5.36H241.2V246.46Zm5.62,3v2.79H247a1.71,1.71,0,0,0,1.17-.33,1.31,1.31,0,0,0,.37-1,1.45,1.45,0,0,0-.36-1.1,1.79,1.79,0,0,0-1.2-.33h-0.11Z" transform="translate(-212.61 -205.01)" style="fill:#06545d"/><polygon points="43.89 51.34 43.89 45.89 41.98 45.89 41.98 41.55 49.6 41.55 49.6 45.89 47.69 45.89 47.69 51.34 43.89 51.34" style="fill:#06545d"/><path d="M273.61,247.19l-1.36,4.58a5,5,0,0,0-1.41-1.58,2.78,2.78,0,0,0-1.65-.57,1.15,1.15,0,0,0-.7.2,0.64,0.64,0,0,0-.28.54,0.84,0.84,0,0,0,.32.68,11.22,11.22,0,0,0,1.63.87c0.46,0.21.84,0.4,1.16,0.57a6.91,6.91,0,0,1,.81.5,5.17,5.17,0,0,1,.6.51,3.42,3.42,0,0,1,.79,1.23,4.2,4.2,0,0,1,.29,1.56q0,4.9-6,4.9a14.32,14.32,0,0,1-5.49-1l-0.12-.06,1.33-4.84a5.45,5.45,0,0,0,.87,1.16,4.28,4.28,0,0,0,1.09.85,2.32,2.32,0,0,0,1.1.3,1,1,0,0,0,.68-0.23,0.73,0.73,0,0,0,.27-0.59,1.21,1.21,0,0,0-.83-1.05l-1.28-.65a5.16,5.16,0,0,1-2.11-1.66,4.38,4.38,0,0,1-.62-2.45,4.25,4.25,0,0,1,1.53-3.52,6.87,6.87,0,0,1,4.39-1.22,13.29,13.29,0,0,1,1.71.13,13,13,0,0,1,1.78.35,9.37,9.37,0,0,1,1.45.51" transform="translate(-212.61 -205.01)" style="fill:#06545d"/><polygon points="12.54 65.26 12.54 56.64 18.75 56.64 18.75 58.82 15.88 58.82 15.87 60.36 18 60.37 18 62.53 15.88 62.53 15.87 65.26 12.54 65.26" style="fill:#06545d"/><polygon points="23.74 61.38 23.74 62.97 19.14 62.97 19.14 56.67 23.74 56.67 23.74 58.26 21.59 58.26 21.59 59.02 23.08 59.02 23.08 60.61 21.59 60.61 21.59 61.38 23.74 61.38" style="fill:#06545d"/><path d="M243.16,262.09l-0.81,2.72a3,3,0,0,0-.84-0.94,1.63,1.63,0,0,0-1-.34,0.68,0.68,0,0,0-.42.12,0.4,0.4,0,0,0-.17.32,0.5,0.5,0,0,0,.19.4,6.51,6.51,0,0,0,1,.52l0.69,0.34c0.19,0.11.35,0.2,0.48,0.3a3.62,3.62,0,0,1,.36.31,2.06,2.06,0,0,1,.47.73,2.52,2.52,0,0,1,.17.93q0,2.93-3.54,2.92a8.47,8.47,0,0,1-3.26-.62l-0.07,0,0.79-2.89a3.43,3.43,0,0,0,.51.7,2.7,2.7,0,0,0,.65.5,1.39,1.39,0,0,0,.66.18,0.59,0.59,0,0,0,.41-0.14,0.44,0.44,0,0,0,.16-0.35,0.72,0.72,0,0,0-.49-0.63l-0.76-.38a3.08,3.08,0,0,1-1.26-1,2.63,2.63,0,0,1-.37-1.46,2.52,2.52,0,0,1,.91-2.09,4,4,0,0,1,2.61-.73,7.56,7.56,0,0,1,1,.07,7.32,7.32,0,0,1,1.06.21,5.52,5.52,0,0,1,.86.3" transform="translate(-212.61 -205.01)" style="fill:#06545d"/><polygon points="32.48 65.26 32.48 60.46 30.79 60.46 30.79 56.64 37.51 56.64 37.51 60.46 35.82 60.46 35.82 65.26 32.48 65.26" style="fill:#06545d"/><rect x="38.03" y="56.64" width="3.34" height="8.62" style="fill:#06545d"/><polygon points="47.48 65.27 44.23 65.27 41.61 56.65 44.96 56.65 45.81 59.5 45.83 59.5 46.67 56.65 50 56.65 47.48 65.27" style="fill:#06545d"/><path d="M263.28,270.28h-2.49l2-6.31h3.51l1.88,6.31H265.7l-0.32-1.08H263.6Zm1.66-2.56-0.44-1.55h0L264,267.72h0.9Z" transform="translate(-212.61 -205.01)" style="fill:#06545d"/><rect x="36.82" y="38.91" width="5.3" height="1.58" style="fill:#06545d"/><rect x="22.53" y="18.28" width="6.8" height="1.58" style="fill:#06545d"/><rect x="22.53" y="28.32" width="6.8" height="1.58" style="fill:#06545d"/><rect x="19.06" y="63.61" width="4.27" height="1.57" style="fill:#06545d"/><rect x="50.42" y="56.65" width="2.86" height="1.58" style="fill:#06545d"/><path d="M260.34,259a2,2,0,1,1-2-2,2,2,0,0,1,2,2" transform="translate(-212.61 -205.01)" style="fill:#06545d"/><polygon points="61.25 63.1 58.81 63.1 58.81 56.64 55.63 56.64 55.63 65.27 61.25 65.27 61.25 63.1" style="fill:#06545d"/><path d="M277.61,274.11H220.88V221.05h56.73v53.05ZM249.06,205c-26.55-.29-36.45,6.52-36.45,6.52v70.82h73.26V211.55s-10.26-6.24-36.81-6.52" transform="translate(-212.61 -205.01)" style="fill:#06545d"/><path d="M230.95,289c-0.28,0-1.09,0-1.09,0v1.35c0,0.07,0,.08-0.09.08h-1.89c-0.09,0-.09,0-0.09-0.08v-5.87c0-.09,0-0.08.09-0.08h3a2.2,2.2,0,0,1,2.33,2.31,2.11,2.11,0,0,1-2.22,2.25m-0.68-3h-0.41v1.47h0.43a0.74,0.74,0,1,0,0-1.47" transform="translate(-212.61 -205.01)" style="fill:#06545d"/><path d="M236,290.44h-2c-0.09,0-.09,0-0.09-0.08v-5.87c0-.09,0-0.08.09-0.08h2c0.08,0,.09,0,0.09.08v5.87c0,0.07,0,.08-0.09.08" transform="translate(-212.61 -205.01)" style="fill:#06545d"/><path d="M242,286.07l-1.57-.1v4.38c0,0.07,0,.08-0.09.08h-1.93c-0.09,0-.09,0-0.09-0.08V286l-1.62.1c-0.06,0-.06,0-0.06-0.06V284.5c0-.07,0-0.09.07-0.09H242c0.06,0,.07,0,0.07.09V286c0,0.05,0,.06-0.06.06" transform="translate(-212.61 -205.01)" style="fill:#06545d"/><path d="M247.56,286.07L246,286v4.38c0,0.07,0,.08-0.09.08H244c-0.09,0-.09,0-0.09-0.08V286l-1.62.1c-0.06,0-.06,0-0.06-0.06V284.5c0-.07,0-0.09.07-0.09h5.27c0.06,0,.08,0,0.08.09V286c0,0.05,0,.06-0.07.06" transform="translate(-212.61 -205.01)" style="fill:#06545d"/><path d="M250.17,290.65a2.37,2.37,0,0,1-2.38-1.36c-0.05-.14,0-0.14,0-0.17l1.32-.5c0.08,0,.09,0,0.11,0a0.89,0.89,0,0,0,.84.59,0.51,0.51,0,0,0,.62-0.46c0-.3-0.25-0.4-0.77-0.46l-0.22,0a1.77,1.77,0,0,1-1.85-1.8c0-1.39.9-2.28,2.59-2.28,1.24,0,2,.54,2.16,1.31,0,0.11,0,.12-0.06.15l-1.25.46c-0.07,0-.08,0-0.11,0a0.78,0.78,0,0,0-.81-0.51c-0.42,0-.57.18-0.57,0.42s0.23,0.36.89,0.46l0.32,0a1.77,1.77,0,0,1,1.81,1.84c0,1.49-1.18,2.3-2.66,2.3" transform="translate(-212.61 -205.01)" style="fill:#06545d"/><path d="M257.41,290.44H253.7c-0.09,0-.1,0-0.1-0.13V284.5c0-.07,0-0.09.11-0.09h3.44c1.22,0,2,.62,2,1.62A1.38,1.38,0,0,1,258,287.4a1.49,1.49,0,0,1,1.35,1.47,1.64,1.64,0,0,1-1.92,1.57m-1.06-4.72h-0.69v1h0.69a0.46,0.46,0,0,0,.56-0.47,0.47,0.47,0,0,0-.56-0.49m0.14,2.42h-0.84v1h0.84a0.47,0.47,0,0,0,.57-0.5,0.48,0.48,0,0,0-.57-0.49" transform="translate(-212.61 -205.01)" style="fill:#06545d"/><path d="M262.75,290.66a2.5,2.5,0,0,1-2.79-2.44v-3.76c0-.05,0-0.05,0-0.05h2.07c0.06,0,.06,0,0.06.07v3.44a0.75,0.75,0,1,0,1.5,0v-3.45c0-.05,0-0.06.06-0.06h1.93s0,0,0,.06v3.85c0,1.43-1,2.35-2.93,2.35" transform="translate(-212.61 -205.01)" style="fill:#06545d"/><path d="M272.76,290.44h-2.29c-0.08,0-.11,0-0.21-0.18l-0.9-1.54-0.62,0v1.6c0,0.07,0,.08-0.09.08h-1.88c-0.09,0-.09,0-0.09-0.08v-5.87c0-.09,0-0.08.09-0.08H270a2,2,0,0,1,2.22,2,1.6,1.6,0,0,1-.87,1.62l1.48,2.13a0.45,0.45,0,0,1,.11.2s-0.05,0-.13,0m-3.65-4.57h-0.37v1.41h0.38a0.71,0.71,0,1,0,0-1.41" transform="translate(-212.61 -205.01)" style="fill:#06545d"/><path d="M279.09,290.58l-0.1,0-1-.58a2.76,2.76,0,0,1-1.83.66,3.08,3.08,0,0,1-3.23-3.23,3.12,3.12,0,0,1,3.28-3.18A2.88,2.88,0,0,1,279,286c0,0.1,0,.12,0,0.16l-1.66.74a0.1,0.1,0,0,1-.14-0.09,1.17,1.17,0,0,0-1.05-.58,1.11,1.11,0,0,0-1.18,1.17,1.1,1.1,0,0,0,1.22,1.19,1,1,0,0,0,1-.69c0-.06,0-0.08.08-0.08h1.78c0.07,0,.07,0,0.07.06v2.64s0,0-.08,0" transform="translate(-212.61 -205.01)" style="fill:#06545d"/><path d="M285.58,290.44h-1.9c-0.08,0-.09,0-0.09-0.08V288.3H282v2.06c0,0.07,0,.08-0.09.08H280c-0.09,0-.09,0-0.09-0.08v-5.87c0-.09,0-0.08.09-0.08h1.89c0.08,0,.09,0,0.09.08v1.92h1.64v-1.92c0-.07,0-0.08.09-0.08h1.9c0.09,0,.09,0,0.09.08v5.87c0,0.09,0,.08-0.09.08" transform="translate(-212.61 -205.01)" style="fill:#06545d"/><path d="M229.73,296.52a2.3,2.3,0,0,1-2.43-2.4,2.35,2.35,0,0,1,2.45-2.42,2.22,2.22,0,0,1,2.17,1.42c0,0.08,0,.1,0,0.11l-1.3.48s0,0-.06,0a0.79,0.79,0,0,0-.79-0.43,0.82,0.82,0,0,0-.88.9,0.84,0.84,0,0,0,.9.88,0.81,0.81,0,0,0,.76-0.43s0-.06.08,0l1.3,0.4c0.07,0,.08,0,0.06.08a2.41,2.41,0,0,1-2.23,1.51" transform="translate(-212.61 -205.01)" style="fill:#06545d"/><path d="M234.42,296.52a1.87,1.87,0,0,1-2.08-1.83v-2.81s0,0,0,0h1.55s0,0,0,.05v2.58a0.57,0.57,0,1,0,1.12,0v-2.58s0,0,0,0h1.44s0,0,0,0v2.88c0,1.07-.75,1.76-2.19,1.76" transform="translate(-212.61 -205.01)" style="fill:#06545d"/><path d="M240.55,296.35h-3.12c-0.06,0-.06,0-0.06-0.06v-4.4c0-.07,0-0.06.06-0.06h1.42c0.06,0,.07,0,0.07.06v3.22h1.63c0.06,0,.07,0,0.07.07v1.11c0,0.05,0,.06-0.07.06" transform="translate(-212.61 -205.01)" style="fill:#06545d"/><path d="M244.1,293.08l-1.17-.07v3.28c0,0.05,0,.06-0.07.06h-1.44c-0.07,0-.07,0-0.07-0.06V293l-1.21.07s0,0,0,0V291.9s0-.06.05-0.06h4s0.05,0,.05.06V293s0,0,0,0" transform="translate(-212.61 -205.01)" style="fill:#06545d"/><path d="M246.63,296.52a1.87,1.87,0,0,1-2.08-1.83v-2.81s0,0,0,0h1.55s0,0,0,.05v2.58a0.57,0.57,0,1,0,1.12,0v-2.58s0,0,0,0h1.44s0,0,0,0v2.88c0,1.07-.75,1.76-2.19,1.76" transform="translate(-212.61 -205.01)" style="fill:#06545d"/><path d="M254.13,296.35h-1.71c-0.06,0-.09,0-0.16-0.13l-0.68-1.15-0.47,0v1.2c0,0.05,0,.06-0.07.06h-1.4c-0.07,0-.07,0-0.07-0.06v-4.4c0-.07,0-0.06.07-0.06H252a1.48,1.48,0,0,1,1.66,1.52,1.18,1.18,0,0,1-.66,1.21l1.11,1.6a0.32,0.32,0,0,1,.08.15s0,0-.09,0m-2.74-3.42h-0.28V294h0.28a0.54,0.54,0,1,0,0-1.06" transform="translate(-212.61 -205.01)" style="fill:#06545d"/><path d="M259.22,296.35h-1.56a0.09,0.09,0,0,1-.09-0.06l-0.23-.51h-1.55c-0.09.19-.13,0.33-0.21,0.49a0.11,0.11,0,0,1-.13.07h-1.37c-0.05,0-.07,0,0-0.09,0.81-1.46,1.7-3.18,2.4-4.48a0.21,0.21,0,0,1,.16,0,0.28,0.28,0,0,1,.17,0c0.77,1.41,1.64,3,2.47,4.49,0,0.09,0,.09,0,0.09m-2.54-2.22-0.11-.27-0.11.27c-0.12.29-.3,0.67-0.3,0.67H257s-0.16-.4-0.29-0.67" transform="translate(-212.61 -205.01)" style="fill:#06545d"/><path d="M262.68,296.35h-3.12c-0.07,0-.07,0-0.07-0.06v-4.4c0-.07,0-0.06.07-0.06H261c0.06,0,.07,0,0.07.06v3.22h1.63c0.06,0,.07,0,0.07.07v1.11c0,0.05,0,.06-0.07.06" transform="translate(-212.61 -205.01)" style="fill:#06545d"/><path d="M268.16,293.08L267,293v3.28c0,0.05,0,.06-0.06.06h-1.45c-0.06,0-.06,0-0.06-0.06V293l-1.22.07s0,0,0,0V291.9s0-.06.06-0.06h3.95c0.05,0,.05,0,0.05.06V293s0,0-.05,0" transform="translate(-212.61 -205.01)" style="fill:#06545d"/><path d="M273.2,296.35h-1.71c-0.06,0-.08,0-0.16-0.13l-0.67-1.15-0.46,0v1.2c0,0.05,0,.06-0.07.06h-1.4c-0.07,0-.07,0-0.07-0.06v-4.4c0-.07,0-0.06.07-0.06h2.39a1.48,1.48,0,0,1,1.66,1.52,1.19,1.19,0,0,1-.65,1.21l1.1,1.6a0.34,0.34,0,0,1,.08.15s0,0-.09,0m-2.74-3.42h-0.28V294h0.28a0.54,0.54,0,1,0,0-1.06" transform="translate(-212.61 -205.01)" style="fill:#06545d"/><path d="M275.63,296.52a1.87,1.87,0,0,1-2.09-1.83v-2.81s0,0,0,0h1.55s0,0,0,.05v2.58a0.56,0.56,0,1,0,1.12,0v-2.58s0,0,0,0h1.45s0,0,0,0v2.88c0,1.07-.75,1.76-2.19,1.76" transform="translate(-212.61 -205.01)" style="fill:#06545d"/><path d="M280.15,296.52a1.8,1.8,0,0,1-1.79-1c0-.11,0-0.11,0-0.13l1-.37c0.06,0,.07,0,0.08,0a0.66,0.66,0,0,0,.63.44,0.38,0.38,0,0,0,.47-0.34c0-.22-0.19-0.3-0.58-0.35l-0.16,0a1.33,1.33,0,0,1-1.39-1.35,1.67,1.67,0,0,1,1.94-1.7,1.45,1.45,0,0,1,1.62,1c0,0.08,0,.09,0,0.11l-0.94.35s-0.06,0-.08,0a0.58,0.58,0,0,0-.6-0.38c-0.31,0-.43.14-0.43,0.31s0.17,0.27.66,0.34l0.24,0a1.32,1.32,0,0,1,1.35,1.37,1.77,1.77,0,0,1-2,1.73" transform="translate(-212.61 -205.01)" style="fill:#06545d"/><path d="M286.28,293.08l-1.17-.07v3.28c0,0.05,0,.06-0.07.06H283.6c-0.07,0-.07,0-0.07-0.06V293l-1.21.07s0,0,0,0V291.9s0-.06.05-0.06h3.95s0.05,0,.05.06V293s0,0,0,0" transform="translate(-212.61 -205.01)" style="fill:#06545d"/><path d="M225.14,287.26a0.43,0.43,0,0,1,0-.14v-0.07c0-.07,0-0.12.06-0.19v-0.28a1,1,0,0,0,0-.38c0-.1,0-0.21,0-0.31l0-.37a0.78,0.78,0,0,0,0-.12c0-.08,0-0.15,0-0.22a0.31,0.31,0,0,0,0-.14,0.56,0.56,0,0,0-.36-0.06h-0.07l-0.06,0a0.08,0.08,0,0,1,0-.07,0.15,0.15,0,0,1,.12-0.1,0.34,0.34,0,0,0,0-.14,0.45,0.45,0,0,1,0-.11s0-.08,0-0.13a0.36,0.36,0,0,1,0-.2c0-.08-0.09,0-0.17,0s-0.15,0-.24,0h-0.23a0.39,0.39,0,0,1-.22,0,0.32,0.32,0,0,0-.14,0,0.36,0.36,0,0,1-.22.05,0.61,0.61,0,0,0-.41,0,0.67,0.67,0,0,1-.08.1,0.38,0.38,0,0,1-.22-0.08l0,0a0.64,0.64,0,0,0-.35,0,0.31,0.31,0,0,0,0,.18,0.23,0.23,0,0,0,0,0,0.64,0.64,0,0,1,.3,0,0.29,0.29,0,0,1,0,0,0.24,0.24,0,0,1-.32.14h0a0.29,0.29,0,0,1-.16-0.22,0.42,0.42,0,0,0,0-.14,0.22,0.22,0,0,0-.08-0.06,0.26,0.26,0,0,0-.28,0l-0.09,0a0.72,0.72,0,0,1-.09.07,0.13,0.13,0,0,1-.09,0,1.79,1.79,0,0,0-.22-0.12,1.14,1.14,0,0,0-.19,0,0.4,0.4,0,0,0-.14,0l0,0a0.25,0.25,0,0,1-.13,0,1,1,0,0,0-.26,0h0a0.1,0.1,0,0,0,0,.09,0.46,0.46,0,0,0,.31.06,0.44,0.44,0,0,1,.18.19s0,0,0,.07,0.19,0.14.22,0.16a0.21,0.21,0,0,1,.12,0l0.09,0a0.87,0.87,0,0,1,.16,0,0.25,0.25,0,0,1,.07,0,0.51,0.51,0,0,1-.17.26,0.2,0.2,0,0,0,.12.14,0.55,0.55,0,0,1,0,.07,0.21,0.21,0,0,1,0,.07v0.15a0.15,0.15,0,0,0,0,.08,0.76,0.76,0,0,0,.09.13,0.18,0.18,0,0,1,0,.11v0.07a0.38,0.38,0,0,1-.12.16,0.41,0.41,0,0,1-.24-0.12,0.09,0.09,0,0,1,0-.11c0-.17-0.1-0.1-0.2-0.16a0.24,0.24,0,0,1-.07-0.09h0a1.23,1.23,0,0,0-.07.1s0,0.11,0,.16a0.21,0.21,0,0,1-.09.08,0.58,0.58,0,0,1-.11.08,0.3,0.3,0,0,1-.25-0.06,0.18,0.18,0,0,0-.08,0,1,1,0,0,0,0,.19,0.16,0.16,0,0,1-.14.08,0.07,0.07,0,0,1-.06,0,0.26,0.26,0,0,1,0-.13,0.17,0.17,0,0,0,0-.11h0a0.84,0.84,0,0,0-.12.16,0.72,0.72,0,0,1-.19,0,0.23,0.23,0,0,0-.06,0l-0.06,0a0.37,0.37,0,0,0,0,.06,0.7,0.7,0,0,0,.07.23l0,0.11,0,0a0.39,0.39,0,0,1,0,.24L220,287a0.25,0.25,0,0,1-.06.08,0.9,0.9,0,0,0-.17.11,0.63,0.63,0,0,0,0,.1,0.37,0.37,0,0,1-.09.09,0.18,0.18,0,0,1-.13-0.08h0a0.73,0.73,0,0,0-.09.2,0.41,0.41,0,0,1-.1.07l-0.13.14-0.06,0a0.56,0.56,0,0,1,0,.06,0.11,0.11,0,0,0,0,.06,0.4,0.4,0,0,0,.17,0,0.16,0.16,0,0,1,.09,0l0.06,0s0,0.08,0,.12a0.25,0.25,0,0,1-.09.25,0.46,0.46,0,0,0-.16.35,0.16,0.16,0,0,0,.05.06,0.56,0.56,0,0,1,.12,0,0.71,0.71,0,0,1,.07.14,0.2,0.2,0,0,1,0,.17q0,0.16,0,.33c0,0.07,0,.15,0,0.22s0,0.25.08,0.36v0a0.76,0.76,0,0,1,.11.3,1.19,1.19,0,0,1-.12.22,0.58,0.58,0,0,1-.22.38,0.55,0.55,0,0,1-.43-0.06,0.64,0.64,0,0,0-.11-0.17,0.65,0.65,0,0,1-.21-0.1s0-.06,0-0.09a0.26,0.26,0,0,0-.14-0.09c-0.12,0-.14.07-0.17,0.14a0.52,0.52,0,0,1-.14.2,1.81,1.81,0,0,0-.32.05,0.28,0.28,0,0,0-.06.27,0.09,0.09,0,0,0,0,0,0.54,0.54,0,0,1,.23,0l0.09,0.06h0.27l0.06-.06h0a0.26,0.26,0,0,1,0,.17,0.86,0.86,0,0,0,.05.09,0.18,0.18,0,0,1-.06.24v0l0.11,0.1a0.18,0.18,0,0,1,0,.13,0.19,0.19,0,0,0-.11,0,0.41,0.41,0,0,1-.08.08,0.19,0.19,0,0,0-.12,0,0.4,0.4,0,0,1,0,.12l0,0H218s-0.06.05-.11,0.06a0.5,0.5,0,0,1-.18,0,1.45,1.45,0,0,1-.2,0,0.56,0.56,0,0,1-.26-0.29V291.8l0-.1a0.13,0.13,0,0,0-.08,0,0.46,0.46,0,0,0-.16.17,0.88,0.88,0,0,1,0,.23,0.53,0.53,0,0,1-.12.09,0.53,0.53,0,0,0-.06.1,0.4,0.4,0,0,1-.09.07,0.54,0.54,0,0,0,0,.06v0.07a0.37,0.37,0,0,0,.24,0s0.07-.07.12-0.08,0.14,0,.2,0a0.42,0.42,0,0,1,.22,0,0.83,0.83,0,0,1,.25-0.08c0.06,0,.09.06,0.14,0.07a0.78,0.78,0,0,0,.21,0,0.22,0.22,0,0,0,.11,0,0.19,0.19,0,0,1,.11-0.06,1.33,1.33,0,0,1,.15.12s0.09,0,.14,0,0.1,0.06.16,0.08,0.22,0,.32,0a0.29,0.29,0,0,0,.24-0.1,0.78,0.78,0,0,1,.55-0.06,0.49,0.49,0,0,1,.11.17h0a0.31,0.31,0,0,0,0-.12,0.6,0.6,0,0,1,.16-0.12,1.52,1.52,0,0,0,.3,0,0.12,0.12,0,0,0,.06-0.07,0.29,0.29,0,0,1,.06,0,0.79,0.79,0,0,1,.15.18,0.09,0.09,0,0,0,.11,0,0.6,0.6,0,0,1,.19.08,0.29,0.29,0,0,1-.1.25,0.28,0.28,0,0,1-.17-0.08h-0.06a0.42,0.42,0,0,0-.07.22,0.27,0.27,0,0,1,0,.09,0.25,0.25,0,0,1,0,.07,0.22,0.22,0,0,1-.08-0.06,0.36,0.36,0,0,0-.1,0,0.26,0.26,0,0,0-.14,0c-0.07,0-.1.08-0.18,0.09a0.56,0.56,0,0,0-.16,0,0.38,0.38,0,0,0-.11.17,0.49,0.49,0,0,1-.29.17h-0.07a1,1,0,0,1-.23,0,0.82,0.82,0,0,1-.17,0l0,0-0.11-.05a0.46,0.46,0,0,0-.25,0h-0.1a0.26,0.26,0,0,0-.06,0,0.53,0.53,0,0,1-.17.05,0.23,0.23,0,0,1-.17-0.07,0.09,0.09,0,0,0-.1,0l0,0a0.34,0.34,0,0,0,.1.24,0.36,0.36,0,0,0,.05.09l0.11,0,0.09,0.1,0.05,0a0.14,0.14,0,0,0,0,0s0.12,0,.16,0a0.32,0.32,0,0,1,.11.31,1,1,0,0,1-.09.21,1.79,1.79,0,0,1-.21.2h-0.12c-0.05,0-.07.08-0.12,0.1a0.19,0.19,0,0,1-.14,0H218s-0.07,0-.11.07a0.85,0.85,0,0,0-.17.22,0.74,0.74,0,0,0-.14,0,0.11,0.11,0,0,0,0,.08,0.07,0.07,0,0,1,0,0c-0.12,0-.09-0.15-0.14-0.22a0.17,0.17,0,0,1,0-.07,0.33,0.33,0,0,1,.13.06,0.09,0.09,0,0,0,.07,0,0.25,0.25,0,0,0-.18-0.2,0.11,0.11,0,0,0-.09.07c-0.06,0-.1-0.06-0.17-0.06a0.4,0.4,0,0,1-.15,0,0.24,0.24,0,0,1-.16-0.19v-0.07a0.09,0.09,0,0,0-.11,0h-0.06a0.08,0.08,0,0,1,0-.07c0-.07-0.07-0.06-0.11-0.09a0.52,0.52,0,0,1-.13-0.19h-0.07l0,0a0.3,0.3,0,0,0,0,.17l0.12,0v0a0.11,0.11,0,0,1-.08.1,0.1,0.1,0,0,1-.11,0,0.46,0.46,0,0,1-.12-0.12,0.33,0.33,0,0,0-.06-0.09,0.52,0.52,0,0,0-.22,0l0,0a2.32,2.32,0,0,0,0-.24,0.11,0.11,0,0,0-.06,0,0.39,0.39,0,0,0-.17.08l-0.12,0c0,0.07.06,0.06,0.1,0.09a1.43,1.43,0,0,0,.34.23c0.05,0,.21,0,0.16.13a0.3,0.3,0,0,1-.14,0s-0.07,0-.12.06l-0.2,0a0.46,0.46,0,0,0-.17,0h0a0.26,0.26,0,0,1,0,.12h0a1.32,1.32,0,0,0-.16-0.06,0.59,0.59,0,0,0-.11.14c-0.09,0-.12-0.09-0.23-0.07l-0.14,0h-0.12a0.75,0.75,0,0,1-.22,0,0.38,0.38,0,0,1-.14,0h0a0.37,0.37,0,0,1,.25-0.19,2.71,2.71,0,0,1,.29-0.17c0.06,0,.13,0,0.19-0.07l0.06-.06a0.59,0.59,0,0,0,.14-0.17,0.2,0.2,0,0,0,.13,0l0,0a1.94,1.94,0,0,1,0-.71,0.13,0.13,0,0,0,0-.16l-0.07,0a1,1,0,0,1,0,.24,1,1,0,0,1-.09.08,0.5,0.5,0,0,0-.06.12c0,0.09.06,0.09,0.1,0.12a0.17,0.17,0,0,1,0,.14,0.12,0.12,0,0,1,0,.07v0a0.18,0.18,0,0,1-.1-0.08,0.49,0.49,0,0,1-.15-0.11h0a0.08,0.08,0,0,0,0,0,0.33,0.33,0,0,0,.07.16,0.15,0.15,0,0,1-.17.16,0.27,0.27,0,0,0-.19,0,0.43,0.43,0,0,0-.08.13,0.32,0.32,0,0,1-.09.07,0.74,0.74,0,0,1-.19.17h-0.07a0.09,0.09,0,0,1,0,0,0.27,0.27,0,0,1,.1-0.17l0-.09a0.1,0.1,0,0,0,0-.12c0-.11.1-0.08,0.14-0.14a1.06,1.06,0,0,0,.07-0.19c0-.06.08-0.11,0.11-0.17s0-.06,0-0.08v0c-0.12,0-.21.18-0.26,0.26l-0.12,0a1.11,1.11,0,0,1,0,.19,0.44,0.44,0,0,1,0,.05,0.55,0.55,0,0,1,0,.11,1.13,1.13,0,0,1-.23.09,0.36,0.36,0,0,0-.1.13c0,0.11,0,.2-0.1.24s-0.11,0-.17,0-0.11,0-.16.06a1.08,1.08,0,0,0-.24,0,0.07,0.07,0,0,0,.11.06,2.88,2.88,0,0,1,.49,0c0.07,0,.23,0,0.16.1s-0.25,0-.39,0a0.17,0.17,0,0,0-.06,0,0.31,0.31,0,0,1-.13.07c-0.07,0-.17,0-0.21,0h0a1.82,1.82,0,0,1,0,.2,0.89,0.89,0,0,1-.19.25h0a0.23,0.23,0,0,1,0-.18,0.07,0.07,0,0,0,0-.07h0a0.12,0.12,0,0,0-.06.09s0,0-.06.07a0.42,0.42,0,0,0,.05.29,0.08,0.08,0,0,0,.09-0.06h0a0.35,0.35,0,0,1,0,.16,0.16,0.16,0,0,0,0,.1,0.07,0.07,0,0,0,0,0h0.3a0.23,0.23,0,0,1,.13,0,0.21,0.21,0,0,1,.07.11,0.27,0.27,0,0,0,.21,0,0.78,0.78,0,0,0,.34,0,0.43,0.43,0,0,1,.19,0l0.24,0.07a0.81,0.81,0,0,0,.31-0.05H215c0.09,0,.19,0,0.27,0a0.58,0.58,0,0,1,.25,0c0.09,0,.16,0,0.24,0a0.56,0.56,0,0,0,.2,0h0.19a1.53,1.53,0,0,1,.44,0,3.42,3.42,0,0,0,.34,0,1.35,1.35,0,0,0,.17,0,0.18,0.18,0,0,1,.2,0,0.25,0.25,0,0,0,.15-0.12h0a1.45,1.45,0,0,1,.15.21,1,1,0,0,0,.47-0.07,0.94,0.94,0,0,1,.26,0,3.23,3.23,0,0,1,.56,0h0.12a0.79,0.79,0,0,0,.3,0h0a0.16,0.16,0,0,1,0-.12,0.56,0.56,0,0,1,.27-0.12,0.13,0.13,0,0,1,0,0,0.55,0.55,0,0,1,0,.16c0,0.08.13,0,.22,0a0.4,0.4,0,0,0,.18,0h0.14a1.1,1.1,0,0,0,.38,0,0.56,0.56,0,0,0,.13-0.11l0,0h0a0.17,0.17,0,0,1,.07.11l0.06,0h0.18a1.78,1.78,0,0,0,.33,0h0.09a0.83,0.83,0,0,1,.28,0,0.41,0.41,0,0,0,.2,0,0.35,0.35,0,0,1,.16,0l0.09,0a0.57,0.57,0,0,0,.2,0c0.06,0,.14,0,0.19,0a0.33,0.33,0,0,1,.14,0,0.47,0.47,0,0,0,.22,0c0.08,0,.19,0,0.27,0h0.21a2,2,0,0,0,.4,0h0.07a0.35,0.35,0,0,0,.13,0,1.06,1.06,0,0,1,.23,0,0.51,0.51,0,0,0,.19,0h0.32a1,1,0,0,0,.35,0,0.22,0.22,0,0,0,0-.18,1,1,0,0,0,0-.24,0.91,0.91,0,0,1,0-.23,0.51,0.51,0,0,0,0-.15,1.06,1.06,0,0,1,0-.37l0-.21c0-.07,0-0.13,0-0.2a0.57,0.57,0,0,0,0-.12c0-.11,0-0.21,0-0.31s0-.14,0-0.2a0.61,0.61,0,0,0,0-.22,0.35,0.35,0,0,1,0-.15,1.23,1.23,0,0,0,0-.33v-0.12a1,1,0,0,0,0-.3v-0.13a1.78,1.78,0,0,1,0-.32,2.3,2.3,0,0,0,0-.26,1.59,1.59,0,0,0,0-.35v-0.1a1.86,1.86,0,0,1,0-.43,1.53,1.53,0,0,0,0-.35s0-.07,0-0.11a0.31,0.31,0,0,0,0-.08,0.26,0.26,0,0,1-.11-0.22l0.11-.12a0.5,0.5,0,0,0,0-.13,2.7,2.7,0,0,0,0-.43,1,1,0,0,0,0-.27c0-.06-0.05-0.12-0.07-0.17a0.32,0.32,0,0,1,0-.2s0-.07,0-0.1,0-.08,0-0.11a1.46,1.46,0,0,0,0-.34v-0.08a2.65,2.65,0,0,1,0-.33,0.67,0.67,0,0,0,0-.12,1.26,1.26,0,0,1,0-.34s0-.08,0-0.12a0.53,0.53,0,0,0-.05-0.3m-5.91,4.82a0.38,0.38,0,0,1-.05.07,0.35,0.35,0,0,1-.25,0,0.19,0.19,0,0,1-.15,0,0.39,0.39,0,0,1,.09-0.17,0.32,0.32,0,0,0-.06-0.2,0.08,0.08,0,0,1,0,0s0.11,0,.16,0a0.49,0.49,0,0,0,.06-0.22,0.19,0.19,0,0,1,.11-0.08l0.07,0a1.76,1.76,0,0,0,0,.37s0,0,0,.07,0,0.15,0,.22m-5.42,3.39v0.09a0.19,0.19,0,0,1-.25.1,0.22,0.22,0,0,1-.09,0,0.12,0.12,0,0,1,0,0,0.07,0.07,0,0,1,0,0,0.71,0.71,0,0,1,.21-0.08,0.62,0.62,0,0,1,0-.19l0,0a0.12,0.12,0,0,1,.07,0,0.43,0.43,0,0,1,0,.19m0.29-.11a0,0,0,0,1,0-.07,0.1,0.1,0,0,1,.06,0c0,0.07,0,.05-0.08,0m0.68,0.56,0,0a0.06,0.06,0,0,1-.06,0,0,0,0,0,1,0,0l0,0h0s0,0,0,0m0.09-.41a0.07,0.07,0,0,1-.06,0,0.18,0.18,0,0,1-.17-0.06,0,0,0,0,0,0,0,0.16,0.16,0,0,1,.06-0.1h0.09a0.11,0.11,0,0,1,.08.16m0.27-.35-0.07,0h0a0.2,0.2,0,0,1,0-.07l0.07,0a0.21,0.21,0,0,1,.15.06h0a0.13,0.13,0,0,1-.16.09m0.85,0.4a0.13,0.13,0,0,1-.16,0,0.11,0.11,0,0,1-.09,0v0a0.17,0.17,0,0,1,.09-0.19h0c0.11,0,.12,0,0.15.14a0.1,0.1,0,0,1,0,.06m-0.08-.72v-0.06a1.84,1.84,0,0,1,.2-0.14,0.21,0.21,0,0,1,.11,0h0a0.19,0.19,0,0,1-.32.15m0.88,0.33a0,0,0,0,1-.05-0.05l0,0,0,0,0,0a0.08,0.08,0,0,1,0,.07m0.27,0.4s0,0,0,.08a0.14,0.14,0,0,1-.18.1,0.24,0.24,0,0,1,0-.13,0.17,0.17,0,0,0,0-.09,0.14,0.14,0,0,1,0-.09,0.11,0.11,0,0,1,0-.06h0a0.2,0.2,0,0,1,.12,0,0.13,0.13,0,0,1,.06.06,0.4,0.4,0,0,1,0,.12m1,0c0,0.11-.3,0-0.37,0a0.17,0.17,0,0,1,0-.1,0.6,0.6,0,0,1,.14-0.09l0.08,0a0.25,0.25,0,0,1,.14.06,0.2,0.2,0,0,1,0,.15m0.28,0.06h0a0.12,0.12,0,0,1-.08,0,0.43,0.43,0,0,1,0-.11l0,0a0.16,0.16,0,0,1,.11,0,0.26,0.26,0,0,1,0,.14m0.85-1.69,0.07,0h0.05l0,0a0.12,0.12,0,0,1,0,.11,0.09,0.09,0,0,1-.07,0,0.14,0.14,0,0,1-.13,0h0l0.07-.08m-0.29,1.73-0.05,0c-0.24,0-.14-0.26,0-0.32s0.08,0,.11,0a0.2,0.2,0,0,1,.2.07v0.06l0,0-0.12.06a0.34,0.34,0,0,0-.06.09m0.25,0.16a0.09,0.09,0,0,1-.09,0,0.2,0.2,0,0,1-.07-0.19l0,0,0,0h0a0.09,0.09,0,0,1,.07,0,0.17,0.17,0,0,1,0,.25m0.4-1.57c-0.08.11-.16,0-0.16,0.25a0.45,0.45,0,0,0,.14.06,0.07,0.07,0,0,1,0,.05,0.27,0.27,0,0,1-.12.06h0l0.06,0a0.26,0.26,0,0,0,0,.12,0.14,0.14,0,0,1-.19.09,0.38,0.38,0,0,1-.16-0.1,0.5,0.5,0,0,1-.06-0.32l0,0a0.46,0.46,0,0,0,0-.17l0,0a0.34,0.34,0,0,1-.22-0.11,0.09,0.09,0,0,1,0,0,0.62,0.62,0,0,1,.17.06h0.09l0.07,0a0.17,0.17,0,0,0,.11,0,0.09,0.09,0,0,0,0-.07,0.46,0.46,0,0,0,.12,0c0.08,0,.07,0,0,0.09m0.12-.56h0l0,0c0,0.06-.07,0-0.1,0a0.06,0.06,0,0,1,0,0m-0.05,1.22h0a0.1,0.1,0,0,1,0-.07,0.47,0.47,0,0,1,.18.06,0.11,0.11,0,0,1,0,0,0.24,0.24,0,0,1-.2,0m0.13,1.1a0.07,0.07,0,0,1,0,0h0.06c0.06,0,0,.1-0.07,0m0.38-1.73,0.05,0h0.06a0.14,0.14,0,0,1,0,.16,0.12,0.12,0,0,1-.14.06h0a0.33,0.33,0,0,1,0-.21m-0.24-.32a0.06,0.06,0,0,1,0,0h0a0.1,0.1,0,0,1,.06,0,0.18,0.18,0,0,1,0,.14h-0.06a0.22,0.22,0,0,1,0-.15m0.31,1.64h-0.12s-0.08.1-.15,0.06l-0.05,0a0.2,0.2,0,0,1,.16-0.25,0.84,0.84,0,0,0,.13,0,0.19,0.19,0,0,1,.11,0,0.32,0.32,0,0,1,0,.11,0.37,0.37,0,0,1-.1.11m0.17-2.34a0.07,0.07,0,0,1,0,0c-0.07,0-.22,0-0.18-0.09a0.13,0.13,0,0,1,.06,0,0.22,0.22,0,0,1,.13,0,0.05,0.05,0,0,1,0,0m4.36-6.49a0.5,0.5,0,0,0,0,0,0.22,0.22,0,0,1-.34.14,0.32,0.32,0,0,1,0-.06c0-.19.1-0.14,0.2-0.21a0.16,0.16,0,0,1,.16.07m0.09,7.07h0a0.06,0.06,0,0,1-.06,0,0.14,0.14,0,0,1,0-.09l0,0h0l0,0a0.29,0.29,0,0,1,0,.09l0,0m0,1.53a0.07,0.07,0,0,1,0,0h0s0,0,0,0a0.06,0.06,0,0,1,0,0l0,0m0-5.13,0,0h-0.06a0,0,0,0,1,0,0c-0.05-.08.07-0.17,0.11-0.21h0c0.08,0,0,.19,0,0.22m-0.17,1.66c-0.17,0-.36-0.06-0.26-0.25a0.24,0.24,0,0,1,.09-0.09h0a0.22,0.22,0,0,1,.16,0,0.39,0.39,0,0,1,0,.31m0,0.5,0,0a0.12,0.12,0,0,1-.08,0,0.08,0.08,0,0,1,0-.12c0.05,0,.12.07,0.08,0.12m-1.21-.46,0,0a0.15,0.15,0,0,1,.06-0.15,0.31,0.31,0,0,1,.15,0,0.05,0.05,0,0,1,0,.06,0.24,0.24,0,0,1-.18.09m0.16,0.86a0.07,0.07,0,0,1,0,0h-0.06l0-.06v0l0,0,0.1,0.06m-0.2-1.82a0.07,0.07,0,0,1,0-.05v0h0a0.29,0.29,0,0,1,.11,0h0a0.08,0.08,0,0,1,0,0h-0.1l0,0m0.09-.35-0.1.12h0a0.13,0.13,0,0,1,0-.15,1.11,1.11,0,0,1,.28-0.19h0a0.23,0.23,0,0,1-.17.21m-1.4.58a0.13,0.13,0,0,1,0,.05,0.44,0.44,0,0,1-.07.12s0,0.05,0,.07l0,0a0.11,0.11,0,0,1-.08,0l0,0s0-.13,0-0.14a0.13,0.13,0,0,0,0-.07,0.32,0.32,0,0,0-.14.19,0.55,0.55,0,0,1-.13.15l-0.07,0a0.69,0.69,0,0,0-.14.2h0a0.27,0.27,0,0,1,0-.19l0-.06s0-.09,0-0.13a0.52,0.52,0,0,1,0-.16l0.11-.08c0-.09,0-0.09,0-0.18s0.13-.1.19-0.15h0a0.84,0.84,0,0,0,0,.17v0a0.11,0.11,0,0,0,.07,0,0.41,0.41,0,0,0,.11-0.25h0a0.16,0.16,0,0,0,0,.11l0,0a0.21,0.21,0,0,0,.17-0.11,0.85,0.85,0,0,0,0-.11l0,0h0a0.22,0.22,0,0,1,.17.11,0.47,0.47,0,0,1-.11.28,0.48,0.48,0,0,1-.12,0l-0.06,0a0.22,0.22,0,0,0,0,.1m-0.65,3a0.56,0.56,0,0,0,.14,0l0.06,0,0,0a0.22,0.22,0,0,1-.14.14c-0.09,0-.06,0-0.1-0.09a0.25,0.25,0,0,1,0-.07m0-1.57h0c0.07,0,.11,0,0.11.09a0.14,0.14,0,0,1-.14,0c-0.05,0,0-.08,0-0.11m0.22,0.94a0.06,0.06,0,0,1,0,0c0-.08,0-0.09,0-0.14h0l0,0a0.46,0.46,0,0,1,0,.14l-0.05,0h0m0.05-1.44h0a0.68,0.68,0,0,0,.15-0.15h0l0,0c0,0.12,0,.11-0.1.15a0.09,0.09,0,0,1-.07,0m0.08-.28h0a0.43,0.43,0,0,1,.24-0.24h0v0a0.29,0.29,0,0,1-.08.06l-0.16.14m0.17,2.23a0.11,0.11,0,0,1,.09,0,0.54,0.54,0,0,1,0,.09c-0.05.05,0,0-.11,0a0.28,0.28,0,0,1,0-.09l0,0m-0.91-3.2a0.27,0.27,0,0,1-.06.09h0a0,0,0,0,1,0,0,0.59,0.59,0,0,1,0-.24,0.2,0.2,0,0,1,.09-0.08h0l0,0v0a0.12,0.12,0,0,1-.09.09s0,0.07,0,.09m-0.19-.58a0.09,0.09,0,0,1,0-.06h0a0.11,0.11,0,0,1,0,.07,0.09,0.09,0,0,1,0,.06c-0.06,0-.06,0-0.08-0.07m0.36-.42a0.15,0.15,0,0,1,.12.07,2.18,2.18,0,0,1,0,.29l0,0a0.3,0.3,0,0,0,.19-0.06,0.66,0.66,0,0,1,0-.14,0.09,0.09,0,0,1,.07,0,0.45,0.45,0,0,1-.12.42h-0.1a0.36,0.36,0,0,1-.15,0,0.44,0.44,0,0,1-.11-0.22,0.27,0.27,0,0,0,0-.14,0.18,0.18,0,0,0-.08-0.09l0,0a0.3,0.3,0,0,1,.12-0.19m0-.34a0.1,0.1,0,0,1,0-.05,0.22,0.22,0,0,1,.09-0.07h0a0.07,0.07,0,0,1,0,.06,0.17,0.17,0,0,1-.07.07h-0.06m1.83-1.93a0.32,0.32,0,0,1,.17,0,0,0,0,0,1,0,0,0.23,0.23,0,0,1-.17.07l0,0a0.15,0.15,0,0,1,0-.13h0m0-.19a0.07,0.07,0,0,1,0,0h0l0,0v0h0m0,1.24a0.69,0.69,0,0,1,.09.09l0.11,0h0a0.52,0.52,0,0,1,0,.1,0.26,0.26,0,0,1-.07.21,0.89,0.89,0,0,0-.26.12s0,0.09,0,.12a0.4,0.4,0,0,1-.3.1,0.35,0.35,0,0,1,0-.1l0,0a0.64,0.64,0,0,0,.1,0,0.26,0.26,0,0,0,0-.15s0-.05,0-0.08a0.35,0.35,0,0,0,0-.15,1,1,0,0,1,.11-0.11l0.09-.05h0Zm-0.24,2.19s0.11,0,.15,0a0.25,0.25,0,0,1,.14,0,0.29,0.29,0,0,1,0,.08,1.31,1.31,0,0,1-.28.24,0.46,0.46,0,0,0-.24.13h0a0.09,0.09,0,0,1,0,0,0.27,0.27,0,0,1,.12-0.2,0.73,0.73,0,0,1,.15-0.17m0-.52h0.06a0.15,0.15,0,0,1,.06.07,0.36,0.36,0,0,1-.14.24h0a0.06,0.06,0,0,1-.06-0.05,0.3,0.3,0,0,1,.1-0.26M223,290.6c0-.05,0-0.09,0-0.12l0-.11a0.73,0.73,0,0,1,.12-0.17h0l0,0c0,0.07,0,.12-0.06.19a0.77,0.77,0,0,1,0,.2,0.1,0.1,0,0,1,0,.06,0.15,0.15,0,0,1-.14-0.09m0.1-.65h0a0.2,0.2,0,0,1,0,.15h0a0.14,0.14,0,0,1,0-.14m0.06-.43H223a0.21,0.21,0,0,1-.14,0v0l0,0a0.45,0.45,0,0,0,.08,0,0.19,0.19,0,0,0,0,0l0.06-.07c0.07,0,0,.06.08,0.09a0.42,0.42,0,0,1,.08,0,0,0,0,0,1,0,0,0.12,0.12,0,0,1-.09.09m-0.59-.35a0.11,0.11,0,0,1,0-.06l0,0h0.05a0,0,0,0,1,0,0,0.12,0.12,0,0,1-.08.07l0,0M223,288.1a0.12,0.12,0,0,1,0,0h0s0-.08,0-0.1h0l0,0a0.07,0.07,0,0,1,0,0m0-1.55,0,0c-0.08,0-.25-0.12-0.21-0.2a0.17,0.17,0,0,1,.06,0,0.32,0.32,0,0,1,.2.17,0.06,0.06,0,0,1,0,0m-0.19,1h0a0.43,0.43,0,0,1,.09.2l0,0a0.09,0.09,0,0,1,0,.08,0.26,0.26,0,0,1-.11.09,0.14,0.14,0,0,0,0,.09,0.25,0.25,0,0,1-.16.19,0.05,0.05,0,0,1-.06,0c0-.05,0-0.12,0-0.17a0.86,0.86,0,0,1-.07-0.07,0.18,0.18,0,0,1,0-.14s0-.06,0-0.09a0.63,0.63,0,0,1,.19-0.19m-0.23,0h0a0.07,0.07,0,0,1,0-.06h0l0,0s0,0-.05.06m0,1.38a0.41,0.41,0,0,1-.18.16l0,0a0.92,0.92,0,0,1,0-.32,0.24,0.24,0,0,1,.13,0c0.07,0,.08.08,0.07,0.15m-0.16.44,0,0a0.6,0.6,0,0,0,0,.28,1,1,0,0,0,.12.07s0,0.08,0,.11l0,0a0.17,0.17,0,0,0,.11-0.11,0.34,0.34,0,0,1,.18,0,0.14,0.14,0,0,1-.07.11,0.51,0.51,0,0,0-.06.1,0.66,0.66,0,0,1,0,.14,0.14,0.14,0,0,1-.1,0s-0.06,0-.1-0.06a0.29,0.29,0,0,0-.13,0h-0.14a0.1,0.1,0,0,1-.06-0.06,0.21,0.21,0,0,1,.11-0.17c0-.09-0.12-0.07-0.16,0a0.09,0.09,0,0,1-.06,0,0.64,0.64,0,0,1,0-.21,0.53,0.53,0,0,1,0-.11,0.25,0.25,0,0,1,.11-0.19h0l0.09,0m0.11,1.07h0l0,0a0.24,0.24,0,0,1,0-.06l0.06-.07h0s0,0.1,0,.13m-0.41.14a0.37,0.37,0,0,1,.07-0.17l0,0a0.26,0.26,0,0,1,0-.06l0.05,0h0l0,0h0a0.22,0.22,0,0,1-.11.17,1.83,1.83,0,0,1-.07.17l0,0h0a0.14,0.14,0,0,1,0-.11m-0.07-.22a0.37,0.37,0,0,1,0,.12l-0.06,0a0.09,0.09,0,0,1-.06,0,0.36,0.36,0,0,1,.17-0.31h0a0.23,0.23,0,0,1,0,.16m0.13-1.17s0,0.07,0,.11l-0.07.07a1.39,1.39,0,0,1-.17,0v0a0.39,0.39,0,0,1,.24-0.25,0.08,0.08,0,0,1,.08,0,0.25,0.25,0,0,1-.06.1m-0.22.42s0,0.06-.05.09a0.21,0.21,0,0,0,0,.15,0.19,0.19,0,0,1-.09.17,0.29,0.29,0,0,0-.19,0h0a0.33,0.33,0,0,1,0,.06c0,0.13-.18-0.06-0.1-0.15a0.17,0.17,0,0,1,.1-0.07c0-.06,0-0.12,0-0.19a0.71,0.71,0,0,1,.17-0.24,0.15,0.15,0,0,1,.15.19m-0.32-.27a0.11,0.11,0,0,1-.16,0,0.07,0.07,0,0,1,0,0,0.11,0.11,0,0,1,0-.08h0a0.18,0.18,0,0,1,.14,0,0.09,0.09,0,0,1,0,.08m-0.52,2a2.39,2.39,0,0,0,.1-0.29h0a1.87,1.87,0,0,0,0,.23,0.31,0.31,0,0,1,0,.25h0l0,0a0.11,0.11,0,0,1-.08,0,0.14,0.14,0,0,1,0-.12m0.2,1a0.22,0.22,0,0,1,.12,0,0.16,0.16,0,0,1,0,.19,0.29,0.29,0,0,1-.19,0l0,0a0.3,0.3,0,0,1,.14-0.16m0.89-.6a0.24,0.24,0,0,1,.16-0.15,0.07,0.07,0,0,1,0,0v0l-0.07.06s0,0.13-.12.09a0.08,0.08,0,0,1,0-.07m0,2.68a0.08,0.08,0,0,1,0-.06h0a0.08,0.08,0,1,1,.07.15,0.1,0.1,0,0,1-.08,0,0,0,0,0,1,0,0,0.15,0.15,0,0,1,0-.06m0.12-1.77a0.08,0.08,0,0,1-.08,0,0.14,0.14,0,0,1,0-.15l0,0,0.14,0a0.11,0.11,0,0,1,.08,0,0.22,0.22,0,0,1-.13.18m0.22,0.54,0.06,0a0.1,0.1,0,0,1,0,.07h-0.12l0,0h0c0-.08.06,0,0.11-0.07m0-1.45h0a0.14,0.14,0,0,1,.1-0.11,0.9,0.9,0,0,0,.21-0.18h0a0.31,0.31,0,0,1-.26.28h0m0.35,0.45a0,0,0,0,1,0,0,1.31,1.31,0,0,0-.09-0.12,0.07,0.07,0,0,1,0-.06,0.19,0.19,0,0,1,.12.12m-0.27,1.26a0.2,0.2,0,0,1,.07,0,0.62,0.62,0,0,0,.2,0,0.18,0.18,0,0,1,.14.05v0l0,0a1.13,1.13,0,0,1-.32,0,0.22,0.22,0,0,1-.08,0l0,0s0,0,0,0m0.32-1.75h0a0.56,0.56,0,0,1,.12-0.07,0.44,0.44,0,0,1,.12.17,0.08,0.08,0,0,1-.12.06l-0.12-.14m0.31,1.06a0.05,0.05,0,0,1,0,0,0.1,0.1,0,0,1,0,.06,0.36,0.36,0,0,1-.18.23h0a0.44,0.44,0,0,1,.17-0.32m0-2.4a0.33,0.33,0,0,1,.18-0.29h0v0.07a1.15,1.15,0,0,0-.19.22h0m1.21-1.7a0.24,0.24,0,0,1,.19.15v0.1a0.19,0.19,0,0,1-.29.22s0-.12,0-0.18l0,0a0.23,0.23,0,0,1,0-.19,0.29,0.29,0,0,1,.11-0.06m-0.06-.81,0.06-.07h0l0.09,0a0.25,0.25,0,0,1,.06.09,0.56,0.56,0,0,1,0,.24,0.14,0.14,0,0,1-.06.06,0.12,0.12,0,0,1-.09,0,0.31,0.31,0,0,1-.05-0.3m0.26,2.09a0.29,0.29,0,0,1-.16.14,0.15,0.15,0,0,1-.11,0,0.26,0.26,0,0,1,0-.33h0a0.16,0.16,0,0,1,.19.13,0.19,0.19,0,0,1,0,.11M224.41,288a0.07,0.07,0,0,1-.07,0,0.27,0.27,0,0,1-.08-0.26l0,0h0l0,0a0.24,0.24,0,0,1,0,.23m-0.05-2a0.1,0.1,0,0,1,0-.08,0.28,0.28,0,0,1,.1-0.06,0.13,0.13,0,0,1,.16.07,0.1,0.1,0,0,1,0,.09,0.21,0.21,0,0,1-.09.07,0.18,0.18,0,0,1-.18-0.09m-0.12-.91a0.3,0.3,0,0,1-.11,0h0a0.2,0.2,0,0,1,.15-0.17,0.29,0.29,0,0,0,0-.07l0.07-.06c0.08,0,0,.07.06,0.13a0.25,0.25,0,0,1,0,.12,0.22,0.22,0,0,1-.21.08m0,0.19c0,0.16-.35.19-0.39,0.06a0.09,0.09,0,0,1,0-.06,0.16,0.16,0,0,1,.14-0.14,0.31,0.31,0,0,1,.27.15m-0.22,4.8a0.19,0.19,0,0,1-.13,0,0.19,0.19,0,0,1-.11,0c0-.1.06-0.08,0.12-0.11l0,0,0.06,0a0.18,0.18,0,0,1,.1,0,0.19,0.19,0,0,1-.09.19m0.13,1.89a0.11,0.11,0,0,1,0,.09l-0.06,0a0.15,0.15,0,0,1-.11,0v0a0.17,0.17,0,0,1,.08-0.13h0.09a0.74,0.74,0,0,1,0,.1m-0.27-5.16c0,0.11-.09.1-0.18,0.14l-0.14.1a0.07,0.07,0,0,1-.07,0,0.09,0.09,0,0,0-.07,0,0.15,0.15,0,0,0,0,.11,0.1,0.1,0,0,1,0,0,0.2,0.2,0,0,1-.05-0.24,0.38,0.38,0,0,1,.2-0.11l0,0h0.05l0.11,0a0.18,0.18,0,0,1,.13,0m-0.41,2.5,0-.06a0.08,0.08,0,0,1,0,0,0.65,0.65,0,0,0,.19-0.05,0,0,0,0,1,0,.07,0.25,0.25,0,0,1-.21.08m0.15-.67a0.27,0.27,0,0,1,0-.11h0c0.06,0,.19.05,0.14,0.13a0.07,0.07,0,0,1,0,0,0.16,0.16,0,0,1-.12,0m0.19,4.08h0l0,0a0.07,0.07,0,0,1,0,.07h-0.06a0.08,0.08,0,0,1,0-.06m0-.24,0,0,0-.06a0.59,0.59,0,0,0,.09-0.07h0l0.09,0a0.13,0.13,0,0,1-.06.16,0.24,0.24,0,0,1-.11,0h-0.06m0.19,0.33s0.12,0.08.08,0.13a0.11,0.11,0,0,1,0,.06,0.15,0.15,0,0,1-.15-0.06,0.16,0.16,0,0,1,.1-0.13m0.06,1.62,0.05-.06a0.09,0.09,0,0,1,.09.12l-0.06,0h0a0.1,0.1,0,0,1,0-.1m0.11-7.26a0.14,0.14,0,0,1-.13,0,0.22,0.22,0,0,1,.06-0.22h0a0.12,0.12,0,0,1,.06,0,0.26,0.26,0,0,1,0,.21m0-.35c-0.08-.08,0-0.13,0-0.21h0.06a0.06,0.06,0,0,1,.06,0c0.06,0.08,0,.15-0.12.15m0.06,1.92,0,0h0a0.13,0.13,0,0,1,0,.15h-0.06a0.14,0.14,0,0,1,0-.14m0.08,1.78h0a0.08,0.08,0,0,1,.05,0,0.12,0.12,0,0,1,0,.07h0a0.07,0.07,0,0,1-.07,0,0.11,0.11,0,0,1,0-.07m0,0.27v0a0.06,0.06,0,0,1,.07,0,0.16,0.16,0,0,1,0,.07l0,0h0l0,0a0.14,0.14,0,0,1,0-.11m0.15,0.37h0.06a0.14,0.14,0,0,1,.06.16,0.16,0.16,0,0,1-.07.06,0.05,0.05,0,0,1-.06,0,0.15,0.15,0,0,1,0-.22m0-.4a0.15,0.15,0,0,1,0-.09,0.84,0.84,0,0,1,.09-0.17l0,0a0.26,0.26,0,0,1,.19.24,0.21,0.21,0,0,1,0,.11,0.2,0.2,0,0,1,0,.06,0.23,0.23,0,0,1-.27-0.14m0.36-2.57s-0.08,0-.1,0a0.17,0.17,0,0,1,0-.18,0.1,0.1,0,0,1,.09,0,0.24,0.24,0,0,1,0,.14m-0.13-3.13a0.66,0.66,0,0,1,0,.24,0.49,0.49,0,0,0,0,.06v0.09a0.21,0.21,0,0,1,0,.06h0a0.11,0.11,0,0,1-.13-0.09v-0.06a0.37,0.37,0,0,0-.05-0.08,0.44,0.44,0,0,1,.2-0.28,0.1,0.1,0,0,1,.12.06m-1.09-.69a0.18,0.18,0,0,1,.12-0.07,0.3,0.3,0,0,1,.15,0v0l-0.1.1a0.11,0.11,0,0,0,0,0,0.67,0.67,0,0,0,.24-0.12,0.86,0.86,0,0,1,.55,0,0.14,0.14,0,0,1-.06.1,0.57,0.57,0,0,1-.23.18h-0.1a0.51,0.51,0,0,0-.27,0s0,0.06.06,0.11a0.73,0.73,0,0,1,0,.25,0.18,0.18,0,1,1-.24-0.27,0.12,0.12,0,0,0-.08-0.07,1,1,0,0,1,0-.35m0,1.16s0-.09,0-0.12h0a0.11,0.11,0,0,1,0,0,0.28,0.28,0,0,1,0,.16l0,0v0.09a1.56,1.56,0,0,1-.07.17s0,0,0,.07-0.14.29-.2,0.43,0,0.06,0,.09a0.81,0.81,0,0,1-.06.09,1.27,1.27,0,0,0-.06.16h0a0.63,0.63,0,0,1-.09-0.44,0.81,0.81,0,0,0,.12-0.1,1,1,0,0,0,.09-0.25s0.06-.08.09-0.12,0-.1,0-0.15a0.37,0.37,0,0,1,.08-0.12,0.34,0.34,0,0,0,.07,0m-0.08-.4a0.48,0.48,0,0,0,0,.11,0.2,0.2,0,0,1-.16.17l-0.06.06-0.14.09-0.05.06s-0.1.06-.15,0.09a0.13,0.13,0,0,1-.1,0h0a0.09,0.09,0,0,0,0,0v0.15a0.23,0.23,0,0,1-.07.07,1.14,1.14,0,0,0-.17.06c-0.07.05-.12,0.23-0.2,0.28h0l0,0a1.5,1.5,0,0,1,0-.33v-0.07a0.25,0.25,0,0,1,.09-0.07s0-.05,0-0.07a0.5,0.5,0,0,1,.16-0.12l0.07-.06,0.1,0s0-.07.07-0.09a0.87,0.87,0,0,1,.13,0s0.07-.06.11-0.08l0.06,0,0.17-.1,0.07,0,0.06,0M222,286.88a0.09,0.09,0,0,1,.06-0.08h0.07v0a0.12,0.12,0,0,1,0,0,0.1,0.1,0,0,1-.12,0m0,0.94a0.11,0.11,0,0,1,0,.07,0.08,0.08,0,0,1-.09,0,0,0,0,0,1,0,0,0,0,0,0,1,0,0H222l0,0m0.15-2.13a0.11,0.11,0,0,1,.11.07,0.13,0.13,0,0,1,0,.06,0.08,0.08,0,0,1,0,0c-0.12,0-.16-0.09-0.08-0.15m0.08,1.94,0,0h0a0,0,0,0,1,0,.06s-0.05,0,0-.06m0.07-.88a0.1,0.1,0,0,1,0-.08h0a0.06,0.06,0,0,1,0,0,0.11,0.11,0,0,1,0,.07,0.4,0.4,0,0,0,0,.11h0l0,0a0.22,0.22,0,0,1,0-.11m0.77-2.37,0.06,0a0.4,0.4,0,0,1,.19,0l0,0a0.29,0.29,0,0,1,0,.22,0.15,0.15,0,0,1-.19,0,0.25,0.25,0,0,1-.15-0.26l0-.06m-0.86.45a0.76,0.76,0,0,0,.22,0,0.12,0.12,0,0,1,.12.1,0.14,0.14,0,0,0,.09,0,0.54,0.54,0,0,1,.19.09,0.83,0.83,0,0,0,.14,0,0.46,0.46,0,0,1,.16,0,0,0,0,0,1,0,0,0.58,0.58,0,0,1-.35.05,0.76,0.76,0,0,0-.26,0h-0.17l-0.14,0a1.1,1.1,0,0,1-.25,0l0,0a0.61,0.61,0,0,1,.27-0.19m-0.44,2.45,0.07-.07a0.16,0.16,0,0,1,.12.1,0.08,0.08,0,0,1,0,0,0.24,0.24,0,0,1-.08.05,0.17,0.17,0,0,1-.09,0,0.22,0.22,0,0,1,0-.09M221.13,286a0.24,0.24,0,0,1,.09-0.07c0.1,0,.22,0,0.17.14a0.23,0.23,0,0,0-.17.06h-0.06l0-.06a0.12,0.12,0,0,1,0-.08M221,286h0a0.07,0.07,0,0,1,0,.09l-0.07.06a0.06,0.06,0,0,1-.06,0,0.22,0.22,0,0,1,0-.1m-0.22,1.14a0.33,0.33,0,0,1,.32-0.08,0.39,0.39,0,0,1,.07.12,0.32,0.32,0,0,0,.29.09l0,0a0.5,0.5,0,0,0,0-.09,1.05,1.05,0,0,1-.14-0.18s0,0,0-.06l0,0-0.1,0-0.06,0a0.14,0.14,0,0,1,0-.11h0l0.15,0a0.2,0.2,0,0,0,.06,0h0.09l0,0a0.13,0.13,0,0,1,0,.11c0,0.08.05,0.07,0.11,0.09s0,0.1,0,.17a0.2,0.2,0,0,1,0,.14,0.11,0.11,0,0,1-.09,0l-0.2,0-0.12.05a0.14,0.14,0,0,1-.1,0,0.43,0.43,0,0,1-.07-0.19l0,0h-0.06l-0.08.07a0.64,0.64,0,0,0-.05.11,0.44,0.44,0,0,1-.39.11,0.52,0.52,0,0,1-.12-0.08,0.25,0.25,0,0,1,0-.23c0.06,0,.06.1,0.09,0.14l0,0a0.1,0.1,0,0,0,.06,0,0.17,0.17,0,0,1,0-.19,0.77,0.77,0,0,0,.16,0m-0.19-.18h0.06a0.14,0.14,0,0,1-.12.13s0,0,0,0,0.06-.1.1-0.12m-0.24-.79h0a0.13,0.13,0,0,1,.1,0,0.64,0.64,0,0,1,0,.07l0,0h-0.09l0,0a0.25,0.25,0,0,1,0-.11M220,287.36h0l0.08,0v0c-0.06.06-.06,0.11-0.14,0a0.12,0.12,0,0,1,0-.08m-0.23.65a0.12,0.12,0,0,1,0,0h0a0.59,0.59,0,0,0,.24.23,0.78,0.78,0,0,0,0-.09l0,0a0.16,0.16,0,0,1,.11,0c0.15,0,.11-0.09.16-0.18a0.47,0.47,0,0,1,.27.2,0.9,0.9,0,0,0,.14,0l0,0a0.35,0.35,0,0,0,0,.14,0.18,0.18,0,0,0,.1.06,0.27,0.27,0,0,1,.06.09,0.37,0.37,0,0,0,.36-0.06,0.3,0.3,0,0,1,.18-0.19h0a0.38,0.38,0,0,1,.12.07,0.21,0.21,0,0,0,.17,0l0.13,0a0.31,0.31,0,0,0,.14-0.14,0.29,0.29,0,0,1,.13.07,0.37,0.37,0,0,0,.1,0,0.1,0.1,0,0,1,0,.17,0.13,0.13,0,0,1-.1.06h0a0.21,0.21,0,0,0,.11.06v0a0.14,0.14,0,0,1,0,0,0.16,0.16,0,0,1-.09,0,0.11,0.11,0,0,0-.09,0,0.33,0.33,0,0,1-.07.08,0.15,0.15,0,0,1-.12,0H222l-0.09.07a0.09,0.09,0,0,0,0,0,1.11,1.11,0,0,1,.21,0,0.09,0.09,0,0,1,0,0,0.11,0.11,0,0,1,0,.08,0.49,0.49,0,0,0-.37.07s0,0.11-.06.15a0,0,0,0,1,0,0,1.18,1.18,0,0,0-.25-0.06c-0.06,0-.11.09-0.17,0.11a1,1,0,0,0-.14,0,1.22,1.22,0,0,0-.07.27,0.08,0.08,0,0,1-.08,0,0.19,0.19,0,0,0-.07-0.06,0.21,0.21,0,0,0-.12,0l0,0a0.86,0.86,0,0,0,0-.22,0.15,0.15,0,0,0-.19,0l-0.07.07h0a0.35,0.35,0,0,1-.1-0.27s0-.06,0-0.11a1.23,1.23,0,0,0-.24-0.11,0.07,0.07,0,0,1,0-.06,0.31,0.31,0,0,1,.14,0,0.77,0.77,0,0,0,.06-0.06,0.2,0.2,0,0,0-.19-0.15,0.67,0.67,0,0,0-.09.09h0a0.77,0.77,0,0,1,0-.17l0,0H219.9a0.27,0.27,0,0,1-.1-0.26m0.91,2.29a0.19,0.19,0,0,1-.07,0h-0.05a0.07,0.07,0,0,1-.07,0,0.16,0.16,0,0,1,0-.11,0.46,0.46,0,0,0,.13,0l0.07,0a0.24,0.24,0,0,1,0,.18m0.11,0.31a0.51,0.51,0,0,1,0,.09,0.16,0.16,0,0,1-.06.06h0l0,0a0.27,0.27,0,0,1,0-.17h0l0.08,0m-0.16.51s0.11-.06.14-0.11h0a0.21,0.21,0,0,1,0,.17l0,0a0.41,0.41,0,0,1-.17,0,0.07,0.07,0,0,1,0-.08m-0.32-1.33a0.13,0.13,0,0,1,.06-0.09h0a0.1,0.1,0,0,1,.07,0,0.1,0.1,0,0,1-.07.09h0l0,0m0,1.39h0l0,0a0.17,0.17,0,0,1,.05-0.14h0c0.06,0,0,.12,0,0.14m-0.43-.81h0l0,0a0.56,0.56,0,0,0,0,.1,0.25,0.25,0,0,0,.11,0,0.84,0.84,0,0,1,.08.14,0.19,0.19,0,0,1,0,.09,0.33,0.33,0,0,1-.12,0,0.43,0.43,0,0,0-.13-0.1,0.5,0.5,0,0,1-.19,0,0.29,0.29,0,0,1,.17-0.34m1.06,1.8a0.17,0.17,0,0,1-.06,0,0.34,0.34,0,0,0-.15-0.07,0.52,0.52,0,0,1-.22-0.08,1.49,1.49,0,0,0-.23,0,0.69,0.69,0,0,1-.12-0.05l-0.11.09H220a0.25,0.25,0,0,0-.11-0.09l-0.08.08a0.13,0.13,0,0,1-.09,0c0-.07,0-0.18-0.11-0.07s0-.15-0.07-0.23a0.28,0.28,0,0,1,0-.07,0.73,0.73,0,0,0,0-.12,1.44,1.44,0,0,0-.11-0.15,0.37,0.37,0,0,1,0-.22,0.18,0.18,0,0,1,.06,0h0.06l0.1,0.09,0.07,0a0.14,0.14,0,0,0,.11-0.09l0.06,0a0.59,0.59,0,0,0,0,.14,0.3,0.3,0,0,0,.12,0,0.13,0.13,0,0,0,.13-0.13,0.27,0.27,0,0,1,.19,0,0.49,0.49,0,0,0,.06.06c0.07,0,.14,0,0.14.07l-0.09.08a0.46,0.46,0,0,0-.19,0h0a0.33,0.33,0,0,0,.14.16,0.57,0.57,0,0,0,.06.09,0.1,0.1,0,0,0,.08-0.09l0.11,0a0.2,0.2,0,0,1,.09-0.05,0.13,0.13,0,0,1,0,.16,0.71,0.71,0,0,0-.1.09,0.29,0.29,0,0,1-.13.17c0,0.08.12,0.05,0.16,0.1a0.39,0.39,0,0,0,.19-0.09,1.68,1.68,0,0,1,0-.41h0a0.06,0.06,0,0,1,.07,0,0,0,0,0,1,0,0c0,0.1.06,0.09,0.12,0.14l0,0.06a0.4,0.4,0,0,1-.19.32m0,1.95h0l0.07,0v0h-0.07l0,0a0.06,0.06,0,0,1,0,0m0.41,1.45s-0.06.07-.09,0.11a0.2,0.2,0,0,1-.11.1c-0.13,0-.26-0.25-0.17-0.35a0.19,0.19,0,0,1,.14-0.07,0.81,0.81,0,0,0,.12-0.09l0.07,0h0.07a0.66,0.66,0,0,1,0,.3m0-.68a0.09,0.09,0,0,1-.07,0,0.09,0.09,0,0,1,0-.11l0-.06h0.06a0.11,0.11,0,0,1,.06.1l-0.06.07m0.12,1.13h0a0.08,0.08,0,0,1,0-.06l0,0a0.07,0.07,0,0,1,0,0,0.08,0.08,0,0,1,0,.06m0.09-1.28h0a0.26,0.26,0,0,1-.05-0.06,0.3,0.3,0,0,1,0-.06h0a0.1,0.1,0,0,1,.09.05,0.12,0.12,0,0,1,0,.08M222,296a0.11,0.11,0,0,1-.09.06,0.21,0.21,0,0,0-.08-0.05h-0.09a0.15,0.15,0,0,1,0-.18,0.16,0.16,0,0,1,0,0h0a0.3,0.3,0,0,1,.06.1c0.09,0,.14,0,0.17.07a0.05,0.05,0,0,1,0,0m0.31-.21c-0.18,0-.1-0.31,0-0.42a0.59,0.59,0,0,0,.21,0l0.08,0c0,0.15,0,.44-0.25.38m0-.61,0,0h0l0,0a0,0,0,0,1-.06,0,0,0,0,0,1,0,0m1.16,0.55a0.38,0.38,0,0,1-.09.06,0.16,0.16,0,0,1-.13-0.12,0.06,0.06,0,0,0-.07,0,0.19,0.19,0,0,0-.06.11c-0.11,0-.11-0.13-0.08-0.21a0.26,0.26,0,0,1,.25-0.12h0a0.33,0.33,0,0,1,0-.16l0,0h0.1l0.11,0.12h0a0.49,0.49,0,0,1-.08.39m-0.37-.4s0,0,0-.05h0l0,0s0,0.11-.07.08a0.08,0.08,0,0,1,0,0m0.5-.31,0,0a1.16,1.16,0,0,1-.27,0,2.85,2.85,0,0,1-.38,0,0.38,0.38,0,0,1-.32-0.07,0.26,0.26,0,0,0-.14.05,0.51,0.51,0,0,1-.27-0.12,0.1,0.1,0,0,1,0-.08,0.07,0.07,0,0,0,0,0,0.38,0.38,0,0,1-.12,0,0,0,0,0,1,0,0h0a0.2,0.2,0,0,1,.17-0.06,1.73,1.73,0,0,0,.61,0h0a0.32,0.32,0,0,0,.09.09,1,1,0,0,1,.12,0,0.46,0.46,0,0,1,.12.09,1.31,1.31,0,0,0,.14,0h0.09c0.1,0,.28,0,0.14.13a0.65,0.65,0,0,0,0,.08m0.11-.4c0,0.1-.11.08-0.19,0l-0.41-.23-0.12,0c-0.05,0-.1-0.08-0.16-0.11a0.31,0.31,0,0,0-.27,0h-0.07a0.33,0.33,0,0,1,0-.14h0.09a0.15,0.15,0,0,0,0-.14c0-.06,0-0.11-0.05-0.16s0-.16,0-0.24a0.18,0.18,0,0,1,0-.12v0h0c0.12,0.08.09,0.3,0.2,0.39l0.13,0.06a0.18,0.18,0,0,1,.14,0,0.33,0.33,0,0,1,0,.17l0,0a0.58,0.58,0,0,1,.16,0,0.56,0.56,0,0,1,.12.12,1.51,1.51,0,0,1,.32.3,0.08,0.08,0,0,1,0,.07m0.06-.4a0.29,0.29,0,0,1-.07-0.14,0.33,0.33,0,0,1-.06,0,1.91,1.91,0,0,1-.09-0.19l-0.08-.1a0.59,0.59,0,0,1-.08-0.36l0-.13c0-.06,0-0.11,0-0.17a0.39,0.39,0,0,1,.06-0.11,0.41,0.41,0,0,1,.14.29l0.16,0.5a1,1,0,0,1,.1.4s-0.06.08-.1,0m0.1,0h0a0.08,0.08,0,0,1,0,0c0,0.06,0,.08-0.05.09l0-.07a0.09,0.09,0,0,1,0-.08m0.15,1.54a0.12,0.12,0,0,1-.1,0,0.06,0.06,0,0,1,0,0,0.08,0.08,0,0,1,0-.06h0a0.1,0.1,0,0,1,.09,0,0.12,0.12,0,0,1,0,.09m0.58-.3a0.38,0.38,0,0,1-.22,0,0.46,0.46,0,0,1,.16-0.23,0.08,0.08,0,0,1,.1.06,0.2,0.2,0,0,1,0,.2m0-.6a0.25,0.25,0,0,1-.11.13,1.88,1.88,0,0,0-.2,0,0,0,0,0,0,0,0s0,0,0,0,0,0.1,0,.13,0,0.09,0,.14a0.53,0.53,0,0,1-.13.16s-0.12.13-.19,0.07a0.13,0.13,0,0,1-.06-0.15c0-.05.07-0.08,0.08-0.13a0.43,0.43,0,0,0,0-.12A0.47,0.47,0,0,1,224,295v0a0.14,0.14,0,0,0-.07,0,0.14,0.14,0,0,1-.07-0.14l0,0,0.07,0a0.58,0.58,0,0,0,.14,0,3.43,3.43,0,0,1,.62,0v0a0.34,0.34,0,0,1-.15.17m0.1-.85v0.09c0,0.05,0,.16-0.13.13l0,0,0-.12s-0.07,0-.09-0.06a0.41,0.41,0,0,1,0-.36,0.19,0.19,0,0,1,.12-0.06h0.12l0,0a0.19,0.19,0,0,1,0,.09,0.1,0.1,0,0,0,0,0,0.48,0.48,0,0,1,0,.25m0-.83a0.2,0.2,0,0,1-.11-0.08l-0.08,0a0.25,0.25,0,0,1-.14-0.14,0.15,0.15,0,0,1,.06-0.21,0.15,0.15,0,0,1,.16,0,0.21,0.21,0,0,0,.12-0.07,0.27,0.27,0,0,1,.18.09,0.28,0.28,0,0,1,0,.21l-0.06,0a0.45,0.45,0,0,0,0,.08,0.18,0.18,0,0,1-.06.06m0.17,2.46a0.13,0.13,0,0,1-.09,0h0a0.06,0.06,0,0,1,0-.06,0.32,0.32,0,0,1,.11,0h0s0,0,0,.06m0-10.37a0.06,0.06,0,0,1,0,0,0.09,0.09,0,0,1,0-.11l0,0h0a0.09,0.09,0,0,1,0,.14" transform="translate(-212.61 -205.01)" style="fill:#06545d"/><path d="M221.42,285a0.19,0.19,0,0,0,.11-0.05,0.07,0.07,0,0,0,0,0,0.14,0.14,0,0,0-.12-0.06h0c-0.08,0,0,.11,0,0.14" transform="translate(-212.61 -205.01)" style="fill:#06545d"/><path d="M214.45,287.86s0.05-.12.1-0.15a0.32,0.32,0,0,1,.35.06s0,0.11,0,.15,0.23-.09.34-0.06a0.59,0.59,0,0,1,.19.12,0.49,0.49,0,0,0,.11.12s0.12,0,.16,0l0,0a0.1,0.1,0,0,1,0,.07c0,0.09,0,.06.1,0.1a0.45,0.45,0,0,1,.07.11,0.54,0.54,0,0,0,.28,0,1.15,1.15,0,0,1,.17-0.22h0.07a0.42,0.42,0,0,1,.25,0,0.34,0.34,0,0,0,.19,0,0.89,0.89,0,0,0,.17-0.21,0.6,0.6,0,0,1,.16-0.06,0.4,0.4,0,0,0,.16-0.14,0.13,0.13,0,0,0,0-.08,0.32,0.32,0,0,0-.19,0,0.45,0.45,0,0,1-.29,0,0.33,0.33,0,0,1-.12-0.2s0-.08,0-0.12a0.33,0.33,0,0,0,0-.11,0.29,0.29,0,0,0-.24,0s-0.06.08-.1,0.11l-0.17.09h-0.07a0.92,0.92,0,0,1-.14.09,0.93,0.93,0,0,0-.3-0.1,0.36,0.36,0,0,0-.09.08c-0.08.08-.32,0.23-0.42,0.08a0.54,0.54,0,0,1,0-.19,0.18,0.18,0,0,1,.11-0.19l0.12-.16a0.75,0.75,0,0,0,.2-0.15,0.53,0.53,0,0,1,.18-0.16,0.13,0.13,0,0,1,.11,0,0.66,0.66,0,0,1,.18.17s0,0.06,0,.09l0,0.06a0.38,0.38,0,0,0,.35,0,0.76,0.76,0,0,0,0-.16,0.36,0.36,0,0,1,0-.06h0c0.07,0,.06.07,0.09,0.11l0.06,0h0l0,0a0.32,0.32,0,0,0,0-.12,0.11,0.11,0,0,1,.11,0,0.37,0.37,0,0,1,.07.06s0,0.07,0,.1a0.32,0.32,0,0,0,.07,0,0.45,0.45,0,0,1,.11.16,0.83,0.83,0,0,0,0,.17,0.05,0.05,0,0,0,0,0h0.05a2.69,2.69,0,0,1,.32-0.29,0.15,0.15,0,0,1,.11.06l0.12,0a0.37,0.37,0,0,1,.08.17s0.05,0.09.09,0.06l0,0a0.56,0.56,0,0,1,0-.21,0.76,0.76,0,0,0-.17-0.27,0.81,0.81,0,0,1-.07-0.11,0.61,0.61,0,0,0,0-.12,0.53,0.53,0,0,0-.15-0.06,0.28,0.28,0,0,1-.06-0.08,0.37,0.37,0,0,0-.12-0.08,0.38,0.38,0,0,0-.23-0.12l-0.09,0a0.4,0.4,0,0,1-.13.11,1,1,0,0,0-.39,0,0.14,0.14,0,0,0,0,.15,0.13,0.13,0,0,1,0,.06,0.47,0.47,0,0,1-.44,0,0.36,0.36,0,0,1,0-.12,0.49,0.49,0,0,0,0-.09,0.08,0.08,0,0,0,0-.05,0.19,0.19,0,0,0-.13.06l-0.12,0a0.9,0.9,0,0,1-.15.12c-0.08,0-.21,0-0.26,0a1.41,1.41,0,0,0-.11.2s-0.1,0-.14,0-0.06.13-.12,0.17-0.12,0-.17.07,0,0.09-.09.12a0.64,0.64,0,0,0-.18.13l0,0.14a0.43,0.43,0,0,1-.14.08l-0.07.07-0.11,0,0,0a0.28,0.28,0,0,0,0,.19,0.09,0.09,0,0,0,.09,0m2.85-1.25h0.09a0.28,0.28,0,0,1,.19.27,0.19,0.19,0,0,1-.18.07l-0.06,0a0.6,0.6,0,0,1-.1-0.27l0,0m-2.38.8,0,0h0a0.15,0.15,0,0,1,.09,0,0.08,0.08,0,0,1,0,.08,0.09,0.09,0,0,1,0,0h0l-0.06-.06a0.1,0.1,0,0,1,0-.06" transform="translate(-212.61 -205.01)" style="fill:#06545d"/><path d="M215.18,286.65a0.22,0.22,0,0,0,.19-0.12,0,0,0,0,0,0,0,0.09,0.09,0,0,0-.11,0h0l-0.07.05,0,0.06a0.07,0.07,0,0,0,0,.07" transform="translate(-212.61 -205.01)" style="fill:#06545d"/><path d="M216.62,288.23a0.09,0.09,0,0,0-.06.11l0,0,0,0c0.08,0,.1,0,0.09-0.12l0,0h-0.08" transform="translate(-212.61 -205.01)" style="fill:#06545d"/><path d="M220.65,289a0.07,0.07,0,0,0,0-.06,0.13,0.13,0,0,0-.13-0.07h0a0.21,0.21,0,0,0,0,.14,0.17,0.17,0,0,0,.15,0" transform="translate(-212.61 -205.01)" style="fill:#06545d"/><path d="M217.41,291.24h-0.12a0.5,0.5,0,0,0-.12.18s0,0.15,0,.12a0.11,0.11,0,0,0,.09-0.07,0.53,0.53,0,0,1,.13-0.09l0-.06a0.07,0.07,0,0,0,0,0,0.11,0.11,0,0,0,0,0" transform="translate(-212.61 -205.01)" style="fill:#06545d"/><path d="M220.25,291.58h0l0,0a0.36,0.36,0,0,0,0,.07,0.12,0.12,0,0,0,0,0,0.11,0.11,0,0,0,.09,0v0c0-.06,0-0.05-0.05-0.08" transform="translate(-212.61 -205.01)" style="fill:#06545d"/><path d="M217.6,294.65c0.08,0,0-.15-0.05-0.14a0.1,0.1,0,0,0-.05.11l0,0a0.08,0.08,0,0,0,.08,0" transform="translate(-212.61 -205.01)" style="fill:#06545d"/><polygon points="21.68 5.89 21.67 13.24 23.98 13.24 23.99 5.89 21.68 5.89" style="fill:#fff"/><path d="M248.1,213.29a1.61,1.61,0,0,1,1.45-.45l0.36,0v1.8c-0.14,0-1.81-.06-1.81,1v2.59h-2.24V213H248Z" transform="translate(-212.61 -205.01)" style="fill:#fff"/><polygon points="61.23 11.77 61.23 13.24 59.09 13.24 59.1 5.96 61.24 5.96 61.24 9.25 62.46 7.91 65.01 7.91 63 10.02 65.08 13.24 62.56 13.24 61.44 11.52 61.23 11.77" style="fill:#fff"/><polygon points="24.49 13.24 24.5 5.89 26.81 5.89 26.8 13.24 24.49 13.24" style="fill:#fff"/><path d="M269.11,215.11a0.65,0.65,0,0,0-.64-0.65,0.64,0.64,0,0,0-.64.64v3.15h-2.3v-5.4h2.15v0.3a2.55,2.55,0,0,1,1.64-.45c1.42,0,2.09.83,2.09,2.32v3.24H269.1v-3.14Z" transform="translate(-212.61 -205.01)" style="fill:#fff"/><path d="M254.62,212.64v1.07h0.88a0.61,0.61,0,0,0,.72-0.56c0-.5-0.41-0.51-0.86-0.51h-0.74Zm0,2.72v1.18h0.91c0.51,0,.91-0.11.91-0.59s-0.49-.59-1.15-0.59h-0.67Zm1.82,2.89h-4.3v-7.31h4.48a2,2,0,0,1,1.55,3.42c1.28,0.81,1.55,3.9-1.74,3.9" transform="translate(-212.61 -205.01)" style="fill:#fff"/><path d="M230.33,215.52c0,0.91.31,1.3,0.76,1.3s0.76-.39.76-1.3c0-.7-0.29-1.23-0.74-1.21a1,1,0,0,0-.78,1.21m0.75-2.79a2.85,2.85,0,1,1,0,5.69c-1.72,0-3.06-.94-3.05-2.78a2.76,2.76,0,0,1,3.05-2.9" transform="translate(-212.61 -205.01)" style="fill:#fff"/><path d="M243.19,216c-0.56.27-1.3,0.14-1.3,0.7a0.45,0.45,0,0,0,.54.36,0.81,0.81,0,0,0,.76-1.06m0,2.08a2.94,2.94,0,0,1-1.78.37,1.66,1.66,0,0,1-1.91-1.61c0-2.43,3.66-1.36,3.66-2.36a0.42,0.42,0,0,0-.54-0.4,0.71,0.71,0,0,0-.67.69H239.8c0-1.13.87-2,3-2,2.53,0,2.68.94,2.68,2.21v1.42a3.77,3.77,0,0,0,.28,1.76v0.1h-2.4Z" transform="translate(-212.61 -205.01)" style="fill:#fff"/><path d="M223.34,216.31h0.39a1.52,1.52,0,0,0,1.71-1.76c0-1.36-.49-1.72-1.75-1.72h-0.34v3.48Zm-2.5,1.94v-7.33h3.74a3.24,3.24,0,0,1,3.39,3.57c0,2.72-1.52,3.76-3.84,3.76h-3.3Z" transform="translate(-212.61 -205.01)" style="fill:#fff"/><path d="M262.83,216c-0.56.27-1.3,0.14-1.3,0.7a0.45,0.45,0,0,0,.54.36,0.81,0.81,0,0,0,.76-1.06m0,2.08a2.94,2.94,0,0,1-1.78.37,1.66,1.66,0,0,1-1.91-1.61c0-2.43,3.66-1.36,3.66-2.36a0.42,0.42,0,0,0-.54-0.4,0.71,0.71,0,0,0-.67.69h-2.17c0-1.13.87-2,3-2,2.53,0,2.68.94,2.68,2.21v1.42a3.77,3.77,0,0,0,.28,1.76v0.1H263Z" transform="translate(-212.61 -205.01)" style="fill:#fff"/></svg>