<svg xmlns="http://www.w3.org/2000/svg" viewBox="0 0 38.2 31"><defs><style>.a{fill:#f06c70;}</style></defs><title>crawl-twitter-bg</title><path class="a" d="M38.1,3.7a16.58,16.58,0,0,1-4.5,1.2A8.06,8.06,0,0,0,37,.6a16.72,16.72,0,0,1-5,1.9A7.35,7.35,0,0,0,26.4,0a7.81,7.81,0,0,0-7.8,7.8,11,11,0,0,0,.2,1.8A22,22,0,0,1,2.6,1.4a8.77,8.77,0,0,0-1,4,8.22,8.22,0,0,0,3.9,6.5c-1.3,0-3.1-.4-3.1-1V11a7.59,7.59,0,0,0,5.8,7.7,9.08,9.08,0,0,1-2.3.3,8.6,8.6,0,0,1-1.6-.1,7.62,7.62,0,0,0,7.2,5.4,15.79,15.79,0,0,1-9.7,3.3,12.1,12.1,0,0,1-1.9-.1,22.47,22.47,0,0,0,12,3.5C26.3,31,34.1,19.1,34.1,8.8v-1A19.38,19.38,0,0,0,38.1,3.7Z" transform="translate(0.1)"/></svg>