<svg xmlns="http://www.w3.org/2000/svg" viewBox="0 0 38.1 30.9"><style type="text/css">.st0{fill:#9B9B9B;}</style><g id="Twitter_1_20_"><path id="XMLID_1576_" class="st0" d="M38.1 3.7c-1.4.6-2.9 1-4.5 1.2 1.6-1 2.8-2.5 3.4-4.3-1.5.9-3.2 1.5-5 1.9C30.6.9 28.6 0 26.4 0c-4.3 0-7.8 3.5-7.8 7.8 0 .6.1 1.2.2 1.8-6.6-.3-12.3-3.4-16.2-8.2-.6 1.2-1 2.5-1 4 0 2.7 1.8 5.1 3.9 6.5-1.3 0-3.1-.4-3.1-1v.1c0 3.8 2.3 6.9 5.8 7.7-.7.2-1.6.3-2.3.3-.5 0-1.1 0-1.6-.1 1 3.1 3.8 5.4 7.2 5.4-2.7 2.1-6.1 3.3-9.7 3.3-.6 0-1.3 0-1.9-.1 3.5 2.2 7.6 3.5 12 3.5 14.4 0 22.2-11.9 22.2-22.2v-1c1.6-1.2 2.9-2.6 4-4.1z"/></g></svg>
