<svg xmlns="http://www.w3.org/2000/svg" width="470.784" height="39.364" viewBox="0 0 470.784 39.364"><g><path fill="#fff" d="M20.01 39.364C8.156 39.364 0 31.044 0 19.79v-.108C0 8.862 8.428 0 19.955 0c6.85 0 10.982 1.848 14.95 5.22l-5.272 6.36c-2.936-2.446-5.546-3.86-9.95-3.86-6.09 0-10.927 5.384-10.927 11.854v.11c0 6.958 4.783 12.07 11.524 12.07 3.046 0 5.765-.762 7.885-2.284v-5.438h-8.428V16.8h16.528v16.53c-3.913 3.315-9.296 6.034-16.255 6.034z"/><path fill="#fff" d="M72.643 38.71l-3.48-8.536H53.068l-3.48 8.537h-8.535L57.363.38h7.72l16.312 38.33h-8.752zM61.115 10.44l-5.057 12.34H66.17l-5.055-12.34z"/><path fill="#fff" d="M87.27 38.71V.653h8.37V31.1h18.978v7.612h-27.35z"/><path fill="#fff" d="M120.926 38.71V.653h8.372V31.1h18.976v7.612h-27.348z"/><path fill="#fff" d="M154.58 38.71V.653h28.71v7.45H162.9v7.72h17.94v7.45H162.9v7.99h20.66v7.45h-28.98z"/><path fill="#fff" d="M214.12 38.71l-8.157-12.178h-6.578v12.18h-8.373V.65h17.398c8.97 0 14.354 4.73 14.354 12.56v.108c0 6.144-3.316 10.004-8.156 11.8l9.297 13.59h-9.786zm.16-25.064c0-3.588-2.5-5.436-6.577-5.436h-8.318v10.928h8.48c4.078 0 6.416-2.175 6.416-5.383v-.11z"/><path fill="#fff" d="M248.047 23.542v15.17h-8.373V23.704L225.048.652h9.787l9.08 15.278L253.158.652h9.515l-14.626 22.89z"/><path d="M282.768 39.364c-11.2 0-19.52-8.645-19.52-19.573v-.108C263.25 8.862 271.406 0 283.095 0c7.177 0 11.472 2.392 15.007 5.872l-5.327 6.144c-2.937-2.664-5.927-4.295-9.733-4.295-6.415 0-11.035 5.33-11.035 11.852v.11c0 6.524 4.512 11.96 11.035 11.96 4.35 0 7.015-1.74 10.005-4.458l5.328 5.382c-3.915 4.187-8.265 6.798-15.605 6.798z"/><path d="M328.17 38.71l-8.157-12.18h-6.578v12.18h-8.373V.653h17.397c8.97 0 14.353 4.73 14.353 12.56v.108c0 6.144-3.316 10.003-8.156 11.798l9.297 13.592h-9.785zm.16-25.063c0-3.59-2.5-5.438-6.577-5.438h-8.318v10.927h8.48c4.078 0 6.416-2.175 6.416-5.383v-.107z"/><path d="M372.698 38.71l-3.48-8.535h-16.093l-3.48 8.536h-8.535L357.42.38h7.72l16.312 38.33h-8.754zM361.17 10.44l-5.055 12.34h10.113l-5.057-12.34z"/><path d="M424.242 38.982h-7.285l-8.59-24.9-8.592 24.9h-7.286L379.495.652h8.97l7.885 25.77L404.888.545h7.176l8.536 25.88L428.483.65h8.753l-12.995 38.33z"/><path d="M443.437 38.71V.653h8.373v30.446h18.975v7.613h-27.348z"/></g></svg>