<svg xmlns="http://www.w3.org/2000/svg" width="262.7" height="158.2" viewBox="-368 534.8 262.7 158.2" enable-background="new -368 534.8 262.7 158.2"><style type="text/css">.st0{fill:#FFFFFF;}</style><path id="XMLID_3458_" class="st0" d="M-348 574.2c-11.9 0-20-8.3-20-19.6v-.1c0-10.8 8.4-19.7 20-19.7 6.9 0 11 1.8 15 5.2l-5.3 6.4c-2.9-2.4-5.5-3.9-9.9-3.9-6.1 0-10.9 5.4-10.9 11.9v.1c0 7 4.8 12.1 11.5 12.1 3 0 5.8-.8 7.9-2.3v-5.4h-8.4v-7.2h16.5v16.5c-4 3.3-9.4 6-16.4 6z"/><path id="XMLID_3455_" class="st0" d="M-295.4 573.5l-3.5-8.5H-315l-3.5 8.5h-8.5l16.3-38.3h7.7l16.3 38.3h-8.7zm-11.5-28.2l-5.1 12.3h10.1l-5-12.3z"/><path id="XMLID_3453_" class="st0" d="M-280.7 573.5v-38.1h8.4v30.4h19v7.6h-27.4v.1z"/><path id="XMLID_3451_" class="st0" d="M-247.1 573.5v-38.1h8.4v30.4h19v7.6h-27.4v.1z"/><path id="XMLID_3449_" class="st0" d="M-213.4 573.5v-38.1h28.7v7.4h-20.4v7.7h17.9v7.4h-17.9v8h20.7v7.4h-29v.2z"/><path id="XMLID_3446_" class="st0" d="M-153.9 573.5l-8.2-12.2h-6.6v12.2h-8.4v-38.1h17.4c9 0 14.4 4.7 14.4 12.6v.1c0 6.1-3.3 10-8.2 11.8l9.3 13.6h-9.7zm.2-25c0-3.6-2.5-5.4-6.6-5.4h-8.3V554h8.5c4.1 0 6.4-2.2 6.4-5.4v-.1z"/><path id="XMLID_3444_" class="st0" d="M-120 558.4v15.2h-8.4v-15l-14.6-23.1h9.8l9.1 15.3 9.2-15.3h9.5l-14.6 22.9z"/><path id="XMLID_3442_" d="M-342.4 636c-14 0-24.4-10.8-24.4-24.5v-.1c0-13.5 10.2-24.6 24.8-24.6 9 0 14.3 3 18.8 7.3l-6.7 7.7c-3.7-3.3-7.4-5.4-12.2-5.4-8 0-13.8 6.7-13.8 14.8v.1c0 8.2 5.6 15 13.8 15 5.4 0 8.8-2.2 12.5-5.6l6.7 6.7c-4.9 5.3-10.3 8.6-19.5 8.6z"/><path id="XMLID_3439_" d="M-285.6 635.1l-10.2-15.2h-8.2v15.2h-10.5v-47.6h21.7c11.2 0 17.9 5.9 17.9 15.7v.1c0 7.7-4.1 12.5-10.2 14.7l11.6 17-12.1.1zm.2-31.3c0-4.5-3.1-6.8-8.2-6.8H-304v13.7h10.6c5.1 0 8-2.7 8-6.7v-.2z"/><path id="XMLID_3436_" d="M-230 635.1l-4.4-10.7h-20.1l-4.4 10.7h-10.7l20.4-47.9h9.7l20.4 47.9H-230zm-14.4-35.3l-6.3 15.4h12.6l-6.3-15.4z"/><path id="XMLID_3434_" d="M-165.5 635.5h-9.1l-10.7-31.1-10.7 31.1h-9.1l-16.2-47.9h11.2l9.9 32.2 10.7-32.4h9l10.7 32.4 9.9-32.2h10.9l-16.5 47.9z"/><path id="XMLID_3432_" d="M-141.5 635.1v-47.6h10.5v38.1h23.7v9.5h-34.2z"/><path d="M-305 655.4h-1.5v5.2h1.5c2 0 2.8-1.2 2.8-2.6.1-1.5-.7-2.6-2.8-2.6m2.4 10.7c-1 .1-3.9.1-3.9.1v4.8c0 .2 0 .3-.3.3h-6.7c-.3 0-.3 0-.3-.3v-20.9c0-.3.2-.3.3-.3h10.5c5 0 8.3 3.4 8.3 8.2 0 5.3-3 7.6-7.9 8.1M-284.5 671.3h-7c-.3 0-.3 0-.3-.3v-20.9c0-.3 0-.3.3-.3h7c.3 0 .3 0 .3.3V671c0 .3 0 .3-.3.3M-263 655.8l-5.6-.3V671c0 .2 0 .3-.3.3h-6.9c-.3 0-.3 0-.3-.3v-15.6l-5.8.3c-.2 0-.2 0-.2-.2v-5.4c0-.3 0-.3.3-.3h18.8c.2 0 .2.1.2.3v5.4c0 .2 0 .3-.2.3M-243.4 655.8l-5.6-.3V671c0 .2 0 .3-.3.3h-6.9c-.3 0-.3 0-.3-.3v-15.6l-5.8.3c-.2 0-.2 0-.2-.2v-5.4c0-.3 0-.3.3-.3h18.8c.2 0 .3.1.3.3v5.4c-.1.2-.1.3-.3.3M-234.1 672.1c-4.3 0-7.2-1.9-8.5-4.8-.2-.5-.2-.5.1-.6l4.7-1.8c.3-.1.3-.1.4.1.4 1.2 1.6 2.1 3 2.1 1.5 0 2.2-.7 2.2-1.6 0-1.1-.9-1.4-2.7-1.6-.2 0-.6-.1-.8-.1-2.4-.2-6.6-1.3-6.6-6.4 0-4.9 3.2-8.1 9.2-8.1 4.4 0 7.1 1.9 7.7 4.6.1.4.1.4-.2.5l-4.5 1.6c-.2.1-.3.1-.4-.1-.5-1.2-1.3-1.8-2.9-1.8-1.5 0-2 .6-2 1.5 0 1 .8 1.3 3.2 1.6.3.1.7.1 1.1.2 3.6.5 6.4 2.1 6.4 6.5.1 5.3-4.1 8.2-9.4 8.2M-211.6 663.2h-3v3.5h3c1.5 0 2-.7 2-1.8.1-1.1-.6-1.7-2-1.7m-.5-8.7h-2.5v3.4h2.5c1.4 0 2-.7 2-1.7 0-.9-.6-1.7-2-1.7m3.8 16.8h-13.2c-.3 0-.3-.1-.3-.5v-20.7c0-.3.1-.3.4-.3h12.3c4.4 0 7 2.2 7 5.8 0 2.3-1.3 4.2-4.1 4.9 2.8.1 4.8 2.7 4.8 5.2-.1 3.6-2.8 5.6-6.9 5.6M-189.3 672.1c-6.2 0-9.9-3.8-9.9-8.7V650c0-.2 0-.2.2-.2h7.4c.2 0 .2 0 .2.2v12.3c0 2.2.9 3 2.7 3 1.7 0 2.7-.8 2.7-3V650c0-.2 0-.2.2-.2h6.9c.2 0 .2 0 .2.2v13.7c-.2 5.2-3.8 8.4-10.6 8.4M-166.7 655.1h-1.3v5h1.4c1.8 0 2.9-.7 2.9-2.5s-.9-2.5-3-2.5m13 16.2h-8.1c-.3 0-.4-.1-.8-.7-1.2-2.1-3.2-5.5-3.2-5.5l-2.2.2v5.7c0 .2 0 .3-.3.3h-6.7c-.3 0-.3 0-.3-.3v-20.9c0-.3.2-.3.3-.3h11.4c5.4 0 7.9 3.4 7.9 7.2 0 2.9-1.1 4.9-3.1 5.8.9 1.3 3.2 4.7 5.3 7.6.3.4.4.6.4.7-.1.2-.3.2-.6.2M-131.1 671.9c-.1 0-.2 0-.3-.1l-3.7-2.1c-1.5 1.1-3.2 2.3-6.5 2.3-6.4 0-11.5-4.3-11.5-11.5 0-6.6 4.9-11.3 11.7-11.3 5.4 0 8.7 2.7 10.2 6.4.1.4.1.4-.1.6l-5.9 2.6c-.3.1-.4-.1-.5-.3-.7-1.4-2.3-2.1-3.7-2.1-2.6 0-4.2 1.7-4.2 4.2 0 2.7 1.6 4.2 4.3 4.2 1.8 0 3.1-.8 3.7-2.5.1-.2.1-.3.3-.3h6.3c.3 0 .3 0 .3.2v9.4c-.1.1-.1.3-.4.3M-108 671.3h-6.8c-.3 0-.3-.1-.3-.3v-7.3h-5.8v7.3c0 .2 0 .3-.3.3h-6.7c-.3 0-.3 0-.3-.3v-20.9c0-.3 0-.3.3-.3h6.7c.3 0 .3 0 .3.3v6.8h5.8v-6.8c0-.3 0-.3.3-.3h6.8c.3 0 .3 0 .3.3V671c0 .4 0 .3-.3.3M-306.9 693c-5.1 0-8.7-3.5-8.7-8.5 0-4.8 3.5-8.6 8.7-8.6 4.1 0 6.7 2.3 7.7 5 .1.3 0 .4-.1.4l-4.6 1.7c-.2 0-.2-.1-.2-.2-.5-.9-1.3-1.5-2.8-1.5-2 0-3.2 1.3-3.2 3.2 0 1.9 1.3 3.1 3.2 3.1 1.4 0 2.2-.7 2.7-1.5.1-.2.1-.2.3-.2l4.6 1.4c.3 0 .3.2.2.3-1 2.8-3.8 5.4-7.8 5.4M-290.2 693c-4.6 0-7.4-2.8-7.4-6.5v-10c0-.1 0-.1.1-.1h5.5c.2 0 .2 0 .2.2v9.2c0 1.6.7 2.3 2 2.3s2-.6 2-2.3v-9.2c0-.1 0-.2.2-.2h5.1c.1 0 .1 0 .1.2v10.2c0 3.8-2.7 6.2-7.8 6.2M-268.4 692.4h-11.1c-.2 0-.2 0-.2-.2v-15.7c0-.2 0-.2.2-.2h5.1c.2 0 .2 0 .2.2V688h5.8c.2 0 .3.1.3.2v4c0 .2 0 .2-.3.2M-255.7 680.8l-4.2-.3v11.7c0 .2 0 .2-.2.2h-5.1c-.2 0-.2 0-.2-.2v-11.7l-4.3.3c-.2 0-.2 0-.2-.2v-4c0-.2 0-.2.2-.2h14.1c.2 0 .2.1.2.2v4c-.2.1-.2.2-.3.2M-246.7 693c-4.6 0-7.4-2.8-7.4-6.5v-10c0-.1 0-.1.1-.1h5.5c.2 0 .2 0 .2.2v9.2c0 1.6.7 2.3 2 2.3s2-.6 2-2.3v-9.2c0-.1 0-.2.2-.2h5.1c.1 0 .1 0 .1.2v10.2c0 3.8-2.7 6.2-7.8 6.2M-229.8 680.2h-1v3.8h1c1.4 0 2.2-.5 2.2-1.9 0-1.3-.6-1.9-2.2-1.9m9.8 12.2h-6.1c-.2 0-.3 0-.6-.5-.9-1.5-2.4-4.1-2.4-4.1l-1.7.1v4.3c0 .2 0 .2-.2.2h-5c-.2 0-.2 0-.2-.2v-15.7c0-.2.1-.2.2-.2h8.5c4 0 5.9 2.5 5.9 5.4 0 2.2-.8 3.7-2.3 4.3.7 1 2.4 3.5 4 5.7.2.3.3.4.3.5s-.2.2-.4.2M-210.9 684.5l-.4-1s-.2.4-.4 1c-.4 1-1.1 2.4-1.1 2.4h2.9s-.6-1.4-1-2.4m9 7.9h-5.6c-.1 0-.2 0-.3-.2-.3-.6-.5-1.2-.8-1.8h-5.5c-.3.7-.5 1.2-.8 1.8-.1.2-.1.3-.5.3h-4.9c-.2 0-.2-.1-.1-.3 2.9-5.2 6.1-11.3 8.6-15.9.1-.1.3-.1.6-.1s.6 0 .6.1c2.8 5 5.8 10.8 8.8 16 .2.1.2.1-.1.1M-189.6 692.4h-11.1c-.2 0-.2 0-.2-.2v-15.7c0-.2 0-.2.2-.2h5.1c.2 0 .2 0 .2.2V688h5.8c.2 0 .3.1.3.2v4c0 .2-.1.2-.3.2M-170 680.8l-4.2-.3v11.7c0 .2 0 .2-.2.2h-5.2c-.2 0-.2 0-.2-.2v-11.7l-4.3.3c-.2 0-.2 0-.2-.2v-4c0-.2 0-.2.2-.2h14.1c.2 0 .2.1.2.2v4c-.1.1-.1.2-.2.2M-161.8 680.2h-1v3.8h1c1.4 0 2.2-.5 2.2-1.9 0-1.3-.7-1.9-2.2-1.9m9.7 12.2h-6.1c-.2 0-.3 0-.6-.5-.9-1.5-2.4-4.1-2.4-4.1l-1.7.1v4.3c0 .2 0 .2-.2.2h-5c-.2 0-.2 0-.2-.2v-15.7c0-.2.1-.2.2-.2h8.5c4.1 0 5.9 2.5 5.9 5.4 0 2.2-.8 3.7-2.3 4.3.7 1 2.4 3.5 3.9 5.7.2.3.3.4.3.5s-.1.2-.3.2M-143.4 693c-4.7 0-7.4-2.8-7.4-6.5v-10c0-.1 0-.1.1-.1h5.5c.2 0 .2 0 .2.2v9.2c0 1.6.7 2.3 2 2.3s2-.6 2-2.3v-9.2c0-.1 0-.2.2-.2h5.2c.1 0 .1 0 .1.2v10.2c-.1 3.8-2.8 6.2-7.9 6.2M-127.3 693c-3.2 0-5.4-1.4-6.4-3.6-.1-.4-.1-.4.1-.5l3.5-1.3c.2-.1.2-.1.3.1.3.9 1.2 1.6 2.2 1.6 1.1 0 1.7-.5 1.7-1.2 0-.8-.7-1.1-2.1-1.2-.2 0-.4 0-.6-.1-1.8-.1-4.9-1-4.9-4.8 0-3.7 2.4-6.1 6.9-6.1 3.3 0 5.3 1.4 5.8 3.5.1.3.1.3-.2.4l-3.4 1.2c-.2.1-.2.1-.3-.1-.4-.9-1-1.4-2.2-1.4-1.1 0-1.5.5-1.5 1.1 0 .7.6.9 2.4 1.2.3 0 .5.1.9.1 2.6.4 4.8 1.5 4.8 4.9.1 4-3.1 6.2-7 6.2M-105.5 680.8l-4.2-.3v11.7c0 .2 0 .2-.2.2h-5.1c-.3 0-.3 0-.3-.2v-11.7l-4.3.3c-.2 0-.2 0-.2-.2v-4c0-.2 0-.2.2-.2h14.1c.2 0 .2.1.2.2v4c0 .1-.1.2-.2.2M-324.2 653.2h-.2c-.1 0-.2-.2-.2-.4l.1-.1h.1c.1 0 .1.1.2.2.1.2 0 .2 0 .3m-.1 36.9c-.2 0-.2-.1-.3-.2 0-.1 0-.1.1-.2.2 0 .2.1.4.2 0 .2-.1.2-.2.2m-.6-8.7c-.2 0-.2-.2-.4-.3-.1-.1-.2 0-.3-.1-.2-.1-.4-.3-.5-.5-.1-.3 0-.7.2-.7.2-.2.4.1.6.1.1 0 .4-.2.4-.2.3 0 .5.2.6.3 0 .3 0 .6-.2.7-.1.1-.2.1-.2.2-.1.1 0 .2-.1.3.1.1 0 .1-.1.2m0 2.9v.3c0 .2-.1.6-.5.5-.1 0-.1-.1-.2-.1 0-.1-.1-.3-.1-.4-.1-.1-.2-.1-.3-.2-.2-.3-.2-1 0-1.3.1-.1.3-.2.4-.2h.5l.1.1c0 .1.1.2 0 .3v.2c.2.3.2.5.1.8m-.3 3c-.2.2-.1.4-.4.5-.2.1-.6 0-.7.1-.1 0-.1 0-.1.1v.1c0 .1-.1.3-.1.5v.5c-.1.2-.3.4-.4.6-.1.1-.4.5-.7.3-.1-.1-.3-.3-.2-.5.1-.2.2-.3.3-.5v-.4c.1-.4.1-.8.3-1v-.1c-.1-.1-.2 0-.2-.1-.2-.1-.2-.2-.2-.5l.1-.1c.1 0 .2-.1.3-.1h.5c.6.1 1.7-.1 2.2.1v.1c-.3.2-.6.2-.7.4m-.2 2.2c-.3 0-.6 0-.8-.1 0-.3.4-.6.6-.8.2 0 .3 0 .4.2.1.2-.1.6-.2.7m-2.1 1.1c-.2 0-.2 0-.4-.1v-.2c0-.1.1-.1.1-.2h.1c.2 0 .2.1.3.2.1.1 0 .2-.1.3m-.5-5.5c.1 0 .1 0 0 0 .2.1.2.1.2.2 0 .2 0 .3-.2.3-.1-.1-.1-.2-.2-.2.1-.2.2-.2.2-.3m-.3-.2c-.2-.1-.1-.4-.2-.5-.1-.1-.2-.1-.2-.1-.2-.2-.2-.5-.3-.7l-.3-.3c-.1-.2-.4-.8-.3-1.3 0-.1.1-.3.1-.5.1-.2-.1-.4 0-.6 0-.2.1-.3.2-.4.3 0 .4.8.5 1l.6 1.8c.1.4.4.8.4 1.4-.2.1-.4.3-.5.2m-.2 1.4c-.2.4-.4.3-.7.1-.5-.3-1-.6-1.4-.8-.1-.1-.3-.1-.4-.2-.2-.1-.4-.3-.6-.4-.3-.1-.8-.1-1 .1h-.3c0-.2.1-.4.2-.5h.3c.1 0 .1-.3.1-.5s-.1-.4-.2-.6c0-.3 0-.6-.1-.9 0-.1-.2-.3-.1-.4v-.1h.2c.4.3.3 1.1.7 1.4.1.1.3.2.5.2s.4-.1.5.1c.1.2 0 .4 0 .6l.1.1c.2 0 .4-.1.6 0 .2.1.3.3.4.4.3.3 1 .7 1.2 1.1v.3m-.4 1.5l-.1.1c-.3.1-.6 0-1 .1s-1 .1-1.3.1c-.5 0-1 0-1.1-.2-.3 0-.3.1-.5.2-.3.1-.8-.3-1-.4 0-.1-.1-.2 0-.3v-.2c-.1 0-.3 0-.4-.1-.1 0-.1 0-.1-.1.1-.2.4-.2.6-.2.7-.2 1.7.3 2.2-.1h.2c.1.1.2.3.3.3.1.1.3-.2.4-.1.1 0 .4.2.4.3.2 0 .3-.1.5-.2h.3c.3.1 1 0 .5.5 0 .1 0 .1.1.3m-1.8 1.1c0-.1 0-.1.1-.2h.1c.1 0 .1 0 .2.1 0 .1-.1.4-.3.3l-.1-.2m1.3 1.4c-.1.1-.2.1-.3.2-.3 0-.3-.2-.5-.4 0-.1-.2-.1-.3-.1-.1 0-.2.3-.2.4-.4 0-.4-.4-.3-.7.1-.3.5-.4.9-.4 0-.2-.1-.4 0-.6 0-.1 0-.1.1-.1h.4l.4.4c.3.3 0 1-.2 1.3m-4.1-2c0-.1 0 0 0 0 .1-.1.1-.1.2-.1s.1 0 .1.1-.1.2-.2.1c-.1 0-.2 0-.1-.1m0 2.2c-.6-.2-.4-1.1-.1-1.5.2 0 .6.1.7 0 .1 0 .2.1.3.2.1.4-.2 1.5-.9 1.3m-1.1.7c-.1.2-.2.2-.3.2-.1-.1-.2-.2-.3-.2h-.3c-.2-.1-.2-.4-.2-.6 0-.1.1-.1.2-.2h.1c.1.1.2.2.2.4.3 0 .5-.1.6.2v.2m-1.3-4.5c-.1 0-.1 0 0 0-.2-.1-.2-.2-.3-.2v-.2h.1c.2 0 .2.1.3.2-.1 0-.1.1-.1.2m-.3 4.5h-.1v-.2c0-.1 0 0 .1-.1.1 0 .1 0 .2.1-.2.1-.2.2-.2.2m-.5-4h-.2c-.1-.1-.1-.2-.1-.4.1-.1.1-.2.2-.2h.2c.1.1.2.1.2.4-.1 0-.2.1-.3.2m-.1 2.4c-.1.1-.2.3-.3.4-.1.2-.2.3-.4.4-.5.1-.9-.9-.6-1.2.1-.2.3-.2.5-.2.2-.1.3-.2.4-.3.1 0 .2 0 .3-.1H-336.6c0 .3-.1.8-.2 1m-1.4-5.2c.2 0 .3 0 .4.1v.2h-.2l-.1-.1c-.2-.1-.2-.1-.1-.2m.1-6.9l-.2.2c-.1.1-.3-.3-.5-.2-.3.1-.5-.2-.8-.3-.3-.1-.6.1-.8.1-.2 0-.3-.1-.4-.2-.1.1-.3.2-.4.3h-.2c-.2-.1-.1-.3-.4-.3l-.3.3c-.2 0-.2 0-.3-.1 0-.3-.1-.6-.4-.3-.4 0-.1-.5-.2-.8 0-.1-.1-.1-.2-.2 0-.2.2-.3.1-.4-.1-.2-.3-.3-.4-.5-.1-.2.1-.7.2-.8 0-.1.1-.1.2-.1h.2c.1.1.3.3.4.3.1 0 .2 0 .2.1.2 0 .3-.2.4-.3.1 0 .1 0 .2.1v.5c.1.1.3.1.4.2.3 0 .4-.2.5-.5.2 0 .5 0 .7.1.1.1.1.2.2.2.2.1.5-.1.5.2l-.3.3c-.2 0-.5-.3-.7-.2 0 .3.4.4.5.6.1.1.1.2.2.3.2 0 .2-.2.3-.3.1 0 .2-.1.4-.1.1-.1.1-.1.3-.2.2.2.2.2.1.6-.1.1-.3.2-.4.3-.2.3-.1.4-.5.6 0 .3.4.2.6.4.3 0 .5-.2.7-.3 0-.3-.1-1.3 0-1.5.1 0 .2 0 .2.2v.2c0 .4.2.3.4.5l.2.2c-.1.2-.4.5-.7.8m-3.8-6.4h.2c0 .1.1.1.2.2s0 .3.1.4c.1.1.3.1.4.1.1.1.2.4.3.5 0 .1-.1.2-.1.3-.1 0-.2.1-.4.1-.1-.1-.3-.3-.5-.4-.3-.1-.4.2-.7 0-.3-.7.1-.9.5-1.2m1.5 2.9h-.1l-.1-.1c0-.3.1-.4.2-.5h.1c.2.1 0 .5-.1.6m.1-5c0-.2.1-.2.2-.3h.1c.2 0 .2.1.2.2 0 .2-.1.2-.3.3h-.1c-.1-.1-.1-.1-.1-.2m1.1 4.8c.1-.1.4-.2.5-.4h.2c0 .2.1.5 0 .6 0 .1-.1.1-.1.1-.2 0-.5 0-.6-.1v-.2m.6-1.8v.3c-.1.1-.1.2-.2.2h-.2s-.1 0-.1-.1 0-.5.1-.6h.1c.1 0 .2.1.3.2m-.4-1.2c-.2 0-.2-.1-.3-.2h-.2c-.2 0-.2-.1-.3-.2 0-.2 0-.3.1-.4.1 0 .3 0 .4-.1.1 0 .2.1.3.2.1.4.1.6 0 .7m-3.3-8.1c0-.1.1-.1.1-.2h.1c.3.3.4.7.8.8.1-.1 0-.2.1-.3l.2-.2c.2 0 .3 0 .4.1.5 0 .4-.3.6-.6.6 0 .6.5 1 .7.1.1.3 0 .5.1.1 0 .1.1.2.1 0 .2-.1.4 0 .5.1.2.2.1.4.2.1.1.1.2.2.3.5.1 1 .1 1.3-.2.2-.3.2-.5.6-.7h.2c.2 0 .2.2.4.2.2.1.5-.1.6-.1.2 0 .3 0 .5-.1s.4-.3.5-.5c.3 0 .3.2.5.3.1 0 .2-.1.4 0 .3 0 .3.4.1.6 0 .1-.2.2-.4.2 0 .1.3.2.4.2V664.4c-.1 0-.2.1-.3 0-.1 0-.2-.2-.3-.1-.1.1-.1.2-.3.3-.1.1-.3 0-.4-.1h-.2l-.3.3v.1c.2.1.6 0 .8.1.1 0 .1.1.1.1 0 .2 0 .2-.1.3-.5 0-1.1-.1-1.3.2-.1.2-.1.4-.2.5 0 .1-.1.1-.1.1-.2.1-.5-.3-.9-.2-.2.1-.4.3-.6.4-.1.1-.4 0-.5.1-.2.1-.1.8-.2 1-.1.1-.1.1-.3.1-.1-.1-.2-.2-.3-.2-.1-.1-.3.1-.4.1l-.1-.1c0-.2 0-.6-.1-.8-.1-.2-.5-.3-.7-.2l-.3.3h-.1c-.1-.1-.4-.7-.4-1 0-.1.2-.2 0-.4-.1-.1-.7-.3-.8-.4v-.2c.1-.2.4-.1.5-.2.1 0 .1-.2.2-.2 0-.3-.4-.6-.7-.6l-.3.3h-.2v-.6l-.1-.1h-.3c-.3.3-.6-.4-.5-.6m.8-2.3c.1 0 .1 0 0 0h.4v.2c-.2.2-.2.4-.5.1 0-.2.1-.2.1-.3m1.1-4.2h.1c.2 0 .2.1.4.2v.3l-.1.1h-.3l-.2-.2c0-.2 0-.2.1-.4m.8 2.8h.2c0 .2-.3.5-.4.5-.1 0-.1 0-.1-.1-.1-.1.2-.3.3-.4m.7.7c.2-.1.8-.6 1.1-.3.2.1.1.3.2.4.2.3.6.3 1 .3l.1-.1v-.3c-.1-.1-.4-.5-.5-.7 0-.1 0-.2-.1-.2 0-.1-.1-.1-.2-.1-.2 0-.2.1-.4.1l-.2-.2c0-.2.1-.3.1-.4h.1c.2.1.4.1.5.2.1 0 .1.1.2.2h.3l.1.1c0 .1.1.3 0 .4 0 .3.2.2.4.3 0 .2-.2.4-.1.6 0 .1.2.3.1.5-.1.1-.2.1-.3.2-.2.1-.5.1-.7.1-.1 0-.3.1-.4.2-.1 0-.3 0-.4-.1-.3-.2-.1-.5-.2-.7 0-.1 0-.1-.1-.1h-.2c-.1.1-.2.2-.3.2-.1.1-.1.3-.2.4-.2.3-.9.5-1.4.4-.2 0-.3-.2-.4-.3-.1-.2 0-.7.1-.8.2-.1.2.4.3.5.1 0 .1.1.2.1s.1 0 .2-.1c0-.5-.1-.4.2-.7.5-.1.7-.1.9-.1m.8-4.1h.2c.1.1.2.1.2.3-.1.1-.2.1-.2.2-.2 0-.2 0-.2-.1-.1-.2-.1-.3 0-.4m.6 0c.1-.1.2-.2.3-.2.4 0 .8.2.6.5-.2 0-.4 0-.6.2h-.2l-.2-.2c0-.2 0-.3.1-.3m2.4 4.5l.2-.2c.3 0 .3.2.4.4v.2c-.1.1-.2.1-.3.2-.2 0-.2-.1-.3-.1v-.5m1.6-8.7c.3-.1.6.1.8-.1.3 0 .3.2.4.4.2 0 .2-.1.3-.2.3 0 .4.2.7.3h.5c.2 0 .4.1.6.2v.2c-.1.2-.9.2-1.2.2h-1.5c-.1 0-.4 0-.5-.1-.3-.1-.7 0-.9-.1l-.1-.1c-.1-.2.7-.7.9-.7m3-1.7c.1 0 .1 0 .2-.1.2 0 .5 0 .7.1 0 .1.1.1.2.2 0 .2.2.6 0 .8-.1.2-.4.3-.7.2-.3-.1-.6-.4-.6-.9.1-.1.2-.2.2-.3m-2.7 8.5c0-.2.1-.2.2-.3h.2c.1 0 .1 0 .2.1 0 .2-.1.2-.2.3-.1.1-.1.3-.1.4h-.1c-.1 0-.1-.1-.1-.1-.1-.1-.2-.3-.1-.4m-.3 3.1c.1 0 .1 0 0 0 .1-.1.2 0 .2 0 0 .2 0 .2-.2.2 0 .1-.1-.1 0-.2m-.3-6.9c.3 0 .3.1.4.2v.2c0 .1-.1.1-.1.1-.4.1-.5-.2-.3-.5m-.5 7.6c0 .1 0 .2-.1.2s-.2 0-.3-.1c0 0-.1-.1 0-.2 0-.1 0-.1.1-.1h.1l.2.2m-.1-3.3c0-.2.1-.2.2-.3h.2v.1c0 .1 0 .1-.1.2 0 0-.1.1-.3 0m5.4-6.1c0 .1.1.3.1.4 0 .4-.3.4-.6.6l-.2.2c-.2.1-.3.2-.5.3l-.2.2c-.2.1-.4.2-.5.3-.2 0-.3-.1-.4-.2h-.1c-.1 0-.1.1-.1.1v.5c-.1.1-.1.2-.3.2-.2.1-.4.1-.6.2-.3.2-.4.8-.7 1h-.1l-.1-.1c0-.4 0-.8.1-1.2v-.3c.1-.1.2-.1.3-.2.1-.1.1-.2.1-.3.1-.2.3-.3.6-.4.1-.1.2-.2.3-.2.1-.1.3-.1.4-.2.1-.1.1-.3.2-.3.1-.1.3 0 .5-.1.1-.1.2-.2.4-.3.1 0 .1 0 .2-.1.2-.1.4-.3.6-.4.1 0 .2 0 .2-.1.2.4.3.4.4.4m.3 1.5c.1-.1.1-.3.2-.4h.1c.1 0 .1.1.1.1 0 .2 0 .4-.1.6l-.1.1v.3c-.1.2-.2.4-.2.6 0 .1 0 .2-.1.3-.2.5-.5 1-.7 1.5 0 .1 0 .2-.1.3 0 .1-.1.2-.2.3-.1.1-.2.4-.2.6h-.1c-.3-.1-.3-1.1-.3-1.6.1-.1.3-.2.4-.4.2-.3.2-.6.3-.9.1-.2.2-.3.3-.4.1-.2.1-.4.1-.5.1-.1.2-.3.3-.4.1 0 .2 0 .3-.1m0-4.2c.1-.2.3-.2.4-.3.2 0 .4 0 .5.1v.2l-.4.4v.1c.4 0 .6-.3.8-.4.4-.2 1.5-.2 1.9 0 0 .2-.1.3-.2.4-.2.2-.5.6-.8.6h-.4c-.4 0-.7 0-1 .2 0 .2.2.2.2.4s-.1.8-.2.9c-.2.3-1 .2-1.1-.2-.2-.2.1-.7.3-.8 0-.1-.2-.2-.3-.2.3-.3.2-1.2.3-1.4m3.9 2.5c.1.1-.1.8-.1.9 0 .1-.1.1-.2.2v.3c0 .1-.1.1-.2.2h-.1c-.3 0-.4-.1-.5-.3v-.2c0-.1-.1-.2-.2-.3 0-.5.5-.7.7-1 .4 0 .6 0 .6.2m.5 11.1c-.1.2-.3.1-.4 0-.1-.2 0-.5.1-.6.2 0 .2.1.3.1v.5m-1.3 9.2c0-.1-.1-.2-.1-.3l.3-.6s.1 0 .2-.1c.5 0 .6.5.7.9 0 .1.1.2 0 .4 0 .1-.1.2-.2.2-.4 0-.8-.1-.9-.5m.1 1.4c.1 0 .1 0 0 0h.2c.2.1.2.3.2.6-.1.1-.1.2-.2.2h-.2c-.3-.2-.1-.6 0-.8m-.5-1.3c.2-.1.3 0 .3.1v.3s0 .1-.1.1h-.1c-.1 0-.1 0-.1-.1s-.1-.3 0-.4m0-.9h.1c.1 0 .1.1.2.2 0 .1 0 .2-.1.2h-.1c-.2 0-.2-.1-.2-.1 0-.2 0-.2.1-.3m-.3-6.4c.1-.1.1-.1.2-.1.1.1.2.4.1.6h-.2c-.2-.1-.3-.3-.1-.5m-.3-6.8c-.3-.3-.2-.5 0-.7h.2c.1 0 .2.1.2.2.3.2-.1.5-.4.5m0 1.2c-.2.1-.3 0-.5-.1-.1-.3 0-.6.2-.8h.2c.1 0 .1.1.2.1.1.4.1.6-.1.8m-.4 25.9l.2-.2c.2 0 .4.2.3.4 0 .1-.1.1-.2.2h-.2c-.1-.2-.1-.3-.1-.4m-.2-5.8c.1 0 .4.3.3.5 0 .1-.1.1-.1.2-.4 0-.3-.1-.5-.2-.1-.3.2-.4.3-.5m-.6-1.2c-.1 0-.1 0 0 0 0-.1 0-.3.1-.3.1-.1.2-.1.3-.2h.1c.1 0 .2.1.3.2.1.4 0 .4-.2.6-.2 0-.2-.1-.4-.1-.1-.2-.2-.2-.2-.2m-.2.9h.2c0 .2 0 .2-.1.2h-.2c0-.2.1-.2.1-.2m-.7-14.5v-.4h.1c.2 0 .7.2.5.5 0 .1-.1.1-.1.1-.3-.1-.3-.2-.5-.2m-.5 2.3l-.2-.2c0-.1 0-.1.1-.2.2 0 .5-.1.7-.2.1 0 .3.1.2.3-.1.2-.5.4-.8.3m1.5-8.8c0 .4-.3.4-.6.5-.1 0-.4.3-.5.4-.1 0-.2-.1-.2-.2-.1 0-.2 0-.2.1s-.1.3 0 .4v.2c-.2 0-.3-.7-.2-.9.1-.2.5-.3.7-.4 0-.1.1-.1.1-.2h.2c.1 0 .3-.1.4-.1.1 0 .1.1.3.2m.9 18.3c0 .2-.1.2-.1.3-.1 0-.1 0-.2.1-.2 0-.3-.1-.4-.2v-.1c0-.3.2-.3.3-.5H-326.9c.1.2.1.3.1.4m-.4-6.7c-.2 0-.3 0-.5-.1-.2 0-.3 0-.4-.1 0-.4.2-.3.4-.4l.2-.2c.1 0 .1 0 .2-.1.2 0 .2.1.4.2.1.4-.1.5-.3.7m.8-17.1c0 .6-1.2.7-1.4.2v-.2c0-.4.3-.4.5-.5.4 0 .6.2.9.5m-.1-.7h-.5c0-.4.3-.4.5-.6.1-.1.1-.2.2-.3.1-.1.2-.1.2-.2.3 0 .2.2.2.5 0 .1.1.2.1.4-.1.1-.3.3-.7.2m.5 3.3v-.3c.1-.1.2-.1.4-.2.3 0 .5 0 .6.3 0 .1.1.2 0 .3 0 .1-.2.2-.3.3-.6-.1-.5-.2-.7-.4m.2 6.9c0 .1-.1.1-.2.2-.3-.3-.3-.4-.3-.9l.1-.1h.1c.1 0 .1 0 .2.1 0 0 .2.5.1.7m1.2 6.6c-.1.3-.3.3-.6.5-.2 0-.3-.1-.4-.1-.1-.2-.1-.6 0-.9 0-.1.1-.2.2-.3h.1c.4 0 .6.1.7.5-.1 0 0 .2 0 .3m-1-7.4c.1-.1.2-.2.2-.3h.1c.2 0 .2 0 .3.1.1.1.2.2.2.3 0 .2 0 .8-.1.8 0 .1-.1.1-.2.2-.2 0-.3 0-.3-.1-.3-.1-.2-.7-.2-1m.2 2.9c.3.1.5.2.7.5v.4c.1.7-.5 1.1-1 .8v-.6l-.1-.1c-.1-.2 0-.5.1-.7 0-.3.2-.2.3-.3m-4.3 6c0-.4.3-.9.6-1h.1v.3c-.3.2-.5.5-.7.8.1-.1.1-.1 0-.1m-.1 8.6c.1 0 .1 0 .2.2v.2c-.1.6-.4.5-.6.8h-.2c0-.7.3-.9.6-1.2m-1.1-3.8c-.1 0-.1 0 0 0 .1-.2.2-.2.4-.3.2.1.3.4.4.6 0 .2-.3.3-.4.2-.1 0-.4-.5-.4-.5m-1.2 6.2h.2c.2 0 .6 0 .7-.1.2 0 .4.1.5.2v.1c0 .1 0 .1-.1.1-.4 0-.8 0-1.1-.1h-.3c.1 0 0-.1.1-.2-.1 0-.1.1 0 0m1-4.5c0 .1-.1.2-.2.2-.1-.1-.2-.3-.3-.4 0-.1 0-.1.1-.2.2 0 .2.3.4.4m-1.3-1.6h-.2c0-.3.2-.3.4-.4.3-.2.5-.4.8-.6h.1c0 .6-.5.8-.9 1h-.2m-.2 5.2c.1 0 .1.1.2.1 0 .1 0 .2-.1.2h-.4s-.1 0-.1-.1c0-.2.2-.1.4-.2m-.8-1.9c-.1 0-.2.1-.3.1-.2-.1-.1-.3-.1-.5l.1-.1c.2 0 .3-.1.5-.1.1 0 .2 0 .3.1 0 .2-.3.4-.5.5m-.4 6.3c0-.1 0-.1.1-.2h.1c.3 0 .3.1.4.2 0 .2-.1.2-.2.3-.1 0-.2.1-.3 0-.1 0-.1 0-.1-.1v-.2m0-9.6c0-.3.3-.4.6-.6.1 0 .1 0 .2.1v.2c-.1.1-.2.1-.2.2-.1.2-.1.5-.4.3-.2 0-.2-.1-.2-.2m-3.2 2.2c.2 0 .3 0 .4.1.1.4.1.4-.1.7-.2 0-.6 0-.7-.1-.1 0-.1-.1-.1-.1.1-.3.4-.5.5-.6m-.7-3.6c.1-.4.3-.6.4-1h.2c.1.2-.1.5 0 .8.1.2.3.7.1.9-.1 0-.1-.1-.2-.1s-.2 0-.3-.1c-.2-.2-.2-.4-.2-.5m1.9-7.2c-.1.2-.4.2-.6 0-.1 0-.1-.1-.1-.2 0-.2.1-.2.1-.3h.1c.3 0 .3.1.5.2v.3m1.1.9c0 .1-.1.2-.2.3-.1.2.1.4.2.5.1.3-.2.5-.3.6-.2 0-.5-.2-.7-.1h-.1v.2c0 .5-.6-.2-.4-.5 0-.1.2-.2.3-.2.1-.2-.1-.4 0-.7.1-.3.4-.7.6-.9.4.2.7.4.6.8m.8-1.4v.4l-.2.2c-.3 0-.4-.1-.6-.1l-.1-.1c0-.5.5-.6.8-.9.2 0 .2 0 .3.1-.1.2-.2.2-.2.4m-.5 4.1c-.1.2 0 .3-.1.4 0 .1-.2.1-.2.1-.1 0-.1 0-.2-.1-.1-.6.4-.8.6-1.1h.2c-.1.5-.2.5-.3.7m.3.8c.1-.3.1-.4.2-.6l.1-.1c0-.1.1-.2.1-.2s.1 0 .2-.1h.1l.1.1c0 .4-.2.4-.4.6-.1.2-.1.4-.3.6 0 0-.1.1-.2.1h-.2c.1-.1.2-.2.3-.4m1.4-.5h-.1l-.1-.1v-.2c.1-.1.1-.2.2-.3h.1c.1.2 0 .5-.1.6m-.4-3.8l.2.2c0 .3 0 .8.2 1 0 .1.4.2.4.2v.4s.1 0 .1.1c.2 0 .3-.3.4-.4.2 0 .5 0 .6.1 0 .2-.1.3-.2.4-.1.1-.2.3-.2.4-.1.2 0 .4-.1.5-.1.1-.3.1-.4.1-.2 0-.2-.2-.4-.2s-.3.1-.5.1h-.5c-.1 0-.2-.1-.2-.2 0-.3.2-.5.4-.6 0-.3-.4-.2-.6-.1-.1 0-.1 0-.2-.1 0-.2 0-.5.1-.8 0-.1-.1-.2 0-.4.1-.3.2-.6.4-.7h.5m.6-1.5c-.2.2-.3.5-.6.6 0 0-.1 0-.1-.1-.1-.3 0-.8 0-1.1.2 0 .4 0 .5.1.2 0 .2.2.2.5m0-4.9h-.2c0-.1.1-.1.1-.2h.2s.1 0 .1.1c0 0-.1 0-.2.1m.8.1h.1c.2.1.2.5.3.7l.1.1v.3c0 .1-.3.2-.4.3 0 .1.1.2.1.3 0 .4-.3.5-.6.7-.1 0-.2 0-.2-.1-.1-.2.1-.4 0-.6-.1-.1-.2-.1-.3-.2-.1-.1 0-.4 0-.5 0-.1 0-.2.1-.3.3-.3.6-.4.8-.7m.7-3.4c0 .1-.1.1-.1.1-.3 0-.9-.4-.8-.7 0-.1.2-.1.2-.1.4.1.5.3.7.6v.1m.1 5.5c0 .1-.1.1-.2.2h-.1c-.1-.1 0-.3 0-.4h.1c.1 0 .1.1.2.1v.1m-1.6 3.8c0-.1 0-.1.1-.2.1 0 .1 0 .2-.1h.2v.1c0 .2-.2.2-.3.2-.1.1-.1.1-.2 0m2.1 1.3h-.4c-.1 0-.3.1-.5 0v-.1c0-.1.1-.1.1-.2.1-.1.2-.1.3-.1 0 0 0-.1.1-.2s.2-.2.2-.3c.3 0 .1.2.3.3.1 0 .2 0 .3.1v.1c0 .2-.2.3-.4.4m-.2 1.5c.1 0 .1 0 0 0 .1.2.1.4 0 .6h-.2c0-.4.1-.5.2-.6m-.3 2.3c-.1-.2.1-.3.2-.4 0-.1.1-.3.1-.4.1-.2.3-.4.4-.6h.1c.1 0 0 .1.1.1 0 .2-.2.4-.2.7-.1.2 0 .5-.1.7 0 .1 0 .1-.1.2-.3 0-.5-.1-.5-.3m-.7-.8c.1 0 .1 0 0 0h.2c.1.1.2.1.2.2.1.2-.3.8-.5.9h-.1c-.1 0-.2-.1-.2-.2-.1-.2.3-.7.4-.9m.1 1.9c.1-.1.4-.1.6-.2.3 0 .4 0 .5.1v.3c-.3.3-.6.6-1 .8-.3.2-.6.1-.8.4h-.1c-.1 0-.1-.1-.1-.2 0-.4.3-.5.4-.7.1-.1.2-.4.5-.5m.8-7.8l.3.3c.1 0 .4-.1.4-.1h.1v.4c-.1.3 0 .6-.3.7-.3.2-.8.2-.9.4-.1.1-.1.3-.1.4-.1.2-.9.5-1.1.4v-.4l.2-.2c.1-.1.3 0 .4-.1.2-.1.1-.3.2-.5 0-.1.1-.2.2-.3.1-.2-.1-.3-.1-.5.1-.1.2-.3.4-.4.1-.1.2-.1.3-.2zm0-4.4v-.2h.1l.1.1v.2c-.1-.1-.1-.1-.2-.1m.1.6c.3 0 .4.1.6.2v.2c0 .1-.5.3-.6.2-.1 0-.1 0-.1-.1-.1-.2-.1-.2.1-.5 0 .1 0 .1 0 0m-6.5 6.9v-.2c.1-.2.2-.2.3-.3h.2v.2c-.1.1-.2.2-.3.2-.1.2-.1.2-.2.1m0 1.2c.3 0 .3.1.4.2v1l.1.1c.3 0 .5-.1.7-.2 0-.2.1-.4.1-.5.1 0 .2 0 .2.1.2.7-.1 1.1-.4 1.5h-.4c-.1 0-.4.2-.5.2-.1 0-.4-.6-.4-.8 0-.1.1-.3.1-.5s-.2-.2-.3-.3c0-.1-.1-.1-.1-.2.1-.2.3-.4.5-.6m-1.3 1.5c0-.1 0-.1.1-.2h.1c.1 0 .1.1.2.2 0 .1 0 .1-.1.2-.2.1-.2-.1-.3-.2m.7 2.1c0 .2-.1.2-.2.3-.1 0-.1 0-.2-.1s0-.8.1-.8c.1-.2.2-.2.3-.3h.1l.2.2v.1c0 .2-.2.3-.3.3-.1.1 0 .2 0 .3m3.2 11.4c.2 0 .2 0 .3.1v.3c-.2.2-.2.1-.4 0 0-.1-.1-.2 0-.3l.1-.1m-.6-7.9c-.1 0-.1 0 0 0h-.2c0-.4.6-.6.9-.9h.2v.2c-.1.1-.2.1-.3.2-.2.1-.4.3-.6.5m-.3 1c0-.1 0 0 0 0 0-.1 0-.1 0 0 .1-.3.3-.4.5-.6h.1c.1 0 .1 0 .1.1.1.4-.1.4-.4.5-.1-.1-.2 0-.3 0m-.2 5.1c-.1 0-.1-.1-.1-.2-.1-.3 0-.3.1-.5h.2l.1.1c0 .2.1.3.1.5l-.2.2c-.1-.1-.1-.1-.2-.1m-.8-3.3h.1c.2 0 .4.1.4.3-.1.1-.3.2-.5.1s0-.4 0-.4m.1 5.5c.1 0 .4 0 .5-.1.1 0 .2 0 .2.1l.1.1c0 .3-.3.3-.5.5-.3 0-.2-.2-.4-.3 0-.1 0-.2.1-.3m2.3-10.8v.2c0 .2-.2.3-.3.4-.1.1-.1.2-.1.3 0 .1-.1.1-.2.1h-.3c-.1 0-.1-.1-.1-.1 0-.2.1-.5.1-.5 0-.1-.1-.2-.2-.2-.2 0-.4.5-.5.7-.1.2-.3.4-.4.5-.1.1-.2.1-.2.1-.2.1-.4.5-.5.7h-.1c-.1-.2-.1-.5 0-.7 0-.1.1-.1.2-.2v-.5c0-.2.1-.4.2-.6 0 0 .3-.2.4-.3 0-.3-.1-.3-.1-.6.2-.2.5-.4.7-.5h.2c0 .2-.1.5 0 .6v.1c.2 0 .2-.1.3-.1.4-.3.2-.5.4-.9h.1v.4l.1.1c.3 0 .5-.2.6-.4.1-.1 0-.2 0-.4 0 0 .1-.1.1-.2h.1c.3 0 .4.2.6.4 0 .3-.2.9-.4 1-.1.1-.3.1-.4.2-.1 0-.1.1-.2.2-.1 0-.2.1-.1.2m5-2c-.1 0-.3.4-.4.4h-.1c-.1-.1-.1-.4 0-.5.1-.2.8-.5 1-.7h.1c0 .5-.4.6-.6.8m-.3 1.2V673h.1c.2 0 .3.1.4.2 0 .1 0 .1-.1.2h-.4c.1 0 0-.1 0-.1m.7 6.5v.1h-.2l-.2-.2v-.1c0-.1 0 0 .1-.1.1.2.2.2.3.3m-.6-3.1l-.1-.1c0-.3 0-.4.2-.5.2 0 .4 0 .6.1v.2c-.1.2-.5.3-.7.3m4.3 1.7c0 .1-.1.1-.1.1-.2 0-.2 0-.3-.1 0-.1-.1-.2 0-.3 0-.1.1-.1.2-.2.1.1.4.3.2.5m0-1.8c-.6.2-1.3-.2-.9-.9.1-.1.2-.3.3-.3h.2c.3 0 .4.1.6.2 0 .3 0 .7-.2 1m.6-5.9s-.1.1-.2.1h-.2c-.1 0-.1 0-.1-.1-.2-.3.2-.6.4-.8h.1c.3.1.1.6 0 .8m.1 18.2v.2h-.1c-.1 0-.1-.1-.1-.1 0-.1 0-.1.1-.1h.1m-.1-5.4h-.2c-.1-.1-.1-.2-.1-.3 0-.1.1-.1.1-.2h.1c.1 0 .1.1.2.1v.3l-.1.1m-.3-25.2v.2c0 .5-.7.8-1.2.5-.1 0-.1-.1-.2-.2 0-.7.4-.5.7-.7.4-.1.6 0 .7.2m-15.5 23.1c0 .1 0 .1-.1.2-.2.1-.8-.1-.6-.3 0-.1.1-.1.2-.2.2 0 .3.1.5.2v.1m-.6 8.3h-.4c-.1.1-.3.4-.5.2l-.2-.2c-.1-.5.2-.7.6-.9.2-.1.3 0 .5-.1.2 0 .3 0 .4.1 0 .1.1.2.1.4-.3.3-.4.5-.5.5m-1.2-5.8c0-.1 0-.1.1-.1h.2c.1 0 .1.1.2.1 0 .3 0 .3-.2.5h-.2c0-.1-.1-.4-.1-.5m.9 1.1c.1 0 .1 0 .2-.1h.2c.1 0 .2.4.1.6 0 .1-.4.3-.5.2-.1-.2-.1-.4 0-.7m-1.3 6.2c0-.1 0-.1.1-.2h.2c.1.1-.1.4-.3.2m-.5-3.9c0-.2 0-.2.1-.3.2 0 .5.1.6.2v.2c-.3.1-.5 0-.7-.1m.2-4.4h.1s.1.1.2.1c0 .2-.3.1-.4 0l.1-.1m-.4 2c-.3.4-.6.1-.6.9.2.2.3.1.5.2v.2c-.1.1-.3.1-.4.2l.2.2c0 .2 0 .3.1.4 0 .2-.4.4-.7.3-.2 0-.5-.2-.6-.4-.1-.2-.3-.8-.2-1.2 0-.1.1-.1.1-.2.1-.2.1-.4.1-.6l-.1-.1c-.4-.1-.6-.1-.8-.4v-.1c.3 0 .4.2.6.2h.3c.1 0 .2.1.3.1.1 0 .3.2.4.2.1 0 .2-.2.2-.2.1 0 .3 0 .4-.1.3.1.3.3.2.4m-1.5 5.6c-.1 0-.2.1-.3 0-.2-.1-.3-.4-.2-.7l.1-.1.1-.1H-344.5c.3.3.2.7 0 .9m-.9-.5c-.1 0-.1.1-.2.1-.9 0-.5-.9-.2-1.1.1-.1.3-.1.4-.1.4 0 .5.1.7.3v.2c0 .1-.1.1-.1.2-.1.1-.3.1-.4.2-.1-.1-.1 0-.2.2m1.1-6.2c.1-.1.2-.1.3-.1h.2s.1 0 .1.1c.1.2 0 .3 0 .4-.1 0-.2.1-.2 0-.2 0-.4 0-.5-.1-.1-.1 0-.2.1-.3m-3.1 6c-.2 0-.2 0-.3-.1 0-.1-.1-.2-.1-.4l.1-.1c.2 0 .3 0 .4.1 0 .3 0 .4-.1.5m-1-.2c-.1.4-1.1.1-1.3 0v-.4c.1-.1.3-.2.5-.3.1 0 .2 0 .3-.1.2 0 .3.1.5.2 0 .2.1.5 0 .6m-3.7 0v.3c-.1.3-.3.5-.6.4 0-.1-.1-.3-.1-.5 0-.1.1-.2.1-.3 0-.1-.2-.2-.1-.3 0-.1.1-.1.1-.2h.1c.2 0 .3 0 .4.1.1 0 .1.1.2.2 0 0 0 .2-.1.3m-.9-1.4c-.1 0-.2-.1-.2-.2 0 0 0-.1.1-.1 0 0 .1 0 .1-.1 0 0 .1 0 .1.1 0 .2-.1.2-.1.3m-3.1-1.2v-.2c.1-.1.6-.4.7-.5.2 0 .2.1.4.2-.1.6-.6.8-1.1.5m.2 2.5c-.1.1-.4.2-.6.1-.1 0-.2.1-.3 0v-.1c-.1-.2.1-.6.3-.7h.1c.4.1.4.1.5.5.1.1.1.2 0 .2m-3-1.4c-.1 0-.2-.1-.3-.2v-.2c.1 0 .2-.1.3-.1.3 0 .4.1.5.2.1.2-.3.4-.5.3m-.9 1.3c0 .1-.1.1-.2.1-.3.1-.5-.1-.6-.2v-.1c0-.2.1-.2.2-.4H-360.1c.2 0 .4.4.3.6m-.4 1.4c0 .1 0 .1 0 0-.2.1-.2.1-.3 0v-.1l.1-.1h.2c0 .1.1.2 0 .2m-2.4-1.9c-.1-.1 0-.2.1-.2s.1.1.2.1c0 .2-.2.1-.3.1m-1 .4v.3c-.1.3-.5.4-.9.4-.1 0-.2 0-.3-.1-.1 0-.1-.1-.2-.1v-.2c.1-.1.6-.2.8-.3 0-.2 0-.5.2-.7 0-.1.1-.1.2-.1s.2.1.3.1c0 .2 0 .4-.1.7m19.3-12.1c-.1.1-.1.2-.2.2-.3.2-.6 0-.9 0-.3-.1-.3.1-.5-.1 0-.4.2-.4.3-.6.1-.1-.2-.6-.2-.7 0-.1 0-.1.1-.2.2-.1.4.1.6 0 .3-.2.1-.6.2-.8.1-.2.2-.2.4-.3.1 0 .2.1.2.2 0 .5 0 .9.1 1.3v.2c-.1.2-.1.5-.1.8m21.1-17.2c-.1-.2 0-.3 0-.5v-.2c0-.2.2-.4.2-.7v-1c.1-.4.1-1 0-1.4v-1.1c0-.4 0-.9-.1-1.3 0-.1.1-.3.1-.4v-1.3c-.1-.2-1-.3-1.3-.2h-.2c-.1 0-.1-.1-.2-.1 0-.1-.1-.2 0-.2 0-.2.3-.3.4-.4v-1.4c0-.3 0-.6.1-.7 0-.3-.3-.1-.6-.2-.2-.1-.5 0-.8 0h-.8c-.1.1-.6.1-.8.1-.1 0-.3-.1-.5-.1-.2.1-.5.3-.8.2-.3-.1-1.1-.3-1.5-.1-.2.1-.1.3-.3.4-.2.1-.7-.2-.8-.3 0 0 0-.1-.1-.1-.2-.2-1.1 0-1.2.1 0 .1-.1.5 0 .6 0 .1 0 .1.1.1.4 0 .8-.1 1.1.1.1 0 .1.1.1.2-.1.4-.6.6-1.1.5h-.2c-.3-.1-.5-.4-.6-.8-.1-.2 0-.4-.1-.5-.1-.1-.2-.1-.3-.2-.4-.2-.6-.1-1 .1-.1 0-.2 0-.3.1l-.3.3h-.3c-.3-.1-.5-.4-.8-.4-.2-.1-.5 0-.7 0-.1 0-.4-.1-.5 0-.1 0-.1.1-.2.1-.2.1-.3-.1-.5-.1-.2-.1-.7 0-.9.1 0 .2.1.2.2.3.4.4.6.1 1.1.2.3.1.5.4.6.7v.2c0 .1.7.5.8.6.1 0 .2-.2.4-.1.1 0 .2.1.3.2.2 0 .3-.2.6-.1.1 0 .2.1.2.2 0 .3-.4.8-.6.9 0 .3.3.4.4.5.1.1.1.2.2.2 0 .1 0 .2-.1.3v.5c0 .1-.1.2-.1.3 0 .2.3.3.3.5.1.1.1.3 0 .4v.3c-.1.3-.3.4-.4.6-.3 0-.7-.3-.9-.4-.1-.1-.2-.3-.1-.4 0-.6-.4-.4-.7-.6-.1-.1-.2-.2-.2-.3h-.2c-.1.1-.2.2-.3.4-.1.2 0 .4-.1.6l-.3.3c-.1.1-.2.2-.4.3-.3.1-.8-.1-.9-.2-.2 0-.2 0-.3.1 0 .3.1.4.2.7-.1.1-.3.4-.5.3-.1 0-.1 0-.2-.1 0-.2 0-.3.1-.5 0-.2 0-.3-.1-.4h-.2c-.2.1-.2.4-.4.6-.2.1-.4 0-.7.1-.1 0-.1.1-.2.2s-.2.1-.2.1c-.1.1-.1.2-.2.2 0 .3.2.6.3.8 0 .1 0 .3.1.4l.2.2c.1.2.2.5.2.8l-.4.4c-.1.1-.1.2-.2.3-.2.1-.5.2-.6.4-.1.1-.1.2-.2.4s-.2.2-.3.3c-.2 0-.3-.2-.5-.3h-.2c-.2.1-.2.5-.3.7-.1.1-.2.2-.4.2l-.5.5-.2.2c-.1.1-.1.1-.1.2v.2c.2 0 .4.1.6.1.1 0 .2-.1.3-.1.1 0 .1.1.2.1 0 .1.1.3.1.4.1.5-.2.7-.3.9-.3.4-.6.5-.6 1.2.1.1.1.2.2.2.1.1.3 0 .4.1.1.1.2.4.2.5.1.3-.1.4-.1.6v1.2c.1.3 0 .5.1.8.1.4.2.9.3 1.3v.2c.1.3.5.7.4 1.1-.1.3-.3.5-.4.8-.2.5-.2 1.2-.8 1.4-.4.2-1.3 0-1.5-.2-.1-.2-.2-.5-.4-.6-.2-.2-.6-.1-.8-.4-.1-.1-.1-.2-.1-.3-.1-.1-.3-.3-.5-.3-.4-.1-.5.2-.6.5-.1.2-.3.6-.5.7-.2.1-.9 0-1.1.2-.1.1-.4.7-.2.9 0 .1.1.1.2.2.3 0 .5-.3.8-.2.1 0 .2.2.3.2h1l.2-.2h.1c.2.1 0 .4.1.6 0 .1.1.2.2.3.2.4 0 .6-.2.8v.1c.1.1.3.2.4.4 0 .3 0 .3-.1.5-.1 0-.3-.1-.4 0-.2.1-.1.2-.3.3-.1.1-.2-.1-.4 0 0 .1.1.3 0 .4 0 .1 0 .1-.1.1h-.5c-.1 0-.2.2-.4.2-.2.1-.5 0-.6 0-.2 0-.5.1-.7.1-.3-.1-.8-.7-.9-1v-.2c0-.1-.1-.3-.1-.4-.1 0-.2-.1-.3 0-.2.1-.5.5-.6.6-.1.3.1.6 0 .8-.1.1-.3.2-.4.3-.1.1-.1.2-.2.4l-.3.3c-.1.1-.1.2-.2.2v.2c.2.1.6.3.9.2.2-.1.2-.2.4-.3.2-.1.5 0 .7 0 .2 0 .6-.1.8 0 .4 0 .5-.4.9-.3.2 0 .3.2.5.3.3.1.5-.1.7-.1.1 0 .2.1.4 0 .1 0 .2-.3.4-.2.2.1.3.4.5.4.2.1.3 0 .5.1l.6.3c.3.1.8 0 1.1.1.4.1.6-.2.9-.4.3-.2 1.5-.5 1.9-.2.2.1.3.4.4.6h.1c.1-.1.1-.3.2-.4.1-.1.4-.4.6-.4.3-.1.8.3 1.1.1.1 0 .1-.1.2-.2l.2-.2c.4.1.2.5.5.6.1.1.3 0 .4-.1.2 0 .5.2.7.3.1.4-.2.7-.4.9-.3 0-.5-.2-.6-.3h-.2c-.1 0-.3.6-.2.8 0 .1.1.2.1.3 0 .1-.1.2-.1.3-.2 0-.2-.1-.3-.2-.1-.1-.2 0-.3 0-.1 0-.3-.2-.5-.1s-.4.3-.6.3c-.2 0-.4 0-.6.1-.2.1-.3.4-.4.6-.2.3-.6.5-1 .6h-1c-.2 0-.5.1-.6 0l-.1-.1c-.1-.1-.2-.1-.4-.2-.4-.1-.7.1-.9.2h-.4c-.1 0-.2.1-.2.2-.1.1-.4.2-.6.2-.3 0-.5-.1-.6-.2-.1-.1-.2-.2-.4-.1l-.1.1c0 .5.2.6.4.9.1.1.1.3.2.3.1.1.3.1.4.2.1.1.2.2.3.4.1 0 .1.1.2.1 0 0 0 .1.1.1.1.1.4 0 .6.1.2.1.5.7.4 1.1-.1.3-.2.5-.3.7-.2.3-.5.4-.7.7h-.4c-.2.1-.2.3-.4.4-.2.1-.4-.1-.5-.1h-.2c-.1.1-.3.2-.4.3-.2.2-.5.5-.6.8-.2 0-.4.1-.5.1 0 .1.1.2.1.3 0 .1 0 .1-.1.2-.4 0-.3-.5-.5-.8v-.3s.4.1.5.2c.2 0 .2 0 .3-.1 0-.5-.4-.5-.6-.7-.2 0-.3.1-.3.2-.2 0-.4-.2-.6-.2-.1 0-.4.1-.5 0-.3 0-.5-.4-.6-.7v-.2c-.1-.1-.3-.1-.4-.1h-.2v-.3c0-.3-.2-.2-.4-.3-.2-.2-.3-.4-.4-.7h-.2l-.2.2c0 .2 0 .4.1.6.1.1.3.1.4.2v.1c0 .2-.1.3-.3.4-.1.1-.3 0-.4-.1-.2-.1-.3-.3-.4-.4-.1-.1-.1-.3-.2-.3-.2-.1-.6-.1-.8-.1l-.1-.1c-.1-.2 0-.7-.1-.9 0-.1-.1-.1-.2-.2-.3 0-.4.2-.6.3-.2.1-.3.1-.4.2 0 .2.2.2.4.3.4.3.7.6 1.2.8.2.1.8.2.6.5-.1.1-.3.1-.5.1-.1 0-.3.2-.4.2-.2.1-.5.1-.7.1-.2 0-.4-.1-.6 0h-.1c0 .1.1.3 0 .4-.3 0-.4-.3-.6-.2-.3 0-.2.4-.4.5-.3.1-.4-.3-.8-.2-.2 0-.3.1-.5.1h-.4c-.2.1-.5.1-.8.1-.1 0-.4 0-.5-.1 0-.4.6-.5.9-.7.3-.2.7-.5 1-.6.2-.1.5-.1.7-.2l.2-.2c.3-.2.3-.3.5-.6.2 0 .3.1.5 0 .1 0 .1-.1.1-.1 0-.6-.2-2.1.1-2.5 0-.4 0-.4-.2-.6-.1 0-.2 0-.3.1-.1.2 0 .7-.2.9l-.3.3c-.1.1-.2.3-.2.4-.1.3.2.3.4.4.1.1.2.3.2.5V685.1c-.2 0-.2-.2-.4-.3-.2-.1-.4-.2-.5-.4h-.2c-.1 0-.1.1-.1.1 0 .2.1.4.2.6 0 .3-.2.7-.6.6-.2 0-.5-.1-.7 0-.1.1-.2.3-.3.5-.1.1-.2.2-.3.2-.2.2-.4.5-.7.6h-.2c-.1 0-.1-.1-.1-.1 0-.3.2-.4.4-.6.1-.1.1-.2.2-.3.1-.1.2-.3.1-.4 0-.4.4-.3.5-.5.1-.2.1-.4.2-.7.1-.2.3-.4.4-.6.1-.1.1-.2.1-.3v-.1c-.4-.2-.8.6-.9.9-.1 0-.3.1-.4.1 0 .3.2.4.2.7 0 .1-.1.1-.1.2-.1.1 0 .3 0 .4-.1.2-.6.2-.8.3l-.4.4c-.1.4 0 .7-.4.9-.2.1-.4 0-.6 0-.2.1-.4.2-.6.2-.3.1-.6 0-.8.2 0 .2.2.2.4.2.5-.1 1.2-.1 1.7-.1.3 0 .8.1.6.3-.2.5-.9 0-1.4.1-.1 0-.1.1-.2.2s-.3.2-.5.2c-.3.1-.6-.2-.7-.1 0 .3.2.4.1.7-.1.4-.5.6-.7.9h-.2c0-.2-.1-.5 0-.6 0-.1 0-.2-.1-.3-.2 0-.1.2-.2.3 0 .1-.2.1-.2.2-.1.3.1.9.2 1 .2 0 .3-.1.3-.2h.1c0 .2 0 .4-.1.6 0 .1-.2.3-.2.4 0 .1.1.1.1.2h1.1c.2 0 .4 0 .5.1.2.1.1.3.2.4.1.2.5.1.7.2.4.1.8.1 1.2 0 .2 0 .4-.1.7-.1.3.1.5.2.8.2.3.1.9-.1 1.1-.2h.5c.3-.1.7 0 1-.1.3-.1.7.1.9.1.3.1.6 0 .9.1h1.4c.4-.1 1.1-.1 1.6 0h1.2c.2 0 .5.1.6 0 .2-.1.4-.2.7 0 .3 0 .4-.3.6-.4h.1c.2.2.4.5.5.7.6.1 1.2-.1 1.7-.3.3-.1.7 0 .9 0 .6 0 1.4-.1 2 0h.4c.1 0 .9.1 1.1 0h.1c0-.2-.2-.3-.1-.4.1-.1.8-.4 1-.4l.2.2c.1.2-.2.4-.1.6.1.3.4.1.8.2.2 0 .4.1.6.1h.5c.3.1 1.1 0 1.4 0 .2-.1.3-.3.5-.4 0 0 .1 0 .2-.1h.2c.1 0 .2.3.2.4.1 0 .1.1.2.1h.6c.4 0 .8.1 1.2 0h.3c.2 0 .7-.1 1-.1.2 0 .4.1.7 0 .2 0 .4-.1.6 0 .1 0 .2.1.3.1h1.9c.3.1.6-.1.8-.1.3-.1.7 0 1 0h.7c.4 0 1 .1 1.4 0h.7c.2 0 .7.1.8.1h1.9c.3 0 1 0 1.3-.1.2-.2 0-.4.1-.6.1-.2.1-.6 0-.8 0-.2-.1-.6 0-.8v-.5c-.1-.4 0-1 0-1.3 0-.3 0-.5-.1-.7V685c0-.2.1-.6 0-.8 0-.1-.1-.4 0-.5.1-.3.1-.8.1-1.2v-.4c.1-.2 0-.8 0-1.1v-1.7c0-.2-.1-.7-.1-.9 0-.4.1-.9 0-1.2v-.4c-.1-.4-.1-1-.1-1.5 0-.4.1-.9 0-1.2v-.4c0-.1 0-.2-.1-.3-.2-.3-.4-.3-.4-.8l.4-.4c.1-.1 0-.3 0-.5.1-.5 0-1 0-1.5 0-.2.1-.7 0-1-.1-.2-.2-.4-.2-.6-.1-.3.1-.5.1-.7v-.4c0-.1.1-.3.1-.4.1-.2 0-1 0-1.2V664c-.1-.3 0-.9 0-1.2v-.4c-.9-1.7-1-2.1-1.1-2.4M-336.5 652.1c.2 0 .3-.1.4-.2v-.1c-.1-.1-.3-.2-.4-.2h-.1c-.3.2 0 .4.1.5M-359.6 660.6s0-.1 0 0l.1-.1c.2 0 .2.1.3.1 0 .1.1.2 0 .3 0 .1-.1.1-.1.1h-.2l-.2-.2c0-.1 0-.1.1-.2m8.4-2.9h.3c.4.1.7.5.7 1-.2.2-.3.3-.6.2-.1-.1-.1-.1-.2-.1-.1-.1-.4-.8-.4-1 .1 0 .2 0 .2-.1m-10.1 4.5c.2-.1.2-.4.4-.5.4-.2 1.1 0 1.2.2.1.1.1.4.2.5.3.1.8-.3 1.2-.2.2.1.6.3.7.4.1.2.2.3.4.4.2.1.4 0 .6.1.1 0 .1.1.1.1v.3c0 .3.2.2.4.4.1.1.2.3.3.4.4 0 .8.1 1-.1.2-.2.3-.7.6-.8h.3c.2-.1.5-.3.9-.2.2 0 .5.2.7.1.3-.1.4-.6.6-.8.2-.1.3-.1.6-.2s.4-.3.6-.5c0-.1 0-.2-.1-.3-.2-.1-.5 0-.7.1-.3.1-.8 0-1-.1-.2-.1-.4-.4-.4-.7v-.4c0-.2-.1-.3-.2-.4-.2-.1-.6 0-.8.1-.1.1-.2.3-.4.4l-.6.3h-.2c-.2.1-.3.3-.5.3-.5.1-.5-.6-1.1-.4l-.3.3c-.3.3-1.1.8-1.5.3-.1-.2 0-.4-.1-.7-.1-.4.2-.5.4-.7.1-.2.3-.4.4-.6.2-.2.5-.3.7-.5.2-.3.4-.4.6-.6.1-.1.2-.2.4-.1.1 0 .6.5.6.6.1.1 0 .2.1.3 0 .1.1.1.2.2.4.1 1 .2 1.3-.1.1-.2.1-.4.1-.6 0-.1.1-.1.2-.2h.2c.3 0 .2.2.3.4 0 .1.1.1.2.2h.2s0-.1.1-.1c0-.2-.1-.3-.1-.4.1-.1.2-.2.4-.2.1.1.2.1.3.2.1.1.1.3.1.4.1.1.2.1.2.2.1.1.3.4.4.6.1.2 0 .4.1.6 0 .1 0 .1.1.1h.2c.3-.4.7-.7 1.1-1 .3 0 .3.1.4.2.1.1.3.1.4.2.2.1.2.4.3.6 0 .1.2.3.3.2.1 0 .1 0 .1-.1.1-.3 0-.6.2-.8 0-.3-.4-.7-.6-.9-.1-.1-.2-.3-.3-.4-.1-.2-.1-.3-.2-.4-.1-.1-.4-.1-.5-.2-.1-.1-.1-.2-.2-.3-.1-.1-.3-.2-.4-.3-.3-.2-.4-.4-.8-.4-.1.1-.2.1-.3.1-.2.1-.2.3-.5.4-.6.2-.8-.4-1.4 0-.1.2 0 .4.2.5 0 .1 0 .1-.1.2-.5.1-1.3.3-1.6-.1-.1-.1-.1-.3-.2-.4v-.3c0-.1 0-.1-.1-.2-.3 0-.3.1-.5.2-.1.1-.3.1-.4.2-.2.1-.3.3-.6.4-.3.1-.7-.1-.9 0-.3.1-.2.6-.4.7-.1.1-.4 0-.5.1-.2.1-.2.5-.4.6-.2.1-.4.1-.6.2-.1.1-.2.3-.3.4-.2.2-.5.2-.6.5-.1.2-.1.3-.2.5s-.3.2-.5.3c-.1.1-.2.2-.2.3-.1.1-.3.1-.4.2l-.1.1c0 .3 0 .5.1.7-.2-.1 0 0 .1-.1M-358.7 657.8c.3 0 .6-.2.7-.4v-.1c0-.1-.2-.1-.4-.1h-.1c-.1.1-.2.1-.2.2s-.1.1-.1.2c-.1.2 0 .2.1.2M-353.6 663.5c-.2.1-.2.1-.2.4.1.1.1.1.1.2 0 0 .1 0 .1.1.3 0 .3-.2.3-.4l-.1-.1c0-.2-.1-.2-.2-.2M-339.2 666.1v-.2c-.1-.2-.2-.2-.5-.2h-.1c0 .2-.1.4 0 .5.3.1.4 0 .6-.1M-350.8 674.2h-.4c-.2.2-.3.4-.4.6 0 .1 0 .6.1.4.2 0 .2-.1.3-.3.1-.2.3-.2.5-.3l.2-.2v-.1c-.2 0-.3 0-.3-.1M-340.7 675.4h-.2c-.1 0-.1.1-.2.1v.2c.1.1.1.1.2.1s.2-.1.3-.1v-.1c.1-.1 0-.1-.1-.2M-350.1 686.3c.3-.1.2-.5-.2-.5-.1.1-.2.1-.2.4l.1.1c.1.1.2.1.3 0"/></svg>