<svg xmlns="http://www.w3.org/2000/svg" width="262.672" height="196.261" viewBox="0 -64.074 262.672 196.261" enable-background="new 0 -64.074 262.672 196.261"><g><path fill="#fff" d="M20.01 39.364C8.156 39.364 0 31.044 0 19.79v-.107C0 8.863 8.428 0 19.955 0c6.85 0 10.982 1.85 14.95 5.22l-5.272 6.36c-2.936-2.446-5.546-3.858-9.95-3.858-6.09 0-10.927 5.383-10.927 11.853v.11c0 6.958 4.783 12.068 11.524 12.068 3.046 0 5.765-.76 7.885-2.283v-5.438h-8.428V16.8h16.528v16.53c-3.913 3.315-9.296 6.034-16.255 6.034z"/><path fill="#fff" d="M72.643 38.71l-3.48-8.536H53.068l-3.48 8.537h-8.535L57.363.38h7.72l16.312 38.33h-8.752zM61.115 10.44l-5.057 12.34H66.17l-5.055-12.34z"/><path fill="#fff" d="M87.27 38.71V.653h8.37V31.1h18.978v7.61h-27.35z"/><path fill="#fff" d="M120.926 38.71V.653h8.372V31.1h18.976v7.61h-27.348z"/><path fill="#fff" d="M154.58 38.71V.653h28.71v7.45H162.9v7.72h17.94v7.45H162.9v7.99h20.66v7.45h-28.98z"/><path fill="#fff" d="M214.12 38.71l-8.156-12.178h-6.578v12.18h-8.373V.65h17.398c8.972 0 14.355 4.73 14.355 12.56v.108c0 6.144-3.316 10.004-8.156 11.8l9.296 13.59h-9.786zm.162-25.064c0-3.588-2.502-5.437-6.578-5.437h-8.318v10.928h8.48c4.077 0 6.416-2.176 6.416-5.384v-.108z"/><path fill="#fff" d="M248.047 23.542v15.17h-8.373V23.704L225.047.652h9.787l9.08 15.278L253.158.652h9.514l-14.625 22.89z"/><path d="M25.623 101.15c-14 0-24.398-10.808-24.398-24.467v-.138c0-13.523 10.195-24.602 24.807-24.602 8.97 0 14.34 2.99 18.758 7.34l-6.66 7.68c-3.67-3.33-7.408-5.37-12.166-5.37-8.02 0-13.795 6.662-13.795 14.816v.136c0 8.156 5.64 14.95 13.794 14.95 5.438 0 8.768-2.173 12.506-5.57l6.66 6.728c-4.894 5.23-10.33 8.496-19.507 8.496z"/><path d="M82.375 100.333L72.18 85.11h-8.223v15.224H53.49V52.76h21.748c11.214 0 17.942 5.913 17.942 15.698v.137c0 7.68-4.146 12.505-10.194 14.748l11.62 16.99h-12.23zm.203-31.33c0-4.485-3.127-6.797-8.223-6.797H63.957v13.66H74.56c5.097 0 8.02-2.72 8.02-6.73l-.002-.133z"/><path d="M138.038 100.333l-4.35-10.67H113.57l-4.35 10.67H98.55l20.39-47.914h9.65l20.39 47.913h-10.942zm-14.41-35.34l-6.32 15.428h12.643l-6.32-15.427z"/><path d="M202.47 100.673h-9.108l-10.738-31.127-10.738 31.127h-9.106L146.54 52.76h11.212l9.854 32.215 10.67-32.35h8.972l10.67 32.35 9.854-32.216h10.94l-16.243 47.913z"/><path d="M226.46 100.333V52.76h10.468v38.06h23.72v9.515l-34.187-.002z"/><path d="M.256 115.808c0-1.104.92-1.972 2-1.972 1.102 0 1.996.867 1.996 1.972 0 1.104-.895 1.998-1.997 1.998-1.078 0-2-.893-2-1.998zm.342 16.062v-12.696h3.34v12.696H.598z"/><path d="M15.922 131.87v-7.675c0-1.762-.92-2.367-2.34-2.367-1.314 0-2.34.736-2.89 1.498v8.544H7.35v-12.696h3.34v1.656c.813-.973 2.364-1.972 4.44-1.972 2.787 0 4.127 1.577 4.127 4.048v8.964H15.92z"/><path d="M30.163 128.716v-6.625H28.06v-2.917h2.103v-3.47h3.365v3.47h2.575v2.918h-2.575v5.73c0 .79.42 1.394 1.156 1.394.5 0 .973-.184 1.157-.366l.71 2.522c-.5.447-1.394.814-2.787.814-2.337 0-3.6-1.208-3.6-3.468z"/><path d="M47.09 131.87v-7.73c0-1.76-.92-2.312-2.366-2.312-1.288 0-2.313.736-2.892 1.498v8.544h-3.34v-17.533h3.34v6.493c.814-.973 2.393-1.972 4.47-1.972 2.786 0 4.126 1.523 4.126 3.995v9.017H47.09z"/><path d="M53.026 125.508c0-3.68 2.708-6.65 6.57-6.65 3.786 0 6.362 2.84 6.362 6.993v.736H56.52c.21 1.604 1.5 2.943 3.654 2.943 1.078 0 2.576-.474 3.39-1.262l1.474 2.153c-1.262 1.157-3.26 1.764-5.23 1.764-3.865 0-6.782-2.6-6.782-6.676zm6.572-3.995c-2.076 0-2.97 1.55-3.127 2.812h6.256c-.08-1.208-.92-2.812-3.128-2.812z"/><path d="M74.55 123.117c0-5.39 4.073-9.07 9.33-9.07 3.864 0 6.1 2.105 7.335 4.285l-3.207 1.578c-.736-1.42-2.314-2.55-4.127-2.55-3.18 0-5.493 2.444-5.493 5.757 0 3.31 2.312 5.756 5.494 5.756 1.813 0 3.392-1.104 4.128-2.55l3.207 1.552c-1.262 2.182-3.47 4.312-7.334 4.312-5.257-.002-9.33-3.682-9.33-9.07z"/><path d="M102.04 131.87v-1.604c-.868.973-2.392 1.92-4.468 1.92-2.787 0-4.102-1.525-4.102-3.996v-9.018h3.34v7.7c0 1.763.918 2.34 2.338 2.34 1.29 0 2.314-.708 2.893-1.443v-8.598h3.34v12.696l-3.34.002z"/><path d="M108.792 131.87v-17.533h3.34v17.533h-3.34z"/><path d="M116.203 128.716v-6.625H114.1v-2.917h2.103v-3.47h3.365v3.47h2.576v2.918h-2.576v5.73c0 .79.42 1.394 1.156 1.394.5 0 .973-.184 1.157-.366l.71 2.522c-.5.447-1.394.814-2.786.814-2.338 0-3.6-1.208-3.6-3.468z"/><path d="M133.104 131.87v-1.604c-.867.973-2.392 1.92-4.47 1.92-2.786 0-4.1-1.525-4.1-3.996v-9.018h3.34v7.7c0 1.763.92 2.34 2.34 2.34 1.286 0 2.31-.708 2.89-1.443v-8.598h3.338v12.696l-3.338.002z"/><path d="M139.854 131.87v-12.696h3.34v1.734c.893-1.13 2.47-2.05 4.047-2.05v3.26c-.233-.053-.55-.08-.92-.08-1.103 0-2.575.632-3.127 1.446v8.386h-3.34z"/><path d="M157.043 131.87v-1.313c-.867 1.023-2.365 1.63-4.02 1.63-2.024 0-4.417-1.367-4.417-4.205 0-2.973 2.393-4.103 4.416-4.103 1.684 0 3.182.553 4.02 1.55v-1.708c0-1.287-1.103-2.13-2.784-2.13-1.367 0-2.63.5-3.707 1.498l-1.26-2.233c1.55-1.366 3.548-1.997 5.546-1.997 2.89 0 5.547 1.157 5.547 4.81v8.202l-3.34-.002zm0-3.05v-1.576c-.553-.736-1.604-1.104-2.682-1.104-1.313 0-2.39.684-2.39 1.92 0 1.183 1.076 1.864 2.39 1.864 1.08 0 2.13-.368 2.683-1.104z"/><path d="M163.795 131.87v-17.533h3.34v17.533h-3.34z"/><path d="M177.46 131.87v-17.533h6.915c5.494 0 9.306 3.497 9.306 8.78s-3.81 8.753-9.305 8.753h-6.914zm12.41-8.753c0-3.102-1.894-5.494-5.494-5.494h-3.183v10.96h3.183c3.47 0 5.494-2.497 5.494-5.466z"/><path d="M196.014 115.808c0-1.104.92-1.972 1.998-1.972 1.104 0 1.998.867 1.998 1.972 0 1.104-.895 1.998-1.998 1.998-1.077 0-1.998-.893-1.998-1.998zm.34 16.062v-12.696h3.34v12.696h-3.34z"/><path d="M202.006 130.214l1.445-2.34c.92.867 2.813 1.734 4.392 1.734 1.445 0 2.13-.578 2.13-1.367 0-2.102-7.546-.394-7.546-5.388 0-2.13 1.867-3.995 5.205-3.995 2.157 0 3.866.735 5.126 1.733l-1.34 2.288c-.763-.814-2.21-1.473-3.758-1.473-1.21 0-2 .552-2 1.262 0 1.894 7.52.314 7.52 5.44 0 2.313-1.973 4.075-5.494 4.075-2.207.003-4.337-.733-5.678-1.968z"/><path d="M216.41 128.716v-6.625h-2.105v-2.917h2.104v-3.47h3.363v3.47h2.575v2.918h-2.575v5.73c0 .79.42 1.394 1.156 1.394.496 0 .972-.184 1.154-.366l.71 2.522c-.5.447-1.394.814-2.786.814-2.338 0-3.6-1.208-3.6-3.468z"/><path d="M224.738 131.87v-12.696h3.34v1.734c.894-1.13 2.472-2.05 4.048-2.05v3.26c-.236-.053-.553-.08-.92-.08-1.104 0-2.576.632-3.13 1.446v8.386h-3.338z"/><path d="M233.96 115.808c0-1.104.92-1.972 2-1.972 1.103 0 1.997.867 1.997 1.972 0 1.104-.895 1.998-1.998 1.998-1.08 0-2-.893-2-1.998zm.343 16.062v-12.696h3.34v12.696h-3.34z"/><path d="M240.243 125.508c0-3.89 2.812-6.65 6.73-6.65 2.603 0 4.18 1.13 5.02 2.287l-2.184 2.05c-.605-.894-1.524-1.366-2.683-1.366-2.023 0-3.442 1.472-3.442 3.68s1.42 3.706 3.442 3.706c1.158 0 2.076-.524 2.682-1.366l2.183 2.024c-.843 1.183-2.42 2.312-5.02 2.312-3.917 0-6.73-2.76-6.73-6.678z"/><path d="M254.934 128.716v-6.625h-2.104v-2.917h2.104v-3.47h3.365v3.47h2.575v2.918H258.3v5.73c0 .79.42 1.394 1.155 1.394.498 0 .973-.184 1.155-.366l.71 2.522c-.5.447-1.395.814-2.785.814-2.34 0-3.6-1.208-3.6-3.468z"/></g><g fill="#7FD1D9"><path d="M39.587-53.54c-.05-.153 0-.305 0-.463l-.02-.22c.043-.225.148-.387.2-.605 0-.3 0-.603-.003-.904.083-.378.078-.89-.002-1.247l-.02-1.004c-.022-.395-.043-.79-.063-1.186.024-.12.057-.257.06-.402 0-.264-.03-.5-.043-.724-.01-.15.027-.352-.04-.44-.063-.166-.87-.245-1.168-.18-.04.008-.15.04-.22.02-.073-.02-.13-.078-.203-.1-.02-.073-.09-.145-.04-.22.02-.208.24-.244.382-.323.026-.148-.012-.305-.043-.44-.025-.115.042-.25.04-.343 0-.125-.042-.264-.042-.422 0-.236-.014-.536.1-.664-.03-.262-.308-.104-.543-.16-.2-.045-.493.03-.764-.017-.074-.014-.437-.03-.744-.02-.118.085-.5.13-.723.082-.117-.026-.297-.1-.46-.06-.212.052-.44.254-.704.162-.247-.086-1.042-.298-1.327-.078-.144.06-.096.274-.262.32-.195.057-.604-.186-.703-.26-.03-.02-.034-.077-.06-.1-.162-.138-1.01.016-1.126.084-.03.12-.087.45 0 .583.018.075.037.055.06.12.373.04.712-.066.984.12.054.034.078.114.122.16-.05.386-.543.55-1.024.444h-.14c-.29-.093-.425-.4-.505-.7-.048-.183-.03-.33-.12-.463-.058-.083-.168-.13-.263-.18-.39-.206-.558-.06-.904.082l-.3.06c-.118.06-.16.196-.302.242-.06.036-.216.027-.282 0-.25-.102-.416-.322-.703-.4-.213-.058-.437-.016-.624-.04-.1-.01-.332-.074-.443-.038-.047.014-.113.085-.16.1-.156.05-.308-.072-.422-.1-.218-.05-.653.038-.845.063l-.02.02c.006.165.06.198.14.28.366.376.528.048 1.006.2.275.088.423.393.584.603v.22c.028.064.622.44.725.522.13-.02.212-.153.382-.102.088.028.177.12.282.14.185.036.283-.166.52-.1.097.026.148.11.222.16-.005.29-.374.688-.542.844.013.26.247.343.402.462.072.054.1.158.162.22 0 .126-.04.164-.06.24v.484c-.015.065-.083.144-.06.242.045.187.232.266.302.42.046.105.062.236.04.344v.24c-.064.236-.25.352-.4.503-.308-.02-.614-.225-.785-.4-.075-.08-.168-.23-.08-.362.005-.56-.32-.34-.644-.52-.083-.047-.175-.196-.222-.282-.083-.005-.058-.004-.14 0-.06.12-.198.225-.242.342-.056.157.008.367-.06.502-.066.135-.175.183-.3.263-.12.076-.217.21-.36.262-.276.1-.687-.054-.825-.18-.142 0-.173.03-.262.06-.026.274.135.338.143.604-.093.1-.26.324-.442.262-.112-.003-.12-.022-.182-.06-.034-.19.042-.28.08-.423.04-.146-.035-.26-.06-.343-.06 0-.11 0-.14.02-.21.077-.21.388-.382.504-.175.12-.39.014-.603.083-.093.03-.133.114-.202.16-.066.046-.137.055-.2.102-.065.048-.09.14-.14.2.01.316.157.522.24.765l.063.36.162.162c.13.18.147.444.142.763-.1.103-.26.254-.34.362-.062.08-.1.186-.182.242-.18.123-.417.185-.562.342-.078.083-.082.22-.14.322-.08.137-.184.203-.3.302-.215-.004-.32-.146-.424-.26-.078 0-.12.007-.16.04-.187.134-.152.472-.28.664-.073.107-.227.137-.323.22-.14.15-.28.297-.422.444-.052.055-.126.087-.18.142-.05.053-.06.133-.12.18 0 .098.012.128.042.182.147.033.368.127.563.08.07-.017.176-.093.282-.06.06.017.128.086.18.12.033.12.09.268.122.4.1.44-.155.612-.3.805-.263.35-.524.486-.52 1.126.054.055.082.148.16.18.13.05.286.002.382.08.063.05.182.357.223.44.114.245-.05.4-.1.564-.007.355-.012.71-.02 1.065.052.234.016.48.082.723.098.354.152.82.243 1.165v.14c.075.26.434.684.364.985-.07.302-.274.475-.38.725-.2.466-.223 1.057-.702 1.247-.345.137-1.227.02-1.387-.198-.137-.186-.17-.434-.363-.562-.216-.145-.538-.106-.684-.32-.06-.088-.065-.193-.12-.282-.08-.125-.29-.238-.443-.28-.39-.108-.454.224-.542.442-.074.18-.3.583-.46.664-.227.113-.845-.018-1.045.16-.13.06-.34.672-.18.865.03.087.08.09.143.14.257-.008.44-.256.743-.16.1.03.18.147.28.18h.243c.217 0 .38-.002.623 0l.2-.203c.047.005.057.005.08.02.163.082.026.35.083.543.032.11.12.204.16.3.157.363.04.565-.18.764v.1c.115.106.234.21.344.32.002.23-.04.298-.12.424-.107-.004-.26-.054-.342 0-.14.056-.095.226-.26.262-.126.05-.175-.12-.402.02-.02.126.086.3.02.402-.018.055-.033.06-.06.1-.1.024-.328.004-.44.043s-.214.166-.343.202c-.16.045-.443-.015-.582-.04-.22-.04-.41.132-.664.062-.296-.08-.76-.64-.845-.942v-.222c-.028-.114-.063-.23-.103-.322-.09-.02-.155-.06-.26-.02-.14.05-.48.416-.523.564-.077.276.126.52-.02.744-.084.132-.278.184-.4.282-.093.074-.13.224-.2.32-.077.106-.2.164-.303.243-.06.048-.085.145-.14.202.006.074.015.147.02.22.16.08.55.23.785.14.143-.054.22-.212.38-.26.204-.063.44.042.644-.002.17-.036.587-.095.722 0 .383-.004.424-.357.803-.264.18.045.292.194.463.24.243.067.418-.07.663-.06.108.002.21.082.342.038.115-.037.185-.24.362-.2.217.047.28.323.483.4.144.053.28.015.442.06.196.053.33.206.522.26.303.084.722.026 1.025.098.382.09.59-.207.783-.323.28-.17 1.384-.44 1.77-.184.156.104.266.377.362.542.046-.005.058-.004.08-.02.106-.06.078-.28.14-.384.063-.104.404-.354.522-.402.294-.123.714.265.965.078.117-.042.113-.13.18-.22.05-.07.136-.088.2-.142.33.05.212.486.483.583.11.083.27-.043.342-.12.212.018.46.166.624.26.073.378-.163.594-.32.803-.23-.006-.412-.146-.544-.26l-.2.02c-.07.04-.256.554-.22.704.014.066.075.2.06.282-.018.093-.08.172-.12.24-.148-.02-.16-.122-.262-.18-.09-.05-.21-.008-.32-.04-.116-.03-.28-.144-.464-.098-.22.053-.336.24-.582.302-.17.044-.396-.008-.522.08-.197.072-.246.388-.36.544-.206.278-.55.477-.945.565l-.22-.02c-.296-.006-.49.018-.744-.04-.173-.04-.425.057-.563-.02l-.1-.12c-.097-.07-.21-.128-.343-.16-.347-.083-.618.088-.823.142l-.32-.02c-.087.025-.138.1-.202.14-.126.08-.39.145-.542.163-.235.03-.45-.112-.563-.22-.067-.063-.18-.197-.322-.12-.04.022-.062.092-.1.12-.008.435.15.503.322.783.06.1.075.235.162.303.1.078.234.087.342.16.1.108.202.215.302.32.057.043.12.066.162.12.03.043.04.094.08.122.135.09.372.042.523.12.197.1.47.605.365 1.005-.06.226-.17.466-.28.664-.153.275-.495.404-.683.644l-.382-.02c-.163.054-.218.263-.38.323-.156.098-.353-.054-.462-.08l-.22.022c-.098.097-.245.143-.343.24-.19.19-.423.47-.542.726-.145.037-.35.06-.463.122.006.125.056.196.122.26-.01.09-.026.086-.06.142-.38-.024-.293-.49-.463-.723-.003-.08-.013-.196.018-.242.04-.02.333.114.422.18.156 0 .16-.04.24-.1 0-.434-.34-.457-.583-.643-.18.01-.233.105-.3.22-.204-.012-.333-.182-.543-.18-.122.003-.38.084-.483.02-.273-.017-.43-.378-.502-.6l-.04-.222c-.055-.094-.255-.134-.363-.06-.095 0-.126-.01-.18-.04-.02-.083-.036-.18.02-.24-.02-.233-.22-.18-.362-.28-.194-.14-.292-.405-.404-.624-.1-.022-.116-.026-.222-.02-.043.045-.107.103-.16.14-.01.216.012.39.102.543.12.05.268.09.382.14.012.045.015.052.04.08-.017.15-.105.288-.24.322-.13.086-.266-.037-.362-.1-.156-.1-.296-.233-.402-.38-.07-.098-.104-.235-.202-.3-.167-.114-.508-.07-.724-.08-.04-.035-.08-.068-.12-.1-.096-.173.004-.615-.12-.785-.04-.112-.12-.098-.203-.16-.28.017-.35.18-.543.26-.143.063-.288.076-.402.143.016.215.192.188.323.28.355.256.664.58 1.106.743.174.064.688.157.502.42-.095.12-.294.048-.462.1-.13.044-.238.16-.38.204-.17.052-.477.046-.644.082-.184.04-.397-.104-.542 0-.048.016-.044.02-.08.04-.022.135.08.296 0 .403l-.022.04c-.227-.006-.403-.234-.522-.18-.248.033-.16.372-.36.444-.305.108-.406-.306-.765-.22-.147.034-.304.086-.443.12-.126.008-.255.014-.382.02-.19.05-.5.124-.703.103-.132-.015-.352-.012-.442-.08H4.6c-.014-.035-.004-.02-.02-.04.014-.345.562-.476.802-.625.297-.186.607-.42.924-.564.207-.095.426-.112.623-.222l.18-.183c.234-.21.27-.296.442-.564.166.01.298.128.422.04.05-.023.058-.05.1-.08.022-.578-.18-1.87.116-2.294.01-.34.012-.342-.16-.5-.13 0-.166.02-.242.06-.044.22-.03.6-.14.785-.064.11-.208.163-.28.26-.07.098-.15.29-.18.404-.08.298.187.29.32.382.122.083.163.253.163.462 0 .1 0 .167-.04.22-.014.047-.02.045-.04.08-.197-.013-.202-.172-.322-.258-.18-.13-.36-.175-.482-.362-.063 0-.127-.002-.16.02-.064.03-.062.072-.102.122.025.185.117.406.222.522 0 .298-.205.6-.542.524-.167-.036-.44-.11-.604 0-.13.09-.17.29-.26.424-.07.104-.198.146-.3.22-.22.162-.335.47-.623.565-.042.03-.18.03-.22 0-.08-.027-.074-.07-.122-.12.01-.305.193-.382.32-.564.066-.093.097-.184.16-.28.073-.11.18-.253.06-.402.01-.34.325-.263.462-.465.12-.175.128-.396.22-.603.084-.19.264-.366.36-.544.046-.084.047-.185.1-.26-.01-.063-.02-.077-.04-.12-.377-.15-.694.572-.842.825-.114.024-.278.052-.38.08-.043.253.216.34.14.624-.014.056-.083.118-.098.16-.048.124.025.255-.04.342-.125.173-.56.148-.744.283-.11.08-.27.268-.322.403-.125.342.024.655-.34.784-.16.057-.34-.044-.542 0-.21.046-.34.154-.522.202-.264.07-.568.025-.763.142.014.156.156.22.342.18.462-.1 1.082-.07 1.588-.082.23-.006.752.048.523.32-.173.482-.81-.032-1.267.104-.09.027-.12.108-.18.16-.12.1-.247.178-.423.222-.23.057-.532-.138-.664-.06h-.04c-.046.255.173.397.103.664-.096.353-.424.537-.602.804-.085-.003-.107-.016-.16-.04-.04-.16-.1-.435.018-.583.006-.12.013-.197-.06-.24-.014-.016-.002-.006-.022 0-.14.036-.116.168-.18.28-.045.08-.16.134-.2.222-.12.27.066.802.163.943.163.002.244-.062.28-.182h.02c.027.034.012.025.06.042-.003.214-.024.358-.098.503-.044.084-.182.236-.14.34.02.095.053.084.1.14h.986c.158 0 .337-.015.423.06.16.055.13.24.222.36.09.22.424.08.683.14.334.078.758.066 1.106-.022.144-.036.403-.11.603-.062.242.06.498.158.765.22.285.07.778-.104 1.005-.16l.48-.022c.284-.066.602-.043.886-.103.293-.06.604.065.823.12.3.074.52.04.784.098.19.043.492-.006.643-.04h.603c.393-.097 1.02-.088 1.427-.045.28.032.81-.035 1.106-.042.168-.004.438.07.56.04.226-.056.4-.22.645-.022.234-.002.378-.266.5-.404h.122c.182.19.34.436.483.664.54.118 1.078-.124 1.527-.245.257-.07.603.03.845.04.578.017 1.273-.105 1.81.015l.4.02c.087.018.842.068.986-.042l.06-.02c-.015-.15-.156-.26-.062-.382.046-.134.708-.41.864-.402.062.06.128.065.16.16.136.2-.17.338-.078.503.095.267.407.067.703.14.14.035.383.105.583.06.097-.02.314-.048.44-.02.31.067.962.037 1.228-.042.19-.06.276-.245.42-.343.045-.03.102-.03.142-.06.07.003.103.008.142.04.108.037.19.228.22.34.07.02.122.063.18.08h.584c.344 0 .738.065 1.065 0 .093.005.187.012.28.02.195-.045.666-.12.905-.063.176.042.4.095.643.04.136-.033.35-.07.522-.022.082.023.19.078.282.1.175.04.5.01.643-.02.195-.043.454.016.624-.022.157-.034.353.016.46.04.276.062.544-.057.725-.102.272-.07.634.034.884-.02.22.005.442.01.663.018.387 0 .896.063 1.286-.023.072-.015.18.012.22.02.14.032.35-.005.422-.02.14-.024.604.048.744.08.168.037.467.01.603-.02.083-.02.212.025.26.02.25-.04.53-.03.784-.043.303-.017.95.043 1.145-.103.216-.148.044-.344.1-.584.045-.203.043-.5.038-.763-.004-.22-.103-.502-.042-.763.026-.11.042-.37.02-.462-.076-.326-.045-.878.018-1.186l-.06-.684c.046-.212-.036-.416.017-.643.03-.12.002-.24 0-.383v-1.005c0-.222 0-.443-.002-.664.037-.156.063-.515.02-.703-.03-.116-.08-.325-.042-.482.07-.293.1-.685.078-1.065l-.04-.382c.05-.22.028-.757-.023-.984v-.423c0-.335-.042-.75.02-1.046.035-.18-.088-.63-.083-.823.01-.35.088-.81.02-1.124.006-.107.012-.215.02-.322-.084-.37-.087-.952-.064-1.387.02-.348.11-.802.038-1.125v-.362c-.016-.07-.024-.2-.06-.26-.163-.273-.374-.242-.342-.702.068-.067.323-.334.36-.404.064-.116.005-.265.04-.422.096-.442.01-.91.037-1.407.012-.217.1-.64.04-.865-.052-.19-.172-.378-.222-.562-.075-.273.072-.483.12-.644.005-.107.012-.214.018-.32.027-.106.075-.248.102-.363.05-.224.008-.897-.022-1.104l.02-.24c.002-.387-.002-.812.04-1.087.01-.088-.024-.32-.043-.403-.064-.3.002-.858.04-1.105.017-.13-.032-.266-.002-.402.084-.416-.088-.755-.168-.99zM20.46-37.953c-.062.066-.103.172-.18.222-.228.154-.584.034-.823-.02-.263-.058-.288.1-.482-.08.01-.324.204-.34.28-.562.084-.134-.142-.56-.203-.643.01-.072.02-.12.06-.16.14-.104.35.094.503-.022.253-.182.046-.537.18-.724.057-.168.208-.172.34-.263.115.042.143.08.223.14.004.455.044.802.123 1.187-.005.074-.013.147-.02.22-.002.222.01.485 0 .704zM2.895-26.967v.3c-.08.29-.422.404-.803.323-.127-.026-.22.005-.3-.06-.078-.026-.09-.07-.142-.12.002-.077.007-.12.04-.16.05-.125.537-.185.684-.263.038-.17.05-.47.14-.604.036-.054.115-.078.16-.122.135.006.162.05.243.1.04.19.02.405-.02.605zm.923-.363c-.046-.116-.02-.14.06-.222.126.012.13.064.202.12.003.22-.15.163-.263.102zm2.194 1.805c-.02.046-.033.043-.06.08-.108.002-.15-.008-.2-.06-.04-.054-.037-.075 0-.12.024-.044.03-.03.06-.06.07.003.103.01.142.04.064.023.092.06.06.12zm.3-1.328c-.037.083-.088.09-.18.122-.27.09-.424-.1-.563-.202-.004-.045-.004-.056-.02-.08.014-.18.117-.217.2-.322.055-.006.142-.015.18-.042.056 0 .092 0 .12.02.18.013.417.32.263.503zM7.173-28c-.084-.03-.17-.11-.24-.16-.014-.035-.005-.02-.022-.04.002-.11.02-.15.04-.222.08-.027.16-.055.243-.08.262 0 .335.082.482.18.013.034.003.02.02.04-.017.2-.308.355-.522.282zm2.756 1.283c-.076.133-.366.18-.524.08-.102.016-.204.063-.282 0-.032-.027-.023-.012-.04-.06-.13-.176.12-.583.28-.623.017-.014.063-.027.08-.04.342.11.388.072.483.44.014.052.034.14.002.203zm-.266-2.333l.02-.2c.055-.09.527-.353.642-.443.22 0 .223.09.363.14.01.034.002.02.02.04-.088.564-.527.792-1.046.463zm2.836 1.08c-.12-.008-.142-.056-.162-.16.023-.023.037-.056.06-.08.032-.026.09-.036.122-.06.034.02.066.04.1.058-.002.16-.047.168-.12.243zm.866 1.306l-.02.24c-.088.24-.287.42-.583.344-.026-.103-.102-.268-.06-.422.02-.078.13-.19.1-.302-.025-.09-.178-.188-.122-.3.012-.113.056-.13.102-.202.043-.01.072-.018.1-.04.167-.002.31.006.402.08.11.038.118.122.182.2 0 .178-.067.275-.1.402zm3.356.034c-.125.34-.984.13-1.206-.02-.023-.11-.02-.228.02-.32.12-.1.295-.22.44-.282.08-.033.192-.02.262-.06.202.015.315.098.442.18.034.125.148.372.042.502zm.924.18c-.035.013-.02.004-.04.02-.148 0-.177-.03-.26-.08-.025-.103-.044-.214-.042-.36.03-.032.06-.084.08-.122.2-.002.255.03.363.1 0 .212-.036.312-.1.442zm2.766-5.472c.07-.048.173-.05.24-.1h.16c.023.022.05.042.082.06.06.146.02.246-.04.36-.083.037-.178.07-.222.04-.162.007-.37.034-.42-.077-.017-.02-.008-.005-.02-.04l.22-.242zm-.956 5.59l-.16.1c-.784.02-.462-.826-.143-1.043.1-.07.25-.054.36-.122.374-.006.483.047.645.24v.182l-.1.14c-.126.087-.28.113-.4.202-.104.074-.124.2-.202.3zm.825.52c-.09.024-.204.074-.28 0-.185-.076-.24-.393-.223-.622.035-.034.047-.087.08-.12.034-.034.088-.046.12-.08.043-.01.04-.007.062-.022.095-.002.17 0 .22.04.29.19.178.576.02.805zm1.3-5.087c-.246.36-.51.107-.522.826.146.137.27.105.442.2.013.055.034.11 0 .162-.052.11-.278.127-.38.18v.042c.06.055.1.102.18.14.025.14-.023.31.062.4-.006.225-.33.378-.603.305-.155-.042-.436-.2-.524-.322-.118-.162-.3-.69-.203-1.044.016-.06.08-.112.1-.163.067-.158.062-.406.06-.56-.03-.03-.06-.068-.08-.102-.36-.082-.518-.102-.725-.34.01-.063.02-.077.04-.12.264.01.36.142.564.2h.3c.073.017.165.046.242.08.09.038.258.197.362.14.09-.022.14-.137.16-.222.102-.023.314-.042.402-.102.26 0 .217.158.12.3zm.378-1.808h.12c.042.042.11.09.162.12-.038.21-.234.084-.322.02 0-.087.008-.096.04-.14zm-.175 3.96c-.013-.036-.003-.02-.02-.04.01-.137.06-.168.12-.242.188.003.452.122.583.2-.006.074-.017.09-.04.14-.223.093-.454.034-.643-.06zm.43 3.556c.004-.103.02-.102.06-.16.065-.003.143-.007.18.02.196.07-.02.31-.24.14zm1.235-5.61l.18-.06c.085 0 .137.003.18.04.126.042.218.405.123.522-.032.1-.32.278-.46.18h-.04c-.054-.23-.077-.478.018-.682zm-.786-1.023c.023-.064.042-.06.08-.1.056.005.125.014.16.038.107.02.116.07.182.12.02.232-.04.315-.14.463-.093 0-.124-.014-.18-.04-.04-.095-.176-.37-.102-.48zm1.015 5.303l-.383.042c-.132.05-.247.327-.48.203l-.163-.16c-.108-.452.19-.684.523-.806.138-.05.31-.01.422-.082.18-.002.237.026.342.08.03.112.063.196.06.36-.098.108-.185.302-.32.363zm.55-7.597c-.01.09-.027.086-.062.14-.218.053-.697-.1-.583-.3.038-.093.132-.082.2-.14.207.002.296.066.422.14.025.053.056.108.022.16zm14.132-21.007c.024.05.012.12.04.16.003.488-.676.71-1.085.445-.06-.04-.093-.128-.14-.18-.015-.61.334-.45.66-.665.255-.003.44.073.524.24zm.3 22.89c-.034.015-.02.005-.04.022-.1 0-.133-.01-.18-.06-.06-.07-.085-.172-.082-.302l.1-.14c.043-.01.073-.02.1-.04.07.03.105.062.162.1.02.088.043.156.04.28-.033.048-.067.095-.1.14zm.03 4.967c-.004.083-.014.09-.04.14-.052 0-.075-.002-.1-.02-.058-.032-.043-.053-.04-.08.01-.064.016-.06.038-.1.063.015.095.034.14.06zm-.11-16.602c-.036.036-.103.047-.14.08-.09.003-.138 0-.18-.04-.054-.023-.064-.04-.082-.1-.168-.246.222-.563.34-.684.047.004.057.004.08.02.257.092.108.6-.017.724zm-.533 5.388c-.563.152-1.17-.186-.846-.823.05-.1.197-.255.302-.303.053-.023.118-.013.16-.04.27-.002.354.06.503.16.098.368.055.734-.118 1.006zm.043 1.628c-.026.055-.062.062-.1.1-.143 0-.18-.03-.263-.08-.02-.067-.074-.183-.02-.26.03-.087.083-.088.14-.143.177 0 .403.216.243.384zm-3.922-1.5c-.028-.032-.065-.06-.102-.082-.02-.27.045-.336.2-.483.216-.002.367.016.503.08.016.075.03.126-.02.18-.06.187-.42.278-.582.303zm.527 2.79c-.006.077-.015.076-.04.122h-.202c-.056-.06-.105-.117-.16-.18.007-.042.005-.04.02-.062.02-.053.027-.044.06-.08.137.058.217.124.322.2zm-.653-5.906c-.013-.057-.036-.13 0-.18.006-.022.013-.042.02-.06.043-.01.073-.02.1-.043.142.014.26.084.362.14.014.036.004.02.02.04-.008.092-.024.087-.06.142-.12.028-.198.045-.32.04-.032-.03-.084-.058-.122-.08zm.28-1.126c-.052.04-.28.338-.322.4-.05 0-.074 0-.1-.018-.124-.06-.1-.39-.02-.483.07-.202.712-.45.902-.603l.08.04c-.002.444-.29.475-.54.665zm-4.54 1.877c.006.024.036.103.02.16-.04.164-.163.255-.24.38-.045.077-.047.173-.1.243-.035.048-.115.062-.16.1-.103.003-.19.004-.242-.04-.048-.033-.06-.08-.1-.12.003-.146.108-.42.098-.442-.014-.127-.084-.14-.14-.22-.217.015-.342.442-.442.604-.094.15-.25.385-.4.483-.074.046-.152.05-.222.1-.184.126-.325.453-.44.646h-.082c-.045-.183-.102-.457 0-.625.036-.06.115-.133.14-.2.005-.14.012-.282.02-.423.035-.17.052-.388.14-.523.022-.038.286-.222.34-.26-.005-.28-.123-.3-.122-.584.19-.18.42-.315.622-.483.052.002.075 0 .1.02.022.007.04.014.062.02.026.147-.07.45 0 .562l.02.06c.14-.003.164-.047.242-.1.38-.253.153-.454.36-.805.076.007.075.017.12.04-.004.133-.044.26.02.34.02.048.036.045.06.083.234-.01.47-.196.544-.363.045-.105 0-.212.04-.342.025-.046.052-.094.08-.14.04-.01.072-.02.1-.04.29 0 .394.197.543.34 0 .293-.183.775-.34.905-.11.09-.258.08-.402.14-.08.035-.13.115-.2.16-.018.087-.065.197-.038.324zm-2.114 9.832c.123-.023.365 0 .462-.06.06.018.155.023.202.058l.08.08c-.02.278-.287.302-.44.444-.295.005-.2-.15-.323-.3-.003-.083 0-.17.018-.222zm-.008-5.086c.042-.01.073-.02.1-.042.22.007.367.1.342.3-.107.06-.31.19-.46.083-.172-.066-.036-.265.018-.34zm.71 3.033c-.09-.03-.083-.063-.122-.14-.125-.247-.025-.277.12-.463.04-.008.038-.006.06-.02h.1c.024.023.052.042.082.06.04.16.074.288.06.462-.052.047-.102.09-.16.14-.07-.005-.104-.01-.14-.04zm.17-4.664c-.048-.026-.013.01-.04-.04-.016-.02-.007-.006-.02-.04.166-.152.363-.285.482-.484.04-.008.038-.005.06-.02.055.02.06.034.1.06.104.386-.062.368-.34.484-.058.024-.16.094-.24.04zm.26-.905c-.045-.004-.056-.002-.08-.02l-.06-.02c.01-.393.54-.594.782-.784.05.002.075.002.1.02l.062.02-.02.14c-.05.083-.183.122-.26.18-.18.137-.36.31-.523.465zm.556 7.216c.177-.003.188.036.282.1.008.11.01.17 0 .28-.17.166-.138.118-.342.042-.022-.092-.042-.17-.04-.302.034-.033.074-.082.1-.12zM26.423-41.66c-.023.138-.124.188-.18.3-.035.015-.02.005-.04.022-.1-.01-.12-.04-.14-.12-.08-.11.038-.74.058-.765.048-.147.193-.177.302-.262h.1c.05.053.092.104.14.16-.007.042-.003.04-.02.062-.013.173-.173.243-.3.3-.002.104.1.227.08.302zm-.606-1.89c0-.12.02-.134.06-.2.05.002.075.003.1.02.118.04.1.128.162.22-.003.113-.022.12-.06.18-.2-.003-.18-.105-.263-.22zm1.164-1.347c.23.004.258.122.383.22.04.324-.015.606-.02.946.03.027.06.063.082.098.27.017.44-.067.623-.18.034-.14.06-.334.12-.443.127 0 .153.017.22.06.14.64-.09.982-.378 1.368l-.322-.02c-.113.03-.34.197-.482.16-.08-.02-.365-.564-.343-.7.02-.124.134-.266.08-.463-.042-.15-.142-.19-.242-.282l-.1-.14c.014-.294.23-.463.38-.625zm-.022-1.105c-.002-.063-.002-.126.02-.16.05-.144.2-.153.3-.243.063 0 .104.006.142.02.017.077.028.142-.02.2-.043.124-.15.15-.24.222-.06 0-.11 0-.142-.02l-.06-.02zm5.92-6.26c.247 0 .41.05.562.14.01.054.03.093 0 .14-.032.09-.463.287-.563.222-.068-.015-.07-.033-.12-.06-.053-.233-.017-.244.06-.422.04-.01.038-.006.06-.02zm-.043-.603c.004-.085.014-.093.04-.142.042-.007.04-.005.062-.02l.08.08c-.008.042-.005.04-.02.06l-.02.062c-.084-.006-.093-.015-.142-.04zm-.032 4.02c.1.102.22.176.302.3.098.003.35-.068.362-.06h.06c.017.078.03.275.02.32-.054.316-.027.52-.24.664-.23.158-.686.152-.842.382-.07.102-.05.28-.12.382-.11.163-.78.437-.984.324-.02-.113-.006-.222 0-.343l.142-.14c.106-.048.238-.02.32-.08.138-.108.084-.287.14-.484.026-.088.115-.178.142-.26.062-.19-.076-.296-.083-.483.12-.118.225-.263.363-.362.09-.064.196-.093.28-.16h.14zm-.772 7.095c.13-.086.372-.052.503-.142.228-.003.333.024.462.1.02.084.042.143.04.26-.292.308-.55.536-.922.766-.317.196-.532.06-.764.404-.052-.003-.075-.003-.102-.02-.073-.04-.058-.1-.1-.163-.002-.39.24-.428.4-.643.14-.184.292-.433.483-.562zm-.002-1.69c.042-.007.04-.004.06-.02h.14c.065.066.157.117.183.22.053.217-.31.742-.44.785-.034.025-.083.033-.1.02-.115-.008-.157-.067-.18-.16-.18-.255.24-.7.338-.844zm.565.704c-.107-.174.093-.292.14-.382l.1-.342c.1-.198.236-.388.38-.544.05.02.053 0 .102.042.05.023.045.044.08.08-.03.222-.147.38-.2.602-.05.22.023.476-.078.643-.007.116-.038.132-.08.202-.212-.002-.396-.14-.444-.3zm.317-2.11c.03.01.033.014.08.02.04.202-.02.35-.1.482-.04-.007-.038-.004-.06-.02l-.06-.02c-.022-.246.012-.328.14-.463zm.198-1.39l-.34.002c-.134.036-.313.092-.463.02l-.04-.12.1-.14c.078-.055.196-.056.26-.122.037-.036.033-.097.062-.14.055-.087.145-.155.2-.243.233.016.123.213.262.302.074.05.18.024.24.08.028.038.024.063.02.08-.014.153-.178.248-.302.283zm-1.91-1.12c.002-.114.025-.13.06-.202l.16-.06.162.02c.017.044.035.076.02.1-.028.15-.148.143-.24.223-.092-.016-.104-.044-.162-.082zm1.44-3.46c-.032.095-.097.102-.16.16-.06-.007-.07-.008-.102-.038-.136-.077-.008-.25.04-.322.044-.01.073-.02.1-.04.07.034.092.072.142.12 0 .054 0 .092-.02.12zm-.11-5.004c-.033.048-.078.062-.12.1-.26 0-.824-.373-.683-.642.034-.066.142-.077.2-.12.377.095.414.262.646.54-.008.058-.014.088-.04.122zm-.616 3.096c.07.006.084.007.12.04.19.087.18.457.283.643l.12.12c.04.076.022.21-.02.26-.04.123-.256.22-.36.282.004.118.043.213.1.28 0 .402-.316.434-.52.626-.127.002-.173-.026-.202-.12-.108-.17.124-.394.02-.563-.055-.11-.195-.1-.242-.22-.078-.12.003-.327.04-.443.035-.108.02-.194.06-.3.11-.29.406-.403.602-.606zm-.744-.16c-.09-.005-.097-.02-.162-.04.006-.136.054-.134.12-.2h.142c.023.022.05.04.08.06-.014.144-.093.117-.18.18zm.007 4.463c-.2.193-.296.467-.58.522-.025-.024-.053-.043-.083-.06-.065-.286-.042-.756.02-1.045.146 0 .326.032.42.1.243.017.248.252.223.482zm-.52 1.426l.162.16c.01.316.008.707.143.904.035.053.333.178.402.22 0 .13.01.26.022.362.036.018.09.036.12.06.197-.015.283-.228.36-.362.22-.027.43-.015.584.06-.006.214-.123.23-.22.342-.066.073-.142.24-.182.322-.066.138-.007.338-.1.443-.056.062-.247.126-.322.1-.14-.027-.19-.148-.32-.18-.16-.04-.307.095-.423.12-.078.02-.184-.026-.24-.038-.08-.02-.17.012-.222-.022-.122-.022-.138-.102-.2-.18.017-.3.16-.432.34-.563-.02-.273-.395-.21-.502-.06-.114 0-.136-.02-.202-.06-.04-.208.043-.475.08-.684.017-.1-.06-.204-.02-.36.06-.244.138-.546.36-.624.018-.013.062-.027.08-.04.1.035.21.033.302.08zm.348 3.458l-.1.04c-.026-.032-.043-.04-.082-.06-.01-.055-.02-.104-.02-.18.072-.074.132-.168.2-.242.042.007.04.005.06.02.128.066-.01.325-.057.422zm-1.325.443c.064-.27.086-.357.22-.543l.12-.1c.04-.06.048-.14.1-.183.047-.037.117-.043.162-.08h.12c.03.03.066.06.102.08.013.035.004.02.02.04 0 .373-.215.335-.36.544-.106.153-.115.406-.24.542-.04.044-.104.053-.14.1-.078 0-.103-.004-.14-.04-.08-.1.007-.24.036-.36zm-.243-.723c-.048.16-.034.288-.12.402-.044.06-.143.075-.202.12-.12 0-.135-.018-.2-.058-.105-.534.322-.726.54-1.006.08.007.08.02.14.04.055.27-.103.316-.158.502zm.435-3.8c-.044.09.023.237-.02.343-.074.073-.147.148-.22.222-.232-.005-.334-.078-.544-.1-.014-.025-.022-.042-.04-.062.018-.49.496-.557.763-.804.15-.004.17.013.24.08-.023.165-.123.205-.18.32zm-.7 1.348c-.03.09-.134.192-.162.282-.068.226.106.354.142.48.07.252-.194.444-.3.545-.186-.012-.46-.19-.624-.06l-.06.04c-.004.095-.005.176-.02.2-.03.427-.568-.198-.323-.48.04-.12.216-.174.32-.222.052-.21-.056-.397 0-.604.073-.264.363-.605.542-.784.293 0 .596.242.484.602zm-1.027-.862c-.055.164-.373.137-.502.042-.094-.035-.07-.087-.12-.16.003-.148.045-.177.1-.262.042-.008.04-.005.06-.02.25-.003.306.052.443.14.037.085.07.19.02.26zm-1.678 6.556c.084-.334.278-.58.32-.927.025-.014.042-.022.06-.04l.082.02c.042.22-.107.454-.04.743.054.23.286.61.103.803v.02c-.013-.005-.027-.012-.04-.02l-.02.02c-.014-.012-.027-.025-.04-.04-.056-.034-.1-.097-.162-.12-.1-.035-.192.007-.24-.078-.08-.072-.057-.244-.023-.382zm.65 3.254c.19 0 .27.024.382.08.093.336.053.367-.12.624-.184.038-.502.036-.623-.06-.052-.034-.062-.073-.1-.12.018-.257.312-.383.46-.524zm2.87-1.955c.03-.31.313-.35.502-.502.093.02.064.022.14.08v.16c-.072.062-.146.122-.22.183-.122.14-.136.423-.4.302-.026-.058-.068-.156-.02-.223zM30-30.592c.007-.117.036-.113.08-.182.042-.007.04-.004.06-.02.24 0 .287.088.404.2-.013.165-.09.185-.16.282-.07.018-.186.072-.262.02-.058-.02-.08-.043-.1-.1-.03-.04-.026-.187-.022-.2zm.373-5.73c-.063.034-.167.12-.26.062-.157-.06-.114-.306-.102-.482.03-.028.06-.065.08-.1.154-.042.31-.082.462-.122.133-.002.17.015.24.06 0 .288-.223.48-.42.583zm.726 1.75c.072.026.125.047.18.08 0 .126-.017.153-.06.22-.13.032-.227.028-.382.02-.024-.023-.052-.042-.082-.06-.013-.034-.004-.02-.02-.04.012-.25.202-.13.363-.22zm.152-4.705c-.083-.004-.092-.015-.14-.04.01-.234.175-.266.32-.363.247-.165.5-.353.683-.583.075.007.074.016.12.04 0 .556-.43.742-.822.906-.055.023-.12.012-.16.04zm1.148 1.465c-.01.118-.058.142-.16.162-.097-.103-.2-.308-.302-.383 0-.116.017-.12.06-.18.27.017.265.252.402.4zm-.878 4.082c.042-.024.142.035.222.04.146.01.554-.027.643-.082.202 0 .344.056.443.16.014.015.027.045.04.06-.02.055-.034.06-.06.1-.383.004-.717-.012-1.026-.097-.108-.03-.19.013-.26-.04l-.06-.06c.015-.07.008-.05.058-.08zm1.056-5.67c-.016-.02-.008-.005-.02-.04.133-.133.244-.14.402-.243.213.108.245.358.383.542 0 .182-.257.282-.382.182-.042-.016-.368-.395-.382-.442zm1.01 3.435c.084.035.118.045.143.14.04.06.026.15.02.203-.056.53-.367.436-.58.742-.084-.003-.093-.012-.14-.04 0-.525.302-.77.56-1.045zm.148-7.778c.008-.385.283-.83.582-.925.044-.025.055-.007.12 0l.02.24c-.235.22-.442.427-.622.706-.052-.005-.068-.01-.1-.02zm3.93-5.494c.313.1.488.188.604.48l.02.343c.124.598-.455 1.024-.942.704-.035-.142.01-.4-.042-.582-.012-.042-.064-.084-.08-.12-.088-.2-.017-.482.08-.625.086-.128.224-.115.36-.2zm-.205-2.632c.067-.063.147-.167.2-.24.042-.008.04-.005.06-.02.14 0 .21.02.302.06.068.08.148.167.18.28.047.16-.02.703-.077.765-.038.11-.126.113-.202.182-.135.003-.236.003-.3-.06-.28-.104-.183-.664-.162-.966zm.856 6.773c-.08.26-.316.303-.52.443-.19 0-.237-.052-.343-.12-.078-.19-.132-.58-.042-.825.035-.09.13-.162.182-.24.04-.007.04-.005.06-.02.396-.008.526.123.624.42.02.064.077.224.04.343zm-1.095-5.988c-.032.098-.11.122-.22.14-.276-.28-.274-.396-.263-.843.03-.028.06-.065.08-.1.055 0 .093 0 .12-.02.05.02.125.042.162.08.094.096.27.557.12.743zm-.172-6.33c-.01-.103-.038-.19.02-.262.083-.125.216-.118.342-.2.26-.01.45.04.502.238.038.05.067.218.02.283-.048.138-.203.153-.3.24-.428.006-.37-.127-.584-.3zm-.387-2.954c-.132-.025-.28.032-.36-.04-.02-.005-.04-.012-.06-.02.004-.374.26-.403.48-.562.07-.05.088-.17.14-.242l.222-.2c.25.01.138.22.202.42.04.128.08.21.062.383-.163.157-.36.324-.685.26zm.022.624c-.03.508-1.13.63-1.266.183-.038-.048-.042-.11-.04-.202.006-.33.234-.333.442-.463.457.002.66.226.864.482zm-.716 15.537c-.188 0-.32-.035-.423-.12-.158.005-.255-.005-.34-.06-.005-.328.193-.25.4-.362l.14-.14c.054-.038.127-.043.18-.08.167.01.222.073.323.14.07.337-.12.46-.28.623zm.412 6.11c-.002.168-.053.19-.12.282l-.18.062c-.205 0-.25-.08-.363-.16-.01-.044-.018-.073-.04-.1.008-.238.14-.303.26-.423.04-.007.04-.005.06-.02.102 0 .155.014.222.04.095.113.088.206.16.32zm-.873-16.7c-.018.36-.296.323-.562.443-.09.04-.402.248-.463.322-.127-.004-.172-.06-.22-.14-.132.003-.147.033-.22.082-.026.103-.072.262 0 .36-.002.09-.014.11-.04.162-.223-.02-.292-.63-.163-.785.078-.224.448-.246.643-.363l.1-.14c.01-.005.115.032.16.02.088-.026.284-.07.363-.123.224 0 .276.075.402.16zm-1.332 8.08c-.057-.06-.105-.115-.16-.18.007-.09.026-.103.06-.16.176-.04.49-.06.622-.162.14.003.232.104.16.24-.082.16-.426.277-.682.263zm.48-2.17c-.028-.112-.04-.21-.022-.342.027-.01.063-.023.082-.04.19.033.63.165.444.42-.027.067-.057.06-.1.102-.237.003-.278-.055-.404-.14zm.605 13.204c.04-.01.038-.005.06-.02.063.014.095.035.14.06.003.137-.02.155-.08.222-.09-.005-.096-.023-.16-.042-.014-.034-.004-.02-.02-.04 0-.11.02-.118.06-.18zm.14-.784c-.033-.025-.043-.042-.062-.08.054-.056.082-.152.14-.202.09-.075.21-.132.28-.22.056 0 .093-.002.12-.02.12.043.193.082.283.14.078.323-.018.354-.2.523-.224.003-.2-.048-.363-.1-.077-.024-.144-.003-.2-.04zM36-35.406c.114.043.38.244.262.42-.013.122-.068.128-.12.204-.336.027-.288-.063-.483-.2.002-.254.198-.313.342-.424zm.21 5.246c.055-.057.106-.124.16-.18.208-.006.396.183.282.4-.03.057-.127.1-.18.14-.078 0-.12-.006-.16-.04-.105-.07-.11-.187-.103-.32zm.34-23.496c-.226.047-.293-.03-.42-.12-.074-.307.03-.53.198-.704.062 0 .127-.003.16.02.1.02.113.074.182.12.066.278 0 .495-.12.684zm0-1.126c-.264-.272-.158-.422.038-.663.067-.002.145-.005.182.02.103.016.154.07.18.16.182.252-.158.5-.4.483zm.21 6.23c.02-.055.03-.045.06-.082.056.01.06.003.082.02.1.066.2.36.082.503-.013.034-.004.018-.02.038-.038.028-.063.025-.08.02-.065-.01-.06-.017-.1-.04-.056-.12-.138-.34-.023-.46zm.272 5.767c.043-.01.073-.018.1-.04.118.027.116.07.182.14-.003.116-.026.148-.06.222-.045.013-.054.016-.08.04-.145-.004-.15-.05-.222-.12.002-.13.035-.163.08-.242zm.042.865c.018-.043.017-.03.04-.06.133.003.192.057.22.16.033.046.025.165.022.243-.024.02-.044.05-.06.08-.062.003-.083.013-.1 0-.076-.014-.072-.03-.12-.06-.02-.115-.08-.266-.002-.363zm.485 1.186c.048-.006.058-.004.08-.02.044.01.073 0 .122.04.168.056.21.26.202.5-.077.08-.1.165-.22.203-.056.036-.14.013-.182-.022-.257-.17-.126-.524 0-.702zm-.143-1.307c-.02-.06-.07-.176-.04-.282.05-.186.186-.39.28-.543.043-.018.106-.033.14-.06.416.042.52.417.624.782.023.072.076.222.043.34-.026.093-.11.138-.16.203-.452.025-.757-.082-.886-.44zm1.172-8.325c-.056.155-.255.1-.323 0-.123-.183-.034-.45.06-.583.183-.002.187.047.28.12.018.126.055.372-.018.463zm-.422-10.128c.05.08-.072.708-.12.784-.034.058-.134.12-.16.182l.02.3c-.02.078-.1.12-.14.182-.04.008-.038.005-.06.02-.284.007-.367-.085-.422-.3v-.2c-.023-.073-.112-.198-.162-.262.02-.46.417-.66.662-.905.2-.005.34.053.382.2zm-3.52-2.225c.06-.18.235-.146.38-.242.22 0 .352.017.483.08l.022.14c-.108.107-.215.215-.32.322 0 .057.006.086.02.12.338-.016.507-.294.762-.403.394-.17 1.403-.217 1.77-.004-.01.185-.108.228-.202.322-.2.202-.43.506-.743.583-.115.002-.23.002-.342.002-.37 0-.648.01-.864.142.033.153.16.21.202.36.04.14-.09.754-.14.826-.21.318-.935.182-1.024-.16-.158-.216.1-.637.24-.724-.023-.118-.155-.17-.242-.22-.045-.182-.1-1.02-.003-1.144zm-.054 3.76c.072-.105.1-.282.16-.384.046.005.056.004.08.02.07.027.07.062.12.1.007.203.03.374-.058.523-.02.038-.086.08-.1.122l-.02.28c-.056.204-.147.4-.22.564-.037.083-.025.157-.06.24-.193.458-.467.94-.662 1.41-.042.102-.02.19-.06.3-.035.097-.135.197-.18.283-.062.118-.164.385-.2.5-.04.01-.04.005-.06.02-.274-.094-.295-.986-.284-1.425.11-.102.294-.2.382-.322.164-.228.17-.538.28-.825.056-.15.21-.246.28-.382.074-.146.056-.33.12-.483.048-.11.168-.31.26-.382.068-.05.175-.092.222-.16zm-.244-1.307c.023.086.068.264.122.342 0 .378-.3.394-.522.544-.07.048-.13.132-.2.18-.146.104-.3.177-.44.283-.056.068-.11.134-.162.202-.15.114-.34.177-.482.302-.16-.002-.245-.076-.322-.16-.047.004-.056.003-.08.02-.07.025-.07.06-.12.1v.482c-.082.08-.124.17-.24.22-.17.075-.397.08-.542.184-.242.172-.382.727-.64.905-.026.018-.026-.006-.062.02l-.06-.062c-.003-.373.007-.755.08-1.065.005-.082.012-.16.018-.24.048-.135.202-.128.282-.222.057-.068.068-.17.12-.24.125-.176.32-.262.5-.384.082-.054.158-.148.242-.2.108-.068.24-.073.34-.143.1-.07.122-.235.222-.3.115-.077.29-.043.422-.102.123-.054.222-.198.34-.262.072-.038.127-.026.2-.06.19-.086.382-.228.564-.322.067-.036.157-.04.22-.082.06.023.145.046.2.06zm-4.874 5.476c.002-.183.088-.177.18-.26.107 0 .16.01.223.04.01.024.023.06.04.08-.013.077-.035.103-.062.16-.19.054-.216.09-.382-.02zm.066 3.055c0 .122-.02.15-.06.22-.118.026-.212.016-.28-.06-.036-.04-.057-.11-.023-.16.022-.06.02-.06.08-.08.018-.014.064-.028.082-.04.057.006.086.012.12.04l.08.08zm.49-6.895c.24 0 .26.093.362.22.002.067.005.146-.02.182-.026.066-.056.06-.1.1-.377.012-.506-.292-.242-.502zm.252 6.27l.06-.06.142.02c.013.034.004.02.02.04.002.136-.038.174-.14.2-.094.057-.167-.103-.082-.2zm.237-2.854c.008-.154.075-.157.14-.242.048-.005.058-.004.082-.02.04.007.038.005.06.02.11.012.104.044.16.1-.012.16-.078.15-.14.24-.054.084-.075.26-.1.363-.05-.002-.074-.002-.1-.02-.06-.024-.057-.047-.1-.08-.01-.092-.056-.28 0-.36zM33-62.896l.2-.06c.21 0 .467.01.603.1l.14.14c.04.16.136.56.002.704-.063.178-.393.226-.603.14-.298-.12-.518-.38-.504-.82.055-.058.12-.142.16-.204zm-2.77 1.472c.248-.072.53.078.722-.062.283-.007.307.152.403.32.14-.01.226-.084.302-.16.297.01.388.204.623.28.14.045.308 0 .442.02.215.03.375.077.523.16.012.055.032.093 0 .14-.08.164-.848.206-1.124.163-.263-.04-.59-.014-.842.042-.063.012-.15-.015-.182-.02-.115-.024-.306.01-.36 0-.13-.027-.32-.034-.445-.06-.278-.06-.606.042-.822-.08l-.1-.12c.015-.18.683-.572.86-.624zm-1.435 7.942l.22-.222c.237.017.273.18.383.32-.004.07-.01.104-.04.143-.064.093-.167.095-.26.16-.143-.006-.188-.054-.282-.1-.027-.11-.032-.174-.02-.302zm-2.218-4.116c.05-.126.21-.14.3-.222.342-.013.724.144.545.44-.198.04-.405.017-.542.204-.1.005-.1.004-.2 0-.055-.058-.106-.124-.162-.18 0-.106.013-.185.06-.242zm-.502.06c.042-.007.11-.018.14-.04.127.052.167.094.16.282-.07.068-.147.132-.22.2-.152 0-.137-.04-.2-.12.01-.15.063-.224.12-.32zm-.718 3.68c.208-.078.69-.545 1.044-.264.14.095.125.266.223.4.192.27.52.293.945.28.04-.032.08-.066.12-.1.017-.08.022-.193.02-.3-.125-.13-.383-.447-.463-.604-.036-.07-.02-.14-.06-.2-.037-.054-.116-.077-.16-.12-.145.007-.208.054-.323.08-.054-.047-.123-.102-.18-.14-.002-.198.048-.233.12-.342.042-.01.072-.018.1-.04l.483.16c.055.036.107.12.18.14l.303-.04c.034.01.07.06.1.08.03.108.068.27-.018.36-.006.25.18.218.342.28.044.22-.138.334-.1.544.022.116.19.297.102.44-.05.126-.167.102-.3.143-.188.056-.438.054-.644.12-.13.044-.26.128-.402.163-.117.028-.26-.037-.32-.08-.237-.166-.093-.436-.223-.624-.02-.056-.035-.06-.06-.1-.085-.006-.08-.003-.182 0-.078.082-.182.14-.26.22-.088.09-.107.24-.18.343-.178.247-.83.472-1.268.344-.16-.046-.25-.18-.382-.26-.06-.225-.033-.63.14-.744.2-.133.195.337.282.462l.14.1c.11-.01.136-.04.202-.08-.02-.425-.065-.34.16-.625.17-.02.365.06.52.002zm-.625-.582c.056 0 .093 0 .12.02l.06.02c.015.034.005.02.022.04.004.222-.24.454-.4.424-.108-.01-.092-.014-.122-.1-.066-.2.2-.317.32-.404zm-.767-2.55c.042-.01.073-.02.1-.042.197.003.218.078.323.16.006.108.004.127 0 .24l-.1.122c-.122.025-.17.024-.303.02-.046-.05-.092-.11-.14-.16.008-.173.08-.22.12-.34zm-.937 3.76c.045-.006.056-.004.08-.02.136-.002.18.02.26.06.008.045.014.093.02.14-.202.208-.183.358-.46.082.002-.15.044-.18.1-.262zm-.74 2.11c.026-.076.07-.09.12-.14h.1c.288.298.355.604.766.742.06-.1.032-.183.08-.3l.16-.162c.148 0 .26.032.342.1.476.01.358-.287.5-.584.523.004.558.45.887.642.126.074.31.024.462.08.047.032.095.065.14.1.007.14-.062.356 0 .44.055.14.21.125.323.2.083.058.137.21.182.303.442.1.935.112 1.166-.183.226-.286.16-.502.582-.624.05-.015.126-.036.16-.02.208.014.22.166.383.22.158.106.414-.068.544-.12l.422-.062c.202-.07.336-.27.44-.442.23-.017.24.183.423.24.12.037.227-.054.32-.04.245.036.28.39.122.56-.038.115-.197.18-.32.203-.015.035-.004.02-.02.04.02.1.27.163.36.2.014.046.016.055.04.082-.005.09-.02.097-.04.16-.07.02-.184.076-.3.04-.096-.025-.177-.19-.302-.118-.115.06-.092.198-.24.242-.128.087-.26-.036-.383-.06l-.202.02c-.087.085-.192.16-.28.242.004.052.01.068.02.1.195.076.532-.033.685.08.076.028.072.068.12.12 0 .16-.042.174-.1.26-.43-.005-1.003-.054-1.206.225-.104.143-.097.352-.18.482-.024.063-.055.082-.12.102-.163.096-.43-.29-.805-.18-.21.06-.35.282-.543.362-.133.054-.333.005-.442.08-.172.07-.097.716-.22.885-.048.064-.124.083-.24.08-.06-.065-.15-.17-.242-.2-.08-.043-.26.074-.382.122-.025-.035-.06-.06-.1-.08-.032-.155.007-.576-.08-.704-.055-.153-.418-.258-.604-.14l-.24.242c-.056 0-.093 0-.122-.02-.133-.046-.396-.625-.323-.863.038-.122.158-.21.04-.342-.05-.105-.623-.278-.764-.36-.013-.057-.036-.13 0-.18.067-.136.333-.068.462-.143.07-.04.113-.15.18-.2-.003-.235-.332-.51-.603-.502-.104.1-.214.182-.3.302-.083.006-.06.004-.14 0l-.02-.02c-.034-.168-.003-.343 0-.542l-.102-.12c-.08 0-.222.006-.24 0-.17-.015-.458-.684-.326-.844zm2.946 7.413c-.14-.017-.146-.11-.24-.14-.055-.02-.14.015-.162.02-.164.03-.177-.074-.242-.14-.004-.203.03-.255.1-.363.106-.024.31-.042.402-.1.112.04.158.084.24.14.055.223.003.412-.098.583zm.364 1.004c.015.076.022.18.02.28-.064.07-.08.148-.18.182-.054.04-.12.03-.16.04-.024-.024-.052-.043-.08-.06-.026-.125-.007-.454.078-.542.016-.014.044-.027.06-.04.123.042.172.08.262.14zm-.5 1.65c.05-.106.35-.212.462-.344.04.008.04.005.06.02.02.007.04.015.06.02.037.15.115.42 0 .543-.02.06-.045.058-.08.102-.186 0-.417-.03-.542-.1-.022-.1-.023-.18.04-.242zm-1.052-4.32c.007-.19.098-.2.18-.303.042-.008.04-.006.06-.02.136.03.146.08.223.16-.008.207-.127.21-.243.302-.07-.006-.084-.007-.12-.04-.056-.027-.063-.062-.1-.1zm-.052 4.5l-.1.042c-.026-.034-.043-.043-.08-.062-.003-.248.063-.34.18-.46.04.007.038.003.06.02.19.075-.005.372-.06.46zm-1.392-2.61h.14l.14.14c.055.12.032.25.102.342.064.118.256.046.362.12.136.092.152.34.262.46-.01.133-.05.197-.1.283-.13.037-.21.084-.402.08-.102-.097-.285-.276-.422-.32-.295-.093-.332.175-.624 0-.156-.662.19-.83.542-1.106zm3.427 5.823c-.07.053-.088.13-.182.162-.06.053-.258-.284-.502-.22-.244.06-.477-.195-.724-.26-.228-.063-.58.11-.743.082-.158-.03-.254-.127-.404-.182-.108.108-.23.197-.34.303-.098.002-.17 0-.222-.04-.183-.07-.105-.288-.362-.3-.08.084-.162.173-.24.26-.172 0-.208-.04-.302-.1-.04-.234-.136-.59-.342-.24-.344-.03-.11-.493-.222-.744-.033-.074-.124-.123-.14-.22-.026-.143.142-.23.1-.402-.052-.205-.28-.296-.343-.48-.065-.197.095-.616.16-.705.036-.05.13-.062.18-.1h.18c.067.066.242.244.323.28.073.032.16.02.22.06.197-.015.28-.16.362-.283.104.004.12.024.182.06.018.1-.014.375.04.463.075.118.262.083.383.16.28-.006.372-.19.422-.424.197-.04.467.005.603.1.08.053.1.158.202.2.22.09.454-.095.463.22-.09.086-.192.157-.28.243-.2-.013-.48-.255-.624-.16h-.04c-.014.035-.005.02-.02.04.02.292.333.34.462.523.077.108.115.19.2.28.17-.006.23-.17.262-.3l.342-.102c.097-.062.133-.13.28-.16.178.145.148.22.123.5-.1.094-.267.192-.342.303-.175.258-.108.395-.42.543.014.26.393.17.523.32.24-.003.443-.198.603-.3.01-.273-.08-1.177.038-1.328.007-.013.015-.026.02-.04.135 0 .192.042.223.14.026.038.028.123 0 .16-.003.338.204.302.382.442.048.067.095.133.14.202-.007.513-.327.817-.626 1.044zm-.09 6.312c.046-.004.057-.004.08-.02.1.034.168.055.242.1-.008.04-.006.038-.02.06-.008.02-.014.04-.02.06-.118.003-.122.005-.222 0-.028-.03-.065-.057-.1-.08.006-.075.015-.075.04-.12zm1.334 4.7c-.07.134-.2.242-.282.362-.094.142-.178.273-.36.323-.417.112-.838-.81-.545-1.125.062-.174.274-.15.44-.222.162-.068.268-.213.403-.302.068-.043.17-.036.24-.082.08.003.12.008.162.04.02.014.04.028.06.04.024.293 0 .735-.118.966zm.097-2.19c-.102.006-.15.03-.22-.02-.13-.06-.117-.186-.1-.342.054-.052.118-.138.16-.2h.18c.103.104.186.12.183.34-.066.06-.15.152-.202.22zm.39 3.657c-.055 0-.093 0-.12-.02h-.042c-.012-.057-.035-.13 0-.182.02-.054.03-.044.06-.08.103.01.1.04.16.08 0 .12-.018.135-.06.2zm.273-4.142c-.046-.006-.057-.005-.08-.02-.098-.04-.11-.14-.182-.2-.002-.1-.004-.098 0-.182.026-.013.042-.02.06-.04.185.005.195.085.283.18 0 .144-.03.18-.08.262zm1.213 4.138c-.046.138-.197.16-.3.182-.06-.055-.18-.14-.263-.16-.1.005-.2.013-.3.02-.17-.06-.216-.392-.143-.583.026-.07.093-.11.14-.16h.122c.094.094.142.185.202.32.283.042.456-.11.563.22.02.06.02.11-.02.16zm1.004-.685c-.57-.155-.338-1.002-.104-1.345.18-.02.515.053.664-.042.107.045.177.086.262.14.12.5-.136 1.436-.822 1.248zm-.003-1.97c.02-.053.03-.043.06-.08.05.003.075.003.1.02.064.024.062.043.102.082-.006.106-.103.194-.202.12-.065-.024-.105-.076-.06-.14zm3.74 1.783c-.067.102-.204.126-.3.203-.3-.02-.293-.216-.423-.402-.04-.058-.15-.132-.24-.08-.086.04-.156.25-.182.342-.344.04-.354-.403-.242-.663.126-.293.43-.372.823-.403l.02-.02c.03-.18-.092-.38.02-.523.02-.054.035-.058.06-.1.057-.007.106-.016.14-.04l.203.04c.02.01.34.345.362.38h.02c.196.38-.122 1.062-.26 1.266zM32.8-27.34c.014-.084.04-.093.06-.162.042-.008.092-.02.12-.04l.162.06c.032.134-.075.36-.24.243-.068-.027-.06-.056-.102-.1zm1.606-.99l-.1.123c-.23.13-.564.013-.864.08-.376.086-.895.084-1.227.104-.41.025-.87.017-1.026-.22-.244-.02-.242.097-.442.163-.244.08-.747-.312-.885-.4-.02-.066-.074-.183-.02-.26-.004-.084-.015-.093-.042-.142-.117-.022-.313-.02-.4-.08-.062-.02-.06-.02-.08-.08-.008-.007-.015-.013-.02-.02h.02c.07-.19.322-.15.54-.202.63-.144 1.514.29 1.99-.084h.16c.062.067.217.264.304.28.12.044.276-.167.38-.1.086.016.32.217.383.28.187-.016.284-.126.462-.16.072-.016.236.025.3.04.314.063.9.03.463.42.018.12.076.144.103.26zm.36-1.306c-.14.33-.352.264-.623.103-.423-.253-.883-.51-1.31-.742-.124-.068-.26-.084-.38-.16-.17-.105-.336-.267-.524-.36-.242-.122-.684-.085-.886.062-.11.002-.178-.007-.24-.04.01-.163.075-.328.14-.444h.3c.1-.048.09-.31.06-.442-.045-.192-.118-.36-.162-.52-.02-.262-.04-.525-.062-.785-.028-.097-.154-.28-.08-.4.014-.048.02-.046.04-.083.07.004.103.01.14.04.37.246.283.985.647 1.247.11.078.276.148.422.178.182.04.356-.074.462.08.096.14.002.37 0 .563l.1.12c.198.036.334-.084.523 0 .155.07.286.285.403.402.236.234.95.672 1.046.963.047.075.005.166-.018.22zm.2-1.286c-.22-.078-.088-.333-.224-.44-.064-.053-.15-.056-.2-.12-.137-.18-.16-.426-.284-.625-.07-.114-.19-.208-.26-.32-.133-.21-.333-.767-.244-1.167.028-.13.07-.3.1-.423.045-.197-.1-.342-.042-.562.036-.134.132-.257.2-.362.288.016.356.687.444.943.184.542.34 1.084.525 1.628.134.394.34.717.324 1.285-.06.067-.195.26-.34.165zm.32.16c.047.005.057.004.08.02.103.025.09.092.14.16.01.2-.022.25-.16.302-.045-.064-.088-.153-.14-.22-.004-.158.012-.19.08-.26zm.47 4.984c-.167.013-.208-.007-.32-.08-.016-.062-.04-.1-.02-.142.01-.114.05-.115.1-.18.04-.008.038-.007.06-.022.186 0 .213.054.302.14-.003.166-.06.19-.12.284zm1.868-.988c-.287.035-.514-.003-.703-.098.005-.28.35-.585.5-.745.192-.007.283.04.323.18.156.213-.038.547-.12.664zm.138-1.95c-.155.166-.082.318-.362.422-.16.06-.53-.02-.663.062-.073.017-.08.033-.1.1-.02.042.014.048 0 .122-.026.128-.052.316-.08.422l-.02.442c-.063.226-.275.336-.4.503-.08.104-.396.42-.602.242-.127-.046-.264-.262-.2-.483.046-.17.214-.26.26-.423.04-.154-.037-.294-.022-.382.063-.373.067-.708.3-.924-.007-.042-.005-.04-.02-.06-.045-.066-.145-.028-.22-.06-.162-.07-.224-.223-.223-.463.03-.03.058-.083.08-.12.08-.028.16-.054.24-.083.132-.03.357.026.464-.04.537.083 1.57-.122 2.01.077.01.024.023.06.04.08-.04.3-.318.386-.482.563zm.337-2.754v.302c-.04.173-.135.512-.42.423l-.142-.102-.1-.4c-.062-.093-.22-.108-.283-.202-.18-.264-.158-.918.018-1.164.088-.123.226-.143.4-.183.084-.02.185.015.243-.02h.16l.122.1c.02.08.064.17.04.28-.005.026-.032.104-.02.162.07.306.048.52-.02.805zm-.006-2.674c-.228-.016-.224-.17-.362-.26-.08-.052-.165-.042-.26-.08-.213-.085-.376-.234-.465-.442-.113-.267-.018-.595.2-.664.22-.15.367.09.503.12.12.027.333-.164.4-.22.295.002.418.152.585.28.033.28-.023.514-.16.683-.044.055-.14.08-.18.14-.048.077-.023.17-.06.262-.036.09-.132.123-.2.18zm.557 7.98c-.177-.004-.2-.073-.3-.14-.014-.036-.005-.02-.022-.04.006-.128.04-.12.1-.182.173.01.216.098.343.14.013.035.004.02.02.04-.005.15-.06.113-.14.18zm.062-33.587c-.055.012-.112.033-.16 0-.127-.043-.15-.163-.14-.342.03-.04.065-.08.1-.12.05 0 .073 0 .1.02.1.034.1.11.16.18.002.137-.015.186-.06.26zM27.516-60.736c.19-.005.244-.09.36-.16 0-.056 0-.094-.02-.122-.046-.13-.23-.177-.382-.2-.015.013-.044.026-.06.04-.268.104.02.37.102.442zM4.94-51.592c.16-.116.17-.38.34-.483.325-.195.98-.036 1.127.2.077.124.09.353.16.48.29.11.735-.285 1.107-.182.158.044.533.264.623.38.106.14.212.31.362.402.143.087.395.002.522.08.06.02.073.048.12.08.012.086.03.17-.02.24.002.29.158.21.322.323.095.065.175.247.242.34.342 0 .708.064.904-.082.222-.165.272-.6.54-.704l.243-.04c.2-.067.47-.243.804-.163.166.04.415.157.624.08.288-.11.338-.51.562-.686.14-.11.315-.11.502-.182.234-.09.375-.282.52-.463 0-.135-.032-.182-.08-.262-.208-.08-.432.013-.623.062-.3.077-.748 0-.944-.12-.19-.117-.344-.396-.403-.642v-.4c-.03-.14-.082-.24-.14-.342-.225-.088-.582-.046-.765.082-.126.086-.194.27-.32.362-.182.1-.363.2-.543.302l-.222.04c-.166.07-.263.235-.46.284-.42.104-.487-.53-.966-.32-.113.05-.198.178-.28.263-.256.254-1.045.733-1.367.262-.125-.184-.008-.375-.062-.623-.068-.322.16-.467.34-.605.134-.167.27-.334.402-.502.226-.165.48-.255.643-.483.165-.236.333-.35.582-.503.076-.048.197-.172.36-.122.135.04.513.423.584.54.05.087.04.184.08.283.032.074.1.135.14.2.326.09.942.2 1.147-.082.098-.137.05-.343.12-.522.027-.072.102-.12.14-.18.055-.014.136-.036.16-.022.233.023.18.213.283.36.04.062.13.09.18.142l.16-.02c.02-.037.035-.073.06-.1-.004-.18-.067-.268-.12-.403.103-.1.14-.145.36-.14.075.068.188.095.243.18.063.1.054.233.122.323.05.063.156.09.22.14.124.09.293.372.344.522.058.17-.008.405.08.542.018.07.03.055.062.1.083.006.08.003.18 0 .308-.34.665-.64 1.024-.926.225.007.237.097.362.182.112.075.273.08.382.16.158.113.177.35.262.54.04.09.17.276.302.202.054-.02.06-.035.1-.06.046-.243.034-.523.16-.684-.042-.303-.404-.64-.564-.863-.076-.104-.192-.23-.243-.342-.06-.135-.06-.29-.14-.4-.095-.13-.35-.11-.483-.2-.088-.06-.12-.176-.182-.263-.088-.12-.25-.16-.382-.24-.245-.152-.344-.366-.745-.38-.082.06-.202.063-.28.12-.147.105-.224.288-.423.343-.553.155-.71-.363-1.266-.038-.076.186.03.368.142.482-.005.104-.028.13-.06.2-.417.112-1.182.255-1.428-.098-.068-.1-.108-.25-.14-.382-.025-.1.02-.23-.022-.3-.012-.104-.04-.1-.08-.162-.24-.002-.26.102-.423.202l-.382.14c-.17.113-.294.3-.5.384-.275.11-.68-.11-.845.002-.23.09-.137.52-.34.644-.12.07-.33.026-.442.1-.188.127-.205.436-.38.565-.15.108-.392.112-.543.22-.13.095-.156.308-.28.404-.195.147-.452.21-.583.42l-.14.444c-.092.143-.3.165-.442.262-.074.08-.147.16-.22.242-.106.07-.256.07-.362.142-.042.027-.06.09-.1.12-.023.28-.036.434.08.624.1.036.22.046.305-.026zm9.24-4.035c.05.014.208.002.302.04.34.136.645.44.624.882-.155.156-.248.23-.582.223-.052-.05-.132-.07-.18-.12-.12-.12-.337-.686-.324-.884.05-.047.11-.092.16-.14zM6.485-53.02c.02-.028.042-.054.06-.082.043-.008.04-.006.06-.02.156.006.21.06.302.12.025.092.066.182 0 .262-.027.078-.068.073-.12.12h-.14c-.073-.07-.133-.12-.2-.2-.002-.09 0-.152.038-.2zM7.326-55.535c.255-.017.564-.19.623-.403.017-.033.01-.063-.022-.1-.042-.12-.178-.11-.34-.1-.025.016-.035.016-.082.02l-.22.162c-.043.055-.057.126-.1.18 0 .17.05.168.14.24zM11.978-50.418c-.14.097-.208.09-.2.342.044.046.068.124.12.16.043.03.085.028.12.06.27.01.315-.14.302-.402-.034-.04-.068-.08-.1-.12-.08-.02-.128-.042-.242-.04zM25.046-48.01c.017-.077.028-.142-.02-.2-.048-.143-.227-.226-.423-.222-.027.032-.013.024-.06.042-.042.156-.046.327.02.46.2.055.333.012.483-.08zM14.526-40.656c-.1-.006-.2-.012-.3-.02-.027.02-.05.02-.1.02-.166.166-.313.345-.402.585-.038.1-.046.5.08.38.186-.012.2-.13.28-.242.108-.146.275-.194.423-.3.046-.062.094-.123.14-.183 0-.055 0-.092-.02-.12-.025-.07-.06-.07-.1-.12zM23.734-39.565h-.14l-.142.1c-.013.062-.02.135-.02.222.05.048.063.094.14.12.084.045.186-.05.282-.1.013-.045.015-.054.04-.08 0-.2-.076-.164-.16-.262zM15.15-29.62c.254-.084.15-.474-.163-.463-.12.097-.186.108-.18.34l.1.123c.09.023.166.06.242 0zM48.023-58.074c-.36.034-1.382.046-1.382.046v1.708c0 .09-.01.1-.11.1h-2.395c-.113 0-.113.012-.113-.1v-7.417c0-.112.057-.1.113-.1h3.74c1.788 0 2.945 1.19 2.945 2.92 0 1.844-1.066 2.663-2.797 2.843zm-.864-3.787h-.52v1.853h.54c.71 0 .99-.416.99-.92 0-.54-.28-.934-1.01-.934zM54.708-56.22h-2.483c-.113 0-.113.01-.113-.1v-7.418c0-.112 0-.1.113-.1h2.483c.1 0 .112.01.112.1v7.417c0 .09-.01.1-.112.1zM63.034-61.737l-1.978-.124v5.54c0 .088-.012.1-.113.1h-2.438c-.113 0-.113.01-.113-.1v-5.54l-2.044.123c-.08 0-.08-.012-.08-.08v-1.91c0-.09 0-.11.09-.11h6.663c.08 0 .09.02.09.11v1.91c.002.07-.008.08-.076.08zM70.943-61.737l-1.977-.124v5.54c0 .088-.01.1-.112.1h-2.438c-.113 0-.113.01-.113-.1v-5.54l-2.045.123c-.078 0-.078-.012-.078-.08v-1.91c0-.09 0-.11.09-.11h6.663c.08 0 .09.02.09.11v1.91c0 .07-.012.08-.08.08zM74.966-55.95c-1.53 0-2.574-.663-3.01-1.72-.07-.178-.058-.178.043-.212l1.673-.63c.1-.044.112-.032.135.046.124.416.573.742 1.067.742.53 0 .787-.236.787-.574 0-.37-.313-.505-.977-.584-.08-.01-.203-.022-.28-.034-.855-.066-2.338-.46-2.338-2.28 0-1.753 1.135-2.877 3.27-2.877 1.573 0 2.518.675 2.73 1.65.022.136.034.148-.077.193l-1.586.584c-.09.045-.1.045-.133-.045-.18-.417-.472-.64-1.022-.64-.528 0-.73.224-.73.527 0 .337.29.45 1.124.573.113.023.247.034.404.057 1.26.19 2.282.73 2.282 2.314-.002 1.876-1.498 2.91-3.362 2.91zM84.605-56.22h-4.697c-.11 0-.123-.01-.123-.157v-7.35c0-.09.034-.11.146-.11h4.35c1.55 0 2.495.786 2.495 2.043 0 .82-.474 1.495-1.45 1.742.99.056 1.708.978 1.708 1.853 0 1.24-.956 1.98-2.428 1.98zm-1.337-5.955h-.874v1.214h.874c.507 0 .71-.25.71-.597 0-.36-.204-.618-.71-.618zm.18 3.057h-1.055v1.247h1.056c.526 0 .717-.248.717-.63 0-.383-.224-.618-.718-.618zM91.84-55.94c-2.2 0-3.516-1.348-3.516-3.078v-4.753c0-.068 0-.068.057-.068H91c.077 0 .077 0 .077.09v4.348c0 .764.337 1.078.944 1.078.596 0 .944-.303.944-1.078v-4.36c0-.066 0-.078.08-.078h2.437c.058 0 .058 0 .058.08v4.853c0 1.81-1.27 2.966-3.698 2.966zM104.987-56.22h-2.89c-.1 0-.144-.022-.27-.225-.427-.73-1.146-1.944-1.146-1.944l-.784.045v2.023c0 .09-.012.1-.113.1h-2.37c-.114 0-.114.012-.114-.1v-7.417c0-.11.056-.1.113-.1h4.034c1.92 0 2.797 1.19 2.797 2.573 0 1.034-.394 1.753-1.1 2.045.31.46 1.145 1.65 1.863 2.697.09.124.135.203.135.247.002.047-.053.058-.155.058zm-4.618-5.764h-.473v1.787h.48c.653 0 1.036-.236 1.036-.888 0-.63-.314-.9-1.044-.9zM113.48-56.03c-.045 0-.09-.02-.124-.033l-1.314-.73c-.528.393-1.146.83-2.315.83-2.257 0-4.078-1.527-4.078-4.078 0-2.35 1.74-4.022 4.145-4.022 1.91 0 3.092.955 3.63 2.28.044.125.056.158-.033.204l-2.102.932c-.09.033-.146-.023-.18-.112-.26-.495-.81-.73-1.325-.73-.922 0-1.495.618-1.495 1.483 0 .966.573 1.505 1.54 1.505.65 0 1.102-.292 1.314-.876.032-.08.043-.112.09-.112h2.26c.088 0 .088.01.088.078v3.337s0 .044-.103.044zM122.625-56.22h-2.392c-.1 0-.112-.01-.112-.1v-2.598h-2.066v2.597c0 .088-.012.1-.112.1h-2.393c-.114 0-.114.01-.114-.1v-7.418c0-.112 0-.1.113-.1h2.392c.1 0 .112.01.112.1v2.427h2.067v-2.428c0-.09.013-.1.113-.1h2.392c.113 0 .113-.012.113.1v7.417c0 .11 0 .1-.113.1zM49.215-42.86c-3.443 0-5.82-2.312-5.82-5.74 0-3.22 2.33-5.788 5.87-5.788 2.773 0 4.48 1.58 5.196 3.396.065.19 0 .24-.08.27l-3.107 1.134c-.096.032-.112-.032-.145-.096-.334-.638-.86-1.052-1.88-1.052-1.372 0-2.122.877-2.122 2.152s.86 2.104 2.168 2.104c.957 0 1.5-.462 1.818-1.036.048-.112.064-.144.19-.112l3.11.956c.175.016.19.112.143.208-.796 1.85-2.63 3.604-5.34 3.604zM60.772-42.843c-3.125 0-4.99-1.914-4.99-4.37v-6.744c0-.095 0-.095.08-.095h3.715c.112 0 .112 0 .112.128v6.17c0 1.084.478 1.53 1.338 1.53.845 0 1.34-.43 1.34-1.53v-6.186c0-.095 0-.112.11-.112h3.46c.08 0 .08 0 .08.112v6.888c0 2.566-1.8 4.21-5.246 4.21zM75.44-43.24h-7.462c-.16 0-.16.015-.16-.145v-10.523c0-.16 0-.144.16-.144h3.396c.144 0 .16.016.16.144v7.7h3.89c.144 0 .175.033.175.16v2.663c0 .127-.017.144-.16.144zM84.575-51.07l-2.805-.176v7.86c0 .127-.017.144-.16.144h-3.46c-.16 0-.16.016-.16-.144v-7.86l-2.9.175c-.112 0-.112-.017-.112-.113v-2.71c0-.127 0-.16.127-.16h9.455c.112 0 .128.033.128.16v2.71c0 .097-.017.112-.113.112zM90.95-42.843c-3.124 0-4.99-1.914-4.99-4.37v-6.744c0-.095 0-.095.08-.095h3.716c.11 0 .11 0 .11.128v6.17c0 1.084.48 1.53 1.34 1.53.846 0 1.34-.43 1.34-1.53v-6.186c0-.095 0-.112.11-.112h3.46c.08 0 .08 0 .08.112v6.888c0 2.566-1.8 4.21-5.246 4.21zM109.222-43.24h-4.097c-.144 0-.21-.033-.383-.32-.606-1.038-1.627-2.76-1.627-2.76l-1.117.065v2.87c0 .127-.015.144-.157.144h-3.364c-.16 0-.16.015-.16-.145v-10.523c0-.16.08-.144.16-.144h5.723c2.728 0 3.97 1.69 3.97 3.65 0 1.468-.56 2.488-1.56 2.902.444.654 1.624 2.344 2.645 3.826.127.175.19.287.19.35 0 .066-.08.083-.223.083zm-6.553-8.18h-.672v2.534h.687c.925 0 1.468-.335 1.468-1.26 0-.893-.448-1.275-1.484-1.275zM121.817-43.24h-3.748c-.08 0-.16-.018-.226-.13-.188-.43-.35-.812-.542-1.21h-3.714c-.207.446-.317.78-.51 1.163-.08.144-.097.176-.318.176h-3.27c-.128 0-.158-.065-.064-.224 1.93-3.476 4.082-7.622 5.757-10.73.032-.064.206-.08.383-.08.19 0 .383 0 .412.063 1.85 3.38 3.923 7.237 5.9 10.746.113.223.113.223-.06.223zm-6.09-5.327c-.144-.336-.255-.64-.255-.64s-.113.304-.256.64c-.287.685-.717 1.625-.717 1.625h1.927s-.4-.956-.7-1.625zM130.408-43.24h-7.46c-.16 0-.16.015-.16-.145v-10.523c0-.16 0-.144.16-.144h3.395c.143 0 .16.016.16.144v7.7h3.89c.144 0 .175.033.175.16v2.663c0 .127-.016.144-.16.144zM58.53-36.675l-4.276-.268v11.977c0 .194-.024.22-.243.22h-5.27c-.243 0-.243.023-.243-.22v-11.977l-4.42.268c-.17 0-.17-.024-.17-.17v-4.13c0-.195 0-.243.193-.243h14.407c.17 0 .193.048.193.242v4.13c0 .146-.025.17-.17.17zM77.405-24.747H71.16c-.218 0-.315-.048-.583-.485-.923-1.58-2.478-4.203-2.478-4.203l-1.7.096v4.374c0 .194-.024.22-.243.22h-5.125c-.244 0-.244.023-.244-.22V-41c0-.243.122-.22.244-.22h8.72c4.155 0 6.05 2.576 6.05 5.564 0 2.235-.85 3.79-2.38 4.42.68.998 2.478 3.572 4.032 5.832.195.267.292.437.292.534-.002.098-.123.123-.34.123zM67.42-37.21H66.4v3.864h1.045c1.41 0 2.235-.51 2.235-1.92 0-1.36-.68-1.944-2.26-1.944zM85.422-24.14c-4.762 0-7.604-2.916-7.604-6.656v-10.277c0-.146 0-.146.12-.146H83.6c.17 0 .17 0 .17.195v9.402c0 1.652.73 2.332 2.04 2.332 1.287 0 2.042-.657 2.042-2.333v-9.426c0-.145 0-.17.17-.17h5.272c.12 0 .12 0 .12.17v10.496c0 3.912-2.746 6.414-7.992 6.414zM101.406-24.164c-3.305 0-5.563-1.434-6.51-3.716-.147-.39-.123-.39.097-.462l3.618-1.36c.22-.097.245-.073.292.097.27.9 1.24 1.604 2.31 1.604 1.14 0 1.7-.51 1.7-1.24 0-.802-.68-1.093-2.113-1.263-.172-.025-.44-.048-.608-.073-1.846-.146-5.054-.996-5.054-4.93 0-3.79 2.454-6.22 7.07-6.22 3.4 0 5.442 1.458 5.903 3.57.05.293.072.317-.17.414l-3.426 1.263c-.193.1-.217.1-.29-.096-.39-.898-1.02-1.384-2.21-1.384-1.144 0-1.58.486-1.58 1.142 0 .73.63.972 2.43 1.24.242.047.533.07.874.12 2.72.413 4.93 1.58 4.93 5.004 0 4.055-3.23 6.29-7.262 6.29zM124.193-36.675l-4.276-.268v11.977c0 .194-.024.22-.244.22h-5.27c-.243 0-.243.023-.243-.22v-11.977l-4.42.268c-.172 0-.172-.024-.172-.17v-4.13c0-.195 0-.243.193-.243h14.408c.17 0 .193.048.193.242v4.13c.003.146-.02.17-.167.17z"/></g></svg>