<svg xmlns="http://www.w3.org/2000/svg" width="903.2" height="150" viewBox="-16.2 526.4 903.2 150" enable-background="new -16.2 526.4 903.2 150"><style type="text/css">.st0{fill:none;stroke:#9ADBE0;stroke-width:0.5;}</style><path class="st0" d="M-6 525.9l-20.5 151M14.6 525.9L-6 676.9M35.1 525.9l-20.5 151M55.6 525.9l-20.5 151M76.1 525.9l-20.5 151M96.7 525.9l-20.6 151M117.2 525.9l-20.5 151M137.7 525.9l-20.5 151M158.3 525.9l-20.6 151M178.8 525.9l-20.5 151M199.3 525.9l-20.5 151M219.8 525.9l-20.5 151M240.4 525.9l-20.6 151M260.9 525.9l-20.5 151M281.4 525.9l-20.5 151M301.9 525.9l-20.5 151M322.5 525.9l-20.6 151M343 525.9l-20.5 151M363.5 525.9l-20.5 151M384.1 525.9l-20.6 151M404.6 525.9l-20.5 151M425.1 525.9l-20.5 151M445.6 525.9l-20.5 151M466.2 525.9l-20.6 151M486.7 525.9l-20.5 151M507.2 525.9l-20.5 151M527.8 525.9l-20.6 151M548.3 525.9l-20.5 151M568.8 525.9l-20.5 151M589.3 525.9l-20.5 151M609.9 525.9l-20.6 151M630.4 525.9l-20.5 151M650.9 525.9l-20.5 151M671.4 525.9l-20.5 151M692 525.9l-20.6 151M712.5 525.9l-20.5 151M733 525.9l-20.5 151M753.6 525.9l-20.6 151M774.1 525.9l-20.5 151M794.6 525.9l-20.5 151M815.1 525.9l-20.5 151M835.7 525.9l-20.6 151M856.2 525.9l-20.5 151M876.7 525.9l-20.5 151M897.2 525.9l-20.5 151"/></svg>