<svg xmlns="http://www.w3.org/2000/svg" width="923.99" height="151.135" viewBox="0 0 923.99 151.135"><path fill="none" stroke="#CCEDF0" d="M21.007.067L.497 151.065M41.518.067l-20.51 150.998M62.03.067L41.517 151.065M82.54.067L62.03 151.065M103.05.067L82.54 151.065M123.562.067l-20.51 150.998M144.073.067l-20.51 150.998M164.584.067l-20.51 150.998M185.096.067l-20.512 150.998M205.607.067l-20.51 150.998M226.118.067l-20.51 150.998M246.63.067l-20.512 150.998M267.14.067l-20.51 150.998M287.65.067l-20.51 150.998M308.162.067l-20.51 150.998M328.673.067l-20.51 150.998M349.185.067l-20.512 150.998M369.696.067l-20.51 150.998M390.207.067l-20.51 150.998M410.718.067l-20.51 150.998M431.23.067l-20.512 150.998M451.74.067l-20.51 150.998M472.25.067l-20.51 150.998M492.762.067l-20.51 150.998M513.273.067l-20.51 150.998M533.785.067l-20.512 150.998M554.295.067l-20.51 150.998M574.807.067l-20.512 150.998M595.318.067l-20.51 150.998M615.828.067l-20.51 150.998M636.34.067l-20.512 150.998M656.852.067L636.34 151.065M677.36.067l-20.508 150.998M697.873.067L677.36 151.065M718.385.067l-20.512 150.998M738.896.067l-20.51 150.998M759.406.067l-20.51 150.998M779.918.067l-20.512 150.998M800.43.067l-20.512 150.998M820.94.067l-20.51 150.998M841.45.067l-20.51 150.998M861.963.067L841.45 151.065M882.473.067l-20.51 150.998M902.984.067l-20.51 150.998M923.496.067l-20.512 150.998"/></svg>